<svg width="146" height="70" viewBox="0 0 146 70" fill="none" xmlns="http://www.w3.org/2000/svg">
    <g clip-path="url(#a)">
        <path d="M5.19 34.72h42.768v30.292h-5.909v-2.3H8.191v2.3H5.19V34.72Z" fill="#BEDBFE"/>
        <path d="M2.188 36.59h45.679v2.617H4.806a2.618 2.618 0 0 1-2.619-2.617Z" fill="#1E3FAE"/>
        <path d="M8.19 64.264h33.953v-4.3L8.19 58.748v5.516Z" fill="#3B82F6"/>
        <path d="M8.19 41.077h33.953v19.54L8.19 59.03V41.076Z" fill="#312E7F"/>
        <path fill="#2463EB" d="M8.19 41.077h33.953l-1.921 2.3H6.27z"/>
        <path fill="#1D4FD7" d="M8.19 41.077h33.953l-.84 1.006H7.35z"/>
        <path fill="#1E3FAE" d="M37.352 41.077h.625l-1.92 2.3h-.626zM39.852 41.077h.625l-1.921 2.3h-.625zM34.853 41.077h.625l-1.921 2.3h-.625zM32.353 41.077h.625l-1.92 2.3h-.626zM29.854 41.077h.625l-1.921 2.3h-.625zM27.354 41.077h.625l-1.92 2.3h-.626zM24.855 41.077h.625l-1.921 2.3h-.625zM22.355 41.077h.625l-1.92 2.3h-.626zM19.855 41.077h.625l-1.92 2.3h-.625zM17.356 41.077h.625l-1.921 2.3h-.625zM14.856 41.077h.625l-1.92 2.3h-.626zM12.357 41.077h.625l-1.921 2.3h-.625zM9.857 41.077h.625l-1.92 2.3h-.626z"/>
        <path d="M25.06 4.24h43.72L45.8 36.59H.5L25.06 4.24Z" fill="#1D4FD7"/>
        <mask id="b" style="mask-type:alpha" maskUnits="userSpaceOnUse" x="0" y="4" width="69" height="33">
            <path d="M25.06 4.24h43.72L45.8 36.59H.5L25.06 4.24Z" fill="#312E7F"/>
        </mask>
        <g mask="url(#b)" fill="#1E3FAE">
            <path d="M-1 9.136v-.524h71.28v.525zM-1 6.863v-.525h71.28v.525zM-1 11.41v-.525h71.28v.525zM-1.001 13.683v-.525h71.28v.525zM-1 15.956v-.525h71.28v.525zM-1 18.23v-.526h71.28v.525zM-1 20.502v-.525h71.28v.525zM-1.001 22.776v-.525H70.28v.525zM-1 25.049v-.525h71.28v.525zM-1 27.322v-.525h71.28v.525zM-1 29.595v-.525h71.28v.525zM-1 31.869v-.525h71.28v.525zM-1 34.142v-.525h71.28v.525z"/>
        </g>
        <path d="M31.076 10.972h15.757l-8.63 11.593H22.448l8.629-11.593Z" fill="#3B82F6"/>
        <path d="M31.734 12.094H44.58l-7.035 9.536H24.698l7.036-9.536Z" fill="#BEDBFE"/>
        <path d="M31.826 12.094h12.755l-5.307 7.105-7.448-7.106Z" fill="#61A6FA"/>
        <rect width=".545" height="1.856" rx=".273" transform="matrix(-1 0 0 1 8.924 48.582)" fill="#334155"/>
        <path fill-rule="evenodd" clip-rule="evenodd" d="M11.197 50.438c.636.341 1.318.78 1.318 1.611v9.425c0 1.025.773 1.855 1.727 1.855h.318c.954 0 1.727-.83 1.727-1.855v-3.827c0-.557.338-1.05.834-1.214l.155-.05-.16-.561-.155.051c-.725.24-1.22.96-1.22 1.774v3.827c0 .7-.528 1.27-1.181 1.27h-.318c-.653 0-1.182-.57-1.182-1.27v-9.425c0-1.172-1-1.807-1.59-2.1l-.274.489Z" fill="#F0F6FF"/>
        <mask id="c" style="mask-type:alpha" maskUnits="userSpaceOnUse" x="8" y="48" width="4" height="3">
            <path fill-rule="evenodd" clip-rule="evenodd" d="M8.565 49.133c.002-.102.076-.184.166-.184l1.203.004c.05 0 .099.015.142.042l1.468.929-.295.577-1.134-.717a.195.195 0 0 0-.223.008l-.289.216a.16.16 0 0 1-.095.031l-.791-.003c-.09 0-.161-.082-.16-.184l.008-.719Z" fill="#fff"/>
        </mask>
        <g mask="url(#c)" fill-rule="evenodd" clip-rule="evenodd">
            <path d="m8.568 48.948 1.366.005c.05 0 .099.015.142.042l1.468.929-.295.577-1.134-.717a.195.195 0 0 0-.223.008l-.289.216a.16.16 0 0 1-.095.031l-.953-.003.013-1.088Z" fill="#fff"/>
            <path d="m8.513 49.545 1.274.03c.169.004.3.081.413.146.362.213 1.16.643 1.16.643l-.1.174s-.782-.483-1.196-.725c-.178-.063-.27.093-.316.132-.086.23-1.226.064-1.226.064l-.01-.464Z" fill="#CBD5E1"/>
        </g>
        <mask id="d" style="mask-type:alpha" maskUnits="userSpaceOnUse" x="17" y="55" width="4" height="2">
            <path fill-rule="evenodd" clip-rule="evenodd" d="M20.187 55.835c.024-.098-.028-.199-.115-.223l-1.163-.33a.262.262 0 0 0-.147 0l-1.642.49.146.639 1.268-.378a.199.199 0 0 1 .213.07l.227.289a.167.167 0 0 0 .085.057l.765.217c.086.025.175-.035.198-.133l.165-.698Z" fill="#fff"/>
        </mask>
        <g mask="url(#d)" fill-rule="evenodd" clip-rule="evenodd">
            <path d="m20.23 55.656-1.32-.375a.262.262 0 0 0-.148.002l-1.642.488.146.64 1.268-.378a.199.199 0 0 1 .213.07l.227.289a.167.167 0 0 0 .085.057l.921.261.25-1.054Z" fill="#fff"/>
            <path d="m20.138 56.249-1.237-.328c-.164-.043-.31-.005-.434.026-.4.106-1.275.299-1.275.299l.055.197s.871-.25 1.33-.368c.186-.012.237.166.272.216.028.248 1.169.406 1.169.406l.12-.448Z" fill="#CBD5E1"/>
        </g>
        <path d="M8.754 48.954c0-.369.298-.667.666-.667v5.983a.667.667 0 0 1-.666-.667v-4.65Z" fill="#1E3FAE"/>
        <path d="M11.922 49.498c0-1.036-.84-1.876-1.876-1.876a.625.625 0 0 0-.625.625v6.063c0 .346.28.625.625.625 1.036 0 1.876-.84 1.876-1.875v-3.562Z" fill="#BEDBFE"/>
        <rect x="15.039" y="64.855" width="23.202" height="1.389" rx=".695" fill="#000" fill-opacity=".05"/>
        <path d="M16.298 60.158a.53.53 0 0 1 .53-.53h1.99a.53.53 0 0 1 .53.53v5.093a.53.53 0 0 1-.53.53h-1.99a.53.53 0 0 1-.53-.53v-5.093ZM34.065 60.158a.53.53 0 0 1 .53-.53h1.989a.53.53 0 0 1 .53.53v5.093a.53.53 0 0 1-.53.53h-1.99a.53.53 0 0 1-.53-.53v-5.093Z" fill="#1E3B8A"/>
        <path d="M16.796 54.271a9.424 9.424 0 0 1 8.652-5.689h2.609a9.284 9.284 0 0 1 8.56 5.689H16.796Z" fill="#E0E8FF"/>
        <path d="M18.837 49.542c.252-.582.826-.96 1.461-.96h12.87c.642 0 1.22.384 1.468.974l1.98 4.715h-19.82l2.041-4.73Z" fill="#DCEBFE"/>
        <path d="M17.601 53.808a.97.97 0 0 0-.762.374l-.633.957a2.642 2.642 0 0 0-.438 1.456v5.084a1.59 1.59 0 0 0 1.591 1.588h18.694a1.59 1.59 0 0 0 1.591-1.588v-5.084c0-.517-.152-1.024-.438-1.456l-.632-.957a.97.97 0 0 0-.763-.374h-18.21Z" fill="#91C3FD"/>
        <path d="M15.768 59.894a1.06 1.06 0 0 1 1.06-1.059h19.756c.585 0 1.06.474 1.06 1.059v1.918c0 .803-.653 1.455-1.458 1.455h-18.96a1.457 1.457 0 0 1-1.458-1.455v-1.918Z" fill="#3B82F6"/>
        <path d="M16.564 56.818c0-.53.43-.96.961-.96h2.386a.96.96 0 0 1 .961.96c0 .53-.43.959-.961.959h-2.386a.96.96 0 0 1-.961-.96Z" fill="#fff"/>
        <path d="M17.16 61.183c0-.712.579-1.29 1.293-1.29h16.506c.714 0 1.293.578 1.293 1.29 0 .713-.579 1.29-1.293 1.29H18.453a1.291 1.291 0 0 1-1.293-1.29Z" fill="#2463EB"/>
        <path d="M17.558 61.183a.894.894 0 1 1 1.788.002.894.894 0 0 1-1.788-.002ZM34.065 61.183a.894.894 0 1 1 1.788.002.894.894 0 0 1-1.788-.002Z" fill="#fff"/>
        <path d="M34.461 49.244H19.006c.295-.41.773-.662 1.293-.662h12.87c.52 0 .998.252 1.292.662ZM19.006 49.244a1.583 1.583 0 0 0-.169.298l-.335.776 17.865 3.358-1.73-4.12a1.584 1.584 0 0 0-.176-.312H19.006Z" fill="#91C3FD"/>
        <path d="M32.54 56.818c0-.53.43-.96.962-.96h2.385a.96.96 0 0 1 .962.96c0 .53-.43.959-.962.959h-2.385a.96.96 0 0 1-.962-.96Z" fill="#fff"/>
        <path fill="#DCEBFE" d="M44.581 35.093h93.79v30.293h-93.79z"/>
        <path d="M44.581 35.093h93.791V57.44l-93.79-18.138v-4.208Z" fill="#BEDBFE"/>
        <path fill="#3B82F6" d="M111.36 44.069h27.012v14.585H111.36z"/>
        <path fill="#BEDBFE" d="M111.923 44.817h26.449v13.837h-26.449z"/>
        <path d="M111.923 44.817h26.449v10.472l-26.449-10.472Z" fill="#61A6FA"/>
        <path d="M61.825.5h56.421L145.5 35.093H37.266L61.826.5Z" fill="#2463EB"/>
        <mask id="e" style="mask-type:alpha" maskUnits="userSpaceOnUse" x="37" y="0" width="109" height="36">
            <path d="M61.825.5h56.421L145.5 35.093H37.266L61.826.5Z" fill="#372FA2"/>
        </mask>
        <g mask="url(#e)" fill="#1E3FAE">
            <path d="M38.58 5.736v-.561h105.607v.56zM38.58 3.305v-.561h105.607v.56zM38.58 8.167v-.561h105.607v.56zM38.58 10.597v-.56h105.608v.56zM38.579 13.028v-.56h105.608v.56zM38.579 15.46v-.562h105.608v.561zM38.579 17.89v-.56h105.608v.56zM38.579 20.321v-.56h105.608v.56zM38.579 22.752v-.56h105.608v.56zM38.579 25.183v-.561h105.608v.561zM38.58 27.614v-.561h105.607v.56zM38.58 30.045v-.561h105.607v.56zM38.58 32.476v-.561h105.607v.56z"/>
        </g>
        <path d="m78.221 15.662 13.13-8.987 13.132 8.987v12.33H78.221v-12.33Z" fill="#DCEBFE"/>
        <path d="m78.221 15.662 13.13-8.987 13.132 8.987v7.468l-26.262-6.357v-1.11Z" fill="#BEDBFE"/>
        <path fill="#3B82F6" d="M83.474 15.651h15.757v12.341H83.474z"/>
        <path fill="#BEDBFE" d="M84.036 16.212H99.23v11.78H84.036z"/>
        <path d="M84.036 16.212H99.23v9.443l-15.194-8.04v-1.403Z" fill="#61A6FA"/>
        <path fill-rule="evenodd" clip-rule="evenodd" d="m91.352 2.744 18.446 12.258-2.602 3.89-15.844-10.53-15.845 10.53-2.6-3.89L91.351 2.744Z" fill="#3B82F6"/>
        <path fill-rule="evenodd" clip-rule="evenodd" d="m91.352 7.05 16.507 10.845-.666.953L91.352 8.416 75.407 18.848l-.468-.953L91.352 7.049Z" fill="#1D4FD7"/>
        <path fill="#DCEBFE" d="M77.971 34.907h27.012v30.48H77.971z"/>
        <path d="M77.97 38.46h8.442a.75.75 0 0 1 .75.747v5.236a.75.75 0 0 1-.75.748h-8.441V38.46ZM87.913 39.581c0-.62.504-1.122 1.125-1.122h3.377c.621 0 1.125.503 1.125 1.122v2.391c0 .457-.278.868-.702 1.04l-3.377 1.366c-.74.299-1.548-.244-1.548-1.04v-3.757ZM93.54 48.57c0 .345-.16.672-.434.885l-.95.736c-.197.153-.44.236-.69.236h-4.304a1.124 1.124 0 0 1-1.125-1.122v-1.929c0-.448.267-.853.68-1.03l5.252-2.256c.743-.32 1.571.223 1.571 1.03v3.45ZM94.29 39.207a.75.75 0 0 1 .75-.748h2.627a.75.75 0 0 1 .75.748v2.805a.75.75 0 0 1-.75.748h-2.626a.75.75 0 0 1-.75-.748v-2.805ZM100.293 61.833a.75.75 0 0 1 .75-.748h3.94v3.834h-3.94a.75.75 0 0 1-.75-.748v-2.338ZM78.346 47.06c0-.619.504-1.121 1.126-1.121h4.69c.62 0 1.125.502 1.125 1.122v3.927c0 .62-.504 1.122-1.126 1.122h-4.69a1.124 1.124 0 0 1-1.125-1.122V47.06ZM102.919 43.882c0-.31.252-.56.563-.56h1.501v5.048h-1.501a.562.562 0 0 1-.563-.561v-3.927ZM99.168 39.207a.75.75 0 0 1 .75-.748h5.065v4.301h-5.065a.75.75 0 0 1-.75-.748v-2.805ZM77.97 62.394h6.566c.311 0 .563.251.563.561v1.31c0 .309-.252.56-.563.56h-6.565v-2.43ZM85.474 63.33c0-.517.42-.936.938-.936h3.752c.518 0 .938.419.938.935v.561c0 .517-.42.935-.938.935h-3.752a.936.936 0 0 1-.938-.935v-.56ZM94.29 44.256c0-.516.42-.935.938-.935h6.003c.518 0 .938.419.938.935v3.553c0 .516-.42.935-.938.935h-6.003a.936.936 0 0 1-.938-.935v-3.553ZM104.983 55.102H98.98a.936.936 0 0 0-.938.934V58.7c0 .32.165.62.437.79l.794.5c.36.227.777.347 1.202.347h4.508v-5.235ZM97.48 53.606a.75.75 0 0 0-.751-.748h-4.127a.75.75 0 0 0-.75.748v3.016c0 .305.185.579.468.693l4.127 1.67a.75.75 0 0 0 1.032-.693v-4.686ZM91.852 63.703c0 .62.504 1.122 1.125 1.122h5.815a.75.75 0 0 0 .75-.748v-2.263a.748.748 0 0 0-.459-.69l-6.45-2.703a.563.563 0 0 0-.781.517v4.765ZM91.102 52.297c0-.62-.504-1.122-1.126-1.122h-2.814c-.621 0-1.125.502-1.125 1.122v3.74c0 .62.504 1.121 1.125 1.121h2.814c.622 0 1.126-.502 1.126-1.121v-3.74ZM82.473 58.841c0-.62-.504-1.122-1.126-1.122h-1.875c-.622 0-1.126.503-1.126 1.122v1.87c0 .62.504 1.122 1.126 1.122h1.875c.622 0 1.126-.502 1.126-1.122v-1.87ZM85.287 53.7a.655.655 0 0 0-.657-.655h-3.564a.656.656 0 1 0 0 1.309h3.564a.655.655 0 0 0 .657-.655ZM98.042 53.793a.75.75 0 0 1 .75-.748h3.002a.75.75 0 1 1 0 1.496h-3.002a.75.75 0 0 1-.75-.748ZM82.848 56.036a.936.936 0 0 0-.938-.934h-3.94v1.87h3.94a.936.936 0 0 0 .938-.936ZM80.034 53.7a.655.655 0 0 0-.656-.655H77.97v1.309h1.407a.655.655 0 0 0 .656-.655ZM85.474 55.85a.75.75 0 0 0-.75-.748h-.75a.75.75 0 0 0-.75.748v.56a.75.75 0 0 0 .75.749h.75a.75.75 0 0 0 .75-.748v-.561ZM102.919 53.886c0-.465.378-.841.844-.841h1.22v1.683h-1.22a.843.843 0 0 1-.844-.842ZM97.855 50.053a.75.75 0 0 0-.75-.748h-2.28c-.226 0-.447.068-.633.194l-1.812 1.228a.56.56 0 0 0-.247.464v.545c0 .31.252.56.563.56h4.408a.75.75 0 0 0 .75-.747v-1.496ZM91.102 58.841c0-.62-.504-1.122-1.126-1.122H84.35c-.622 0-1.126.503-1.126 1.122v1.87c0 .62.504 1.122 1.126 1.122h5.627c.622 0 1.126-.502 1.126-1.122v-1.87ZM98.417 50.053a.75.75 0 0 1 .75-.748h5.816v2.992h-5.815a.75.75 0 0 1-.75-.748v-1.496Z" fill="#61A6FA"/>
        <path d="M77.97 37.337h27.013v12.716L77.971 44.82v-7.483Z" fill="#BEDBFE"/>
        <mask id="f" style="mask-type:alpha" maskUnits="userSpaceOnUse" x="77" y="38" width="28" height="27">
            <path d="M77.97 38.46h8.442a.75.75 0 0 1 .75.747v5.236a.75.75 0 0 1-.75.748h-8.441V38.46ZM87.913 39.581c0-.62.504-1.122 1.125-1.122h3.377c.621 0 1.125.503 1.125 1.122v2.391c0 .457-.278.868-.702 1.04l-3.377 1.366c-.74.299-1.548-.244-1.548-1.04v-3.757ZM93.54 48.57c0 .345-.16.672-.434.885l-.95.736c-.197.153-.44.236-.69.236h-4.304a1.124 1.124 0 0 1-1.125-1.122v-1.929c0-.448.267-.853.68-1.03l5.252-2.256c.743-.32 1.571.223 1.571 1.03v3.45ZM94.29 39.207a.75.75 0 0 1 .75-.748h2.627a.75.75 0 0 1 .75.748v2.805a.75.75 0 0 1-.75.748h-2.626a.75.75 0 0 1-.75-.748v-2.805ZM100.293 61.833a.75.75 0 0 1 .75-.748h3.94v3.834h-3.94a.75.75 0 0 1-.75-.748v-2.338ZM78.346 47.06c0-.619.504-1.121 1.126-1.121h4.69c.62 0 1.125.502 1.125 1.122v3.927c0 .62-.504 1.122-1.126 1.122h-4.69a1.124 1.124 0 0 1-1.125-1.122V47.06ZM102.919 43.882c0-.31.252-.56.563-.56h1.501v5.048h-1.501a.562.562 0 0 1-.563-.561v-3.927ZM99.168 39.207a.75.75 0 0 1 .75-.748h5.065v4.301h-5.065a.75.75 0 0 1-.75-.748v-2.805ZM77.97 62.394h6.566c.311 0 .563.251.563.561v1.31c0 .309-.252.56-.563.56h-6.565v-2.43ZM85.474 63.33c0-.517.42-.936.938-.936h3.752c.518 0 .938.419.938.935v.561c0 .517-.42.935-.938.935h-3.752a.936.936 0 0 1-.938-.935v-.56ZM94.29 44.256c0-.516.42-.935.938-.935h6.003c.518 0 .938.419.938.935v3.553c0 .516-.42.935-.938.935h-6.003a.936.936 0 0 1-.938-.935v-3.553ZM104.981 55.097h-6a.936.936 0 0 0-.939.935v2.664c0 .32.165.619.437.79l.795.5c.36.227.776.347 1.202.347h4.505v-5.236ZM97.48 53.606a.75.75 0 0 0-.751-.748h-4.127a.75.75 0 0 0-.75.748v3.016c0 .305.185.579.468.693l4.127 1.67a.75.75 0 0 0 1.032-.693v-4.686ZM91.852 63.703c0 .62.504 1.122 1.125 1.122h5.815a.75.75 0 0 0 .75-.748v-2.263a.748.748 0 0 0-.459-.69l-6.45-2.703a.563.563 0 0 0-.781.517v4.765ZM91.102 52.297c0-.62-.504-1.122-1.126-1.122h-2.814c-.621 0-1.125.502-1.125 1.122v3.74c0 .62.504 1.121 1.125 1.121h2.814c.622 0 1.126-.502 1.126-1.121v-3.74ZM82.473 58.841c0-.62-.504-1.122-1.126-1.122h-1.875c-.622 0-1.126.503-1.126 1.122v1.87c0 .62.504 1.122 1.126 1.122h1.875c.622 0 1.126-.502 1.126-1.122v-1.87ZM85.287 53.7a.655.655 0 0 0-.657-.655h-3.564a.656.656 0 1 0 0 1.309h3.564a.655.655 0 0 0 .657-.655ZM98.042 53.793a.75.75 0 0 1 .75-.748h3.002a.75.75 0 1 1 0 1.496h-3.002a.75.75 0 0 1-.75-.748ZM82.848 56.036a.936.936 0 0 0-.938-.934h-3.94v1.87h3.94a.936.936 0 0 0 .938-.936ZM80.034 53.7a.655.655 0 0 0-.656-.655H77.97v1.309h1.407a.655.655 0 0 0 .656-.655ZM85.474 55.85a.75.75 0 0 0-.75-.748h-.75a.75.75 0 0 0-.75.748v.56a.75.75 0 0 0 .75.749h.75a.75.75 0 0 0 .75-.748v-.561ZM102.919 53.886c0-.465.378-.841.844-.841h1.22v1.683h-1.22a.843.843 0 0 1-.844-.842ZM97.855 50.053a.75.75 0 0 0-.75-.748h-2.28c-.226 0-.447.068-.633.194l-1.812 1.228a.56.56 0 0 0-.247.464v.545c0 .31.252.56.563.56h4.408a.75.75 0 0 0 .75-.747v-1.496ZM91.102 58.841c0-.62-.504-1.122-1.126-1.122H84.35c-.622 0-1.126.503-1.126 1.122v1.87c0 .62.504 1.122 1.126 1.122h5.627c.622 0 1.126-.502 1.126-1.122v-1.87ZM98.417 50.053a.75.75 0 0 1 .75-.748h5.816v2.992h-5.815a.75.75 0 0 1-.75-.748v-1.496Z" fill="#BF83FC"/>
        </mask>
        <g mask="url(#f)">
            <path d="M77.97 37.337h27.013v12.716L77.971 44.82v-7.483Z" fill="#3B82F6"/>
        </g>
        <path d="M41.58 35.093h99.793a2.805 2.805 0 0 1-2.805 2.805H44.385a2.805 2.805 0 0 1-2.805-2.805Z" fill="#1D4FD7"/>
        <path d="M41.58 35.093h99.793v1.496H41.58v-1.495Z" fill="#1E3FAE"/>
        <path fill="#1D4FD7" d="M51.522 42.947h23.072v22.439H51.522z"/>
        <path fill="#91C3FD" d="M56.774 45.939h12.755v19.447H56.774z"/>
        <path fill="#BEDBFE" d="M59.025 47.435h3.001v17.951h-3.001z"/>
        <path d="M59.025 47.435h3.002v5.423l-3.002-3.46v-1.963Z" fill="#61A6FA"/>
        <path d="M53.398 48.557a.75.75 0 0 1 .75-.748.75.75 0 0 1 .75.748v5.236a.75.75 0 0 1-1.5 0v-5.236ZM71.406 48.557a.75.75 0 0 1 .75-.748.75.75 0 0 1 .75.748v5.236a.75.75 0 0 1-1.5 0v-5.236Z" fill="#DCEBFE"/>
    </g>
    <defs>
        <clipPath id="a">
            <path fill="#fff" transform="translate(.5 .5)" d="M0 0h145v69H0z"/>
        </clipPath>
    </defs>
</svg>
