<svg width="20" height="20" viewBox="0 0 20 20" xmlns="http://www.w3.org/2000/svg">
    <path d="M5.462 0H2.735A2.74 2.74 0 0 0 .143 1.863c-.121.36-.166.741-.132 1.12a18.976 18.976 0 0 0 2.943 8.321 18.69 18.69 0 0 0 5.749 5.747 18.954 18.954 0 0 0 8.262 2.937 2.737 2.737 0 0 0 2.999-2.735v-2.732a2.736 2.736 0 0 0-2.354-2.755 10.826 10.826 0 0 1-2.371-.59 2.733 2.733 0 0 0-1.531-.114l-.19.048a2.736 2.736 0 0 0-1.164.683l-.656.656-.11-.068a13.683 13.683 0 0 1-4.004-4.005l-.07-.11.654-.653a2.74 2.74 0 0 0 .62-2.89 10.794 10.794 0 0 1-.589-2.361A2.742 2.742 0 0 0 5.462 0ZM2.736 1.824H5.47a.912.912 0 0 1 .921.784c.123.936.354 1.863.687 2.755a.914.914 0 0 1-.204.964L5.72 7.482a.912.912 0 0 0-.148 1.096 15.507 15.507 0 0 0 5.814 5.814.912.912 0 0 0 1.096-.148l1.159-1.158a.908.908 0 0 1 .958-.202c.894.334 1.821.565 2.765.69a.912.912 0 0 1 .776.925v2.758a.916.916 0 0 1-.62.871.913.913 0 0 1-.374.045 17.124 17.124 0 0 1-7.457-2.657 16.885 16.885 0 0 1-5.2-5.197 17.147 17.147 0 0 1-2.662-7.515.9.9 0 0 1 .236-.683.912.912 0 0 1 .673-.297Z" fill="#8A8684" fill-rule="nonzero"/>
</svg>
