<svg width="20" height="20" viewBox="0 0 20 20" xmlns="http://www.w3.org/2000/svg">
    <g fill="#8A8684" fill-rule="nonzero">
        <path d="M17.273 2H2.727A2.733 2.733 0 0 0 0 4.727v10.91a2.733 2.733 0 0 0 2.727 2.727h14.546A2.733 2.733 0 0 0 20 15.636V4.727A2.733 2.733 0 0 0 17.273 2ZM2.727 3.818h14.546c.498 0 .909.411.909.91v10.908c0 .498-.411.91-.91.91H2.728a.914.914 0 0 1-.909-.91V4.727c0-.498.411-.909.91-.909Z"/>
        <path d="M18.57 3.983A.91.91 0 0 1 19.702 5.4l-.09.071-9.09 6.364a.91.91 0 0 1-.935.065l-.108-.065L.388 5.472a.91.91 0 0 1 .945-1.55l.097.06L10 9.982l8.57-5.998Z"/>
    </g>
</svg>
