<svg width="39" height="39" viewBox="0 0 39 39" fill="none" xmlns="http://www.w3.org/2000/svg">
    <path d="M5.625 17.625a2.648 2.648 0 0 1 0 3.75 2.648 2.648 0 0 1-3.75 0 2.648 2.648 0 0 1 0-3.75 2.648 2.648 0 0 1 3.75 0ZM33.375 21.375a2.648 2.648 0 0 1 0-3.75 2.648 2.648 0 0 1 3.75 0 2.648 2.648 0 0 1 0 3.75 2.648 2.648 0 0 1-3.75 0ZM21.375 5.625a2.648 2.648 0 0 1-3.75 0 2.648 2.648 0 0 1 0-3.75 2.648 2.648 0 0 1 3.75 0 2.648 2.648 0 0 1 0 3.75ZM17.625 33.375a2.648 2.648 0 0 1 3.75 0 2.648 2.648 0 0 1 0 3.75 2.648 2.648 0 0 1-3.75 0 2.654 2.654 0 0 1 0-3.75Z" fill="#F2C488"/>
</svg>
