<svg width="24" height="24" viewBox="0 0 24 24" fill="none" xmlns="http://www.w3.org/2000/svg">
    <path fill-rule="evenodd" clip-rule="evenodd" d="M2.447 5.42C3.797 4.523 5.58 4 7.5 4c1.668 0 3.233.395 4.5 1.087C13.267 4.395 14.832 4 16.5 4c1.92 0 3.703.523 5.053 1.42a1 1 0 0 1 .447.833v13a1 1 0 0 1-1.553.833C19.46 19.43 18.073 19 16.5 19c-1.572 0-2.961.431-3.947 1.086a1 1 0 0 1-1.106 0C10.46 19.43 9.072 19 7.5 19s-2.961.431-3.947 1.086A1 1 0 0 1 2 19.253v-13a1 1 0 0 1 .447-.833ZM11 6.82C10.06 6.316 8.848 6 7.5 6c-1.348 0-2.56.317-3.5.82v10.806A9.824 9.824 0 0 1 7.5 17c1.252 0 2.446.223 3.5.626V6.82Zm2 10.806A9.824 9.824 0 0 1 16.5 17a9.82 9.82 0 0 1 3.5.626V6.819C19.06 6.317 17.849 6 16.5 6c-1.348 0-2.56.317-3.5.82v10.806Z" fill="#0F1729"/>
</svg>
