<svg width="20" height="20" viewBox="0 0 20 20" fill="none" xmlns="http://www.w3.org/2000/svg">
    <path d="M2.223 3.366C2 3.804 2 4.375 2 5.516v4.52h3.173c1.965 0 2.13.994 2.13 1.927v1.946c-.027.228.006.46.095.672.116.152.466.237.985.237.665 0 .86-.1.97-.206.112-.107.112-.32.112-.66v-3.637c-1.534-.282-2.13-1.802-2.13-3.17V6.16h1.062V4.223h1.044V6.16h1.087V4.223h1.044V6.16l1.08-.01v.985c0 1.368-.592 2.889-2.131 3.17v3.644c0 .435 0 .98-.417 1.397-.35.35-.892.514-1.71.514-.906 0-1.484-.211-1.82-.659-.303-.407-.303-.897-.303-1.292v-1.947c0-.66 0-.883-1.084-.883H2v3.434c0 1.14 0 1.711.223 2.147.196.384.508.697.892.893.436.222 1.006.222 2.15.222h9.47c1.144 0 1.714 0 2.15-.222.384-.196.696-.509.892-.893.223-.436.223-1.006.223-2.147V5.516c0-1.141 0-1.712-.223-2.15a2.052 2.052 0 0 0-.892-.89c-.436-.223-1.006-.223-2.15-.223h-9.47c-1.144 0-1.714 0-2.15.223a2.053 2.053 0 0 0-.892.89Z" fill="#000"/>
</svg>
