<svg width="73" height="73" viewBox="0 0 73 73" fill="none" xmlns="http://www.w3.org/2000/svg">
    <path fill-rule="evenodd" clip-rule="evenodd" d="M64.062 0H8.938C3.032 0 0 3.032 0 8.939v32.03h26.906c1.683 0 3.612 2.325 3.612 3.635l-.066 15.822c.55.566 1.862.938 2.413.938.745 0 1.587-.193 2.146-.565V35.554c-5.617-1.193-8.939-7.292-8.939-16.93h2.979v-7.079c0-.618.5-1.117 1.118-1.117h2.234c.617 0 1.118.5 1.118 1.117v7.079h7.448v-7.079c0-.618.5-1.117 1.12-1.117h2.232c.62 0 1.118.5 1.118 1.117v7.079h2.347c0 9.213-3.114 15.187-8.306 16.744v25.624c0 3.674-3.449 4.873-6.705 4.812-3.888-.066-6.703-1.087-6.703-4.722v-15.77L0 45.386v18.676C0 69.97 3.032 73 8.938 73h55.124C69.968 73 73 69.97 73 64.061V8.94C73 3.032 69.968 0 64.062 0Z" fill="#3B82F6"/>
    <path d="M26.957 41.02H0v4.414l26.122-.073v15.761c0 3.633 2.82 4.653 6.716 4.72 3.262.06 6.717-1.138 6.717-4.81v-25.61c5.202-1.556 8.322-7.527 8.322-16.734h-2.351v-7.075c0-.617-.5-1.116-1.12-1.116h-2.237c-.622 0-1.122.499-1.122 1.116v7.075h-7.462v-7.075c0-.617-.502-1.116-1.12-1.116h-2.239c-.618 0-1.12.499-1.12 1.116v7.075h-2.984c0 9.632 3.328 15.728 8.956 16.92v25.23c-.56.373-1.404.566-2.15.566-.552 0-1.867-.372-2.418-.938l.066-15.813c0-1.31-1.932-3.633-3.62-3.633Z" fill="#fff"/>
</svg>
