<svg width="235" height="56" viewBox="0 0 235 56" fill="none" xmlns="http://www.w3.org/2000/svg">
    <path d="M67.894 54.396h8.735c2.318 0 4.126-.556 5.424-1.669 1.317-1.131 1.975-2.689 1.975-4.673a6.5 6.5 0 0 0-.556-2.67c-.37-.835-1.02-1.549-1.947-2.142.575-.52.992-1.094 1.252-1.725.278-.63.417-1.298.417-2.003 0-1.817-.584-3.245-1.753-4.284-1.168-1.038-2.772-1.557-4.812-1.557h-8.735v20.723Zm3.784-12.684v-4.813h5.146c.779 0 1.4.214 1.864.64.463.427.695 1.002.695 1.725 0 .723-.232 1.316-.695 1.78-.464.445-1.085.668-1.864.668h-5.146Zm0 9.346v-6.036h5.34c.983 0 1.762.278 2.337.834.594.538.89 1.27.89 2.198 0 .909-.296 1.641-.89 2.197-.575.538-1.354.807-2.337.807h-5.34ZM91.8 54.73c.946 0 1.78-.176 2.504-.528a4.206 4.206 0 0 0 1.753-1.614v1.808h3.449V39.264h-3.644v8.873c0 1.002-.287 1.8-.862 2.393-.575.575-1.308.862-2.198.862-.909 0-1.65-.287-2.225-.862-.557-.575-.835-1.345-.835-2.31v-8.956h-3.644v9.263c0 1.854.5 3.356 1.502 4.506 1.02 1.131 2.42 1.697 4.2 1.697ZM108.234 54.73c1.15 0 2.151-.195 3.004-.584.853-.39 1.521-.927 2.003-1.614.482-.704.723-1.51.723-2.42 0-1.057-.333-1.965-1.001-2.726-.668-.76-1.632-1.316-2.893-1.669l-2.42-.723c-.519-.148-.946-.343-1.28-.584-.333-.241-.5-.575-.5-1.001 0-.445.176-.807.528-1.085.353-.279.835-.418 1.447-.418.76 0 1.446.204 2.058.612a3.159 3.159 0 0 1 1.308 1.642l2.781-1.308a5.65 5.65 0 0 0-2.336-2.865c-1.094-.705-2.356-1.057-3.783-1.057-1.095 0-2.068.195-2.921.584-.835.39-1.493.937-1.975 1.641-.464.687-.696 1.493-.696 2.42 0 1.039.325 1.938.974 2.699.668.76 1.641 1.326 2.921 1.697l2.475.695c.483.13.891.325 1.224.584.353.241.529.575.529 1.002 0 .5-.204.899-.612 1.196-.39.278-.909.417-1.558.417a3.924 3.924 0 0 1-2.309-.723c-.686-.483-1.233-1.15-1.641-2.003l-2.726 1.307c.445 1.298 1.261 2.337 2.448 3.116 1.205.779 2.615 1.168 4.228 1.168ZM116.348 37.567h3.644v-3.894h-3.644v3.894Zm0 16.83h3.644V39.263h-3.644v15.132ZM122.939 54.396h3.644v-8.873c0-.983.278-1.771.834-2.365.575-.593 1.317-.89 2.226-.89s1.641.297 2.197.89c.575.575.863 1.363.863 2.365v8.873h3.644V44.66c0-1.13-.241-2.123-.724-2.976a5.095 5.095 0 0 0-2.03-2.03c-.853-.483-1.836-.724-2.949-.724-.946 0-1.799.185-2.559.556a3.983 3.983 0 0 0-1.725 1.642v-1.864h-3.421v15.132ZM146.188 54.73c1.539 0 2.883-.343 4.033-1.03 1.168-.704 1.984-1.594 2.448-2.67l-2.949-1.446a4.064 4.064 0 0 1-1.39 1.419c-.575.352-1.28.528-2.115.528-1.094 0-2.012-.334-2.753-1.001-.742-.668-1.169-1.558-1.28-2.67h10.904c.074-.205.121-.437.139-.696.037-.278.056-.556.056-.835 0-1.353-.287-2.587-.862-3.7a6.669 6.669 0 0 0-2.504-2.67c-1.094-.686-2.429-1.029-4.006-1.029-1.409 0-2.689.343-3.838 1.03a7.552 7.552 0 0 0-2.699 2.809c-.649 1.168-.973 2.513-.973 4.033 0 1.465.324 2.8.973 4.006a7.367 7.367 0 0 0 2.727 2.865c1.168.705 2.531 1.057 4.089 1.057Zm-.279-12.796c.965 0 1.762.297 2.393.89.649.575 1.01 1.326 1.085 2.254h-7.122c.204-1.002.631-1.771 1.28-2.31.668-.556 1.456-.834 2.364-.834ZM161.384 54.73c1.15 0 2.151-.195 3.004-.584.853-.39 1.521-.927 2.003-1.614.482-.704.723-1.51.723-2.42 0-1.057-.333-1.965-1.001-2.726-.668-.76-1.632-1.316-2.893-1.669l-2.42-.723c-.519-.148-.946-.343-1.28-.584-.333-.241-.5-.575-.5-1.001 0-.445.176-.807.528-1.085.353-.279.835-.418 1.447-.418.76 0 1.446.204 2.058.612a3.159 3.159 0 0 1 1.308 1.642l2.781-1.308a5.65 5.65 0 0 0-2.336-2.865c-1.094-.705-2.355-1.057-3.783-1.057-1.095 0-2.068.195-2.921.584-.835.39-1.493.937-1.975 1.641-.464.687-.696 1.493-.696 2.42 0 1.039.325 1.938.974 2.699.668.76 1.641 1.326 2.921 1.697l2.475.695c.483.13.891.325 1.224.584.353.241.529.575.529 1.002 0 .5-.204.899-.612 1.196-.39.278-.909.417-1.558.417a3.924 3.924 0 0 1-2.309-.723c-.686-.483-1.233-1.15-1.641-2.003l-2.726 1.307c.445 1.298 1.261 2.337 2.448 3.116 1.205.779 2.615 1.168 4.228 1.168ZM175.256 54.73c1.15 0 2.151-.195 3.004-.584.853-.39 1.521-.927 2.003-1.614.482-.704.723-1.51.723-2.42 0-1.057-.334-1.965-1.001-2.726-.668-.76-1.632-1.316-2.893-1.669l-2.42-.723c-.52-.148-.946-.343-1.28-.584-.334-.241-.501-.575-.501-1.001 0-.445.176-.807.529-1.085.352-.279.834-.418 1.446-.418.761 0 1.447.204 2.059.612.63.408 1.066.956 1.307 1.642l2.782-1.308a5.658 5.658 0 0 0-2.337-2.865c-1.094-.705-2.355-1.057-3.783-1.057-1.094 0-2.068.195-2.921.584-.834.39-1.493.937-1.975 1.641-.463.687-.695 1.493-.695 2.42 0 1.039.324 1.938.973 2.699.668.76 1.642 1.326 2.921 1.697l2.476.695c.482.13.89.325 1.224.584.352.241.528.575.528 1.002 0 .5-.204.899-.612 1.196-.389.278-.908.417-1.557.417a3.922 3.922 0 0 1-2.309-.723c-.686-.483-1.233-1.15-1.641-2.003l-2.726 1.307c.445 1.298 1.261 2.337 2.448 3.116 1.205.779 2.614 1.168 4.228 1.168Z" fill="#3B82F6"/>
    <path fill-rule="evenodd" clip-rule="evenodd" d="M223.943 10.11V7.654h-5.245v24.922h5.245V23.45c0 1.873 1.804 2.809 5.417 2.809 3.612 0 5.422-1.52 5.422-4.563v-9.828c0-3.044-1.81-4.563-5.422-4.563-3.613 0-5.417.935-5.417 2.807Zm5.594 10.53c0 1.405-.933 2.107-2.797 2.107s-2.797-.702-2.797-2.107v-7.72c0-1.406.933-2.108 2.797-2.108s2.797.702 2.797 2.107v7.721ZM212.259 25.905c-.933 0-1.399-.626-1.399-1.895 0 1.502-.984 2.248-2.938 2.248-4.338 0-6.502-1.521-6.502-4.563v-2.383c0-3.139 2.446-4.712 7.342-4.712 1.399 0 2.098-.437 2.098-1.33v-.701c0-1.17-.699-1.756-2.098-1.756-1.076 0-1.613.586-1.613 1.756v.701h-5.245v-1.403c0-3.044 2.284-4.565 6.858-4.565 4.894 0 7.343 1.521 7.343 4.565v11.582c0 1.639.465 2.456 1.398 2.456h-5.244Zm-1.399-5.769v-3.08c0 .702-.699 1.053-2.098 1.053s-2.098.636-2.098 1.905v.98c0 1.17.699 1.753 2.098 1.753s2.098-.87 2.098-2.61ZM174.858 7.653h5.247v2.456c0-1.87 1.36-2.807 4.083-2.807 2.728 0 4.35.754 4.866 2.247.658-1.493 2.56-2.247 5.707-2.247 3.138 0 4.71 1.521 4.71 4.563v14.04h-5.247V12.919c0-1.403-.744-2.105-2.233-2.105-1.496 0-2.235.701-2.235 2.105v12.988h-5.108V12.918c0-1.403-.757-2.105-2.273-2.105-1.515 0-2.27.701-2.27 2.105v12.988h-5.247V7.653ZM172.367 11.866c0-3.043-2.681-4.564-8.042-4.564-5.362 0-8.042 1.521-8.042 4.564v9.829c0 3.042 2.68 4.563 8.042 4.563 5.361 0 8.042-1.52 8.042-4.563V20.29h-5.245v.703c0 1.17-.933 1.755-2.797 1.755-1.866 0-2.797-.585-2.797-1.755v-2.457h10.839v-6.67Zm-5.245.703v2.456h-5.594V12.57c0-1.17.931-1.756 2.797-1.756 1.864 0 2.797.586 2.797 1.756ZM148.901 10.11V7.654h5.246v21.062c0 2.574-2.682 3.86-8.043 3.86-5.36 0-8.042-1.286-8.042-3.86v-1.052h5.246v.35c0 .702.932 1.053 2.796 1.053 1.865 0 2.797-.35 2.797-1.054V23.45c0 1.873-1.804 2.809-5.418 2.809-3.612 0-5.421-1.52-5.421-4.563v-9.828c0-3.044 1.809-4.563 5.421-4.563 3.614 0 5.418.935 5.418 2.807Zm-5.593 10.883c0 1.17.932 1.754 2.796 1.754 1.865 0 2.797-.584 2.797-1.754v-8.425c0-1.17-.932-1.756-2.797-1.756-1.864 0-2.796.586-2.796 1.756v8.425ZM122.661 7.653h5.245v2.456c0-1.87 1.485-2.807 4.47-2.807 2.987 0 4.479 1.521 4.479 4.563v2.107h-5.243V12.57c0-1.17-.616-1.756-1.857-1.756-1.24 0-1.849.585-1.849 1.756v13.336h-5.245V7.653ZM116.307 25.905c-.933 0-1.4-.626-1.4-1.895 0 1.502-.983 2.248-2.937 2.248-4.339 0-6.502-1.521-6.502-4.563v-2.383c0-3.139 2.447-4.712 7.341-4.712 1.4 0 2.098-.437 2.098-1.33v-.701c0-1.17-.698-1.756-2.098-1.756-1.076 0-1.608.586-1.608 1.756v.701h-5.245v-1.403c0-3.044 2.28-4.565 6.853-4.565 4.896 0 7.343 1.521 7.343 4.565v11.582c0 1.639.465 2.456 1.398 2.456h-5.243Zm-1.4-5.769v-3.08c0 .702-.698 1.053-2.098 1.053-1.398 0-2.098.636-2.098 1.905v.98c0 1.17.7 1.753 2.098 1.753 1.4 0 2.098-.87 2.098-2.61ZM87.383 0h5.246v10.18c0-1.872 1.804-2.808 5.417-2.808 3.612 0 5.421 1.52 5.421 4.563v14.042h-5.594v-13.34c0-1.17-.816-1.756-2.448-1.756-1.866 0-2.796.585-2.796 1.756v13.34h-5.246V0ZM85.363 21.66c0 3.04-2.914 4.563-8.742 4.563-5.827 0-8.74-1.523-8.74-4.564V4.81c0-3.04 2.913-4.563 8.74-4.563 5.828 0 8.742 1.523 8.742 4.563v3.51h-5.245V5.512c0-1.404-1.165-2.105-3.496-2.105-2.33 0-3.497.701-3.497 2.105v15.447c0 1.17 1.167 1.754 3.496 1.754 2.332 0 3.497-.584 3.497-1.754v-2.809h5.245v3.51Z" fill="#0F172A"/>
    <path fill-rule="evenodd" clip-rule="evenodd" d="M49.465 0H6.9C2.341 0 0 2.326 0 6.857v24.571h20.775c1.3 0 2.79 1.784 2.79 2.789l-.052 12.138c.425.433 1.438.719 1.863.719.576 0 1.225-.148 1.658-.434V27.274c-4.338-.915-6.903-5.594-6.903-12.988h2.3v-5.43A.86.86 0 0 1 23.294 8h1.726a.86.86 0 0 1 .863.857v5.43h5.75v-5.43A.86.86 0 0 1 32.499 8h1.724c.478 0 .863.382.863.857v5.43h1.812c0 7.067-2.404 11.65-6.413 12.845v19.656c0 2.819-2.663 3.738-5.177 3.692-3.002-.051-5.176-.834-5.176-3.622V34.76L0 34.816v14.327C0 53.675 2.34 56 6.901 56h42.564c4.56 0 6.901-2.325 6.901-6.857V6.857c0-4.531-2.34-6.857-6.901-6.857Z" fill="#3B82F6"/>
    <path d="M20.814 31.468H0v3.385l20.17-.055v12.09c0 2.787 2.177 3.57 5.185 3.62 2.519.046 5.187-.873 5.187-3.69V27.175c4.017-1.194 6.425-5.775 6.425-12.838h-1.815V8.909a.86.86 0 0 0-.865-.857H32.56a.86.86 0 0 0-.866.857v5.426h-5.762V8.91a.86.86 0 0 0-.865-.857H23.34a.86.86 0 0 0-.865.857v5.426h-2.305c0 7.39 2.57 12.066 6.916 12.98v19.356c-.433.285-1.084.433-1.66.433-.427 0-1.441-.285-1.867-.719l.051-12.13c0-1.005-1.492-2.787-2.795-2.787Z" fill="#fff"/>
</svg>
