<svg width="96" height="89" viewBox="0 0 96 89" fill="none" xmlns="http://www.w3.org/2000/svg">
    <path d="M29.827 75.932c0 1.105-2.477 2.001-5.533 2.001-3.055 0-5.532-.896-5.532-2.001 0-1.106 1.242.288 4.298.288s6.767-1.394 6.767-.288Z" fill="#3B82F6"/>
    <path d="M29.827 75.932c0 1.105-2.477 2.001-5.533 2.001-3.055 0-5.532-.896-5.532-2.001 0-1.106 1.242.288 4.298.288s6.767-1.394 6.767-.288Z" fill="#3B82F6"/>
    <path d="M26.32 76.91c-2.711.734-6.169.721-7.723-.03-1.555-.75-.263-.977 2.448-1.712s2.9.179 4.453.93c1.555.75 3.533.077.822.812ZM36.525 78.447c0 .964-2.216 1.745-4.95 1.745s-4.95-.781-4.95-1.745c0-.964 2.216-1.745 4.95-1.745s4.95.781 4.95 1.745Z" fill="#3B82F6"/>
    <path d="M36.525 78.447c0 .964-2.216 1.745-4.95 1.745s-4.95-.781-4.95-1.745c0-.964 2.216-1.745 4.95-1.745s4.95.781 4.95 1.745Z" fill="#3B82F6"/>
    <path d="M33.387 79.3c-2.426.64-5.52.628-6.91-.026-1.391-.655-.552-1.705 1.874-2.345 2.426-.64 5.52-.63 6.91.025 1.391.655.552 1.705-1.874 2.345Z" fill="#3B82F6"/>
    <path d="M26.333 77.985c0 1.219-2.803 2.207-6.261 2.207s-6.261-.988-6.261-2.207c0-1.22 2.803-2.207 6.26-2.207 3.459 0 6.262.988 6.262 2.207Z" fill="#3B82F6"/>
    <path d="M26.333 77.985c0 1.219-2.803 2.207-6.261 2.207s-6.261-.988-6.261-2.207c0-1.22 2.803-2.207 6.26-2.207 3.459 0 6.262.988 6.262 2.207Z" fill="#3B82F6"/>
    <path d="M22.364 79.063c-3.068.81-6.98.796-8.74-.032-1.758-.828-.697-2.156 2.37-2.966 3.069-.81 6.982-.795 8.74.032 1.76.828.698 2.156-2.37 2.966Z" fill="#3B82F6"/>
    <path d="M33.03 77.677c0 1.275-2.933 2.31-6.552 2.31-3.618 0-6.552-1.034-6.552-2.31s2.934-2.31 6.553-2.31c3.618 0 6.552 1.034 6.552 2.31Z" fill="#3B82F6"/>
    <path d="M33.03 77.677c0 1.275-2.933 2.31-6.552 2.31-3.618 0-6.552-1.034-6.552-2.31s2.934-2.31 6.553-2.31c3.618 0 6.552 1.034 6.552 2.31Z" fill="#3B82F6"/>
    <path d="M28.877 78.805c-3.21.848-7.305.833-9.146-.034-1.84-.866-.73-2.255 2.48-3.103 3.211-.848 7.306-.833 9.147.034 1.84.866.73 2.256-2.48 3.103Z" fill="#3B82F6"/>
    <path d="M29.54 79.063c0 .964-2.216 1.745-4.95 1.745-1.773 0-3.327-.328-4.202-.821-.475-.268-.75-.585-.75-.924 0-.964 2.217-1.745 4.951-1.745 2.735 0 4.951.781 4.951 1.745Z" fill="#3B82F6"/>
    <path d="M29.54 79.063c0 .964-2.216 1.745-4.95 1.745-1.773 0-3.327-.328-4.202-.821-.475-.268-.75-.585-.75-.924 0-.964 2.217-1.745 4.951-1.745 2.735 0 4.951.781 4.951 1.745Z" fill="#3B82F6"/>
    <path d="M29.893 80.12c-2.426.641-5.52.63-6.91-.025-1.392-.654-.552-1.704 1.873-2.345 2.426-.64 5.52-.629 6.91.026 1.392.654.553 1.704-1.873 2.345ZM19.344 79.422c0 .539-1.239.975-2.767.975-1.528 0-2.766-.436-2.766-.975 0-.539 1.239-.975 2.766-.975 1.528 0 2.767.436 2.767.975Z" fill="#3B82F6"/>
    <path d="M19.344 79.422c0 .539-1.239.975-2.767.975-1.528 0-2.766-.436-2.766-.975 0-.539 1.239-.975 2.766-.975 1.528 0 2.767.436 2.767.975Z" fill="#3B82F6"/>
    <path d="M17.59 79.898c-1.355.358-3.084.352-3.861-.014-.778-.366-.309-.952 1.047-1.31 1.355-.358 3.084-.352 3.862.014.777.366.308.953-1.048 1.31Z" fill="#3B82F6"/>
    <path d="M24.517 10.681c0-2.374 1.911-4.299 4.27-4.299h38.426c2.359 0 4.27 1.925 4.27 4.3v67.977H24.517V10.68Z" fill="#91C3FD"/>
    <rect x="27.719" y="14.174" width="40.295" height="3.762" rx="1.881" fill="#CBD5E1"/>
    <rect x="27.719" y="14.174" width="40.295" height="3.762" rx="1.881" fill="#1D4FD7"/>
    <mask id="a" style="mask-type:alpha" maskUnits="userSpaceOnUse" x="63" y="77" width="11" height="5">
        <path d="M72.406 77.507a1.141 1.141 0 0 0-.915-.46h-2.72c-.68 0-1.345.202-1.909.581l-.896.602c-.268.18-.572.298-.89.347l-.45.07a1.672 1.672 0 0 0-1.415 1.652c0 .615.498 1.114 1.114 1.114h8.27c.605 0 1.095-.49 1.095-1.094 0-.707-.228-1.395-.65-1.962l-.634-.85Z" fill="#61A6FA"/>
    </mask>
    <g mask="url(#a)">
        <path d="M72.245 77.047H68.77c-.68 0-1.344.202-1.908.581l-.896.602c-.268.18-.572.298-.89.347l-.45.07a1.672 1.672 0 0 0-1.415 1.652c0 .615.498 1.114 1.114 1.114h7.861c.83 0 1.504-.673 1.504-1.504 0-.443-.13-.876-.375-1.245l-1.07-1.617Z" fill="#2463EB"/>
        <path fill="#1E3FAE" d="M73.329 77.047h-7.95v1.455h7.95z"/>
    </g>
    <ellipse rx="1.084" ry="1.092" transform="matrix(-1 0 0 1 65.379 81.05)" fill="#1D4FD7"/>
    <ellipse rx=".723" ry=".728" transform="matrix(-1 0 0 1 65.379 81.05)" fill="#2463EB"/>
    <ellipse rx="1.084" ry="1.092" transform="matrix(-1 0 0 1 71.883 81.05)" fill="#2463EB"/>
    <ellipse rx=".723" ry=".728" transform="matrix(-1 0 0 1 71.883 81.05)" fill="#2463EB"/>
    <mask id="b" style="mask-type:alpha" maskUnits="userSpaceOnUse" x="66" y="77" width="12" height="6">
        <path d="M76.02 78.234a1.141 1.141 0 0 0-.915-.46h-2.721c-.68 0-1.344.203-1.908.582l-.896.601c-.268.18-.572.299-.89.348l-.45.07a1.672 1.672 0 0 0-1.416 1.651c0 .616.5 1.115 1.115 1.115h8.27c.605 0 1.095-.49 1.095-1.095 0-.707-.228-1.394-.65-1.961l-.634-.85Z" fill="#61A6FA"/>
    </mask>
    <g mask="url(#b)">
        <path d="M75.859 77.775h-3.475c-.68 0-1.344.202-1.908.58l-.896.602c-.268.18-.572.299-.89.348l-.45.07a1.672 1.672 0 0 0-1.416 1.651c0 .616.5 1.115 1.115 1.115H75.8c.83 0 1.504-.674 1.504-1.504 0-.443-.13-.876-.375-1.246l-1.07-1.616Z" fill="#3B82F6"/>
        <path fill="#1D4FD7" d="M76.943 77.775h-7.95v1.455h7.95z"/>
    </g>
    <ellipse rx="1.084" ry="1.092" transform="matrix(-1 0 0 1 68.993 81.777)" fill="#1D4FD7"/>
    <ellipse rx=".723" ry=".728" transform="matrix(-1 0 0 1 68.993 81.777)" fill="#3B82F6"/>
    <ellipse rx="1.084" ry="1.092" transform="matrix(-1 0 0 1 75.497 81.777)" fill="#1D4FD7"/>
    <ellipse rx=".723" ry=".728" transform="matrix(-1 0 0 1 75.497 81.777)" fill="#3B82F6"/>
    <mask id="c" style="mask-type:alpha" maskUnits="userSpaceOnUse" x="70" y="78" width="11" height="5">
        <path d="M79.272 78.961a1.141 1.141 0 0 0-.915-.459h-2.72c-.68 0-1.345.202-1.909.58l-.896.603c-.268.18-.572.298-.89.347l-.45.07a1.672 1.672 0 0 0-1.415 1.652c0 .615.499 1.114 1.114 1.114h8.27c.605 0 1.095-.49 1.095-1.094 0-.707-.228-1.395-.65-1.962l-.634-.85Z" fill="#61A6FA"/>
    </mask>
    <g mask="url(#c)">
        <path d="M79.11 78.502h-3.474c-.68 0-1.344.202-1.908.58l-.896.603c-.268.18-.572.298-.89.347l-.45.07a1.672 1.672 0 0 0-1.415 1.652c0 .615.499 1.114 1.114 1.114h7.861c.83 0 1.504-.673 1.504-1.504 0-.443-.13-.876-.375-1.245l-1.07-1.617Z" fill="#61A6FA"/>
        <path fill="#2563EB" d="M80.195 78.502h-7.95v1.455h7.95z"/>
    </g>
    <ellipse rx="1.084" ry="1.092" transform="matrix(-1 0 0 1 72.245 82.504)" fill="#2463EB"/>
    <ellipse rx=".723" ry=".728" transform="matrix(-1 0 0 1 72.245 82.504)" fill="#61A6FA"/>
    <ellipse rx="1.084" ry="1.092" transform="matrix(-1 0 0 1 78.75 82.504)" fill="#2463EB"/>
    <ellipse rx=".723" ry=".728" transform="matrix(-1 0 0 1 78.75 82.504)" fill="#61A6FA"/>
    <rect x="27.719" y="22.235" width="40.295" height="3.762" rx="1.881" fill="#1D4FD7"/>
    <rect x="27.719" y="30.295" width="40.295" height="3.762" rx="1.881" fill="#1D4FD7"/>
    <rect x="27.719" y="38.356" width="40.295" height="3.762" rx="1.881" fill="#1D4FD7"/>
    <rect x="27.719" y="46.417" width="40.295" height="3.762" rx="1.881" fill="#1D4FD7"/>
    <rect x="27.719" y="54.477" width="40.295" height="3.762" rx="1.881" fill="#1D4FD7"/>
    <rect x="27.719" y="62.538" width="40.295" height="3.762" rx="1.881" fill="#1D4FD7"/>
    <path d="M41.062 76.054a7.605 7.605 0 1 1 15.21 0v2.605h-15.21v-2.605Z" fill="#1D4FD7"/>
    <mask id="d" style="mask-type:alpha" maskUnits="userSpaceOnUse" x="24" y="6" width="35" height="73">
        <path d="M24.517 10.681c0-2.374 1.911-4.299 4.27-4.299h25.617c2.359 0 4.27 1.925 4.27 4.3v67.977H24.517V10.68Z" fill="#fff"/>
    </mask>
    <g mask="url(#d)">
        <path d="M24.517 10.681c0-2.374 1.911-4.299 4.27-4.299h28.02c1.178 0 2.134.963 2.134 2.15v70.127H24.517V10.68Z" fill="#F0F6FF"/>
        <path d="M29.735 73.62c0 2.893-2.27 5.239-5.07 5.239-2.8 0-5.07-2.346-5.07-5.24 0-2.893 2.27-5.239 5.07-5.239 2.8 0 5.07 2.346 5.07 5.24Z" fill="#91C3FD"/>
        <path d="M29.735 73.62c0 2.893-2.27 5.239-5.07 5.239-2.8 0-5.07-2.346-5.07-5.24 0-2.893 2.27-5.239 5.07-5.239 2.8 0 5.07 2.346 5.07 5.24Z" fill="#91C3FD"/>
        <path d="M23.855 74.268c-2.484 1.922-5.653 1.888-7.077-.077-1.424-1.965-.565-5.117 1.92-7.04 2.484-1.923 5.653-1.889 7.077.077 1.424 1.965.565 5.117-1.92 7.04ZM35.873 80.202c0 2.523-2.03 4.568-4.536 4.568S26.8 82.725 26.8 80.202c0-2.522 2.031-4.567 4.537-4.567 2.505 0 4.536 2.045 4.536 4.567Z" fill="#91C3FD"/>
        <path d="M35.873 80.202c0 2.523-2.03 4.568-4.536 4.568S26.8 82.725 26.8 80.202c0-2.522 2.031-4.567 4.537-4.567 2.505 0 4.536 2.045 4.536 4.567Z" fill="#91C3FD"/>
        <path d="M32.998 82.434c-2.223 1.676-5.058 1.646-6.333-.067-1.274-1.713-.505-4.461 1.717-6.137 2.223-1.677 5.058-1.647 6.333.066 1.274 1.714.505 4.462-1.718 6.138Z" fill="#91C3FD"/>
        <path d="M26.533 78.993c0 3.19-2.569 5.777-5.737 5.777-3.169 0-5.737-2.586-5.737-5.777 0-3.19 2.568-5.776 5.737-5.776s5.737 2.586 5.737 5.776Z" fill="#91C3FD"/>
        <path d="M26.533 78.993c0 3.19-2.569 5.777-5.737 5.777-3.169 0-5.737-2.586-5.737-5.777 0-3.19 2.568-5.776 5.737-5.776s5.737 2.586 5.737 5.776Z" fill="#91C3FD"/>
        <path d="M22.896 81.816c-2.81 2.12-6.396 2.082-8.008-.085-1.612-2.167-.64-5.642 2.172-7.762 2.811-2.12 6.397-2.082 8.008.085 1.612 2.166.64 5.641-2.172 7.761Z" fill="#91C3FD"/>
        <path d="M32.67 78.187c0 3.339-2.687 6.046-6.003 6.046-3.316 0-6.005-2.707-6.005-6.046 0-3.339 2.689-6.045 6.005-6.045s6.004 2.706 6.004 6.045Z" fill="#91C3FD"/>
        <path d="M32.67 78.187c0 3.339-2.687 6.046-6.003 6.046-3.316 0-6.005-2.707-6.005-6.046 0-3.339 2.689-6.045 6.005-6.045s6.004 2.706 6.004 6.045Z" fill="#91C3FD"/>
        <path d="M28.865 81.14c-2.942 2.22-6.695 2.18-8.381-.088-1.687-2.268-.67-5.904 2.273-8.123 2.942-2.219 6.694-2.179 8.38.089 1.688 2.267.67 5.904-2.272 8.123Z" fill="#91C3FD"/>
        <path d="M32.67 82.352c0 2.522-2.03 4.567-4.536 4.567-2.505 0-4.536-2.044-4.536-4.567s2.03-4.568 4.536-4.568 4.537 2.045 4.537 4.568Z" fill="#91C3FD"/>
        <path d="M32.67 82.352c0 2.522-2.03 4.567-4.536 4.567-2.505 0-4.536-2.044-4.536-4.567s2.03-4.568 4.536-4.568 4.537 2.045 4.537 4.568Z" fill="#91C3FD"/>
        <path d="M29.795 84.583c-2.223 1.677-5.058 1.647-6.332-.067-1.275-1.713-.506-4.46 1.717-6.137 2.223-1.676 5.058-1.646 6.333.067 1.274 1.713.505 4.461-1.718 6.137ZM20.129 82.755a2.544 2.544 0 0 1-2.535 2.552 2.544 2.544 0 0 1-2.536-2.552 2.544 2.544 0 0 1 2.536-2.553c1.4 0 2.535 1.143 2.535 2.553Z" fill="#91C3FD"/>
        <path d="M20.129 82.755a2.544 2.544 0 0 1-2.535 2.552 2.544 2.544 0 0 1-2.536-2.552 2.544 2.544 0 0 1 2.536-2.553c1.4 0 2.535 1.143 2.535 2.553Z" fill="#91C3FD"/>
        <path d="M18.522 84.002c-1.242.937-2.827.92-3.539-.037-.712-.958-.282-2.493.96-3.43 1.242-.937 2.826-.92 3.539.037.712.958.282 2.493-.96 3.43Z" fill="#91C3FD"/>
        <rect x="27.719" y="14.174" width="40.295" height="3.762" rx="1.881" fill="#3B82F6"/>
        <rect x="27.719" y="22.235" width="40.295" height="3.762" rx="1.881" fill="#3B82F6"/>
        <rect x="27.719" y="30.295" width="40.295" height="3.762" rx="1.881" fill="#3B82F6"/>
        <rect x="27.719" y="38.356" width="40.295" height="3.762" rx="1.881" fill="#3B82F6"/>
        <rect x="27.719" y="46.417" width="40.295" height="3.762" rx="1.881" fill="#3B82F6"/>
        <rect x="27.719" y="54.477" width="40.295" height="3.762" rx="1.881" fill="#3B82F6"/>
        <rect x="27.719" y="62.538" width="40.295" height="3.762" rx="1.881" fill="#3B82F6"/>
        <path d="M40.528 73.7a3.37 3.37 0 0 1 3.37-3.37h8.47a3.37 3.37 0 0 1 3.37 3.37v4.959h-15.21V73.7Z" fill="#61A6FA"/>
        <path d="M41.862 74.507a3.37 3.37 0 0 1 3.371-3.371H55.74v7.523H41.862v-4.153Z" fill="#3B82F6"/>
    </g>
    <mask id="e" style="mask-type:alpha" maskUnits="userSpaceOnUse" x="11" y="59" width="11" height="12">
        <ellipse cx="16.244" cy="65.091" rx="5.07" ry="5.239" fill="#61A6FA"/>
    </mask>
    <g mask="url(#e)">
        <ellipse cx="16.244" cy="65.09" rx="5.07" ry="5.239" fill="#61A6FA"/>
        <ellipse rx="4.395" ry="5.688" transform="matrix(.58685 .8097 -.79082 .61205 15.522 64.092)" fill="#1E3FAE"/>
    </g>
    <mask id="f" style="mask-type:alpha" maskUnits="userSpaceOnUse" x="18" y="67" width="10" height="10">
        <ellipse cx="22.916" cy="71.673" rx="4.537" ry="4.568" fill="#61A6FA"/>
    </mask>
    <g mask="url(#f)">
        <ellipse cx="22.916" cy="71.673" rx="4.537" ry="4.568" fill="#61A6FA"/>
        <ellipse rx="3.866" ry="5.041" transform="matrix(.59684 .80236 -.79842 .6021 22.27 70.803)" fill="#1E3FAE"/>
    </g>
    <mask id="g" style="mask-type:alpha" maskUnits="userSpaceOnUse" x="6" y="64" width="13" height="13">
        <ellipse cx="12.375" cy="70.464" rx="5.737" ry="5.777" fill="#61A6FA"/>
    </mask>
    <g mask="url(#g)">
        <ellipse cx="12.375" cy="70.464" rx="5.737" ry="5.777" fill="#61A6FA"/>
        <ellipse rx="4.89" ry="6.375" transform="matrix(.59684 .80236 -.79842 .6021 11.557 69.363)" fill="#1E3FAE"/>
    </g>
    <path d="M15.977 74.897h1.335l.267 5.911H15.71l.266-5.91Z" fill="#91C3FD"/>
    <path d="M9.903 68.52a.097.097 0 0 1 .14.001l6.585 6.917-.587.548-6.143-7.334a.098.098 0 0 1 .005-.132Z" fill="#91C3FD"/>
    <mask id="h" style="mask-type:alpha" maskUnits="userSpaceOnUse" x="12" y="63" width="13" height="13">
        <ellipse cx="18.246" cy="69.658" rx="6.004" ry="6.045" fill="#61A6FA"/>
    </mask>
    <g mask="url(#h)">
        <ellipse cx="18.246" cy="69.658" rx="6.004" ry="6.045" fill="#61A6FA"/>
        <ellipse rx="5.117" ry="6.672" transform="matrix(.59684 .80236 -.79842 .6021 17.39 68.506)" fill="#1E3FAE"/>
    </g>
    <path d="M22.015 66.493a.04.04 0 0 1 .052-.016c.021.01.03.035.02.056l-2.74 5.426-.434-.228 3.102-5.238ZM15.693 62.326a.033.033 0 0 1 .066-.011l1.45 7.625-.397.074-1.12-7.688ZM12.886 67.208c-.004-.034-.048-.043-.065-.014l-1.647 2.797.257.152 1.452-2.915a.035.035 0 0 0 .003-.02Z" fill="#91C3FD"/>
    <path d="M13.76 64.325a.035.035 0 0 1 .052-.04l2.576 1.647-.16.252-2.456-1.841a.036.036 0 0 1-.012-.018ZM17.41 63.415a.026.026 0 0 0-.046-.015l-1.244 1.484.169.142 1.116-1.594a.026.026 0 0 0 .005-.017ZM19.654 66.387a.035.035 0 0 1 .061-.018l1.435 1.708-.228.192-1.263-1.857a.036.036 0 0 1-.005-.025Z" fill="#91C3FD"/>
    <mask id="i" style="mask-type:alpha" maskUnits="userSpaceOnUse" x="15" y="69" width="10" height="10">
        <ellipse cx="19.713" cy="73.823" rx="4.537" ry="4.568" fill="#61A6FA"/>
    </mask>
    <g mask="url(#i)">
        <ellipse cx="19.713" cy="73.823" rx="4.537" ry="4.568" fill="#61A6FA"/>
        <ellipse rx="3.866" ry="5.041" transform="matrix(.59684 .80236 -.79842 .6021 19.067 72.952)" fill="#1E3FAE"/>
    </g>
    <path d="M21.348 75.552c.014.01.02.029.011.044a.034.034 0 0 1-.047.015l-3.733-2.066.203-.352 3.566 2.359Z" fill="#91C3FD"/>
    <path d="M21.521 73.23c.03.005.04.043.015.062l-1.757 1.37-.18-.239 1.897-1.189a.035.035 0 0 1 .025-.005Z" fill="#91C3FD"/>
    <path fill="#fff" d="M32.523 14.174h4.803v3.762h-4.803zM32.523 22.235h4.803v3.762h-4.803zM32.523 30.295h4.803v3.762h-4.803zM32.523 38.356h4.803v3.762h-4.803zM32.523 46.417h4.803v3.762h-4.803zM32.523 54.477h4.803v3.762h-4.803zM32.523 62.538h4.803V66.3h-4.803z"/>
</svg>
