<svg width="120" height="120" viewBox="0 0 120 120" xmlns="http://www.w3.org/2000/svg">
    <g fill-rule="nonzero" fill="none">
        <path d="M35.29 34.28a2.015 2.015 0 0 1-2.018 2.018 2.015 2.015 0 0 1-2.018-2.017c0-1.117.902-2.018 2.018-2.018 1.116 0 2.017.901 2.017 2.018Z" fill="#008585"/>
        <path d="M35.29 34.28a2.015 2.015 0 0 1-2.018 2.018 2.015 2.015 0 0 1-2.018-2.017c0-1.117.902-2.018 2.018-2.018 1.116 0 2.017.901 2.017 2.018ZM83.71 85.728c0-1.116.902-2.017 2.019-2.017 1.116 0 2.017.9 2.017 2.017 0 1.116-.9 2.018-2.017 2.018a2.015 2.015 0 0 1-2.018-2.018ZM85.729 36.298a2.016 2.016 0 0 1-2.018-2.017c0-1.117.901-2.018 2.018-2.018 1.116 0 2.017.901 2.017 2.018 0 1.116-.9 2.017-2.017 2.017ZM33.272 83.71c1.116 0 2.017.902 2.017 2.018a2.015 2.015 0 0 1-2.017 2.018 2.015 2.015 0 0 1-2.018-2.018c0-1.11.909-2.017 2.018-2.017Z" fill="#328585"/>
        <path d="M82.04 60.638c-2.455-.283-4.804-1.096-7.35-1.91-2.531-.807-5.366-1.549-8.286-1.358-.354.02-.715.059-1.063.105a6.957 6.957 0 0 0-.466-.932 203.766 203.766 0 0 0 5.084-5.526c3.15-3.524 6.214-7.14 9.022-11.011-3.864 2.808-7.48 5.873-11.003 9.023a202.926 202.926 0 0 0-5.525 5.086 6.823 6.823 0 0 0-3.497-.965l-.066.007c.014-.171.014-.335.033-.506.282-2.454 1.096-4.803 1.91-7.35.807-2.533 1.548-5.368 1.358-8.288a13.63 13.63 0 0 0-3.045-7.776c.512 2.723.807 5.263.48 7.717-.283 2.455-1.096 4.81-1.917 7.35-.813 2.527-1.555 5.368-1.364 8.288.02.348.059.696.105 1.037a6.698 6.698 0 0 0-.998.492 202.937 202.937 0 0 0-5.525-5.086c-3.523-3.15-7.139-6.214-11.003-9.023 2.808 3.865 5.872 7.481 9.022 11.012 1.66 1.877 3.36 3.714 5.085 5.525a6.807 6.807 0 0 0-.965 3.498v.06c-.144-.014-.288-.014-.426-.034-2.454-.282-4.803-1.096-7.35-1.91-2.532-.806-5.373-1.548-8.286-1.358a13.625 13.625 0 0 0-7.776 3.045c2.723-.512 5.262-.807 7.716-.479 2.455.282 4.81 1.096 7.35 1.916 2.526.814 5.367 1.556 8.287 1.365.321-.02.643-.052.964-.098.138.341.296.67.486.984a202.726 202.726 0 0 0-5.085 5.526c-3.15 3.524-6.214 7.14-9.022 11.011 3.87-2.808 7.486-5.866 11.01-9.023 1.877-1.66 3.714-3.36 5.525-5.086 1.03.61 2.217.965 3.497.965l.144-.007c-.013.145-.013.29-.032.433-.283 2.455-1.096 4.81-1.916 7.35-.814 2.527-1.556 5.368-1.365 8.289a13.635 13.635 0 0 0 3.051 7.776c-.512-2.723-.8-5.263-.472-7.717.282-2.455 1.095-4.804 1.909-7.35.807-2.533 1.548-5.368 1.358-8.288-.02-.335-.059-.663-.098-.991.321-.132.623-.282.918-.46a202.712 202.712 0 0 0 5.525 5.086c3.524 3.15 7.139 6.215 11.01 9.023-2.808-3.872-5.866-7.487-9.022-11.011a203.766 203.766 0 0 0-5.084-5.526 6.816 6.816 0 0 0 .963-3.498l-.006-.144c.17.013.34.013.512.04 2.454.282 4.81 1.095 7.348 1.916 2.527.813 5.369 1.555 8.288 1.365a13.589 13.589 0 0 0 7.776-3.052c-2.73.505-5.269.794-7.724.473ZM63.253 61.87a4.713 4.713 0 0 1-2.218 2.337c-.085.046-.164.098-.256.137a4.862 4.862 0 0 1-1.607.355c-.073.006-.145.02-.224.02-.65 0-1.266-.132-1.83-.375a4.696 4.696 0 0 1-2.362-2.277c-.033-.065-.08-.124-.105-.197a4.677 4.677 0 0 1-.361-1.693l-.013-.138c0-.65.137-1.266.374-1.83a4.683 4.683 0 0 1 2.296-2.376c.06-.026.112-.066.17-.092a4.711 4.711 0 0 1 1.7-.36l.131-.014c.65 0 1.267.131 1.831.374a4.684 4.684 0 0 1 2.343 2.238c.039.079.092.15.124.23.217.498.328 1.05.355 1.614.006.072.02.144.02.216a4.497 4.497 0 0 1-.368 1.831Z" fill="#CE9040"/>
        <path d="M18.821 18.821c22.429-22.428 58.929-22.428 81.357 0 22.43 22.429 22.43 58.93 0 81.358-22.428 22.428-58.928 22.428-81.357 0-22.428-22.429-22.428-58.93 0-81.358Zm79.877 79.876c21.616-21.615 21.616-56.779 0-78.394-21.616-21.616-56.78-21.616-78.395 0-21.616 21.615-21.616 56.779 0 78.394 21.615 21.61 56.785 21.61 78.395 0Z" fill="#CE9040"/>
    </g>
</svg>
