<svg width="30" height="30" viewBox="0 0 30 30" fill="none" xmlns="http://www.w3.org/2000/svg">
    <path d="M26.235 15.309c-1.197-.138-2.342-.535-3.583-.931-1.235-.394-2.617-.755-4.04-.662-.173.01-.349.028-.519.05a3.337 3.337 0 0 0-.227-.454 99.13 99.13 0 0 0 2.48-2.694c1.535-1.718 3.029-3.48 4.398-5.368-1.884 1.37-3.647 2.863-5.365 4.4a98.91 98.91 0 0 0-2.693 2.479 3.327 3.327 0 0 0-1.705-.47l-.032.002c.006-.083.006-.163.016-.246.137-1.196.534-2.342.93-3.583.394-1.235.756-2.617.663-4.04A6.645 6.645 0 0 0 15.074 0c.25 1.328.393 2.566.233 3.762-.138 1.197-.534 2.345-.934 3.584-.397 1.231-.758 2.617-.665 4.04.01.17.028.34.05.506-.169.067-.332.147-.485.24a99.062 99.062 0 0 0-2.694-2.48c-1.718-1.535-3.48-3.03-5.365-4.399 1.37 1.885 2.863 3.647 4.399 5.369.81.915 1.638 1.81 2.48 2.694-.298.499-.471 1.08-.471 1.705v.029c-.07-.007-.14-.007-.208-.016-1.197-.138-2.342-.535-3.583-.931-1.235-.394-2.62-.755-4.04-.663A6.643 6.643 0 0 0 0 14.925c1.328-.25 2.566-.394 3.762-.234 1.196.138 2.345.535 3.583.934 1.231.397 2.617.759 4.04.666a5.85 5.85 0 0 0 .47-.048c.068.166.144.326.237.48a98.948 98.948 0 0 0-2.48 2.694c-1.535 1.718-3.029 3.48-4.398 5.368 1.888-1.37 3.65-2.86 5.368-4.399.915-.81 1.81-1.638 2.694-2.48.502.298 1.081.47 1.705.47l.07-.002c-.006.07-.006.14-.016.21-.137 1.197-.534 2.346-.934 3.584-.397 1.232-.758 2.617-.665 4.04A6.648 6.648 0 0 0 14.923 30c-.25-1.328-.39-2.566-.23-3.762.138-1.197.534-2.342.93-3.584.394-1.235.756-2.617.663-4.04a7.97 7.97 0 0 0-.048-.483 3.25 3.25 0 0 0 .448-.224c.883.841 1.779 1.67 2.693 2.48 1.718 1.535 3.48 3.029 5.368 4.398-1.369-1.887-2.86-3.65-4.398-5.368a98.98 98.98 0 0 0-2.48-2.694c.298-.5.47-1.081.47-1.705l-.002-.07c.083.006.166.006.25.018 1.195.138 2.344.535 3.582.935 1.232.396 2.617.758 4.04.665A6.625 6.625 0 0 0 30 15.078c-1.334.247-2.572.388-3.765.23Zm-9.159.601a2.298 2.298 0 0 1-1.081 1.14c-.042.022-.08.047-.125.066a2.37 2.37 0 0 1-.784.173c-.035.003-.07.01-.108.01-.317 0-.618-.064-.893-.183a2.289 2.289 0 0 1-1.152-1.11c-.015-.032-.038-.06-.05-.096a2.28 2.28 0 0 1-.177-.825l-.006-.067c0-.317.067-.618.182-.893.218-.512.62-.918 1.12-1.158.029-.013.054-.032.083-.045.256-.109.534-.166.829-.176l.064-.006a2.25 2.25 0 0 1 2.034 1.273c.02.038.045.074.06.112.107.243.16.512.174.787.003.035.01.07.01.106.003.316-.065.617-.18.892Z" fill="#F2C488"/>
</svg>
