<svg xmlns="http://www.w3.org/2000/svg" xmlns:xlink="http://www.w3.org/1999/xlink" class="sprite-svg" style="display:none;"><defs>
        <clipPath id="a">
            <path fill="#fff" transform="translate(.5 .5)" d="M0 0h145v69H0z"/>
        </clipPath>
    </defs><symbol id="Family house A" viewBox="0 0 146 70"><g fill="none">
    <g clip-path="url(#a)">
        <path d="M5.19 34.72h42.768v30.292h-5.909v-2.3H8.191v2.3H5.19V34.72Z" fill="#BEDBFE"/>
        <path d="M2.188 36.59h45.679v2.617H4.806a2.618 2.618 0 0 1-2.619-2.617Z" fill="#1E3FAE"/>
        <path d="M8.19 64.264h33.953v-4.3L8.19 58.748v5.516Z" fill="#3B82F6"/>
        <path d="M8.19 41.077h33.953v19.54L8.19 59.03V41.076Z" fill="#312E7F"/>
        <path fill="#2463EB" d="M8.19 41.077h33.953l-1.921 2.3H6.27z"/>
        <path fill="#1D4FD7" d="M8.19 41.077h33.953l-.84 1.006H7.35z"/>
        <path fill="#1E3FAE" d="M37.352 41.077h.625l-1.92 2.3h-.626zM39.852 41.077h.625l-1.921 2.3h-.625zM34.853 41.077h.625l-1.921 2.3h-.625zM32.353 41.077h.625l-1.92 2.3h-.626zM29.854 41.077h.625l-1.921 2.3h-.625zM27.354 41.077h.625l-1.92 2.3h-.626zM24.855 41.077h.625l-1.921 2.3h-.625zM22.355 41.077h.625l-1.92 2.3h-.626zM19.855 41.077h.625l-1.92 2.3h-.625zM17.356 41.077h.625l-1.921 2.3h-.625zM14.856 41.077h.625l-1.92 2.3h-.626zM12.357 41.077h.625l-1.921 2.3h-.625zM9.857 41.077h.625l-1.92 2.3h-.626z"/>
        <path d="M25.06 4.24h43.72L45.8 36.59H.5L25.06 4.24Z" fill="#1D4FD7"/>
        <mask id="b" style="mask-type:alpha" maskUnits="userSpaceOnUse" x="0" y="4" width="69" height="33">
            <path d="M25.06 4.24h43.72L45.8 36.59H.5L25.06 4.24Z" fill="#312E7F"/>
        </mask>
        <g mask="url(#b)" fill="#1E3FAE">
            <path d="M-1 9.136v-.524h71.28v.525zM-1 6.863v-.525h71.28v.525zM-1 11.41v-.525h71.28v.525zM-1.001 13.683v-.525h71.28v.525zM-1 15.956v-.525h71.28v.525zM-1 18.23v-.526h71.28v.525zM-1 20.502v-.525h71.28v.525zM-1.001 22.776v-.525H70.28v.525zM-1 25.049v-.525h71.28v.525zM-1 27.322v-.525h71.28v.525zM-1 29.595v-.525h71.28v.525zM-1 31.869v-.525h71.28v.525zM-1 34.142v-.525h71.28v.525z"/>
        </g>
        <path d="M31.076 10.972h15.757l-8.63 11.593H22.448l8.629-11.593Z" fill="#3B82F6"/>
        <path d="M31.734 12.094H44.58l-7.035 9.536H24.698l7.036-9.536Z" fill="#BEDBFE"/>
        <path d="M31.826 12.094h12.755l-5.307 7.105-7.448-7.106Z" fill="#61A6FA"/>
        <rect width=".545" height="1.856" rx=".273" transform="matrix(-1 0 0 1 8.924 48.582)" fill="#334155"/>
        <path fill-rule="evenodd" clip-rule="evenodd" d="M11.197 50.438c.636.341 1.318.78 1.318 1.611v9.425c0 1.025.773 1.855 1.727 1.855h.318c.954 0 1.727-.83 1.727-1.855v-3.827c0-.557.338-1.05.834-1.214l.155-.05-.16-.561-.155.051c-.725.24-1.22.96-1.22 1.774v3.827c0 .7-.528 1.27-1.181 1.27h-.318c-.653 0-1.182-.57-1.182-1.27v-9.425c0-1.172-1-1.807-1.59-2.1l-.274.489Z" fill="#F0F6FF"/>
        <mask id="c" style="mask-type:alpha" maskUnits="userSpaceOnUse" x="8" y="48" width="4" height="3">
            <path fill-rule="evenodd" clip-rule="evenodd" d="M8.565 49.133c.002-.102.076-.184.166-.184l1.203.004c.05 0 .099.015.142.042l1.468.929-.295.577-1.134-.717a.195.195 0 0 0-.223.008l-.289.216a.16.16 0 0 1-.095.031l-.791-.003c-.09 0-.161-.082-.16-.184l.008-.719Z" fill="#fff"/>
        </mask>
        <g mask="url(#c)" fill-rule="evenodd" clip-rule="evenodd">
            <path d="m8.568 48.948 1.366.005c.05 0 .099.015.142.042l1.468.929-.295.577-1.134-.717a.195.195 0 0 0-.223.008l-.289.216a.16.16 0 0 1-.095.031l-.953-.003.013-1.088Z" fill="#fff"/>
            <path d="m8.513 49.545 1.274.03c.169.004.3.081.413.146.362.213 1.16.643 1.16.643l-.1.174s-.782-.483-1.196-.725c-.178-.063-.27.093-.316.132-.086.23-1.226.064-1.226.064l-.01-.464Z" fill="#CBD5E1"/>
        </g>
        <mask id="d" style="mask-type:alpha" maskUnits="userSpaceOnUse" x="17" y="55" width="4" height="2">
            <path fill-rule="evenodd" clip-rule="evenodd" d="M20.187 55.835c.024-.098-.028-.199-.115-.223l-1.163-.33a.262.262 0 0 0-.147 0l-1.642.49.146.639 1.268-.378a.199.199 0 0 1 .213.07l.227.289a.167.167 0 0 0 .085.057l.765.217c.086.025.175-.035.198-.133l.165-.698Z" fill="#fff"/>
        </mask>
        <g mask="url(#d)" fill-rule="evenodd" clip-rule="evenodd">
            <path d="m20.23 55.656-1.32-.375a.262.262 0 0 0-.148.002l-1.642.488.146.64 1.268-.378a.199.199 0 0 1 .213.07l.227.289a.167.167 0 0 0 .085.057l.921.261.25-1.054Z" fill="#fff"/>
            <path d="m20.138 56.249-1.237-.328c-.164-.043-.31-.005-.434.026-.4.106-1.275.299-1.275.299l.055.197s.871-.25 1.33-.368c.186-.012.237.166.272.216.028.248 1.169.406 1.169.406l.12-.448Z" fill="#CBD5E1"/>
        </g>
        <path d="M8.754 48.954c0-.369.298-.667.666-.667v5.983a.667.667 0 0 1-.666-.667v-4.65Z" fill="#1E3FAE"/>
        <path d="M11.922 49.498c0-1.036-.84-1.876-1.876-1.876a.625.625 0 0 0-.625.625v6.063c0 .346.28.625.625.625 1.036 0 1.876-.84 1.876-1.875v-3.562Z" fill="#BEDBFE"/>
        <rect x="15.039" y="64.855" width="23.202" height="1.389" rx=".695" fill="#000" fill-opacity=".05"/>
        <path d="M16.298 60.158a.53.53 0 0 1 .53-.53h1.99a.53.53 0 0 1 .53.53v5.093a.53.53 0 0 1-.53.53h-1.99a.53.53 0 0 1-.53-.53v-5.093ZM34.065 60.158a.53.53 0 0 1 .53-.53h1.989a.53.53 0 0 1 .53.53v5.093a.53.53 0 0 1-.53.53h-1.99a.53.53 0 0 1-.53-.53v-5.093Z" fill="#1E3B8A"/>
        <path d="M16.796 54.271a9.424 9.424 0 0 1 8.652-5.689h2.609a9.284 9.284 0 0 1 8.56 5.689H16.796Z" fill="#E0E8FF"/>
        <path d="M18.837 49.542c.252-.582.826-.96 1.461-.96h12.87c.642 0 1.22.384 1.468.974l1.98 4.715h-19.82l2.041-4.73Z" fill="#DCEBFE"/>
        <path d="M17.601 53.808a.97.97 0 0 0-.762.374l-.633.957a2.642 2.642 0 0 0-.438 1.456v5.084a1.59 1.59 0 0 0 1.591 1.588h18.694a1.59 1.59 0 0 0 1.591-1.588v-5.084c0-.517-.152-1.024-.438-1.456l-.632-.957a.97.97 0 0 0-.763-.374h-18.21Z" fill="#91C3FD"/>
        <path d="M15.768 59.894a1.06 1.06 0 0 1 1.06-1.059h19.756c.585 0 1.06.474 1.06 1.059v1.918c0 .803-.653 1.455-1.458 1.455h-18.96a1.457 1.457 0 0 1-1.458-1.455v-1.918Z" fill="#3B82F6"/>
        <path d="M16.564 56.818c0-.53.43-.96.961-.96h2.386a.96.96 0 0 1 .961.96c0 .53-.43.959-.961.959h-2.386a.96.96 0 0 1-.961-.96Z" fill="#fff"/>
        <path d="M17.16 61.183c0-.712.579-1.29 1.293-1.29h16.506c.714 0 1.293.578 1.293 1.29 0 .713-.579 1.29-1.293 1.29H18.453a1.291 1.291 0 0 1-1.293-1.29Z" fill="#2463EB"/>
        <path d="M17.558 61.183a.894.894 0 1 1 1.788.002.894.894 0 0 1-1.788-.002ZM34.065 61.183a.894.894 0 1 1 1.788.002.894.894 0 0 1-1.788-.002Z" fill="#fff"/>
        <path d="M34.461 49.244H19.006c.295-.41.773-.662 1.293-.662h12.87c.52 0 .998.252 1.292.662ZM19.006 49.244a1.583 1.583 0 0 0-.169.298l-.335.776 17.865 3.358-1.73-4.12a1.584 1.584 0 0 0-.176-.312H19.006Z" fill="#91C3FD"/>
        <path d="M32.54 56.818c0-.53.43-.96.962-.96h2.385a.96.96 0 0 1 .962.96c0 .53-.43.959-.962.959h-2.385a.96.96 0 0 1-.962-.96Z" fill="#fff"/>
        <path fill="#DCEBFE" d="M44.581 35.093h93.79v30.293h-93.79z"/>
        <path d="M44.581 35.093h93.791V57.44l-93.79-18.138v-4.208Z" fill="#BEDBFE"/>
        <path fill="#3B82F6" d="M111.36 44.069h27.012v14.585H111.36z"/>
        <path fill="#BEDBFE" d="M111.923 44.817h26.449v13.837h-26.449z"/>
        <path d="M111.923 44.817h26.449v10.472l-26.449-10.472Z" fill="#61A6FA"/>
        <path d="M61.825.5h56.421L145.5 35.093H37.266L61.826.5Z" fill="#2463EB"/>
        <mask id="e" style="mask-type:alpha" maskUnits="userSpaceOnUse" x="37" y="0" width="109" height="36">
            <path d="M61.825.5h56.421L145.5 35.093H37.266L61.826.5Z" fill="#372FA2"/>
        </mask>
        <g mask="url(#e)" fill="#1E3FAE">
            <path d="M38.58 5.736v-.561h105.607v.56zM38.58 3.305v-.561h105.607v.56zM38.58 8.167v-.561h105.607v.56zM38.58 10.597v-.56h105.608v.56zM38.579 13.028v-.56h105.608v.56zM38.579 15.46v-.562h105.608v.561zM38.579 17.89v-.56h105.608v.56zM38.579 20.321v-.56h105.608v.56zM38.579 22.752v-.56h105.608v.56zM38.579 25.183v-.561h105.608v.561zM38.58 27.614v-.561h105.607v.56zM38.58 30.045v-.561h105.607v.56zM38.58 32.476v-.561h105.607v.56z"/>
        </g>
        <path d="m78.221 15.662 13.13-8.987 13.132 8.987v12.33H78.221v-12.33Z" fill="#DCEBFE"/>
        <path d="m78.221 15.662 13.13-8.987 13.132 8.987v7.468l-26.262-6.357v-1.11Z" fill="#BEDBFE"/>
        <path fill="#3B82F6" d="M83.474 15.651h15.757v12.341H83.474z"/>
        <path fill="#BEDBFE" d="M84.036 16.212H99.23v11.78H84.036z"/>
        <path d="M84.036 16.212H99.23v9.443l-15.194-8.04v-1.403Z" fill="#61A6FA"/>
        <path fill-rule="evenodd" clip-rule="evenodd" d="m91.352 2.744 18.446 12.258-2.602 3.89-15.844-10.53-15.845 10.53-2.6-3.89L91.351 2.744Z" fill="#3B82F6"/>
        <path fill-rule="evenodd" clip-rule="evenodd" d="m91.352 7.05 16.507 10.845-.666.953L91.352 8.416 75.407 18.848l-.468-.953L91.352 7.049Z" fill="#1D4FD7"/>
        <path fill="#DCEBFE" d="M77.971 34.907h27.012v30.48H77.971z"/>
        <path d="M77.97 38.46h8.442a.75.75 0 0 1 .75.747v5.236a.75.75 0 0 1-.75.748h-8.441V38.46ZM87.913 39.581c0-.62.504-1.122 1.125-1.122h3.377c.621 0 1.125.503 1.125 1.122v2.391c0 .457-.278.868-.702 1.04l-3.377 1.366c-.74.299-1.548-.244-1.548-1.04v-3.757ZM93.54 48.57c0 .345-.16.672-.434.885l-.95.736c-.197.153-.44.236-.69.236h-4.304a1.124 1.124 0 0 1-1.125-1.122v-1.929c0-.448.267-.853.68-1.03l5.252-2.256c.743-.32 1.571.223 1.571 1.03v3.45ZM94.29 39.207a.75.75 0 0 1 .75-.748h2.627a.75.75 0 0 1 .75.748v2.805a.75.75 0 0 1-.75.748h-2.626a.75.75 0 0 1-.75-.748v-2.805ZM100.293 61.833a.75.75 0 0 1 .75-.748h3.94v3.834h-3.94a.75.75 0 0 1-.75-.748v-2.338ZM78.346 47.06c0-.619.504-1.121 1.126-1.121h4.69c.62 0 1.125.502 1.125 1.122v3.927c0 .62-.504 1.122-1.126 1.122h-4.69a1.124 1.124 0 0 1-1.125-1.122V47.06ZM102.919 43.882c0-.31.252-.56.563-.56h1.501v5.048h-1.501a.562.562 0 0 1-.563-.561v-3.927ZM99.168 39.207a.75.75 0 0 1 .75-.748h5.065v4.301h-5.065a.75.75 0 0 1-.75-.748v-2.805ZM77.97 62.394h6.566c.311 0 .563.251.563.561v1.31c0 .309-.252.56-.563.56h-6.565v-2.43ZM85.474 63.33c0-.517.42-.936.938-.936h3.752c.518 0 .938.419.938.935v.561c0 .517-.42.935-.938.935h-3.752a.936.936 0 0 1-.938-.935v-.56ZM94.29 44.256c0-.516.42-.935.938-.935h6.003c.518 0 .938.419.938.935v3.553c0 .516-.42.935-.938.935h-6.003a.936.936 0 0 1-.938-.935v-3.553ZM104.983 55.102H98.98a.936.936 0 0 0-.938.934V58.7c0 .32.165.62.437.79l.794.5c.36.227.777.347 1.202.347h4.508v-5.235ZM97.48 53.606a.75.75 0 0 0-.751-.748h-4.127a.75.75 0 0 0-.75.748v3.016c0 .305.185.579.468.693l4.127 1.67a.75.75 0 0 0 1.032-.693v-4.686ZM91.852 63.703c0 .62.504 1.122 1.125 1.122h5.815a.75.75 0 0 0 .75-.748v-2.263a.748.748 0 0 0-.459-.69l-6.45-2.703a.563.563 0 0 0-.781.517v4.765ZM91.102 52.297c0-.62-.504-1.122-1.126-1.122h-2.814c-.621 0-1.125.502-1.125 1.122v3.74c0 .62.504 1.121 1.125 1.121h2.814c.622 0 1.126-.502 1.126-1.121v-3.74ZM82.473 58.841c0-.62-.504-1.122-1.126-1.122h-1.875c-.622 0-1.126.503-1.126 1.122v1.87c0 .62.504 1.122 1.126 1.122h1.875c.622 0 1.126-.502 1.126-1.122v-1.87ZM85.287 53.7a.655.655 0 0 0-.657-.655h-3.564a.656.656 0 1 0 0 1.309h3.564a.655.655 0 0 0 .657-.655ZM98.042 53.793a.75.75 0 0 1 .75-.748h3.002a.75.75 0 1 1 0 1.496h-3.002a.75.75 0 0 1-.75-.748ZM82.848 56.036a.936.936 0 0 0-.938-.934h-3.94v1.87h3.94a.936.936 0 0 0 .938-.936ZM80.034 53.7a.655.655 0 0 0-.656-.655H77.97v1.309h1.407a.655.655 0 0 0 .656-.655ZM85.474 55.85a.75.75 0 0 0-.75-.748h-.75a.75.75 0 0 0-.75.748v.56a.75.75 0 0 0 .75.749h.75a.75.75 0 0 0 .75-.748v-.561ZM102.919 53.886c0-.465.378-.841.844-.841h1.22v1.683h-1.22a.843.843 0 0 1-.844-.842ZM97.855 50.053a.75.75 0 0 0-.75-.748h-2.28c-.226 0-.447.068-.633.194l-1.812 1.228a.56.56 0 0 0-.247.464v.545c0 .31.252.56.563.56h4.408a.75.75 0 0 0 .75-.747v-1.496ZM91.102 58.841c0-.62-.504-1.122-1.126-1.122H84.35c-.622 0-1.126.503-1.126 1.122v1.87c0 .62.504 1.122 1.126 1.122h5.627c.622 0 1.126-.502 1.126-1.122v-1.87ZM98.417 50.053a.75.75 0 0 1 .75-.748h5.816v2.992h-5.815a.75.75 0 0 1-.75-.748v-1.496Z" fill="#61A6FA"/>
        <path d="M77.97 37.337h27.013v12.716L77.971 44.82v-7.483Z" fill="#BEDBFE"/>
        <mask id="f" style="mask-type:alpha" maskUnits="userSpaceOnUse" x="77" y="38" width="28" height="27">
            <path d="M77.97 38.46h8.442a.75.75 0 0 1 .75.747v5.236a.75.75 0 0 1-.75.748h-8.441V38.46ZM87.913 39.581c0-.62.504-1.122 1.125-1.122h3.377c.621 0 1.125.503 1.125 1.122v2.391c0 .457-.278.868-.702 1.04l-3.377 1.366c-.74.299-1.548-.244-1.548-1.04v-3.757ZM93.54 48.57c0 .345-.16.672-.434.885l-.95.736c-.197.153-.44.236-.69.236h-4.304a1.124 1.124 0 0 1-1.125-1.122v-1.929c0-.448.267-.853.68-1.03l5.252-2.256c.743-.32 1.571.223 1.571 1.03v3.45ZM94.29 39.207a.75.75 0 0 1 .75-.748h2.627a.75.75 0 0 1 .75.748v2.805a.75.75 0 0 1-.75.748h-2.626a.75.75 0 0 1-.75-.748v-2.805ZM100.293 61.833a.75.75 0 0 1 .75-.748h3.94v3.834h-3.94a.75.75 0 0 1-.75-.748v-2.338ZM78.346 47.06c0-.619.504-1.121 1.126-1.121h4.69c.62 0 1.125.502 1.125 1.122v3.927c0 .62-.504 1.122-1.126 1.122h-4.69a1.124 1.124 0 0 1-1.125-1.122V47.06ZM102.919 43.882c0-.31.252-.56.563-.56h1.501v5.048h-1.501a.562.562 0 0 1-.563-.561v-3.927ZM99.168 39.207a.75.75 0 0 1 .75-.748h5.065v4.301h-5.065a.75.75 0 0 1-.75-.748v-2.805ZM77.97 62.394h6.566c.311 0 .563.251.563.561v1.31c0 .309-.252.56-.563.56h-6.565v-2.43ZM85.474 63.33c0-.517.42-.936.938-.936h3.752c.518 0 .938.419.938.935v.561c0 .517-.42.935-.938.935h-3.752a.936.936 0 0 1-.938-.935v-.56ZM94.29 44.256c0-.516.42-.935.938-.935h6.003c.518 0 .938.419.938.935v3.553c0 .516-.42.935-.938.935h-6.003a.936.936 0 0 1-.938-.935v-3.553ZM104.981 55.097h-6a.936.936 0 0 0-.939.935v2.664c0 .32.165.619.437.79l.795.5c.36.227.776.347 1.202.347h4.505v-5.236ZM97.48 53.606a.75.75 0 0 0-.751-.748h-4.127a.75.75 0 0 0-.75.748v3.016c0 .305.185.579.468.693l4.127 1.67a.75.75 0 0 0 1.032-.693v-4.686ZM91.852 63.703c0 .62.504 1.122 1.125 1.122h5.815a.75.75 0 0 0 .75-.748v-2.263a.748.748 0 0 0-.459-.69l-6.45-2.703a.563.563 0 0 0-.781.517v4.765ZM91.102 52.297c0-.62-.504-1.122-1.126-1.122h-2.814c-.621 0-1.125.502-1.125 1.122v3.74c0 .62.504 1.121 1.125 1.121h2.814c.622 0 1.126-.502 1.126-1.121v-3.74ZM82.473 58.841c0-.62-.504-1.122-1.126-1.122h-1.875c-.622 0-1.126.503-1.126 1.122v1.87c0 .62.504 1.122 1.126 1.122h1.875c.622 0 1.126-.502 1.126-1.122v-1.87ZM85.287 53.7a.655.655 0 0 0-.657-.655h-3.564a.656.656 0 1 0 0 1.309h3.564a.655.655 0 0 0 .657-.655ZM98.042 53.793a.75.75 0 0 1 .75-.748h3.002a.75.75 0 1 1 0 1.496h-3.002a.75.75 0 0 1-.75-.748ZM82.848 56.036a.936.936 0 0 0-.938-.934h-3.94v1.87h3.94a.936.936 0 0 0 .938-.936ZM80.034 53.7a.655.655 0 0 0-.656-.655H77.97v1.309h1.407a.655.655 0 0 0 .656-.655ZM85.474 55.85a.75.75 0 0 0-.75-.748h-.75a.75.75 0 0 0-.75.748v.56a.75.75 0 0 0 .75.749h.75a.75.75 0 0 0 .75-.748v-.561ZM102.919 53.886c0-.465.378-.841.844-.841h1.22v1.683h-1.22a.843.843 0 0 1-.844-.842ZM97.855 50.053a.75.75 0 0 0-.75-.748h-2.28c-.226 0-.447.068-.633.194l-1.812 1.228a.56.56 0 0 0-.247.464v.545c0 .31.252.56.563.56h4.408a.75.75 0 0 0 .75-.747v-1.496ZM91.102 58.841c0-.62-.504-1.122-1.126-1.122H84.35c-.622 0-1.126.503-1.126 1.122v1.87c0 .62.504 1.122 1.126 1.122h5.627c.622 0 1.126-.502 1.126-1.122v-1.87ZM98.417 50.053a.75.75 0 0 1 .75-.748h5.816v2.992h-5.815a.75.75 0 0 1-.75-.748v-1.496Z" fill="#BF83FC"/>
        </mask>
        <g mask="url(#f)">
            <path d="M77.97 37.337h27.013v12.716L77.971 44.82v-7.483Z" fill="#3B82F6"/>
        </g>
        <path d="M41.58 35.093h99.793a2.805 2.805 0 0 1-2.805 2.805H44.385a2.805 2.805 0 0 1-2.805-2.805Z" fill="#1D4FD7"/>
        <path d="M41.58 35.093h99.793v1.496H41.58v-1.495Z" fill="#1E3FAE"/>
        <path fill="#1D4FD7" d="M51.522 42.947h23.072v22.439H51.522z"/>
        <path fill="#91C3FD" d="M56.774 45.939h12.755v19.447H56.774z"/>
        <path fill="#BEDBFE" d="M59.025 47.435h3.001v17.951h-3.001z"/>
        <path d="M59.025 47.435h3.002v5.423l-3.002-3.46v-1.963Z" fill="#61A6FA"/>
        <path d="M53.398 48.557a.75.75 0 0 1 .75-.748.75.75 0 0 1 .75.748v5.236a.75.75 0 0 1-1.5 0v-5.236ZM71.406 48.557a.75.75 0 0 1 .75-.748.75.75 0 0 1 .75.748v5.236a.75.75 0 0 1-1.5 0v-5.236Z" fill="#DCEBFE"/>
    </g>
    
</g></symbol><symbol id="Office building" viewBox="0 0 96 89"><g fill="none">
    <path d="M29.827 75.932c0 1.105-2.477 2.001-5.533 2.001-3.055 0-5.532-.896-5.532-2.001 0-1.106 1.242.288 4.298.288s6.767-1.394 6.767-.288Z" fill="#3B82F6"/>
    <path d="M29.827 75.932c0 1.105-2.477 2.001-5.533 2.001-3.055 0-5.532-.896-5.532-2.001 0-1.106 1.242.288 4.298.288s6.767-1.394 6.767-.288Z" fill="#3B82F6"/>
    <path d="M26.32 76.91c-2.711.734-6.169.721-7.723-.03-1.555-.75-.263-.977 2.448-1.712s2.9.179 4.453.93c1.555.75 3.533.077.822.812ZM36.525 78.447c0 .964-2.216 1.745-4.95 1.745s-4.95-.781-4.95-1.745c0-.964 2.216-1.745 4.95-1.745s4.95.781 4.95 1.745Z" fill="#3B82F6"/>
    <path d="M36.525 78.447c0 .964-2.216 1.745-4.95 1.745s-4.95-.781-4.95-1.745c0-.964 2.216-1.745 4.95-1.745s4.95.781 4.95 1.745Z" fill="#3B82F6"/>
    <path d="M33.387 79.3c-2.426.64-5.52.628-6.91-.026-1.391-.655-.552-1.705 1.874-2.345 2.426-.64 5.52-.63 6.91.025 1.391.655.552 1.705-1.874 2.345Z" fill="#3B82F6"/>
    <path d="M26.333 77.985c0 1.219-2.803 2.207-6.261 2.207s-6.261-.988-6.261-2.207c0-1.22 2.803-2.207 6.26-2.207 3.459 0 6.262.988 6.262 2.207Z" fill="#3B82F6"/>
    <path d="M26.333 77.985c0 1.219-2.803 2.207-6.261 2.207s-6.261-.988-6.261-2.207c0-1.22 2.803-2.207 6.26-2.207 3.459 0 6.262.988 6.262 2.207Z" fill="#3B82F6"/>
    <path d="M22.364 79.063c-3.068.81-6.98.796-8.74-.032-1.758-.828-.697-2.156 2.37-2.966 3.069-.81 6.982-.795 8.74.032 1.76.828.698 2.156-2.37 2.966Z" fill="#3B82F6"/>
    <path d="M33.03 77.677c0 1.275-2.933 2.31-6.552 2.31-3.618 0-6.552-1.034-6.552-2.31s2.934-2.31 6.553-2.31c3.618 0 6.552 1.034 6.552 2.31Z" fill="#3B82F6"/>
    <path d="M33.03 77.677c0 1.275-2.933 2.31-6.552 2.31-3.618 0-6.552-1.034-6.552-2.31s2.934-2.31 6.553-2.31c3.618 0 6.552 1.034 6.552 2.31Z" fill="#3B82F6"/>
    <path d="M28.877 78.805c-3.21.848-7.305.833-9.146-.034-1.84-.866-.73-2.255 2.48-3.103 3.211-.848 7.306-.833 9.147.034 1.84.866.73 2.256-2.48 3.103Z" fill="#3B82F6"/>
    <path d="M29.54 79.063c0 .964-2.216 1.745-4.95 1.745-1.773 0-3.327-.328-4.202-.821-.475-.268-.75-.585-.75-.924 0-.964 2.217-1.745 4.951-1.745 2.735 0 4.951.781 4.951 1.745Z" fill="#3B82F6"/>
    <path d="M29.54 79.063c0 .964-2.216 1.745-4.95 1.745-1.773 0-3.327-.328-4.202-.821-.475-.268-.75-.585-.75-.924 0-.964 2.217-1.745 4.951-1.745 2.735 0 4.951.781 4.951 1.745Z" fill="#3B82F6"/>
    <path d="M29.893 80.12c-2.426.641-5.52.63-6.91-.025-1.392-.654-.552-1.704 1.873-2.345 2.426-.64 5.52-.629 6.91.026 1.392.654.553 1.704-1.873 2.345ZM19.344 79.422c0 .539-1.239.975-2.767.975-1.528 0-2.766-.436-2.766-.975 0-.539 1.239-.975 2.766-.975 1.528 0 2.767.436 2.767.975Z" fill="#3B82F6"/>
    <path d="M19.344 79.422c0 .539-1.239.975-2.767.975-1.528 0-2.766-.436-2.766-.975 0-.539 1.239-.975 2.766-.975 1.528 0 2.767.436 2.767.975Z" fill="#3B82F6"/>
    <path d="M17.59 79.898c-1.355.358-3.084.352-3.861-.014-.778-.366-.309-.952 1.047-1.31 1.355-.358 3.084-.352 3.862.014.777.366.308.953-1.048 1.31Z" fill="#3B82F6"/>
    <path d="M24.517 10.681c0-2.374 1.911-4.299 4.27-4.299h38.426c2.359 0 4.27 1.925 4.27 4.3v67.977H24.517V10.68Z" fill="#91C3FD"/>
    <rect x="27.719" y="14.174" width="40.295" height="3.762" rx="1.881" fill="#CBD5E1"/>
    <rect x="27.719" y="14.174" width="40.295" height="3.762" rx="1.881" fill="#1D4FD7"/>
    <mask id="a" style="mask-type:alpha" maskUnits="userSpaceOnUse" x="63" y="77" width="11" height="5">
        <path d="M72.406 77.507a1.141 1.141 0 0 0-.915-.46h-2.72c-.68 0-1.345.202-1.909.581l-.896.602c-.268.18-.572.298-.89.347l-.45.07a1.672 1.672 0 0 0-1.415 1.652c0 .615.498 1.114 1.114 1.114h8.27c.605 0 1.095-.49 1.095-1.094 0-.707-.228-1.395-.65-1.962l-.634-.85Z" fill="#61A6FA"/>
    </mask>
    <g mask="url(#a)">
        <path d="M72.245 77.047H68.77c-.68 0-1.344.202-1.908.581l-.896.602c-.268.18-.572.298-.89.347l-.45.07a1.672 1.672 0 0 0-1.415 1.652c0 .615.498 1.114 1.114 1.114h7.861c.83 0 1.504-.673 1.504-1.504 0-.443-.13-.876-.375-1.245l-1.07-1.617Z" fill="#2463EB"/>
        <path fill="#1E3FAE" d="M73.329 77.047h-7.95v1.455h7.95z"/>
    </g>
    <ellipse rx="1.084" ry="1.092" transform="matrix(-1 0 0 1 65.379 81.05)" fill="#1D4FD7"/>
    <ellipse rx=".723" ry=".728" transform="matrix(-1 0 0 1 65.379 81.05)" fill="#2463EB"/>
    <ellipse rx="1.084" ry="1.092" transform="matrix(-1 0 0 1 71.883 81.05)" fill="#2463EB"/>
    <ellipse rx=".723" ry=".728" transform="matrix(-1 0 0 1 71.883 81.05)" fill="#2463EB"/>
    <mask id="b" style="mask-type:alpha" maskUnits="userSpaceOnUse" x="66" y="77" width="12" height="6">
        <path d="M76.02 78.234a1.141 1.141 0 0 0-.915-.46h-2.721c-.68 0-1.344.203-1.908.582l-.896.601c-.268.18-.572.299-.89.348l-.45.07a1.672 1.672 0 0 0-1.416 1.651c0 .616.5 1.115 1.115 1.115h8.27c.605 0 1.095-.49 1.095-1.095 0-.707-.228-1.394-.65-1.961l-.634-.85Z" fill="#61A6FA"/>
    </mask>
    <g mask="url(#b)">
        <path d="M75.859 77.775h-3.475c-.68 0-1.344.202-1.908.58l-.896.602c-.268.18-.572.299-.89.348l-.45.07a1.672 1.672 0 0 0-1.416 1.651c0 .616.5 1.115 1.115 1.115H75.8c.83 0 1.504-.674 1.504-1.504 0-.443-.13-.876-.375-1.246l-1.07-1.616Z" fill="#3B82F6"/>
        <path fill="#1D4FD7" d="M76.943 77.775h-7.95v1.455h7.95z"/>
    </g>
    <ellipse rx="1.084" ry="1.092" transform="matrix(-1 0 0 1 68.993 81.777)" fill="#1D4FD7"/>
    <ellipse rx=".723" ry=".728" transform="matrix(-1 0 0 1 68.993 81.777)" fill="#3B82F6"/>
    <ellipse rx="1.084" ry="1.092" transform="matrix(-1 0 0 1 75.497 81.777)" fill="#1D4FD7"/>
    <ellipse rx=".723" ry=".728" transform="matrix(-1 0 0 1 75.497 81.777)" fill="#3B82F6"/>
    <mask id="c" style="mask-type:alpha" maskUnits="userSpaceOnUse" x="70" y="78" width="11" height="5">
        <path d="M79.272 78.961a1.141 1.141 0 0 0-.915-.459h-2.72c-.68 0-1.345.202-1.909.58l-.896.603c-.268.18-.572.298-.89.347l-.45.07a1.672 1.672 0 0 0-1.415 1.652c0 .615.499 1.114 1.114 1.114h8.27c.605 0 1.095-.49 1.095-1.094 0-.707-.228-1.395-.65-1.962l-.634-.85Z" fill="#61A6FA"/>
    </mask>
    <g mask="url(#c)">
        <path d="M79.11 78.502h-3.474c-.68 0-1.344.202-1.908.58l-.896.603c-.268.18-.572.298-.89.347l-.45.07a1.672 1.672 0 0 0-1.415 1.652c0 .615.499 1.114 1.114 1.114h7.861c.83 0 1.504-.673 1.504-1.504 0-.443-.13-.876-.375-1.245l-1.07-1.617Z" fill="#61A6FA"/>
        <path fill="#2563EB" d="M80.195 78.502h-7.95v1.455h7.95z"/>
    </g>
    <ellipse rx="1.084" ry="1.092" transform="matrix(-1 0 0 1 72.245 82.504)" fill="#2463EB"/>
    <ellipse rx=".723" ry=".728" transform="matrix(-1 0 0 1 72.245 82.504)" fill="#61A6FA"/>
    <ellipse rx="1.084" ry="1.092" transform="matrix(-1 0 0 1 78.75 82.504)" fill="#2463EB"/>
    <ellipse rx=".723" ry=".728" transform="matrix(-1 0 0 1 78.75 82.504)" fill="#61A6FA"/>
    <rect x="27.719" y="22.235" width="40.295" height="3.762" rx="1.881" fill="#1D4FD7"/>
    <rect x="27.719" y="30.295" width="40.295" height="3.762" rx="1.881" fill="#1D4FD7"/>
    <rect x="27.719" y="38.356" width="40.295" height="3.762" rx="1.881" fill="#1D4FD7"/>
    <rect x="27.719" y="46.417" width="40.295" height="3.762" rx="1.881" fill="#1D4FD7"/>
    <rect x="27.719" y="54.477" width="40.295" height="3.762" rx="1.881" fill="#1D4FD7"/>
    <rect x="27.719" y="62.538" width="40.295" height="3.762" rx="1.881" fill="#1D4FD7"/>
    <path d="M41.062 76.054a7.605 7.605 0 1 1 15.21 0v2.605h-15.21v-2.605Z" fill="#1D4FD7"/>
    <mask id="d" style="mask-type:alpha" maskUnits="userSpaceOnUse" x="24" y="6" width="35" height="73">
        <path d="M24.517 10.681c0-2.374 1.911-4.299 4.27-4.299h25.617c2.359 0 4.27 1.925 4.27 4.3v67.977H24.517V10.68Z" fill="#fff"/>
    </mask>
    <g mask="url(#d)">
        <path d="M24.517 10.681c0-2.374 1.911-4.299 4.27-4.299h28.02c1.178 0 2.134.963 2.134 2.15v70.127H24.517V10.68Z" fill="#F0F6FF"/>
        <path d="M29.735 73.62c0 2.893-2.27 5.239-5.07 5.239-2.8 0-5.07-2.346-5.07-5.24 0-2.893 2.27-5.239 5.07-5.239 2.8 0 5.07 2.346 5.07 5.24Z" fill="#91C3FD"/>
        <path d="M29.735 73.62c0 2.893-2.27 5.239-5.07 5.239-2.8 0-5.07-2.346-5.07-5.24 0-2.893 2.27-5.239 5.07-5.239 2.8 0 5.07 2.346 5.07 5.24Z" fill="#91C3FD"/>
        <path d="M23.855 74.268c-2.484 1.922-5.653 1.888-7.077-.077-1.424-1.965-.565-5.117 1.92-7.04 2.484-1.923 5.653-1.889 7.077.077 1.424 1.965.565 5.117-1.92 7.04ZM35.873 80.202c0 2.523-2.03 4.568-4.536 4.568S26.8 82.725 26.8 80.202c0-2.522 2.031-4.567 4.537-4.567 2.505 0 4.536 2.045 4.536 4.567Z" fill="#91C3FD"/>
        <path d="M35.873 80.202c0 2.523-2.03 4.568-4.536 4.568S26.8 82.725 26.8 80.202c0-2.522 2.031-4.567 4.537-4.567 2.505 0 4.536 2.045 4.536 4.567Z" fill="#91C3FD"/>
        <path d="M32.998 82.434c-2.223 1.676-5.058 1.646-6.333-.067-1.274-1.713-.505-4.461 1.717-6.137 2.223-1.677 5.058-1.647 6.333.066 1.274 1.714.505 4.462-1.718 6.138Z" fill="#91C3FD"/>
        <path d="M26.533 78.993c0 3.19-2.569 5.777-5.737 5.777-3.169 0-5.737-2.586-5.737-5.777 0-3.19 2.568-5.776 5.737-5.776s5.737 2.586 5.737 5.776Z" fill="#91C3FD"/>
        <path d="M26.533 78.993c0 3.19-2.569 5.777-5.737 5.777-3.169 0-5.737-2.586-5.737-5.777 0-3.19 2.568-5.776 5.737-5.776s5.737 2.586 5.737 5.776Z" fill="#91C3FD"/>
        <path d="M22.896 81.816c-2.81 2.12-6.396 2.082-8.008-.085-1.612-2.167-.64-5.642 2.172-7.762 2.811-2.12 6.397-2.082 8.008.085 1.612 2.166.64 5.641-2.172 7.761Z" fill="#91C3FD"/>
        <path d="M32.67 78.187c0 3.339-2.687 6.046-6.003 6.046-3.316 0-6.005-2.707-6.005-6.046 0-3.339 2.689-6.045 6.005-6.045s6.004 2.706 6.004 6.045Z" fill="#91C3FD"/>
        <path d="M32.67 78.187c0 3.339-2.687 6.046-6.003 6.046-3.316 0-6.005-2.707-6.005-6.046 0-3.339 2.689-6.045 6.005-6.045s6.004 2.706 6.004 6.045Z" fill="#91C3FD"/>
        <path d="M28.865 81.14c-2.942 2.22-6.695 2.18-8.381-.088-1.687-2.268-.67-5.904 2.273-8.123 2.942-2.219 6.694-2.179 8.38.089 1.688 2.267.67 5.904-2.272 8.123Z" fill="#91C3FD"/>
        <path d="M32.67 82.352c0 2.522-2.03 4.567-4.536 4.567-2.505 0-4.536-2.044-4.536-4.567s2.03-4.568 4.536-4.568 4.537 2.045 4.537 4.568Z" fill="#91C3FD"/>
        <path d="M32.67 82.352c0 2.522-2.03 4.567-4.536 4.567-2.505 0-4.536-2.044-4.536-4.567s2.03-4.568 4.536-4.568 4.537 2.045 4.537 4.568Z" fill="#91C3FD"/>
        <path d="M29.795 84.583c-2.223 1.677-5.058 1.647-6.332-.067-1.275-1.713-.506-4.46 1.717-6.137 2.223-1.676 5.058-1.646 6.333.067 1.274 1.713.505 4.461-1.718 6.137ZM20.129 82.755a2.544 2.544 0 0 1-2.535 2.552 2.544 2.544 0 0 1-2.536-2.552 2.544 2.544 0 0 1 2.536-2.553c1.4 0 2.535 1.143 2.535 2.553Z" fill="#91C3FD"/>
        <path d="M20.129 82.755a2.544 2.544 0 0 1-2.535 2.552 2.544 2.544 0 0 1-2.536-2.552 2.544 2.544 0 0 1 2.536-2.553c1.4 0 2.535 1.143 2.535 2.553Z" fill="#91C3FD"/>
        <path d="M18.522 84.002c-1.242.937-2.827.92-3.539-.037-.712-.958-.282-2.493.96-3.43 1.242-.937 2.826-.92 3.539.037.712.958.282 2.493-.96 3.43Z" fill="#91C3FD"/>
        <rect x="27.719" y="14.174" width="40.295" height="3.762" rx="1.881" fill="#3B82F6"/>
        <rect x="27.719" y="22.235" width="40.295" height="3.762" rx="1.881" fill="#3B82F6"/>
        <rect x="27.719" y="30.295" width="40.295" height="3.762" rx="1.881" fill="#3B82F6"/>
        <rect x="27.719" y="38.356" width="40.295" height="3.762" rx="1.881" fill="#3B82F6"/>
        <rect x="27.719" y="46.417" width="40.295" height="3.762" rx="1.881" fill="#3B82F6"/>
        <rect x="27.719" y="54.477" width="40.295" height="3.762" rx="1.881" fill="#3B82F6"/>
        <rect x="27.719" y="62.538" width="40.295" height="3.762" rx="1.881" fill="#3B82F6"/>
        <path d="M40.528 73.7a3.37 3.37 0 0 1 3.37-3.37h8.47a3.37 3.37 0 0 1 3.37 3.37v4.959h-15.21V73.7Z" fill="#61A6FA"/>
        <path d="M41.862 74.507a3.37 3.37 0 0 1 3.371-3.371H55.74v7.523H41.862v-4.153Z" fill="#3B82F6"/>
    </g>
    <mask id="e" style="mask-type:alpha" maskUnits="userSpaceOnUse" x="11" y="59" width="11" height="12">
        <ellipse cx="16.244" cy="65.091" rx="5.07" ry="5.239" fill="#61A6FA"/>
    </mask>
    <g mask="url(#e)">
        <ellipse cx="16.244" cy="65.09" rx="5.07" ry="5.239" fill="#61A6FA"/>
        <ellipse rx="4.395" ry="5.688" transform="matrix(.58685 .8097 -.79082 .61205 15.522 64.092)" fill="#1E3FAE"/>
    </g>
    <mask id="f" style="mask-type:alpha" maskUnits="userSpaceOnUse" x="18" y="67" width="10" height="10">
        <ellipse cx="22.916" cy="71.673" rx="4.537" ry="4.568" fill="#61A6FA"/>
    </mask>
    <g mask="url(#f)">
        <ellipse cx="22.916" cy="71.673" rx="4.537" ry="4.568" fill="#61A6FA"/>
        <ellipse rx="3.866" ry="5.041" transform="matrix(.59684 .80236 -.79842 .6021 22.27 70.803)" fill="#1E3FAE"/>
    </g>
    <mask id="g" style="mask-type:alpha" maskUnits="userSpaceOnUse" x="6" y="64" width="13" height="13">
        <ellipse cx="12.375" cy="70.464" rx="5.737" ry="5.777" fill="#61A6FA"/>
    </mask>
    <g mask="url(#g)">
        <ellipse cx="12.375" cy="70.464" rx="5.737" ry="5.777" fill="#61A6FA"/>
        <ellipse rx="4.89" ry="6.375" transform="matrix(.59684 .80236 -.79842 .6021 11.557 69.363)" fill="#1E3FAE"/>
    </g>
    <path d="M15.977 74.897h1.335l.267 5.911H15.71l.266-5.91Z" fill="#91C3FD"/>
    <path d="M9.903 68.52a.097.097 0 0 1 .14.001l6.585 6.917-.587.548-6.143-7.334a.098.098 0 0 1 .005-.132Z" fill="#91C3FD"/>
    <mask id="h" style="mask-type:alpha" maskUnits="userSpaceOnUse" x="12" y="63" width="13" height="13">
        <ellipse cx="18.246" cy="69.658" rx="6.004" ry="6.045" fill="#61A6FA"/>
    </mask>
    <g mask="url(#h)">
        <ellipse cx="18.246" cy="69.658" rx="6.004" ry="6.045" fill="#61A6FA"/>
        <ellipse rx="5.117" ry="6.672" transform="matrix(.59684 .80236 -.79842 .6021 17.39 68.506)" fill="#1E3FAE"/>
    </g>
    <path d="M22.015 66.493a.04.04 0 0 1 .052-.016c.021.01.03.035.02.056l-2.74 5.426-.434-.228 3.102-5.238ZM15.693 62.326a.033.033 0 0 1 .066-.011l1.45 7.625-.397.074-1.12-7.688ZM12.886 67.208c-.004-.034-.048-.043-.065-.014l-1.647 2.797.257.152 1.452-2.915a.035.035 0 0 0 .003-.02Z" fill="#91C3FD"/>
    <path d="M13.76 64.325a.035.035 0 0 1 .052-.04l2.576 1.647-.16.252-2.456-1.841a.036.036 0 0 1-.012-.018ZM17.41 63.415a.026.026 0 0 0-.046-.015l-1.244 1.484.169.142 1.116-1.594a.026.026 0 0 0 .005-.017ZM19.654 66.387a.035.035 0 0 1 .061-.018l1.435 1.708-.228.192-1.263-1.857a.036.036 0 0 1-.005-.025Z" fill="#91C3FD"/>
    <mask id="i" style="mask-type:alpha" maskUnits="userSpaceOnUse" x="15" y="69" width="10" height="10">
        <ellipse cx="19.713" cy="73.823" rx="4.537" ry="4.568" fill="#61A6FA"/>
    </mask>
    <g mask="url(#i)">
        <ellipse cx="19.713" cy="73.823" rx="4.537" ry="4.568" fill="#61A6FA"/>
        <ellipse rx="3.866" ry="5.041" transform="matrix(.59684 .80236 -.79842 .6021 19.067 72.952)" fill="#1E3FAE"/>
    </g>
    <path d="M21.348 75.552c.014.01.02.029.011.044a.034.034 0 0 1-.047.015l-3.733-2.066.203-.352 3.566 2.359Z" fill="#91C3FD"/>
    <path d="M21.521 73.23c.03.005.04.043.015.062l-1.757 1.37-.18-.239 1.897-1.189a.035.035 0 0 1 .025-.005Z" fill="#91C3FD"/>
    <path fill="#fff" d="M32.523 14.174h4.803v3.762h-4.803zM32.523 22.235h4.803v3.762h-4.803zM32.523 30.295h4.803v3.762h-4.803zM32.523 38.356h4.803v3.762h-4.803zM32.523 46.417h4.803v3.762h-4.803zM32.523 54.477h4.803v3.762h-4.803zM32.523 62.538h4.803V66.3h-4.803z"/>
</g></symbol><symbol id="icon-arrow-down" viewBox="0 0 20 20">
    <path fill-rule="nonzero" d="M10.296 0H8.958v17.439l-4.012-4.012-.946.946 5.336 5.336v.046l.023-.023.268.268.267-.269.023.024v-.046l5.337-5.336-.946-.946-4.012 4.012z"/>
</symbol><symbol id="icon-arrow" viewBox="0 0 20 20">
    <path fill-rule="nonzero" d="M-.373 9.331v1.338h17.439l-4.012 4.012.946.946 5.336-5.336h.046l-.023-.023.268-.268-.269-.267.024-.023h-.046L14 4.373l-.946.946 4.012 4.012z"/>
</symbol><symbol id="icon-book-open" viewBox="0 0 24 24"><g>
    <path fill-rule="evenodd" clip-rule="evenodd" d="M2.447 5.42C3.797 4.523 5.58 4 7.5 4c1.668 0 3.233.395 4.5 1.087C13.267 4.395 14.832 4 16.5 4c1.92 0 3.703.523 5.053 1.42a1 1 0 0 1 .447.833v13a1 1 0 0 1-1.553.833C19.46 19.43 18.073 19 16.5 19c-1.572 0-2.961.431-3.947 1.086a1 1 0 0 1-1.106 0C10.46 19.43 9.072 19 7.5 19s-2.961.431-3.947 1.086A1 1 0 0 1 2 19.253v-13a1 1 0 0 1 .447-.833ZM11 6.82C10.06 6.316 8.848 6 7.5 6c-1.348 0-2.56.317-3.5.82v10.806A9.824 9.824 0 0 1 7.5 17c1.252 0 2.446.223 3.5.626V6.82Zm2 10.806A9.824 9.824 0 0 1 16.5 17a9.82 9.82 0 0 1 3.5.626V6.819C19.06 6.317 17.849 6 16.5 6c-1.348 0-2.56.317-3.5.82v10.806Z"/>
</g></symbol><symbol id="icon-chargemap" viewBox="0 0 20 20"><g>
    <path d="M2.223 3.366C2 3.804 2 4.375 2 5.516v4.52h3.173c1.965 0 2.13.994 2.13 1.927v1.946c-.027.228.006.46.095.672.116.152.466.237.985.237.665 0 .86-.1.97-.206.112-.107.112-.32.112-.66v-3.637c-1.534-.282-2.13-1.802-2.13-3.17V6.16h1.062V4.223h1.044V6.16h1.087V4.223h1.044V6.16l1.08-.01v.985c0 1.368-.592 2.889-2.131 3.17v3.644c0 .435 0 .98-.417 1.397-.35.35-.892.514-1.71.514-.906 0-1.484-.211-1.82-.659-.303-.407-.303-.897-.303-1.292v-1.947c0-.66 0-.883-1.084-.883H2v3.434c0 1.14 0 1.711.223 2.147.196.384.508.697.892.893.436.222 1.006.222 2.15.222h9.47c1.144 0 1.714 0 2.15-.222.384-.196.696-.509.892-.893.223-.436.223-1.006.223-2.147V5.516c0-1.141 0-1.712-.223-2.15a2.052 2.052 0 0 0-.892-.89c-.436-.223-1.006-.223-2.15-.223h-9.47c-1.144 0-1.714 0-2.15.223a2.053 2.053 0 0 0-.892.89Z"/>
</g></symbol><symbol id="icon-checkmark" viewBox="0 0 24 24"><g>
    <path d="m9 21.035-9-8.638 2.791-2.87 6.156 5.874 12.21-12.436L24 5.782z"/>
</g></symbol><symbol id="icon-chevron-down" viewBox="0 0 20 20"><g>
    <path fill-rule="evenodd" clip-rule="evenodd" d="M5.293 7.293a1 1 0 0 1 1.414 0L10 10.586l3.293-3.293a1 1 0 1 1 1.414 1.414l-4 4a1 1 0 0 1-1.414 0l-4-4a1 1 0 0 1 0-1.414Z"/>
</g></symbol><symbol id="icon-identification" viewBox="0 0 20 20"><g>
    <path fill-rule="evenodd" clip-rule="evenodd" d="M10 2a1 1 0 0 0-1 1v1a1 1 0 0 0 2 0V3a1 1 0 0 0-1-1ZM4 4h3a3 3 0 1 0 6 0h3a2 2 0 0 1 2 2v9a2 2 0 0 1-2 2H4a2 2 0 0 1-2-2V6a2 2 0 0 1 2-2Zm2.5 7a1.5 1.5 0 1 0 0-3 1.5 1.5 0 0 0 0 3Zm2.45 4a2.5 2.5 0 1 0-4.9 0h4.9ZM12 9a1 1 0 1 0 0 2h3a1 1 0 0 0 0-2h-3Zm-1 4a1 1 0 0 1 1-1h2a1 1 0 0 1 0 2h-2a1 1 0 0 1-1-1Z"/>
</g></symbol><symbol id="icon-light-bulb" viewBox="0 0 20 20"><g>
    <path d="M11 3a1 1 0 0 0-2 0v1a1 1 0 0 0 2 0V3Zm4.657 2.757a1 1 0 0 0-1.414-1.414l-.707.707a1 1 0 0 0 1.414 1.414l.707-.707ZM18 10a1 1 0 0 1-1 1h-1a1 1 0 0 1 0-2h1a1 1 0 0 1 1 1ZM5.05 6.464A1 1 0 1 0 6.464 5.05l-.707-.707a1 1 0 0 0-1.414 1.414l.707.707ZM5 10a1 1 0 0 1-1 1H3a1 1 0 0 1 0-2h1a1 1 0 0 1 1 1Zm3 6v-1h4v1a2 2 0 0 1-4 0Zm4-2c.015-.34.208-.646.477-.859a4 4 0 1 0-4.954 0c.27.213.462.519.476.859h4.002H12Z"/>
</g></symbol><symbol id="icon-mail" viewBox="0 0 20 20">
    <g fill-rule="nonzero">
        <path d="M17.273 2H2.727A2.733 2.733 0 0 0 0 4.727v10.91a2.733 2.733 0 0 0 2.727 2.727h14.546A2.733 2.733 0 0 0 20 15.636V4.727A2.733 2.733 0 0 0 17.273 2ZM2.727 3.818h14.546c.498 0 .909.411.909.91v10.908c0 .498-.411.91-.91.91H2.728a.914.914 0 0 1-.909-.91V4.727c0-.498.411-.909.91-.909Z"/>
        <path d="M18.57 3.983A.91.91 0 0 1 19.702 5.4l-.09.071-9.09 6.364a.91.91 0 0 1-.935.065l-.108-.065L.388 5.472a.91.91 0 0 1 .945-1.55l.097.06L10 9.982l8.57-5.998Z"/>
    </g>
</symbol><symbol id="icon-phone" viewBox="0 0 20 20">
    <path d="M5.462 0H2.735A2.74 2.74 0 0 0 .143 1.863c-.121.36-.166.741-.132 1.12a18.976 18.976 0 0 0 2.943 8.321 18.69 18.69 0 0 0 5.749 5.747 18.954 18.954 0 0 0 8.262 2.937 2.737 2.737 0 0 0 2.999-2.735v-2.732a2.736 2.736 0 0 0-2.354-2.755 10.826 10.826 0 0 1-2.371-.59 2.733 2.733 0 0 0-1.531-.114l-.19.048a2.736 2.736 0 0 0-1.164.683l-.656.656-.11-.068a13.683 13.683 0 0 1-4.004-4.005l-.07-.11.654-.653a2.74 2.74 0 0 0 .62-2.89 10.794 10.794 0 0 1-.589-2.361A2.742 2.742 0 0 0 5.462 0ZM2.736 1.824H5.47a.912.912 0 0 1 .921.784c.123.936.354 1.863.687 2.755a.914.914 0 0 1-.204.964L5.72 7.482a.912.912 0 0 0-.148 1.096 15.507 15.507 0 0 0 5.814 5.814.912.912 0 0 0 1.096-.148l1.159-1.158a.908.908 0 0 1 .958-.202c.894.334 1.821.565 2.765.69a.912.912 0 0 1 .776.925v2.758a.916.916 0 0 1-.62.871.913.913 0 0 1-.374.045 17.124 17.124 0 0 1-7.457-2.657 16.885 16.885 0 0 1-5.2-5.197 17.147 17.147 0 0 1-2.662-7.515.9.9 0 0 1 .236-.683.912.912 0 0 1 .673-.297Z" fill-rule="nonzero"/>
</symbol><symbol id="icon-template" viewBox="0 0 20 20"><g>
    <path d="M3 4a1 1 0 0 1 1-1h12a1 1 0 0 1 1 1v2a1 1 0 0 1-1 1H4a1 1 0 0 1-1-1V4Zm0 6a1 1 0 0 1 1-1h6a1 1 0 0 1 1 1v6a1 1 0 0 1-1 1H4a1 1 0 0 1-1-1v-6Zm11-1a1 1 0 0 0-1 1v6a1 1 0 0 0 1 1h2a1 1 0 0 0 1-1v-6a1 1 0 0 0-1-1h-2Z"/>
</g></symbol><symbol id="icon-video-camera" viewBox="0 0 20 20"><g>
    <path d="M2 6a2 2 0 0 1 2-2h6a2 2 0 0 1 2 2v8a2 2 0 0 1-2 2H4a2 2 0 0 1-2-2V6Zm12.553 1.106A1 1 0 0 0 14 8v4a1 1 0 0 0 .553.894l2 1A1 1 0 0 0 18 13V7a1 1 0 0 0-1.447-.894l-2 1Z"/>
</g></symbol><symbol id="logo-chargemap-sigle" viewBox="0 0 73 73"><g fill="none">
    <path fill-rule="evenodd" clip-rule="evenodd" d="M64.062 0H8.938C3.032 0 0 3.032 0 8.939v32.03h26.906c1.683 0 3.612 2.325 3.612 3.635l-.066 15.822c.55.566 1.862.938 2.413.938.745 0 1.587-.193 2.146-.565V35.554c-5.617-1.193-8.939-7.292-8.939-16.93h2.979v-7.079c0-.618.5-1.117 1.118-1.117h2.234c.617 0 1.118.5 1.118 1.117v7.079h7.448v-7.079c0-.618.5-1.117 1.12-1.117h2.232c.62 0 1.118.5 1.118 1.117v7.079h2.347c0 9.213-3.114 15.187-8.306 16.744v25.624c0 3.674-3.449 4.873-6.705 4.812-3.888-.066-6.703-1.087-6.703-4.722v-15.77L0 45.386v18.676C0 69.97 3.032 73 8.938 73h55.124C69.968 73 73 69.97 73 64.061V8.94C73 3.032 69.968 0 64.062 0Z" fill="#3B82F6"/>
    <path d="M26.957 41.02H0v4.414l26.122-.073v15.761c0 3.633 2.82 4.653 6.716 4.72 3.262.06 6.717-1.138 6.717-4.81v-25.61c5.202-1.556 8.322-7.527 8.322-16.734h-2.351v-7.075c0-.617-.5-1.116-1.12-1.116h-2.237c-.622 0-1.122.499-1.122 1.116v7.075h-7.462v-7.075c0-.617-.502-1.116-1.12-1.116h-2.239c-.618 0-1.12.499-1.12 1.116v7.075h-2.984c0 9.632 3.328 15.728 8.956 16.92v25.23c-.56.373-1.404.566-2.15.566-.552 0-1.867-.372-2.418-.938l.066-15.813c0-1.31-1.932-3.633-3.62-3.633Z" fill="#fff"/>
</g></symbol><symbol id="logo-cmb" viewBox="0 0 235 56"><g fill="none">
    <path d="M67.894 54.396h8.735c2.318 0 4.126-.556 5.424-1.669 1.317-1.131 1.975-2.689 1.975-4.673a6.5 6.5 0 0 0-.556-2.67c-.37-.835-1.02-1.549-1.947-2.142.575-.52.992-1.094 1.252-1.725.278-.63.417-1.298.417-2.003 0-1.817-.584-3.245-1.753-4.284-1.168-1.038-2.772-1.557-4.812-1.557h-8.735v20.723Zm3.784-12.684v-4.813h5.146c.779 0 1.4.214 1.864.64.463.427.695 1.002.695 1.725 0 .723-.232 1.316-.695 1.78-.464.445-1.085.668-1.864.668h-5.146Zm0 9.346v-6.036h5.34c.983 0 1.762.278 2.337.834.594.538.89 1.27.89 2.198 0 .909-.296 1.641-.89 2.197-.575.538-1.354.807-2.337.807h-5.34ZM91.8 54.73c.946 0 1.78-.176 2.504-.528a4.206 4.206 0 0 0 1.753-1.614v1.808h3.449V39.264h-3.644v8.873c0 1.002-.287 1.8-.862 2.393-.575.575-1.308.862-2.198.862-.909 0-1.65-.287-2.225-.862-.557-.575-.835-1.345-.835-2.31v-8.956h-3.644v9.263c0 1.854.5 3.356 1.502 4.506 1.02 1.131 2.42 1.697 4.2 1.697ZM108.234 54.73c1.15 0 2.151-.195 3.004-.584.853-.39 1.521-.927 2.003-1.614.482-.704.723-1.51.723-2.42 0-1.057-.333-1.965-1.001-2.726-.668-.76-1.632-1.316-2.893-1.669l-2.42-.723c-.519-.148-.946-.343-1.28-.584-.333-.241-.5-.575-.5-1.001 0-.445.176-.807.528-1.085.353-.279.835-.418 1.447-.418.76 0 1.446.204 2.058.612a3.159 3.159 0 0 1 1.308 1.642l2.781-1.308a5.65 5.65 0 0 0-2.336-2.865c-1.094-.705-2.356-1.057-3.783-1.057-1.095 0-2.068.195-2.921.584-.835.39-1.493.937-1.975 1.641-.464.687-.696 1.493-.696 2.42 0 1.039.325 1.938.974 2.699.668.76 1.641 1.326 2.921 1.697l2.475.695c.483.13.891.325 1.224.584.353.241.529.575.529 1.002 0 .5-.204.899-.612 1.196-.39.278-.909.417-1.558.417a3.924 3.924 0 0 1-2.309-.723c-.686-.483-1.233-1.15-1.641-2.003l-2.726 1.307c.445 1.298 1.261 2.337 2.448 3.116 1.205.779 2.615 1.168 4.228 1.168ZM116.348 37.567h3.644v-3.894h-3.644v3.894Zm0 16.83h3.644V39.263h-3.644v15.132ZM122.939 54.396h3.644v-8.873c0-.983.278-1.771.834-2.365.575-.593 1.317-.89 2.226-.89s1.641.297 2.197.89c.575.575.863 1.363.863 2.365v8.873h3.644V44.66c0-1.13-.241-2.123-.724-2.976a5.095 5.095 0 0 0-2.03-2.03c-.853-.483-1.836-.724-2.949-.724-.946 0-1.799.185-2.559.556a3.983 3.983 0 0 0-1.725 1.642v-1.864h-3.421v15.132ZM146.188 54.73c1.539 0 2.883-.343 4.033-1.03 1.168-.704 1.984-1.594 2.448-2.67l-2.949-1.446a4.064 4.064 0 0 1-1.39 1.419c-.575.352-1.28.528-2.115.528-1.094 0-2.012-.334-2.753-1.001-.742-.668-1.169-1.558-1.28-2.67h10.904c.074-.205.121-.437.139-.696.037-.278.056-.556.056-.835 0-1.353-.287-2.587-.862-3.7a6.669 6.669 0 0 0-2.504-2.67c-1.094-.686-2.429-1.029-4.006-1.029-1.409 0-2.689.343-3.838 1.03a7.552 7.552 0 0 0-2.699 2.809c-.649 1.168-.973 2.513-.973 4.033 0 1.465.324 2.8.973 4.006a7.367 7.367 0 0 0 2.727 2.865c1.168.705 2.531 1.057 4.089 1.057Zm-.279-12.796c.965 0 1.762.297 2.393.89.649.575 1.01 1.326 1.085 2.254h-7.122c.204-1.002.631-1.771 1.28-2.31.668-.556 1.456-.834 2.364-.834ZM161.384 54.73c1.15 0 2.151-.195 3.004-.584.853-.39 1.521-.927 2.003-1.614.482-.704.723-1.51.723-2.42 0-1.057-.333-1.965-1.001-2.726-.668-.76-1.632-1.316-2.893-1.669l-2.42-.723c-.519-.148-.946-.343-1.28-.584-.333-.241-.5-.575-.5-1.001 0-.445.176-.807.528-1.085.353-.279.835-.418 1.447-.418.76 0 1.446.204 2.058.612a3.159 3.159 0 0 1 1.308 1.642l2.781-1.308a5.65 5.65 0 0 0-2.336-2.865c-1.094-.705-2.355-1.057-3.783-1.057-1.095 0-2.068.195-2.921.584-.835.39-1.493.937-1.975 1.641-.464.687-.696 1.493-.696 2.42 0 1.039.325 1.938.974 2.699.668.76 1.641 1.326 2.921 1.697l2.475.695c.483.13.891.325 1.224.584.353.241.529.575.529 1.002 0 .5-.204.899-.612 1.196-.39.278-.909.417-1.558.417a3.924 3.924 0 0 1-2.309-.723c-.686-.483-1.233-1.15-1.641-2.003l-2.726 1.307c.445 1.298 1.261 2.337 2.448 3.116 1.205.779 2.615 1.168 4.228 1.168ZM175.256 54.73c1.15 0 2.151-.195 3.004-.584.853-.39 1.521-.927 2.003-1.614.482-.704.723-1.51.723-2.42 0-1.057-.334-1.965-1.001-2.726-.668-.76-1.632-1.316-2.893-1.669l-2.42-.723c-.52-.148-.946-.343-1.28-.584-.334-.241-.501-.575-.501-1.001 0-.445.176-.807.529-1.085.352-.279.834-.418 1.446-.418.761 0 1.447.204 2.059.612.63.408 1.066.956 1.307 1.642l2.782-1.308a5.658 5.658 0 0 0-2.337-2.865c-1.094-.705-2.355-1.057-3.783-1.057-1.094 0-2.068.195-2.921.584-.834.39-1.493.937-1.975 1.641-.463.687-.695 1.493-.695 2.42 0 1.039.324 1.938.973 2.699.668.76 1.642 1.326 2.921 1.697l2.476.695c.482.13.89.325 1.224.584.352.241.528.575.528 1.002 0 .5-.204.899-.612 1.196-.389.278-.908.417-1.557.417a3.922 3.922 0 0 1-2.309-.723c-.686-.483-1.233-1.15-1.641-2.003l-2.726 1.307c.445 1.298 1.261 2.337 2.448 3.116 1.205.779 2.614 1.168 4.228 1.168Z" fill="#3B82F6"/>
    <path fill-rule="evenodd" clip-rule="evenodd" d="M223.943 10.11V7.654h-5.245v24.922h5.245V23.45c0 1.873 1.804 2.809 5.417 2.809 3.612 0 5.422-1.52 5.422-4.563v-9.828c0-3.044-1.81-4.563-5.422-4.563-3.613 0-5.417.935-5.417 2.807Zm5.594 10.53c0 1.405-.933 2.107-2.797 2.107s-2.797-.702-2.797-2.107v-7.72c0-1.406.933-2.108 2.797-2.108s2.797.702 2.797 2.107v7.721ZM212.259 25.905c-.933 0-1.399-.626-1.399-1.895 0 1.502-.984 2.248-2.938 2.248-4.338 0-6.502-1.521-6.502-4.563v-2.383c0-3.139 2.446-4.712 7.342-4.712 1.399 0 2.098-.437 2.098-1.33v-.701c0-1.17-.699-1.756-2.098-1.756-1.076 0-1.613.586-1.613 1.756v.701h-5.245v-1.403c0-3.044 2.284-4.565 6.858-4.565 4.894 0 7.343 1.521 7.343 4.565v11.582c0 1.639.465 2.456 1.398 2.456h-5.244Zm-1.399-5.769v-3.08c0 .702-.699 1.053-2.098 1.053s-2.098.636-2.098 1.905v.98c0 1.17.699 1.753 2.098 1.753s2.098-.87 2.098-2.61ZM174.858 7.653h5.247v2.456c0-1.87 1.36-2.807 4.083-2.807 2.728 0 4.35.754 4.866 2.247.658-1.493 2.56-2.247 5.707-2.247 3.138 0 4.71 1.521 4.71 4.563v14.04h-5.247V12.919c0-1.403-.744-2.105-2.233-2.105-1.496 0-2.235.701-2.235 2.105v12.988h-5.108V12.918c0-1.403-.757-2.105-2.273-2.105-1.515 0-2.27.701-2.27 2.105v12.988h-5.247V7.653ZM172.367 11.866c0-3.043-2.681-4.564-8.042-4.564-5.362 0-8.042 1.521-8.042 4.564v9.829c0 3.042 2.68 4.563 8.042 4.563 5.361 0 8.042-1.52 8.042-4.563V20.29h-5.245v.703c0 1.17-.933 1.755-2.797 1.755-1.866 0-2.797-.585-2.797-1.755v-2.457h10.839v-6.67Zm-5.245.703v2.456h-5.594V12.57c0-1.17.931-1.756 2.797-1.756 1.864 0 2.797.586 2.797 1.756ZM148.901 10.11V7.654h5.246v21.062c0 2.574-2.682 3.86-8.043 3.86-5.36 0-8.042-1.286-8.042-3.86v-1.052h5.246v.35c0 .702.932 1.053 2.796 1.053 1.865 0 2.797-.35 2.797-1.054V23.45c0 1.873-1.804 2.809-5.418 2.809-3.612 0-5.421-1.52-5.421-4.563v-9.828c0-3.044 1.809-4.563 5.421-4.563 3.614 0 5.418.935 5.418 2.807Zm-5.593 10.883c0 1.17.932 1.754 2.796 1.754 1.865 0 2.797-.584 2.797-1.754v-8.425c0-1.17-.932-1.756-2.797-1.756-1.864 0-2.796.586-2.796 1.756v8.425ZM122.661 7.653h5.245v2.456c0-1.87 1.485-2.807 4.47-2.807 2.987 0 4.479 1.521 4.479 4.563v2.107h-5.243V12.57c0-1.17-.616-1.756-1.857-1.756-1.24 0-1.849.585-1.849 1.756v13.336h-5.245V7.653ZM116.307 25.905c-.933 0-1.4-.626-1.4-1.895 0 1.502-.983 2.248-2.937 2.248-4.339 0-6.502-1.521-6.502-4.563v-2.383c0-3.139 2.447-4.712 7.341-4.712 1.4 0 2.098-.437 2.098-1.33v-.701c0-1.17-.698-1.756-2.098-1.756-1.076 0-1.608.586-1.608 1.756v.701h-5.245v-1.403c0-3.044 2.28-4.565 6.853-4.565 4.896 0 7.343 1.521 7.343 4.565v11.582c0 1.639.465 2.456 1.398 2.456h-5.243Zm-1.4-5.769v-3.08c0 .702-.698 1.053-2.098 1.053-1.398 0-2.098.636-2.098 1.905v.98c0 1.17.7 1.753 2.098 1.753 1.4 0 2.098-.87 2.098-2.61ZM87.383 0h5.246v10.18c0-1.872 1.804-2.808 5.417-2.808 3.612 0 5.421 1.52 5.421 4.563v14.042h-5.594v-13.34c0-1.17-.816-1.756-2.448-1.756-1.866 0-2.796.585-2.796 1.756v13.34h-5.246V0ZM85.363 21.66c0 3.04-2.914 4.563-8.742 4.563-5.827 0-8.74-1.523-8.74-4.564V4.81c0-3.04 2.913-4.563 8.74-4.563 5.828 0 8.742 1.523 8.742 4.563v3.51h-5.245V5.512c0-1.404-1.165-2.105-3.496-2.105-2.33 0-3.497.701-3.497 2.105v15.447c0 1.17 1.167 1.754 3.496 1.754 2.332 0 3.497-.584 3.497-1.754v-2.809h5.245v3.51Z" fill="#0F172A"/>
    <path fill-rule="evenodd" clip-rule="evenodd" d="M49.465 0H6.9C2.341 0 0 2.326 0 6.857v24.571h20.775c1.3 0 2.79 1.784 2.79 2.789l-.052 12.138c.425.433 1.438.719 1.863.719.576 0 1.225-.148 1.658-.434V27.274c-4.338-.915-6.903-5.594-6.903-12.988h2.3v-5.43A.86.86 0 0 1 23.294 8h1.726a.86.86 0 0 1 .863.857v5.43h5.75v-5.43A.86.86 0 0 1 32.499 8h1.724c.478 0 .863.382.863.857v5.43h1.812c0 7.067-2.404 11.65-6.413 12.845v19.656c0 2.819-2.663 3.738-5.177 3.692-3.002-.051-5.176-.834-5.176-3.622V34.76L0 34.816v14.327C0 53.675 2.34 56 6.901 56h42.564c4.56 0 6.901-2.325 6.901-6.857V6.857c0-4.531-2.34-6.857-6.901-6.857Z" fill="#3B82F6"/>
    <path d="M20.814 31.468H0v3.385l20.17-.055v12.09c0 2.787 2.177 3.57 5.185 3.62 2.519.046 5.187-.873 5.187-3.69V27.175c4.017-1.194 6.425-5.775 6.425-12.838h-1.815V8.909a.86.86 0 0 0-.865-.857H32.56a.86.86 0 0 0-.866.857v5.426h-5.762V8.91a.86.86 0 0 0-.865-.857H23.34a.86.86 0 0 0-.865.857v5.426h-2.305c0 7.39 2.57 12.066 6.916 12.98v19.356c-.433.285-1.084.433-1.66.433-.427 0-1.441-.285-1.867-.719l.051-12.13c0-1.005-1.492-2.787-2.795-2.787Z" fill="#fff"/>
</g></symbol><symbol id="zzicon-chevron-down" viewBox="0 0 11 7"><g fill="none">
    <path fill-rule="evenodd" clip-rule="evenodd" d="M.293 1.293a1 1 0 0 1 1.414 0L5 4.586l3.293-3.293a1 1 0 1 1 1.414 1.414l-4 4a1 1 0 0 1-1.414 0l-4-4a1 1 0 0 1 0-1.414Z" fill="#64748B"/>
</g></symbol><symbol id="icon-facebook" viewBox="0 0 7 15">
    <path d="M1.393 3.428v1.87H.022v2.284h1.371v6.79H4.21v-6.79H6.1s.177-1.095.262-2.293H4.22V3.726c0-.233.307-.547.61-.547h1.535V.8H4.28C1.323.8 1.393 3.087 1.393 3.428Z" fill-rule="nonzero"/>
</symbol><symbol id="icon-instagram" viewBox="0 0 15 15">
    <path d="M7.2 0C5.245 0 5 .008 4.231.043 3.465.078 2.941.2 2.484.378a3.53 3.53 0 0 0-1.276.83c-.4.4-.646.802-.83 1.276-.178.458-.3.981-.335 1.747C.008 5 0 5.245 0 7.2c0 1.955.008 2.2.043 2.969.035.766.157 1.29.335 1.747.184.474.43.875.83 1.276.4.4.802.646 1.276.83.458.178.981.3 1.747.335.768.035 1.014.043 2.969.043 1.955 0 2.2-.008 2.969-.043.766-.035 1.29-.157 1.747-.335a3.53 3.53 0 0 0 1.276-.83c.4-.4.646-.802.83-1.276.178-.458.3-.981.335-1.747.035-.768.043-1.014.043-2.969 0-1.955-.008-2.2-.043-2.969-.035-.766-.157-1.29-.335-1.747a3.53 3.53 0 0 0-.83-1.276 3.53 3.53 0 0 0-1.276-.83c-.458-.178-.981-.3-1.747-.335C9.4.008 9.155 0 7.2 0Zm0 1.297c1.922 0 2.15.008 2.91.042.701.032 1.083.15 1.336.248.336.13.576.287.828.539.252.252.408.492.539.828.098.253.216.635.248 1.337.034.759.042.987.042 2.909 0 1.922-.008 2.15-.042 2.91-.032.701-.15 1.083-.248 1.336a2.23 2.23 0 0 1-.539.828 2.23 2.23 0 0 1-.828.539c-.253.098-.635.216-1.337.248-.759.034-.986.042-2.909.042-1.923 0-2.15-.008-2.91-.042-.701-.032-1.083-.15-1.336-.248a2.23 2.23 0 0 1-.828-.539 2.23 2.23 0 0 1-.539-.828c-.098-.253-.216-.635-.248-1.337-.034-.759-.042-.987-.042-2.909 0-1.922.008-2.15.042-2.91.032-.701.15-1.083.248-1.336a2.23 2.23 0 0 1 .539-.828 2.23 2.23 0 0 1 .828-.539c.253-.098.635-.216 1.337-.248.759-.034.987-.042 2.909-.042Zm0 2.206a3.697 3.697 0 1 0 0 7.394 3.697 3.697 0 0 0 0-7.394Zm0 6.097a2.4 2.4 0 1 1 0-4.8 2.4 2.4 0 0 1 0 4.8Zm4.707-6.243a.864.864 0 1 1-1.728 0 .864.864 0 0 1 1.728 0Z" fill-rule="nonzero"/>
</symbol><symbol id="icon-linkedin" viewBox="0 0 40 40">
    <path d="M8.889 4.444a4.444 4.444 0 1 0-8.889 0 4.444 4.444 0 0 0 8.889 0Zm0 8.89V40H0V13.333h8.889ZM40 40h-8.889V25c0-2.356-2.644-4.311-5-4.311-2.355 0-3.889 1.955-3.889 4.311v15h-8.889V13.333h8.89v4.445c1.466-2.378 5.244-3.911 7.777-3.911 5.556 0 10 4.533 10 10.022V40Z" fill-rule="evenodd"/>
</symbol><symbol id="icon-pinterest" viewBox="0 0 13 16">
    <path d="M11.3 1.64C10.188.582 8.646 0 6.96 0 4.386 0 2.803 1.043 1.93 1.918.85 2.997.232 4.43.232 5.848c0 1.78.754 3.148 2.015 3.656.085.034.17.052.254.052.266 0 .477-.172.55-.449.043-.158.141-.55.184-.719.092-.335.018-.496-.183-.73-.364-.427-.534-.931-.534-1.588 0-1.952 1.47-4.026 4.193-4.026 2.161 0 3.504 1.214 3.504 3.17 0 1.233-.269 2.376-.757 3.217-.34.585-.936 1.281-1.852 1.281-.396 0-.751-.16-.976-.441a1.1 1.1 0 0 1-.196-.964c.096-.404.227-.824.354-1.23.232-.744.451-1.445.451-2.005 0-.957-.595-1.6-1.48-1.6-1.126 0-2.008 1.13-2.008 2.573 0 .708.19 1.237.277 1.44l-1.145 4.793c-.092.388-.649 3.46.273 3.704 1.035.275 1.96-2.716 2.055-3.053.076-.275.343-1.315.507-1.953.5.476 1.305.797 2.088.797 1.476 0 2.804-.656 3.738-1.85.907-1.156 1.406-2.768 1.406-4.54 0-1.384-.601-2.748-1.65-3.743Z" fill-rule="nonzero"/>
</symbol><symbol id="icon-twitter" viewBox="0 0 60 49">
    <path d="M53.848 12.313c.078.312.117.82.117 1.523 0 5.625-1.367 11.055-4.102 16.289-2.812 5.547-6.758 9.961-11.836 13.242-5.547 3.672-11.914 5.508-19.101 5.508-6.875 0-13.164-1.836-18.867-5.508.859.078 1.836.117 2.93.117 5.702 0 10.82-1.757 15.35-5.273-2.734 0-5.136-.8-7.206-2.402-2.07-1.602-3.496-3.614-4.278-6.036.782.079 1.524.118 2.227.118a15.62 15.62 0 0 0 3.281-.352c-2.812-.625-5.156-2.07-7.031-4.336C3.457 22.938 2.52 20.36 2.52 17.47v-.235c1.718 1.016 3.554 1.563 5.507 1.641a13.651 13.651 0 0 1-3.984-4.453c-1.016-1.797-1.523-3.77-1.523-5.918s.585-4.2 1.757-6.152c3.047 3.828 6.778 6.875 11.192 9.14 4.414 2.266 9.12 3.516 14.12 3.75a17.08 17.08 0 0 1-.234-2.812 12.2 12.2 0 0 1 1.641-6.153c1.094-1.914 2.578-3.418 4.453-4.511a11.885 11.885 0 0 1 6.094-1.64c1.797 0 3.457.35 4.98 1.054a13.917 13.917 0 0 1 4.043 2.812 25.035 25.035 0 0 0 7.852-2.93c-.938 2.891-2.735 5.157-5.39 6.797 2.343-.312 4.687-.976 7.03-1.992a27.048 27.048 0 0 1-6.21 6.446Z" fill-rule="evenodd"/>
</symbol><symbol id="icon-youtube" viewBox="0 0 21 15">
    <path d="M8.332 10.266V4.274l5.673 3.006-5.673 2.986Zm12.458-7.03s-.205-1.47-.835-2.117c-.798-.85-1.694-.854-2.104-.903C14.913 0 10.505 0 10.505 0h-.01S6.087 0 3.15.216c-.411.05-1.306.053-2.105.903C.414 1.766.21 3.236.21 3.236S0 4.962 0 6.687v1.618c0 1.727.21 3.452.21 3.452s.205 1.47.834 2.117c.8.85 1.849.823 2.316.911 1.68.164 7.14.215 7.14.215s4.413-.007 7.351-.223c.41-.05 1.306-.054 2.104-.903.63-.647.835-2.117.835-2.117s.21-1.725.21-3.452V6.687c0-1.725-.21-3.451-.21-3.451Z" fill-rule="nonzero"/>
</symbol></svg>