<svg xmlns="http://www.w3.org/2000/svg" xmlns:xlink="http://www.w3.org/1999/xlink" class="sprite-svg" style="display:none;"><symbol id="four-dots" viewBox="0 0 39 39"><g fill="none">
    <path d="M5.625 17.625a2.648 2.648 0 0 1 0 3.75 2.648 2.648 0 0 1-3.75 0 2.648 2.648 0 0 1 0-3.75 2.648 2.648 0 0 1 3.75 0ZM33.375 21.375a2.648 2.648 0 0 1 0-3.75 2.648 2.648 0 0 1 3.75 0 2.648 2.648 0 0 1 0 3.75 2.648 2.648 0 0 1-3.75 0ZM21.375 5.625a2.648 2.648 0 0 1-3.75 0 2.648 2.648 0 0 1 0-3.75 2.648 2.648 0 0 1 3.75 0 2.648 2.648 0 0 1 0 3.75ZM17.625 33.375a2.648 2.648 0 0 1 3.75 0 2.648 2.648 0 0 1 0 3.75 2.648 2.648 0 0 1-3.75 0 2.654 2.654 0 0 1 0-3.75Z" fill="#F2C488"/>
</g></symbol><symbol id="icon-arrow-down" viewBox="0 0 20 20">
    <path fill-rule="nonzero" d="M10.296 0H8.958v17.439l-4.012-4.012-.946.946 5.336 5.336v.046l.023-.023.268.268.267-.269.023.024v-.046l5.337-5.336-.946-.946-4.012 4.012z"/>
</symbol><symbol id="icon-arrow" viewBox="0 0 20 20">
    <path fill-rule="nonzero" d="M-.373 9.331v1.338h17.439l-4.012 4.012.946.946 5.336-5.336h.046l-.023-.023.268-.268-.269-.267.024-.023h-.046L14 4.373l-.946.946 4.012 4.012z"/>
</symbol><symbol id="icon-checkmark" viewBox="0 0 24 24"><g>
    <path d="m9 21.035-9-8.638 2.791-2.87 6.156 5.874 12.21-12.436L24 5.782z"/>
</g></symbol><symbol id="icon-chevron-down" viewBox="0 0 18 19"><g>
    <path d="m5.339 6.721 3.442 3.435 3.443-3.435L13.28 7.78l-4.5 4.5-4.5-4.5L5.34 6.72Z"/>
</g></symbol><symbol id="icon-loader" viewBox="0 0 39 39"><g>
    <path d="M5.625 17.625a2.648 2.648 0 0 1 0 3.75 2.648 2.648 0 0 1-3.75 0 2.648 2.648 0 0 1 0-3.75 2.648 2.648 0 0 1 3.75 0ZM33.375 21.375a2.648 2.648 0 0 1 0-3.75 2.648 2.648 0 0 1 3.75 0 2.648 2.648 0 0 1 0 3.75 2.648 2.648 0 0 1-3.75 0ZM21.375 5.625a2.648 2.648 0 0 1-3.75 0 2.648 2.648 0 0 1 0-3.75 2.648 2.648 0 0 1 3.75 0 2.648 2.648 0 0 1 0 3.75ZM17.625 33.375a2.648 2.648 0 0 1 3.75 0 2.648 2.648 0 0 1 0 3.75 2.648 2.648 0 0 1-3.75 0 2.654 2.654 0 0 1 0-3.75Z"/>
</g></symbol><symbol id="icon-mail" viewBox="0 0 20 20">
    <g fill-rule="nonzero">
        <path d="M17.273 2H2.727A2.733 2.733 0 0 0 0 4.727v10.91a2.733 2.733 0 0 0 2.727 2.727h14.546A2.733 2.733 0 0 0 20 15.636V4.727A2.733 2.733 0 0 0 17.273 2ZM2.727 3.818h14.546c.498 0 .909.411.909.91v10.908c0 .498-.411.91-.91.91H2.728a.914.914 0 0 1-.909-.91V4.727c0-.498.411-.909.91-.909Z"/>
        <path d="M18.57 3.983A.91.91 0 0 1 19.702 5.4l-.09.071-9.09 6.364a.91.91 0 0 1-.935.065l-.108-.065L.388 5.472a.91.91 0 0 1 .945-1.55l.097.06L10 9.982l8.57-5.998Z"/>
    </g>
</symbol><symbol id="icon-phone" viewBox="0 0 20 20">
    <path d="M5.462 0H2.735A2.74 2.74 0 0 0 .143 1.863c-.121.36-.166.741-.132 1.12a18.976 18.976 0 0 0 2.943 8.321 18.69 18.69 0 0 0 5.749 5.747 18.954 18.954 0 0 0 8.262 2.937 2.737 2.737 0 0 0 2.999-2.735v-2.732a2.736 2.736 0 0 0-2.354-2.755 10.826 10.826 0 0 1-2.371-.59 2.733 2.733 0 0 0-1.531-.114l-.19.048a2.736 2.736 0 0 0-1.164.683l-.656.656-.11-.068a13.683 13.683 0 0 1-4.004-4.005l-.07-.11.654-.653a2.74 2.74 0 0 0 .62-2.89 10.794 10.794 0 0 1-.589-2.361A2.742 2.742 0 0 0 5.462 0ZM2.736 1.824H5.47a.912.912 0 0 1 .921.784c.123.936.354 1.863.687 2.755a.914.914 0 0 1-.204.964L5.72 7.482a.912.912 0 0 0-.148 1.096 15.507 15.507 0 0 0 5.814 5.814.912.912 0 0 0 1.096-.148l1.159-1.158a.908.908 0 0 1 .958-.202c.894.334 1.821.565 2.765.69a.912.912 0 0 1 .776.925v2.758a.916.916 0 0 1-.62.871.913.913 0 0 1-.374.045 17.124 17.124 0 0 1-7.457-2.657 16.885 16.885 0 0 1-5.2-5.197 17.147 17.147 0 0 1-2.662-7.515.9.9 0 0 1 .236-.683.912.912 0 0 1 .673-.297Z" fill-rule="nonzero"/>
</symbol><symbol id="logo-chargemap-sigle" viewBox="0 0 73 73"><g fill="none">
    <path fill-rule="evenodd" clip-rule="evenodd" d="M64.062 0H8.938C3.032 0 0 3.032 0 8.939v32.03h26.906c1.683 0 3.612 2.325 3.612 3.635l-.066 15.822c.55.566 1.862.938 2.413.938.745 0 1.587-.193 2.146-.565V35.554c-5.617-1.193-8.939-7.292-8.939-16.93h2.979v-7.079c0-.618.5-1.117 1.118-1.117h2.234c.617 0 1.118.5 1.118 1.117v7.079h7.448v-7.079c0-.618.5-1.117 1.12-1.117h2.232c.62 0 1.118.5 1.118 1.117v7.079h2.347c0 9.213-3.114 15.187-8.306 16.744v25.624c0 3.674-3.449 4.873-6.705 4.812-3.888-.066-6.703-1.087-6.703-4.722v-15.77L0 45.386v18.676C0 69.97 3.032 73 8.938 73h55.124C69.968 73 73 69.97 73 64.061V8.94C73 3.032 69.968 0 64.062 0Z" fill="#3B82F6"/>
    <path d="M26.957 41.02H0v4.414l26.122-.073v15.761c0 3.633 2.82 4.653 6.716 4.72 3.262.06 6.717-1.138 6.717-4.81v-25.61c5.202-1.556 8.322-7.527 8.322-16.734h-2.351v-7.075c0-.617-.5-1.116-1.12-1.116h-2.237c-.622 0-1.122.499-1.122 1.116v7.075h-7.462v-7.075c0-.617-.502-1.116-1.12-1.116h-2.239c-.618 0-1.12.499-1.12 1.116v7.075h-2.984c0 9.632 3.328 15.728 8.956 16.92v25.23c-.56.373-1.404.566-2.15.566-.552 0-1.867-.372-2.418-.938l.066-15.813c0-1.31-1.932-3.633-3.62-3.633Z" fill="#fff"/>
</g></symbol><symbol id="logo-cmb" viewBox="0 0 235 56"><g fill="none">
    <path d="M67.894 54.396h8.735c2.318 0 4.126-.556 5.424-1.669 1.317-1.131 1.975-2.689 1.975-4.673a6.5 6.5 0 0 0-.556-2.67c-.37-.835-1.02-1.549-1.947-2.142.575-.52.992-1.094 1.252-1.725.278-.63.417-1.298.417-2.003 0-1.817-.584-3.245-1.753-4.284-1.168-1.038-2.772-1.557-4.812-1.557h-8.735v20.723Zm3.784-12.684v-4.813h5.146c.779 0 1.4.214 1.864.64.463.427.695 1.002.695 1.725 0 .723-.232 1.316-.695 1.78-.464.445-1.085.668-1.864.668h-5.146Zm0 9.346v-6.036h5.34c.983 0 1.762.278 2.337.834.594.538.89 1.27.89 2.198 0 .909-.296 1.641-.89 2.197-.575.538-1.354.807-2.337.807h-5.34ZM91.8 54.73c.946 0 1.78-.176 2.504-.528a4.206 4.206 0 0 0 1.753-1.614v1.808h3.449V39.264h-3.644v8.873c0 1.002-.287 1.8-.862 2.393-.575.575-1.308.862-2.198.862-.909 0-1.65-.287-2.225-.862-.557-.575-.835-1.345-.835-2.31v-8.956h-3.644v9.263c0 1.854.5 3.356 1.502 4.506 1.02 1.131 2.42 1.697 4.2 1.697ZM108.234 54.73c1.15 0 2.151-.195 3.004-.584.853-.39 1.521-.927 2.003-1.614.482-.704.723-1.51.723-2.42 0-1.057-.333-1.965-1.001-2.726-.668-.76-1.632-1.316-2.893-1.669l-2.42-.723c-.519-.148-.946-.343-1.28-.584-.333-.241-.5-.575-.5-1.001 0-.445.176-.807.528-1.085.353-.279.835-.418 1.447-.418.76 0 1.446.204 2.058.612a3.159 3.159 0 0 1 1.308 1.642l2.781-1.308a5.65 5.65 0 0 0-2.336-2.865c-1.094-.705-2.356-1.057-3.783-1.057-1.095 0-2.068.195-2.921.584-.835.39-1.493.937-1.975 1.641-.464.687-.696 1.493-.696 2.42 0 1.039.325 1.938.974 2.699.668.76 1.641 1.326 2.921 1.697l2.475.695c.483.13.891.325 1.224.584.353.241.529.575.529 1.002 0 .5-.204.899-.612 1.196-.39.278-.909.417-1.558.417a3.924 3.924 0 0 1-2.309-.723c-.686-.483-1.233-1.15-1.641-2.003l-2.726 1.307c.445 1.298 1.261 2.337 2.448 3.116 1.205.779 2.615 1.168 4.228 1.168ZM116.348 37.567h3.644v-3.894h-3.644v3.894Zm0 16.83h3.644V39.263h-3.644v15.132ZM122.939 54.396h3.644v-8.873c0-.983.278-1.771.834-2.365.575-.593 1.317-.89 2.226-.89s1.641.297 2.197.89c.575.575.863 1.363.863 2.365v8.873h3.644V44.66c0-1.13-.241-2.123-.724-2.976a5.095 5.095 0 0 0-2.03-2.03c-.853-.483-1.836-.724-2.949-.724-.946 0-1.799.185-2.559.556a3.983 3.983 0 0 0-1.725 1.642v-1.864h-3.421v15.132ZM146.188 54.73c1.539 0 2.883-.343 4.033-1.03 1.168-.704 1.984-1.594 2.448-2.67l-2.949-1.446a4.064 4.064 0 0 1-1.39 1.419c-.575.352-1.28.528-2.115.528-1.094 0-2.012-.334-2.753-1.001-.742-.668-1.169-1.558-1.28-2.67h10.904c.074-.205.121-.437.139-.696.037-.278.056-.556.056-.835 0-1.353-.287-2.587-.862-3.7a6.669 6.669 0 0 0-2.504-2.67c-1.094-.686-2.429-1.029-4.006-1.029-1.409 0-2.689.343-3.838 1.03a7.552 7.552 0 0 0-2.699 2.809c-.649 1.168-.973 2.513-.973 4.033 0 1.465.324 2.8.973 4.006a7.367 7.367 0 0 0 2.727 2.865c1.168.705 2.531 1.057 4.089 1.057Zm-.279-12.796c.965 0 1.762.297 2.393.89.649.575 1.01 1.326 1.085 2.254h-7.122c.204-1.002.631-1.771 1.28-2.31.668-.556 1.456-.834 2.364-.834ZM161.384 54.73c1.15 0 2.151-.195 3.004-.584.853-.39 1.521-.927 2.003-1.614.482-.704.723-1.51.723-2.42 0-1.057-.333-1.965-1.001-2.726-.668-.76-1.632-1.316-2.893-1.669l-2.42-.723c-.519-.148-.946-.343-1.28-.584-.333-.241-.5-.575-.5-1.001 0-.445.176-.807.528-1.085.353-.279.835-.418 1.447-.418.76 0 1.446.204 2.058.612a3.159 3.159 0 0 1 1.308 1.642l2.781-1.308a5.65 5.65 0 0 0-2.336-2.865c-1.094-.705-2.355-1.057-3.783-1.057-1.095 0-2.068.195-2.921.584-.835.39-1.493.937-1.975 1.641-.464.687-.696 1.493-.696 2.42 0 1.039.325 1.938.974 2.699.668.76 1.641 1.326 2.921 1.697l2.475.695c.483.13.891.325 1.224.584.353.241.529.575.529 1.002 0 .5-.204.899-.612 1.196-.39.278-.909.417-1.558.417a3.924 3.924 0 0 1-2.309-.723c-.686-.483-1.233-1.15-1.641-2.003l-2.726 1.307c.445 1.298 1.261 2.337 2.448 3.116 1.205.779 2.615 1.168 4.228 1.168ZM175.256 54.73c1.15 0 2.151-.195 3.004-.584.853-.39 1.521-.927 2.003-1.614.482-.704.723-1.51.723-2.42 0-1.057-.334-1.965-1.001-2.726-.668-.76-1.632-1.316-2.893-1.669l-2.42-.723c-.52-.148-.946-.343-1.28-.584-.334-.241-.501-.575-.501-1.001 0-.445.176-.807.529-1.085.352-.279.834-.418 1.446-.418.761 0 1.447.204 2.059.612.63.408 1.066.956 1.307 1.642l2.782-1.308a5.658 5.658 0 0 0-2.337-2.865c-1.094-.705-2.355-1.057-3.783-1.057-1.094 0-2.068.195-2.921.584-.834.39-1.493.937-1.975 1.641-.463.687-.695 1.493-.695 2.42 0 1.039.324 1.938.973 2.699.668.76 1.642 1.326 2.921 1.697l2.476.695c.482.13.89.325 1.224.584.352.241.528.575.528 1.002 0 .5-.204.899-.612 1.196-.389.278-.908.417-1.557.417a3.922 3.922 0 0 1-2.309-.723c-.686-.483-1.233-1.15-1.641-2.003l-2.726 1.307c.445 1.298 1.261 2.337 2.448 3.116 1.205.779 2.614 1.168 4.228 1.168Z" fill="#3B82F6"/>
    <path fill-rule="evenodd" clip-rule="evenodd" d="M223.943 10.11V7.654h-5.245v24.922h5.245V23.45c0 1.873 1.804 2.809 5.417 2.809 3.612 0 5.422-1.52 5.422-4.563v-9.828c0-3.044-1.81-4.563-5.422-4.563-3.613 0-5.417.935-5.417 2.807Zm5.594 10.53c0 1.405-.933 2.107-2.797 2.107s-2.797-.702-2.797-2.107v-7.72c0-1.406.933-2.108 2.797-2.108s2.797.702 2.797 2.107v7.721ZM212.259 25.905c-.933 0-1.399-.626-1.399-1.895 0 1.502-.984 2.248-2.938 2.248-4.338 0-6.502-1.521-6.502-4.563v-2.383c0-3.139 2.446-4.712 7.342-4.712 1.399 0 2.098-.437 2.098-1.33v-.701c0-1.17-.699-1.756-2.098-1.756-1.076 0-1.613.586-1.613 1.756v.701h-5.245v-1.403c0-3.044 2.284-4.565 6.858-4.565 4.894 0 7.343 1.521 7.343 4.565v11.582c0 1.639.465 2.456 1.398 2.456h-5.244Zm-1.399-5.769v-3.08c0 .702-.699 1.053-2.098 1.053s-2.098.636-2.098 1.905v.98c0 1.17.699 1.753 2.098 1.753s2.098-.87 2.098-2.61ZM174.858 7.653h5.247v2.456c0-1.87 1.36-2.807 4.083-2.807 2.728 0 4.35.754 4.866 2.247.658-1.493 2.56-2.247 5.707-2.247 3.138 0 4.71 1.521 4.71 4.563v14.04h-5.247V12.919c0-1.403-.744-2.105-2.233-2.105-1.496 0-2.235.701-2.235 2.105v12.988h-5.108V12.918c0-1.403-.757-2.105-2.273-2.105-1.515 0-2.27.701-2.27 2.105v12.988h-5.247V7.653ZM172.367 11.866c0-3.043-2.681-4.564-8.042-4.564-5.362 0-8.042 1.521-8.042 4.564v9.829c0 3.042 2.68 4.563 8.042 4.563 5.361 0 8.042-1.52 8.042-4.563V20.29h-5.245v.703c0 1.17-.933 1.755-2.797 1.755-1.866 0-2.797-.585-2.797-1.755v-2.457h10.839v-6.67Zm-5.245.703v2.456h-5.594V12.57c0-1.17.931-1.756 2.797-1.756 1.864 0 2.797.586 2.797 1.756ZM148.901 10.11V7.654h5.246v21.062c0 2.574-2.682 3.86-8.043 3.86-5.36 0-8.042-1.286-8.042-3.86v-1.052h5.246v.35c0 .702.932 1.053 2.796 1.053 1.865 0 2.797-.35 2.797-1.054V23.45c0 1.873-1.804 2.809-5.418 2.809-3.612 0-5.421-1.52-5.421-4.563v-9.828c0-3.044 1.809-4.563 5.421-4.563 3.614 0 5.418.935 5.418 2.807Zm-5.593 10.883c0 1.17.932 1.754 2.796 1.754 1.865 0 2.797-.584 2.797-1.754v-8.425c0-1.17-.932-1.756-2.797-1.756-1.864 0-2.796.586-2.796 1.756v8.425ZM122.661 7.653h5.245v2.456c0-1.87 1.485-2.807 4.47-2.807 2.987 0 4.479 1.521 4.479 4.563v2.107h-5.243V12.57c0-1.17-.616-1.756-1.857-1.756-1.24 0-1.849.585-1.849 1.756v13.336h-5.245V7.653ZM116.307 25.905c-.933 0-1.4-.626-1.4-1.895 0 1.502-.983 2.248-2.937 2.248-4.339 0-6.502-1.521-6.502-4.563v-2.383c0-3.139 2.447-4.712 7.341-4.712 1.4 0 2.098-.437 2.098-1.33v-.701c0-1.17-.698-1.756-2.098-1.756-1.076 0-1.608.586-1.608 1.756v.701h-5.245v-1.403c0-3.044 2.28-4.565 6.853-4.565 4.896 0 7.343 1.521 7.343 4.565v11.582c0 1.639.465 2.456 1.398 2.456h-5.243Zm-1.4-5.769v-3.08c0 .702-.698 1.053-2.098 1.053-1.398 0-2.098.636-2.098 1.905v.98c0 1.17.7 1.753 2.098 1.753 1.4 0 2.098-.87 2.098-2.61ZM87.383 0h5.246v10.18c0-1.872 1.804-2.808 5.417-2.808 3.612 0 5.421 1.52 5.421 4.563v14.042h-5.594v-13.34c0-1.17-.816-1.756-2.448-1.756-1.866 0-2.796.585-2.796 1.756v13.34h-5.246V0ZM85.363 21.66c0 3.04-2.914 4.563-8.742 4.563-5.827 0-8.74-1.523-8.74-4.564V4.81c0-3.04 2.913-4.563 8.74-4.563 5.828 0 8.742 1.523 8.742 4.563v3.51h-5.245V5.512c0-1.404-1.165-2.105-3.496-2.105-2.33 0-3.497.701-3.497 2.105v15.447c0 1.17 1.167 1.754 3.496 1.754 2.332 0 3.497-.584 3.497-1.754v-2.809h5.245v3.51Z" fill="#0F172A"/>
    <path fill-rule="evenodd" clip-rule="evenodd" d="M49.465 0H6.9C2.341 0 0 2.326 0 6.857v24.571h20.775c1.3 0 2.79 1.784 2.79 2.789l-.052 12.138c.425.433 1.438.719 1.863.719.576 0 1.225-.148 1.658-.434V27.274c-4.338-.915-6.903-5.594-6.903-12.988h2.3v-5.43A.86.86 0 0 1 23.294 8h1.726a.86.86 0 0 1 .863.857v5.43h5.75v-5.43A.86.86 0 0 1 32.499 8h1.724c.478 0 .863.382.863.857v5.43h1.812c0 7.067-2.404 11.65-6.413 12.845v19.656c0 2.819-2.663 3.738-5.177 3.692-3.002-.051-5.176-.834-5.176-3.622V34.76L0 34.816v14.327C0 53.675 2.34 56 6.901 56h42.564c4.56 0 6.901-2.325 6.901-6.857V6.857c0-4.531-2.34-6.857-6.901-6.857Z" fill="#3B82F6"/>
    <path d="M20.814 31.468H0v3.385l20.17-.055v12.09c0 2.787 2.177 3.57 5.185 3.62 2.519.046 5.187-.873 5.187-3.69V27.175c4.017-1.194 6.425-5.775 6.425-12.838h-1.815V8.909a.86.86 0 0 0-.865-.857H32.56a.86.86 0 0 0-.866.857v5.426h-5.762V8.91a.86.86 0 0 0-.865-.857H23.34a.86.86 0 0 0-.865.857v5.426h-2.305c0 7.39 2.57 12.066 6.916 12.98v19.356c-.433.285-1.084.433-1.66.433-.427 0-1.441-.285-1.867-.719l.051-12.13c0-1.005-1.492-2.787-2.795-2.787Z" fill="#fff"/>
</g></symbol><symbol id="rosace-alt" viewBox="0 0 30 30"><g fill="none">
    <path d="M26.235 15.309c-1.197-.138-2.342-.535-3.583-.931-1.235-.394-2.617-.755-4.04-.662-.173.01-.349.028-.519.05a3.337 3.337 0 0 0-.227-.454 99.13 99.13 0 0 0 2.48-2.694c1.535-1.718 3.029-3.48 4.398-5.368-1.884 1.37-3.647 2.863-5.365 4.4a98.91 98.91 0 0 0-2.693 2.479 3.327 3.327 0 0 0-1.705-.47l-.032.002c.006-.083.006-.163.016-.246.137-1.196.534-2.342.93-3.583.394-1.235.756-2.617.663-4.04A6.645 6.645 0 0 0 15.074 0c.25 1.328.393 2.566.233 3.762-.138 1.197-.534 2.345-.934 3.584-.397 1.231-.758 2.617-.665 4.04.01.17.028.34.05.506-.169.067-.332.147-.485.24a99.062 99.062 0 0 0-2.694-2.48c-1.718-1.535-3.48-3.03-5.365-4.399 1.37 1.885 2.863 3.647 4.399 5.369.81.915 1.638 1.81 2.48 2.694-.298.499-.471 1.08-.471 1.705v.029c-.07-.007-.14-.007-.208-.016-1.197-.138-2.342-.535-3.583-.931-1.235-.394-2.62-.755-4.04-.663A6.643 6.643 0 0 0 0 14.925c1.328-.25 2.566-.394 3.762-.234 1.196.138 2.345.535 3.583.934 1.231.397 2.617.759 4.04.666a5.85 5.85 0 0 0 .47-.048c.068.166.144.326.237.48a98.948 98.948 0 0 0-2.48 2.694c-1.535 1.718-3.029 3.48-4.398 5.368 1.888-1.37 3.65-2.86 5.368-4.399.915-.81 1.81-1.638 2.694-2.48.502.298 1.081.47 1.705.47l.07-.002c-.006.07-.006.14-.016.21-.137 1.197-.534 2.346-.934 3.584-.397 1.232-.758 2.617-.665 4.04A6.648 6.648 0 0 0 14.923 30c-.25-1.328-.39-2.566-.23-3.762.138-1.197.534-2.342.93-3.584.394-1.235.756-2.617.663-4.04a7.97 7.97 0 0 0-.048-.483 3.25 3.25 0 0 0 .448-.224c.883.841 1.779 1.67 2.693 2.48 1.718 1.535 3.48 3.029 5.368 4.398-1.369-1.887-2.86-3.65-4.398-5.368a98.98 98.98 0 0 0-2.48-2.694c.298-.5.47-1.081.47-1.705l-.002-.07c.083.006.166.006.25.018 1.195.138 2.344.535 3.582.935 1.232.396 2.617.758 4.04.665A6.625 6.625 0 0 0 30 15.078c-1.334.247-2.572.388-3.765.23Zm-9.159.601a2.298 2.298 0 0 1-1.081 1.14c-.042.022-.08.047-.125.066a2.37 2.37 0 0 1-.784.173c-.035.003-.07.01-.108.01-.317 0-.618-.064-.893-.183a2.289 2.289 0 0 1-1.152-1.11c-.015-.032-.038-.06-.05-.096a2.28 2.28 0 0 1-.177-.825l-.006-.067c0-.317.067-.618.182-.893.218-.512.62-.918 1.12-1.158.029-.013.054-.032.083-.045.256-.109.534-.166.829-.176l.064-.006a2.25 2.25 0 0 1 2.034 1.273c.02.038.045.074.06.112.107.243.16.512.174.787.003.035.01.07.01.106.003.316-.065.617-.18.892Z" fill="#F2C488"/>
</g></symbol><symbol id="rosace" viewBox="0 0 120 120">
    <g fill-rule="nonzero" fill="none">
        <path d="M35.29 34.28a2.015 2.015 0 0 1-2.018 2.018 2.015 2.015 0 0 1-2.018-2.017c0-1.117.902-2.018 2.018-2.018 1.116 0 2.017.901 2.017 2.018Z" fill="#008585"/>
        <path d="M35.29 34.28a2.015 2.015 0 0 1-2.018 2.018 2.015 2.015 0 0 1-2.018-2.017c0-1.117.902-2.018 2.018-2.018 1.116 0 2.017.901 2.017 2.018ZM83.71 85.728c0-1.116.902-2.017 2.019-2.017 1.116 0 2.017.9 2.017 2.017 0 1.116-.9 2.018-2.017 2.018a2.015 2.015 0 0 1-2.018-2.018ZM85.729 36.298a2.016 2.016 0 0 1-2.018-2.017c0-1.117.901-2.018 2.018-2.018 1.116 0 2.017.901 2.017 2.018 0 1.116-.9 2.017-2.017 2.017ZM33.272 83.71c1.116 0 2.017.902 2.017 2.018a2.015 2.015 0 0 1-2.017 2.018 2.015 2.015 0 0 1-2.018-2.018c0-1.11.909-2.017 2.018-2.017Z" fill="#328585"/>
        <path d="M82.04 60.638c-2.455-.283-4.804-1.096-7.35-1.91-2.531-.807-5.366-1.549-8.286-1.358-.354.02-.715.059-1.063.105a6.957 6.957 0 0 0-.466-.932 203.766 203.766 0 0 0 5.084-5.526c3.15-3.524 6.214-7.14 9.022-11.011-3.864 2.808-7.48 5.873-11.003 9.023a202.926 202.926 0 0 0-5.525 5.086 6.823 6.823 0 0 0-3.497-.965l-.066.007c.014-.171.014-.335.033-.506.282-2.454 1.096-4.803 1.91-7.35.807-2.533 1.548-5.368 1.358-8.288a13.63 13.63 0 0 0-3.045-7.776c.512 2.723.807 5.263.48 7.717-.283 2.455-1.096 4.81-1.917 7.35-.813 2.527-1.555 5.368-1.364 8.288.02.348.059.696.105 1.037a6.698 6.698 0 0 0-.998.492 202.937 202.937 0 0 0-5.525-5.086c-3.523-3.15-7.139-6.214-11.003-9.023 2.808 3.865 5.872 7.481 9.022 11.012 1.66 1.877 3.36 3.714 5.085 5.525a6.807 6.807 0 0 0-.965 3.498v.06c-.144-.014-.288-.014-.426-.034-2.454-.282-4.803-1.096-7.35-1.91-2.532-.806-5.373-1.548-8.286-1.358a13.625 13.625 0 0 0-7.776 3.045c2.723-.512 5.262-.807 7.716-.479 2.455.282 4.81 1.096 7.35 1.916 2.526.814 5.367 1.556 8.287 1.365.321-.02.643-.052.964-.098.138.341.296.67.486.984a202.726 202.726 0 0 0-5.085 5.526c-3.15 3.524-6.214 7.14-9.022 11.011 3.87-2.808 7.486-5.866 11.01-9.023 1.877-1.66 3.714-3.36 5.525-5.086 1.03.61 2.217.965 3.497.965l.144-.007c-.013.145-.013.29-.032.433-.283 2.455-1.096 4.81-1.916 7.35-.814 2.527-1.556 5.368-1.365 8.289a13.635 13.635 0 0 0 3.051 7.776c-.512-2.723-.8-5.263-.472-7.717.282-2.455 1.095-4.804 1.909-7.35.807-2.533 1.548-5.368 1.358-8.288-.02-.335-.059-.663-.098-.991.321-.132.623-.282.918-.46a202.712 202.712 0 0 0 5.525 5.086c3.524 3.15 7.139 6.215 11.01 9.023-2.808-3.872-5.866-7.487-9.022-11.011a203.766 203.766 0 0 0-5.084-5.526 6.816 6.816 0 0 0 .963-3.498l-.006-.144c.17.013.34.013.512.04 2.454.282 4.81 1.095 7.348 1.916 2.527.813 5.369 1.555 8.288 1.365a13.589 13.589 0 0 0 7.776-3.052c-2.73.505-5.269.794-7.724.473ZM63.253 61.87a4.713 4.713 0 0 1-2.218 2.337c-.085.046-.164.098-.256.137a4.862 4.862 0 0 1-1.607.355c-.073.006-.145.02-.224.02-.65 0-1.266-.132-1.83-.375a4.696 4.696 0 0 1-2.362-2.277c-.033-.065-.08-.124-.105-.197a4.677 4.677 0 0 1-.361-1.693l-.013-.138c0-.65.137-1.266.374-1.83a4.683 4.683 0 0 1 2.296-2.376c.06-.026.112-.066.17-.092a4.711 4.711 0 0 1 1.7-.36l.131-.014c.65 0 1.267.131 1.831.374a4.684 4.684 0 0 1 2.343 2.238c.039.079.092.15.124.23.217.498.328 1.05.355 1.614.006.072.02.144.02.216a4.497 4.497 0 0 1-.368 1.831Z" fill="#CE9040"/>
        <path d="M18.821 18.821c22.429-22.428 58.929-22.428 81.357 0 22.43 22.429 22.43 58.93 0 81.358-22.428 22.428-58.928 22.428-81.357 0-22.428-22.429-22.428-58.93 0-81.358Zm79.877 79.876c21.616-21.615 21.616-56.779 0-78.394-21.616-21.616-56.78-21.616-78.395 0-21.616 21.615-21.616 56.779 0 78.394 21.615 21.61 56.785 21.61 78.395 0Z" fill="#CE9040"/>
    </g>
</symbol><symbol id="icon-facebook" viewBox="0 0 7 15">
    <path d="M1.393 3.428v1.87H.022v2.284h1.371v6.79H4.21v-6.79H6.1s.177-1.095.262-2.293H4.22V3.726c0-.233.307-.547.61-.547h1.535V.8H4.28C1.323.8 1.393 3.087 1.393 3.428Z" fill-rule="nonzero"/>
</symbol><symbol id="icon-instagram" viewBox="0 0 15 15">
    <path d="M7.2 0C5.245 0 5 .008 4.231.043 3.465.078 2.941.2 2.484.378a3.53 3.53 0 0 0-1.276.83c-.4.4-.646.802-.83 1.276-.178.458-.3.981-.335 1.747C.008 5 0 5.245 0 7.2c0 1.955.008 2.2.043 2.969.035.766.157 1.29.335 1.747.184.474.43.875.83 1.276.4.4.802.646 1.276.83.458.178.981.3 1.747.335.768.035 1.014.043 2.969.043 1.955 0 2.2-.008 2.969-.043.766-.035 1.29-.157 1.747-.335a3.53 3.53 0 0 0 1.276-.83c.4-.4.646-.802.83-1.276.178-.458.3-.981.335-1.747.035-.768.043-1.014.043-2.969 0-1.955-.008-2.2-.043-2.969-.035-.766-.157-1.29-.335-1.747a3.53 3.53 0 0 0-.83-1.276 3.53 3.53 0 0 0-1.276-.83c-.458-.178-.981-.3-1.747-.335C9.4.008 9.155 0 7.2 0Zm0 1.297c1.922 0 2.15.008 2.91.042.701.032 1.083.15 1.336.248.336.13.576.287.828.539.252.252.408.492.539.828.098.253.216.635.248 1.337.034.759.042.987.042 2.909 0 1.922-.008 2.15-.042 2.91-.032.701-.15 1.083-.248 1.336a2.23 2.23 0 0 1-.539.828 2.23 2.23 0 0 1-.828.539c-.253.098-.635.216-1.337.248-.759.034-.986.042-2.909.042-1.923 0-2.15-.008-2.91-.042-.701-.032-1.083-.15-1.336-.248a2.23 2.23 0 0 1-.828-.539 2.23 2.23 0 0 1-.539-.828c-.098-.253-.216-.635-.248-1.337-.034-.759-.042-.987-.042-2.909 0-1.922.008-2.15.042-2.91.032-.701.15-1.083.248-1.336a2.23 2.23 0 0 1 .539-.828 2.23 2.23 0 0 1 .828-.539c.253-.098.635-.216 1.337-.248.759-.034.987-.042 2.909-.042Zm0 2.206a3.697 3.697 0 1 0 0 7.394 3.697 3.697 0 0 0 0-7.394Zm0 6.097a2.4 2.4 0 1 1 0-4.8 2.4 2.4 0 0 1 0 4.8Zm4.707-6.243a.864.864 0 1 1-1.728 0 .864.864 0 0 1 1.728 0Z" fill-rule="nonzero"/>
</symbol><symbol id="icon-linkedin" viewBox="0 0 40 40">
    <path d="M8.889 4.444a4.444 4.444 0 1 0-8.889 0 4.444 4.444 0 0 0 8.889 0Zm0 8.89V40H0V13.333h8.889ZM40 40h-8.889V25c0-2.356-2.644-4.311-5-4.311-2.355 0-3.889 1.955-3.889 4.311v15h-8.889V13.333h8.89v4.445c1.466-2.378 5.244-3.911 7.777-3.911 5.556 0 10 4.533 10 10.022V40Z" fill-rule="evenodd"/>
</symbol><symbol id="icon-pinterest" viewBox="0 0 13 16">
    <path d="M11.3 1.64C10.188.582 8.646 0 6.96 0 4.386 0 2.803 1.043 1.93 1.918.85 2.997.232 4.43.232 5.848c0 1.78.754 3.148 2.015 3.656.085.034.17.052.254.052.266 0 .477-.172.55-.449.043-.158.141-.55.184-.719.092-.335.018-.496-.183-.73-.364-.427-.534-.931-.534-1.588 0-1.952 1.47-4.026 4.193-4.026 2.161 0 3.504 1.214 3.504 3.17 0 1.233-.269 2.376-.757 3.217-.34.585-.936 1.281-1.852 1.281-.396 0-.751-.16-.976-.441a1.1 1.1 0 0 1-.196-.964c.096-.404.227-.824.354-1.23.232-.744.451-1.445.451-2.005 0-.957-.595-1.6-1.48-1.6-1.126 0-2.008 1.13-2.008 2.573 0 .708.19 1.237.277 1.44l-1.145 4.793c-.092.388-.649 3.46.273 3.704 1.035.275 1.96-2.716 2.055-3.053.076-.275.343-1.315.507-1.953.5.476 1.305.797 2.088.797 1.476 0 2.804-.656 3.738-1.85.907-1.156 1.406-2.768 1.406-4.54 0-1.384-.601-2.748-1.65-3.743Z" fill-rule="nonzero"/>
</symbol><symbol id="icon-twitter" viewBox="0 0 60 49">
    <path d="M53.848 12.313c.078.312.117.82.117 1.523 0 5.625-1.367 11.055-4.102 16.289-2.812 5.547-6.758 9.961-11.836 13.242-5.547 3.672-11.914 5.508-19.101 5.508-6.875 0-13.164-1.836-18.867-5.508.859.078 1.836.117 2.93.117 5.702 0 10.82-1.757 15.35-5.273-2.734 0-5.136-.8-7.206-2.402-2.07-1.602-3.496-3.614-4.278-6.036.782.079 1.524.118 2.227.118a15.62 15.62 0 0 0 3.281-.352c-2.812-.625-5.156-2.07-7.031-4.336C3.457 22.938 2.52 20.36 2.52 17.47v-.235c1.718 1.016 3.554 1.563 5.507 1.641a13.651 13.651 0 0 1-3.984-4.453c-1.016-1.797-1.523-3.77-1.523-5.918s.585-4.2 1.757-6.152c3.047 3.828 6.778 6.875 11.192 9.14 4.414 2.266 9.12 3.516 14.12 3.75a17.08 17.08 0 0 1-.234-2.812 12.2 12.2 0 0 1 1.641-6.153c1.094-1.914 2.578-3.418 4.453-4.511a11.885 11.885 0 0 1 6.094-1.64c1.797 0 3.457.35 4.98 1.054a13.917 13.917 0 0 1 4.043 2.812 25.035 25.035 0 0 0 7.852-2.93c-.938 2.891-2.735 5.157-5.39 6.797 2.343-.312 4.687-.976 7.03-1.992a27.048 27.048 0 0 1-6.21 6.446Z" fill-rule="evenodd"/>
</symbol><symbol id="icon-youtube" viewBox="0 0 21 15">
    <path d="M8.332 10.266V4.274l5.673 3.006-5.673 2.986Zm12.458-7.03s-.205-1.47-.835-2.117c-.798-.85-1.694-.854-2.104-.903C14.913 0 10.505 0 10.505 0h-.01S6.087 0 3.15.216c-.411.05-1.306.053-2.105.903C.414 1.766.21 3.236.21 3.236S0 4.962 0 6.687v1.618c0 1.727.21 3.452.21 3.452s.205 1.47.834 2.117c.8.85 1.849.823 2.316.911 1.68.164 7.14.215 7.14.215s4.413-.007 7.351-.223c.41-.05 1.306-.054 2.104-.903.63-.647.835-2.117.835-2.117s.21-1.725.21-3.452V6.687c0-1.725-.21-3.451-.21-3.451Z" fill-rule="nonzero"/>
</symbol></svg>