<svg width="512" height="512" viewBox="0 0 512 512" xmlns="http://www.w3.org/2000/svg">
    <style>
        @media (prefers-color-scheme: dark) {
            #favicon-star,
            #favicon-outline {
                fill: #F2C488;
            }
            #dot1,
            #dot2 {
                fill: #26dddd;
            }
        }
    </style>
    <g fill-rule="nonzero" fill="none">
        <path d="M151.409 143.107a8.282 8.282 0 0 1-8.292 8.293 8.282 8.282 0 0 1-8.293-8.293 8.282 8.282 0 0 1 8.293-8.292 8.282 8.282 0 0 1 8.292 8.292Z" id="dot1" fill="#008585"/>
        <path d="M151.409 143.107a8.282 8.282 0 0 1-8.292 8.293 8.282 8.282 0 0 1-8.293-8.293 8.282 8.282 0 0 1 8.293-8.292 8.282 8.282 0 0 1 8.292 8.292ZM360.572 368.852a8.282 8.282 0 0 1 8.292-8.292 8.282 8.282 0 0 1 8.293 8.292 8.282 8.282 0 0 1-8.293 8.292c-4.559.029-8.292-3.704-8.292-8.292ZM368.864 151.371a8.282 8.282 0 0 1-8.292-8.292 8.282 8.282 0 0 1 8.292-8.292 8.282 8.282 0 0 1 8.293 8.292 8.282 8.282 0 0 1-8.293 8.292ZM143.117 360.588a8.282 8.282 0 0 1 8.292 8.292 8.282 8.282 0 0 1-8.292 8.292 8.282 8.282 0 0 1-8.293-8.292c0-4.56 3.705-8.292 8.293-8.292Z" id="dot2" fill="#008585"/>
        <path d="M356.268 258.572c-10.657-1.225-20.858-4.758-31.915-8.292-11-3.505-23.31-6.725-35.99-5.898a61.654 61.654 0 0 0-4.617.456 29.761 29.761 0 0 0-2.023-4.047c7.495-7.865 14.875-15.844 22.085-23.993 13.678-15.303 26.985-31.004 39.182-47.817-16.785 12.197-32.486 25.504-47.788 39.182-8.15 7.21-16.129 14.59-23.994 22.085-4.473-2.65-9.631-4.19-15.188-4.19l-.285.029c.057-.74.057-1.453.142-2.194 1.226-10.658 4.76-20.86 8.293-31.915 3.505-11 6.725-23.31 5.899-35.99-.77-12.625-5.643-24.564-13.223-33.768 2.223 11.825 3.505 22.853 2.08 33.51-1.225 10.658-4.758 20.888-8.32 31.916-3.534 10.971-6.754 23.31-5.928 35.99.086 1.51.257 3.021.457 4.503a29.124 29.124 0 0 0-4.332 2.137c-7.865-7.494-15.844-14.875-23.993-22.084-15.303-13.678-31.004-26.986-47.788-39.182 12.196 16.784 25.504 32.485 39.182 47.816 7.21 8.15 14.59 16.129 22.084 23.993a29.559 29.559 0 0 0-4.189 15.189v.256c-.627-.057-1.254-.057-1.852-.142-10.658-1.225-20.86-4.76-31.916-8.292-10.999-3.505-23.338-6.726-35.99-5.9-12.623.77-24.563 5.643-33.767 13.223 11.825-2.223 22.853-3.505 33.51-2.08 10.658 1.225 20.888 4.759 31.916 8.32 10.971 3.534 23.31 6.754 35.99 5.928a52.096 52.096 0 0 0 4.19-.428 29.764 29.764 0 0 0 2.108 4.275c-7.494 7.864-14.875 15.843-22.084 23.993-13.678 15.302-26.986 31.004-39.182 47.817 16.812-12.197 32.514-25.476 47.816-39.183 8.15-7.21 16.129-14.59 23.994-22.084 4.474 2.65 9.631 4.19 15.188 4.19l.627-.03c-.057.627-.057 1.254-.143 1.882-1.225 10.657-4.758 20.887-8.32 31.915-3.534 10.97-6.754 23.31-5.928 35.99.77 12.624 5.671 24.564 13.251 33.768-2.223-11.826-3.477-22.854-2.052-33.511 1.225-10.658 4.759-20.86 8.293-31.916 3.505-11 6.724-23.31 5.898-35.99-.085-1.454-.256-2.878-.427-4.303a28.974 28.974 0 0 0 3.99-1.995c7.864 7.495 15.843 14.875 23.993 22.084 15.302 13.679 31.003 26.986 47.816 39.183-12.196-16.813-25.476-32.515-39.182-47.817-7.21-8.15-14.59-16.129-22.084-23.993a29.556 29.556 0 0 0 4.188-15.189l-.028-.626c.741.056 1.482.056 2.223.17 10.657 1.226 20.887 4.76 31.915 8.321 10.971 3.534 23.31 6.754 35.99 5.927 12.624-.77 24.564-5.642 33.768-13.25-11.882 2.194-22.91 3.448-33.54 2.051Zm-81.583 5.358c-1.88 4.417-5.358 7.979-9.632 10.144-.37.2-.712.428-1.111.599-2.166.912-4.531 1.396-6.982 1.538-.313.029-.627.086-.969.086-2.82 0-5.5-.57-7.95-1.624-4.502-1.938-8.121-5.472-10.258-9.888-.143-.285-.342-.542-.456-.855-.97-2.251-1.482-4.76-1.568-7.352l-.057-.599c0-2.82.599-5.5 1.625-7.95 1.937-4.56 5.528-8.178 9.973-10.315.257-.114.485-.285.741-.4 2.28-.968 4.759-1.481 7.38-1.567l.57-.057c2.821 0 5.5.57 7.95 1.624 4.446 1.91 8.036 5.386 10.174 9.718.17.342.399.655.541.997.94 2.166 1.425 4.56 1.539 7.01.029.314.085.627.085.94.03 2.822-.57 5.5-1.595 7.95Z" id="favicon-star" fill="#c47e16"/>
        <path d="M79.145 79.135c97.514-97.513 256.207-97.513 353.721 0 97.512 97.513 97.512 256.207 0 353.72-97.514 97.512-256.207 97.512-353.72 0-97.514-97.513-97.542-256.207 0-353.72Zm347.282 347.28c93.979-93.98 93.979-246.86 0-340.84-93.981-93.98-246.862-93.98-340.841 0-93.98 93.98-93.98 246.86 0 340.84 93.98 93.951 246.86 93.951 340.84 0Z" id="favicon-outline" fill="#c47e16"/>
    </g>
</svg>
