<?xml version="1.0" encoding="UTF-8"?>
<svg width="512px" height="512px" viewBox="0 0 512 512" version="1.1" xmlns="http://www.w3.org/2000/svg" xmlns:xlink="http://www.w3.org/1999/xlink">
    <style>
        @media (prefers-color-scheme: dark) {
            #favicon-shape {
                fill: #aaaaaa;
            }
        }
    </style>
    <g id="favicon-shape" stroke="none" stroke-width="1" fill="#333333" fill-rule="evenodd">
        <g id="favicon-nuances" transform="translate(6.000000, 6.000000)" fill-rule="nonzero">
            <path d="M145.408978,137.106994 C145.408978,141.695063 141.704409,145.399632 137.116743,145.399632 C132.528674,145.399632 128.824105,141.695063 128.824105,137.106994 C128.824105,132.519329 132.528674,128.81476 137.116743,128.81476 C141.704409,128.81476 145.408978,132.519329 145.408978,137.106994 Z" id="dot1" fill="#008585"></path>
            <path d="M145.408978,137.106994 C145.408978,141.695063 141.704409,145.399632 137.116743,145.399632 C132.528674,145.399632 128.824105,141.695063 128.824105,137.106994 C128.824105,132.519329 132.528674,128.81476 137.116743,128.81476 C141.704409,128.81476 145.408978,132.519329 145.408978,137.106994 Z" id="dot2" fill="#008585"></path>
            <path d="M354.571768,362.851834 C354.571768,358.264169 358.276337,354.5596 362.864406,354.5596 C367.452071,354.5596 371.156641,358.264169 371.156641,362.851834 C371.156641,367.439903 367.452071,371.144233 362.864406,371.144233 C358.304967,371.172699 354.571768,367.439903 354.571768,362.851834 Z" id="dot3" fill="#008585"></path>
            <path d="M362.864406,145.371002 C358.276337,145.371002 354.571768,141.666433 354.571768,137.078767 C354.571768,132.490699 358.276337,128.786533 362.864406,128.786533 C367.452071,128.786533 371.156641,132.490699 371.156641,137.078767 C371.156641,141.666433 367.452071,145.371002 362.864406,145.371002 Z" id="dot4" fill="#008585"></path>
            <path d="M137.116743,354.587827 C141.704409,354.587827 145.408978,358.291993 145.408978,362.880061 C145.408978,367.467727 141.704409,371.172296 137.116743,371.172296 C132.528674,371.172296 128.824105,367.467727 128.824105,362.880061 C128.824105,358.320623 132.528674,354.587827 137.116743,354.587827 Z" id="dot5" fill="#008585"></path>
            <path d="M350.268387,252.572452 C339.611147,251.347004 329.40957,247.813812 318.353122,244.280217 C307.353532,240.775252 295.04341,237.554974 282.36271,238.381617 C280.823945,238.467104 279.25655,238.638078 277.746415,238.837682 C277.176636,237.44126 276.492741,236.073469 275.723358,234.791165 C283.21758,226.926365 290.598088,218.947448 297.807623,210.797557 C311.485536,195.494988 324.793274,179.794019 336.989682,162.981315 C320.205205,175.177723 304.504235,188.485058 289.201667,202.163374 C281.051776,209.372505 273.073262,216.753014 265.208059,224.247639 C260.734511,221.597543 255.576663,220.058778 250.020011,220.058778 L249.73492,220.087005 C249.791777,219.346252 249.791777,218.633727 249.877264,217.892974 C251.102711,207.235332 254.636307,197.033754 258.169902,185.97771 C261.674867,174.978119 264.894741,162.667997 264.068502,149.987298 C263.299119,137.363455 258.426363,125.423911 250.84625,116.219547 C253.068911,128.045377 254.351216,139.073194 252.926568,149.730837 C251.70112,160.388076 248.167525,170.618284 244.605703,181.646102 C241.072107,192.617062 237.852233,204.955814 238.678473,217.636513 C238.76396,219.146648 238.934934,220.657187 239.134538,222.138692 C237.623999,222.737101 236.170721,223.449626 234.80293,224.275866 C226.93813,216.781644 218.959213,209.401135 210.809725,202.191601 C195.507157,188.513688 179.805784,175.20595 163.02171,163.009945 C175.218118,179.794019 188.525856,195.494988 202.203769,210.825784 C209.413304,218.975675 216.793812,226.954592 224.288034,234.819391 C221.637938,239.265116 220.099173,244.451191 220.099173,250.007843 L220.099173,250.264304 C219.472134,250.207447 218.845499,250.207447 218.24709,250.12196 C207.589448,248.896512 197.38787,245.362917 186.331422,241.829725 C175.332235,238.32476 162.993483,235.104482 150.341011,235.930722 C137.717571,236.700105 125.777624,241.573264 116.573663,249.152973 C128.399493,246.930312 139.42731,245.648008 150.08455,247.072656 C160.742192,248.298104 170.9724,251.831699 182.000218,255.393521 C192.971178,258.927116 205.30993,262.146991 217.990629,261.320751 C219.386647,261.235264 220.783069,261.09292 222.17949,260.893316 C222.777899,262.375225 223.461795,263.799873 224.288034,265.167664 C216.793812,273.032464 209.413304,281.011381 202.203769,289.161272 C188.525856,304.463437 175.218118,320.16481 163.02171,336.977514 C179.834414,324.781106 195.535787,311.501998 210.837952,297.795454 C218.987843,290.58592 226.96676,283.205815 234.83156,275.71119 C239.305511,278.361285 244.463359,279.900051 250.020011,279.900051 L250.646647,279.871421 C250.58979,280.498459 250.58979,281.125498 250.504303,281.752537 C249.278855,292.409776 245.745663,302.639984 242.183438,313.667801 C238.649843,324.638762 235.429968,336.977514 236.256208,349.658213 C237.02559,362.281653 241.926977,374.2216 249.507089,383.425964 C247.284428,371.600134 246.030351,360.571914 247.455402,349.914674 C248.680447,339.257031 252.214042,329.055454 255.747637,317.999006 C259.252602,306.999819 262.472477,294.689294 261.646237,282.008998 C261.56075,280.555316 261.389776,279.130668 261.218802,277.70602 C262.615224,277.135838 263.925755,276.480572 265.208059,275.71119 C273.073262,283.205815 281.051776,290.58592 289.201667,297.795454 C304.504235,311.473771 320.205205,324.781106 337.017909,336.977514 C324.821904,320.16481 311.542393,304.463437 297.836253,289.161272 C290.626718,281.011381 283.24621,273.032464 275.751585,265.167664 C278.40168,260.722342 279.940446,255.536268 279.940446,249.979213 L279.912219,249.352577 C280.652971,249.409434 281.393724,249.409434 282.13488,249.523551 C292.792119,250.748595 303.022327,254.282191 314.050144,257.844416 C325.021105,261.377608 337.359856,264.597885 350.040556,263.771243 C362.664399,263.00186 374.603942,258.129104 383.808307,250.520765 C371.92562,252.714795 360.897399,253.968873 350.268387,252.572452 Z M268.684797,257.929903 C266.804084,262.346595 263.327346,265.90882 259.052998,268.074221 C258.682824,268.273825 258.340876,268.501655 257.941668,268.672629 C255.776267,269.584759 253.410859,270.069051 250.960368,270.211395 C250.646647,270.240025 250.333329,270.296881 249.991381,270.296881 C247.170311,270.296881 244.491586,269.727103 242.041094,268.672629 C237.538512,266.735059 233.919833,263.201464 231.782659,258.784772 C231.639912,258.499682 231.440711,258.243221 231.326594,257.929903 C230.357608,255.678612 229.844686,253.17086 229.759199,250.577621 L229.702342,249.979213 C229.702342,247.158143 230.300751,244.479821 231.326594,242.028926 C233.264164,237.469487 236.854617,233.850808 241.300341,231.713634 C241.556802,231.599517 241.784633,231.428543 242.041094,231.314426 C244.320612,230.345843 246.799733,229.832921 249.421602,229.747434 L249.991381,229.690174 C252.81245,229.690174 255.491176,230.260356 257.941668,231.314426 C262.38699,233.223769 265.977442,236.700105 268.114616,241.031712 C268.28559,241.37366 268.513824,241.686978 268.656167,242.028926 C269.596524,244.19473 270.081219,246.588365 270.194933,249.038856 C270.223563,249.352577 270.28042,249.665895 270.28042,249.979213 C270.30905,252.800686 269.710641,255.479008 268.684797,257.929903 Z" id="favicon-star" fill="#555555"></path>
            <path d="M73.1454828,73.1349276 C170.658679,-24.3783092 329.352309,-24.3783092 426.866312,73.1349276 C524.377896,170.647721 524.377896,329.341754 426.866312,426.854951 C329.352309,524.366534 170.658679,524.366534 73.1454828,426.854951 C-24.3675927,329.341754 -24.3960615,170.647721 73.1454828,73.1349276 Z M420.426564,420.415202 C514.405762,326.435198 514.405762,173.554277 420.426564,79.5746761 C326.445753,-14.4047235 173.565236,-14.4047235 79.5856346,79.5746761 C-14.394007,173.554277 -14.394007,326.435198 79.5856346,420.415202 C173.565236,514.366173 326.445753,514.366173 420.426564,420.415202 Z" id="favicon-outline" fill="#555555"></path>
        </g>
    </g>
</svg>