<?xml version="1.0" encoding="UTF-8"?>
<svg width="400px" height="120px" viewBox="0 0 400 120" version="1.1" xmlns="http://www.w3.org/2000/svg" xmlns:xlink="http://www.w3.org/1999/xlink">
    <title>Artboard</title>
    <g id="Artboard" stroke="none" stroke-width="1" fill="none" fill-rule="evenodd">
        <g id="Group-3" transform="translate(2.000000, 2.000000)" fill-rule="nonzero">
            <g id="Group" transform="translate(145.000000, 32.000000)" fill="#28333A">
                <path d="M28.112,13.779882 L28.112,29.116 L22.6410025,29.116 L22.6410025,13.779882 C22.6410025,9.10071164 18.8225163,5.24150773 14.0560666,5.24150773 C9.34872639,5.24150773 5.47098416,9.10725045 5.47098416,13.779882 L5.47098416,29.116 L0,29.116 L0,0.562337406 L5.47098416,0.562337406 L5.47098416,3.30471308 C7.95300018,1.4333065 10.9419683,0 14.0560666,0 C17.8086387,0 21.3703931,1.37445724 24.0433068,3.9886723 C26.6504397,6.60942616 28.112,10.0436076 28.112,13.779882 Z" id="Path"></path>
                <path d="M39.156,16.30068 L39.156,0 L44.65572,0 L44.65572,16.30068 C44.65572,20.4671922 48.2361734,23.8925272 52.71,23.8925272 C57.1243933,23.8925272 60.76428,20.4737167 60.76428,16.30068 L60.76428,0 L66.264,0 L66.264,16.30068 C66.264,19.784735 64.7947665,23.0169464 62.2335135,25.4453458 C59.6723943,27.8724403 56.2904534,29.116 52.71,29.116 C49.0634204,29.116 45.6749204,27.8724403 43.1202264,25.4453458 C40.5656663,23.0169464 39.156,19.784735 39.156,16.30068 Z" id="Path"></path>
                <path d="M102.030153,0.633006318 L107.428,0.633006318 L107.428,29.4869937 L102.030153,29.4869937 L102.030153,26.1475219 C99.3345145,28.417887 95.9437482,30.12 92.3647155,30.12 C88.3504234,30.12 84.5829929,28.6068638 81.6989563,25.7695683 C78.8733834,22.874126 77.308,19.0906248 77.308,15.06 C77.308,11.0293752 78.879821,7.24719551 81.6989563,4.35043173 C84.5829929,1.51313619 88.3504234,0 92.3647155,0 C95.9437482,0 99.3279456,1.70343454 102.030153,3.97247806 L102.030153,0.633006318 Z M102.030153,15.0666076 C102.030153,9.71182345 97.6976608,5.303245 92.3647155,5.303245 C87.0319016,5.303245 82.6992777,9.71182345 82.6992777,15.0666076 C82.6992777,20.4213917 87.0319016,24.8299702 92.3647155,24.8299702 C97.6976608,24.8299702 102.030153,20.4213917 102.030153,15.0666076 Z" id="Shape"></path>
                <path d="M147.588,13.7805009 L147.588,29.116 L142.116574,29.116 L142.116574,13.7805009 C142.116574,9.10112042 138.297627,5.24043534 133.531933,5.24043534 C128.824563,5.24043534 124.946894,9.10765952 124.946894,13.7805009 L124.946894,29.116 L119.476,29.116 L119.476,0.561054844 L124.946894,0.561054844 L124.946894,3.30486152 C127.428943,1.43206306 130.417788,0 133.531933,0 C137.284301,0 140.846255,1.37451898 143.518718,3.98885146 C146.119277,6.60972304 147.588,10.0427509 147.588,13.7805009 Z" id="Path"></path>
                <path d="M184.736,23.9432327 C184.237802,24.576239 183.734373,25.2013163 183.172102,25.7695683 C180.359439,28.6068638 176.615761,30.12 172.614483,30.12 C168.611899,30.12 164.804147,28.6068638 161.998022,25.7695683 C159.186668,22.874126 157.628,19.0906248 157.628,15.06 C157.628,11.0293752 159.193206,7.24587399 161.998022,4.35043173 C164.810685,1.51313619 168.618437,0 172.614483,0 C176.609223,0 180.359439,1.51313619 183.172102,4.35043173 C183.734373,4.91868375 184.231264,5.48561425 184.671927,6.11862057 L180.359439,9.33386978 C178.607246,6.94060372 175.801122,5.303245 172.614483,5.303245 C167.306907,5.303245 162.994419,9.71182345 162.994419,15.0666076 C162.994419,20.4213917 167.306907,24.8299702 172.614483,24.8299702 C175.801122,24.8299702 178.607246,23.1926114 180.359439,20.7345911 L184.736,23.9432327 Z" id="Path"></path>
                <path d="M220.836209,16.2533781 L198.106878,16.2533781 L198.106878,16.3799893 C198.752667,21.2585618 202.419775,24.9222055 206.672003,24.988205 C209.311782,24.8615938 212.017622,23.7651945 213.884881,21.9037403 L218.524043,24.6622485 C217.363241,25.9458707 216.077057,27.0355353 214.59808,27.9393239 C212.345235,29.2889455 209.571984,29.9933888 206.805475,30.12 C202.938833,30.12 199.399804,28.5117682 196.827435,25.6266488 C194.50718,23.1200161 193.094265,19.9089402 192.834062,16.3799893 C192.768,15.9274215 192.768,15.4815884 192.768,15.0303676 C192.768,13.8733566 192.894731,12.7163456 193.153586,11.5606815 C193.733312,8.86143815 195.020845,6.42215186 196.827435,4.4340864 C199.399804,1.60823182 203.006243,0 206.805475,0 C210.672117,0 214.211146,1.60823182 216.850925,4.4340864 C218.657515,6.42215186 220.00302,8.86817279 220.523426,11.5606815 C220.96294,14.1993131 220.896878,15.675546 220.836209,16.2533781 Z M215.037594,11.6334156 L214.971532,11.5068044 C213.683999,7.71789643 210.398432,5.15199893 206.791993,5.15199893 C203.252964,5.15199893 199.966048,7.71789643 198.613802,11.5068044 L198.546392,11.6334156 L215.037594,11.6334156 Z" id="Shape"></path>
                <path d="M251,21.1876205 C251,22.857136 250.554581,24.4660153 249.610718,25.8161804 C248.726508,27.1663455 247.460511,28.1904228 245.750421,29.0285492 C244.229899,29.7332761 242.393873,30.12 240.559171,30.12 C239.550351,30.12 238.599859,29.9933378 237.583084,29.8006496 C234.417429,29.1552114 231.442668,27.7457576 228.912,25.5574661 L232.333506,21.7670326 C235.690054,24.660051 238.540205,25.2381157 240.309949,25.2381157 C241.509663,25.2381157 242.649723,24.978054 243.666498,24.5333888 C244.492378,24.1480123 245.946618,23.1832237 245.946618,21.1943578 C245.946618,19.200102 244.236528,17.9833365 240.309949,17.2772621 C240.120381,17.2112361 235.309593,16.313821 233.53322,15.2897437 C230.872638,13.7468904 229.483356,11.372648 229.483356,8.41360354 C229.483356,6.80337673 229.987103,5.26726077 230.872638,3.91709569 C231.698519,2.76096631 232.838579,1.86220373 234.483712,1.09145081 C236.004234,0.38672393 237.649367,0 239.484068,0 C240.178709,0 240.939633,0.0673735069 241.634274,0.126662193 C244.419468,0.579412159 247.139704,1.79617769 249.421149,3.65838143 L246.255494,7.38278889 C243.404019,5.13386123 240.939633,4.81585827 239.733291,4.81585827 C238.593231,4.81585827 237.518127,5.0085465 236.633918,5.459949 C235.367921,6.1053872 234.542041,7.25612669 234.542041,8.41360354 C234.542041,10.3418333 236.062562,11.3659106 239.924184,12.204037 C239.989141,12.204037 245.180391,13.3601664 246.634631,14.1982928 C248.346046,15.0970554 248.974405,15.8085197 249.675674,16.7059348 C250.554581,17.9765991 251,19.5127151 251,21.1876205 Z" id="Path"></path>
                <path d="M1.004,46.3578698 L14.056,46.3578698 L14.056,48.8861719 L3.61057165,48.8861719 L3.61057165,53.7898229 L12.71765,53.7898229 L12.71765,56.403099 L3.61057165,56.403099 L3.61057165,64.6808698 L13.7947183,64.6808698 L13.7947183,67.268 L1.004,67.268 L1.004,46.3578698 Z M8.83646323,41.164 L10.8057434,41.164 L8.39673143,44.3054219 L7.35155311,44.3054219 L8.83646323,41.164 Z" id="Shape"></path>
                <polygon id="Path" points="25.9709353 46.184 32.63 63.4492849 39.3150772 46.184 42.168 46.184 34.0270158 67.268 31.2654668 67.268 23.092 46.184"></polygon>
                <path d="M52.208,46.3578698 L65.26,46.3578698 L65.26,48.8861719 L54.8209522,48.8861719 L54.8209522,53.7898229 L63.9280659,53.7898229 L63.9280659,56.403099 L54.8209522,56.403099 L54.8209522,64.6808698 L65.0050338,64.6808698 L65.0050338,67.268 L52.208,67.268 L52.208,46.3578698 Z M60.0404117,41.164 L62.0097612,41.164 L59.6007303,44.3054219 L58.5554721,44.3054219 L60.0404117,41.164 Z" id="Shape"></path>
                <polygon id="Path" points="78.0060555 50.5945698 78.0060555 67.268 75.3 67.268 75.3 46.184 78.2436747 46.184 89.6619445 62.8574302 89.6619445 46.184 92.368 46.184 92.368 67.268 89.4507571 67.268"></polygon>
                <polygon id="Path" points="104.416 46.184 117.468 46.184 117.468 48.7333252 107.028952 48.7333252 107.028952 53.6777505 116.135937 53.6777505 116.135937 56.3127562 107.028952 56.3127562 107.028952 64.6593575 117.213034 64.6593575 117.213034 67.268 104.416 67.268"></polygon>
                <polygon id="Path" points="144.898439 67.268 144.898439 50.4508902 138.037506 59.6305698 131.202098 50.4508902 131.202098 67.268 128.512 67.268 128.512 46.184 131.354847 46.184 138.037506 55.187046 144.718418 46.184 147.588 46.184 147.588 67.268"></polygon>
                <polygon id="Path" points="159.636 46.184 172.688 46.184 172.688 48.7333252 162.242275 48.7333252 162.242275 53.6777505 171.348771 53.6777505 171.348771 56.3127562 162.242275 56.3127562 162.242275 64.6593575 172.426341 64.6593575 172.426341 67.268 159.636 67.268"></polygon>
                <polygon id="Path" points="185.434049 50.5945698 185.434049 67.268 182.728 67.268 182.728 46.184 185.671679 46.184 197.089951 62.8574302 197.089951 46.184 199.796 46.184 199.796 67.268 196.879021 67.268"></polygon>
                <polygon id="Path" points="215.50826 48.7926425 209.836 48.7926425 209.836 46.184 223.892 46.184 223.892 48.7926425 218.2184 48.7926425 218.2184 67.268 215.501559 67.268 215.501559 48.7926425"></polygon>
                <path d="M238.374749,68.0375078 C236.122192,67.5841009 233.903437,66.4553206 231.924,64.7513225 L233.722259,62.7143749 C235.333932,64.1097855 237.132192,65.0517892 238.923691,65.4199286 C240.447479,65.7528782 241.938818,65.6337742 243.121883,65.0856255 C243.910143,64.7174862 245.281146,63.8093188 245.281146,61.9523805 C245.281146,59.6745181 242.847412,58.8529718 240.474521,58.3927976 C240.260893,58.3657285 236.85096,57.6646396 235.486717,56.8688089 C233.662768,55.7738649 232.68657,54.1307723 232.68657,52.1263075 C232.68657,51.0042945 233.054334,49.9364196 233.688458,48.9944159 C234.330693,48.1458005 235.213598,47.4447116 236.242527,46.9561148 C237.766315,46.2279568 239.557814,46.0154646 241.383115,46.3159313 C243.362552,46.6488809 245.367679,47.5908846 247.132137,49.0539679 L245.401481,51.1518209 C242.26602,48.5667246 239.223852,48.5058192 237.398551,49.3544346 C236.149234,49.9364196 235.420465,50.9975272 235.420465,52.0938246 C235.420465,54.1646086 237.184923,54.9523186 239.986422,55.5600192 C241.142446,55.8334169 243.549139,56.2286253 244.972873,57.0501716 C246.952311,58.1451156 247.988,59.8491136 247.988,61.9456132 C247.988,63.1948509 247.654038,64.3507002 246.952311,65.3522559 C246.310075,66.2671905 245.340638,66.9628657 244.244105,67.5096609 C243.088081,68.0916459 241.905016,68.2716553 240.561053,68.2716553 C239.839046,68.2784225 239.110277,68.1850342 238.374749,68.0375078 Z" id="Path"></path>
            </g>
            <g id="Group-2">
                <path d="M33.2894737,32.2807018 C33.2894737,33.3969393 32.3880821,34.2982456 31.2718597,34.2982456 C30.1556374,34.2982456 29.254386,33.3969393 29.254386,32.2807018 C29.254386,31.1644642 30.1556374,30.2631579 31.2718597,30.2631579 C32.3880821,30.2631579 33.2894737,31.1644642 33.2894737,32.2807018 Z" id="Path" fill="#008585"></path>
                <path d="M33.2894737,32.2807018 C33.2894737,33.3969393 32.3880821,34.2982456 31.2718597,34.2982456 C30.1556374,34.2982456 29.254386,33.3969393 29.254386,32.2807018 C29.254386,31.1644642 30.1556374,30.2631579 31.2718597,30.2631579 C32.3880821,30.2631579 33.2894737,31.1644642 33.2894737,32.2807018 Z" id="Path" fill="#328585"></path>
                <path d="M81.7105263,83.7280702 C81.7105263,82.6118326 82.6123551,81.7105263 83.7287714,81.7105263 C84.8451878,81.7105263 85.745614,82.6118326 85.745614,83.7280702 C85.745614,84.8443077 84.8451878,85.745614 83.7287714,85.745614 C82.6123551,85.745614 81.7105263,84.8443077 81.7105263,83.7280702 Z" id="Path" fill="#328585"></path>
                <path d="M83.7287714,34.2982456 C82.6123551,34.2982456 81.7105263,33.3969079 81.7105263,32.2806315 C81.7105263,31.1644956 82.6123551,30.2631579 83.7287714,30.2631579 C84.8451878,30.2631579 85.745614,31.1644956 85.745614,32.2806315 C85.745614,33.3969079 84.8451878,34.2982456 83.7287714,34.2982456 Z" id="Path" fill="#328585"></path>
                <path d="M31.2718597,81.7105263 C32.3880821,81.7105263 33.2894737,82.6118326 33.2894737,83.7280702 C33.2894737,84.8443077 32.3880821,85.745614 31.2718597,85.745614 C30.1556374,85.745614 29.254386,84.8443077 29.254386,83.7280702 C29.254386,82.6188565 30.1626488,81.7105263 31.2718597,81.7105263 Z" id="Path" fill="#328585"></path>
                <path d="M80.0391716,58.6376381 C77.5852797,58.3554836 75.2362324,57.5417296 72.6907675,56.7279757 C70.158574,55.9208701 67.3237914,55.1793169 64.4040715,55.3695917 C64.0497237,55.3892707 63.6887401,55.4286288 63.341028,55.4746351 C63.2096406,55.1531225 63.0517103,54.8381253 62.8752,54.5428071 C64.600489,52.7315398 66.2992352,50.8940781 67.9594941,49.0172584 C71.1088101,45.4932518 74.1731889,41.8774985 76.9814286,38.005652 C73.1167811,40.8144327 69.501637,43.8790406 65.978066,47.0288799 C64.1014824,48.6892305 62.2644477,50.3888061 60.453425,52.114709 C59.4231621,51.5043935 58.2356324,51.1500383 56.9559987,51.1500383 L56.8904378,51.1565536 C56.9035765,50.9859578 56.9035765,50.8218774 56.9232183,50.6512816 C57.2053694,48.1969891 58.0190422,45.84774 58.8327151,43.3014349 C59.6397522,40.7684263 60.3812283,37.9334513 60.1909157,35.0132448 C60.0137418,32.106202 58.891773,29.3565913 57.1463114,27.2368421 C57.6581914,29.9602584 57.9534812,32.4999153 57.6254109,34.9542077 C57.3432598,37.4085002 56.5295869,39.7643976 55.7094111,42.3040545 C54.8957382,44.8305476 54.1542621,47.6720381 54.3445747,50.5922445 C54.3642165,50.9400844 54.4036327,51.2877914 54.4495519,51.629116 C54.1017071,51.7668691 53.7671337,51.9309495 53.4522021,52.1212243 C51.6411795,50.3953214 49.8038794,48.6957458 47.9272958,47.0353953 C44.4037247,43.8855559 40.7883152,40.820948 36.923535,38.0123003 C39.7319075,41.8774985 42.7961535,45.4932518 45.945735,49.0239067 C47.6057285,50.9007264 49.3052709,52.7381881 51.0309581,54.5493224 C50.4207366,55.5730302 50.0663888,56.7673337 50.0663888,58.0470017 L50.0663888,58.1061717 C49.9219953,58.093008 49.7776019,58.093008 49.6398442,58.073329 C47.1858197,57.7911745 44.8367723,56.9774205 42.2909092,56.1636666 C39.7580522,55.356561 36.9168993,54.6150078 34.0035497,54.8052826 C31.0968358,54.9823938 28.3475214,56.1046296 26.2280702,57.8502115 C28.9511071,57.3382911 31.4904672,57.0429729 33.9444917,57.3711338 C36.3985163,57.6532884 38.7541994,58.4670423 41.2935595,59.2873116 C43.8197807,60.1010655 46.6609336,60.8426187 49.5807863,60.6523439 C49.9023536,60.6326649 50.2237882,60.5998222 50.5453555,60.5538158 C50.6831132,60.8951404 50.8406454,61.2231683 51.0309581,61.5381656 C49.3052709,63.3494329 47.6057285,65.1868946 45.945735,67.0637143 C42.7961535,70.5877208 39.7319075,74.2034742 36.923535,78.0753207 C40.7948182,75.2666729 44.4102277,72.2085804 47.9337988,69.0520927 C49.8105151,67.3918752 51.6476825,65.6921666 53.4587052,63.9662637 C54.4888354,64.5765791 55.6764979,64.9309344 56.9559987,64.9309344 L57.1003922,64.924419 C57.0872534,65.0686875 57.0872534,65.2130889 57.0676117,65.3574903 C56.7854606,67.8117828 55.9717877,70.1676802 55.1516118,72.7073371 C54.337939,75.2338302 53.5964629,78.0753207 53.7867755,80.9955271 C53.9639494,83.9027029 55.0925539,86.6523136 56.8380155,88.7719298 C56.3261355,86.0485135 56.0374814,83.5088567 56.3655518,81.0545642 C56.6477029,78.6002717 57.461243,76.2510226 58.2749159,73.7047175 C59.081953,71.1717089 59.8234291,68.3367339 59.6332492,65.4165274 C59.6134747,65.0818512 59.5741912,64.7538232 59.534775,64.4256623 C59.8563423,64.2944246 60.1581352,64.1435078 60.453425,63.9662637 C62.2644477,65.6921666 64.1014824,67.3918752 65.978066,69.0520927 C69.501637,72.202065 73.1167811,75.2666729 76.9880643,78.0753207 C74.1798246,74.2034742 71.1220816,70.5877208 67.9661298,67.0637143 C66.3058709,65.1868946 64.6071248,63.3494329 62.8818357,61.5381656 C63.4909955,60.5144578 63.8453433,59.3201543 63.8453433,58.0404863 L63.8387076,57.8960849 C64.0099093,57.9092486 64.1797839,57.9092486 64.3509857,57.9354429 C66.8048776,58.2177304 69.1605607,59.0313514 71.6993898,59.8517536 C74.2262747,60.6653746 77.067693,61.4069278 79.9874129,61.216653 C82.8938614,61.0395418 85.6437067,59.917306 87.7631579,58.1652087 C85.0332198,58.6704808 82.4943906,58.9592836 80.0391716,58.6376381 Z M61.2539592,59.8714326 C60.8207789,60.8884921 60.0203775,61.7088943 59.0360337,62.2075181 C58.950831,62.2535244 58.8719986,62.3060461 58.7801601,62.3454041 C58.2815516,62.555358 57.7368911,62.6669167 57.1725889,62.6997594 C57.1003922,62.7062747 57.0281955,62.7194384 56.9494957,62.7194384 C56.2998581,62.7194384 55.6831336,62.5882006 55.1188314,62.3454041 C54.0820654,61.8991691 53.2487508,61.0854152 52.7566452,60.0682228 C52.7238647,60.0026704 52.6779455,59.9435004 52.651668,59.8714326 C52.4285749,59.3529969 52.3104589,58.7755242 52.2908172,58.1782394 L52.2776785,58.0404863 C52.2776785,57.3908128 52.4154361,56.7739821 52.651668,56.20954 C53.0978543,55.1596379 53.9245332,54.3262049 54.9481605,53.8340966 C55.0072184,53.8077692 55.0597734,53.7684112 55.1188314,53.7422168 C55.6437174,53.5190993 56.2146553,53.4008923 56.8182411,53.3812132 L56.9494957,53.3680496 C57.5991334,53.3680496 58.2158579,53.4994203 58.7801601,53.7422168 C59.8037874,54.1818035 60.630599,54.9823938 61.1227045,55.9799071 C61.161988,56.0586232 61.2145429,56.1308239 61.2473234,56.20954 C61.4639136,56.7082967 61.5753938,57.2595751 61.6016713,57.8238842 C61.6081743,57.8960849 61.621313,57.9682856 61.621313,58.0404863 C61.6279487,58.6901598 61.4966941,59.3069906 61.2539592,59.8714326 Z" id="Shape" fill="#CE9040"></path>
                <path d="M16.8213144,16.8213233 C39.2498661,-5.60710776 75.7498024,-5.60710776 98.1784868,16.8213233 C120.607171,39.2497676 120.607171,75.7501228 98.1784868,98.1785672 C75.7498024,120.607144 39.2498661,120.607144 16.8213144,98.1785672 C-5.6071048,75.7501228 -5.6071048,39.2497676 16.8213144,16.8213233 Z M96.6977349,96.6974322 C118.313795,75.0816002 118.313795,39.9182903 96.6977349,18.302591 C75.0816745,-3.31314804 39.9183918,-3.31314804 18.3025965,18.302591 C-3.31319881,39.9182903 -3.31319881,75.0816002 18.3025965,96.6974322 C39.9183918,118.306624 75.0883027,118.306624 96.6977349,96.6974322 Z" id="Shape" fill="#CE9040"></path>
            </g>
        </g>
    </g>
</svg>