<svg width="512" height="512" viewBox="0 0 512 512" xmlns="http://www.w3.org/2000/svg">
    <g fill="none" fill-rule="evenodd">
        <path d="M449.313 0H62.687C21.264 0 0 21.264 0 62.693v224.653h188.708c11.81 0 25.338 16.305 25.338 25.494l-.467 110.973c3.862 3.966 13.062 6.578 16.924 6.578 5.23 0 11.13-1.354 15.056-3.966v-177.06c-39.397-8.364-62.697-51.146-62.697-118.745h20.892V80.975a7.835 7.835 0 0 1 7.84-7.835h15.673c4.329 0 7.84 3.5 7.84 7.835v49.645h52.237V80.975a7.83 7.83 0 0 1 7.851-7.835h15.661c4.34 0 7.842 3.5 7.842 7.835v49.645h16.456c0 64.617-21.836 106.522-58.251 117.444v179.715c0 25.768-24.192 34.175-47.026 33.752-27.27-.466-47.015-7.624-47.015-33.118V317.81L0 318.317v130.99C0 490.747 21.264 512 62.687 512h386.626C490.737 512 512 490.746 512 449.307V62.693C512 21.264 490.737 0 449.313 0Z" fill="#3B82F6"/>
        <path d="M189.067 287.705H0v30.953l183.21-.507v110.54c0 25.479 19.783 32.634 47.104 33.099 22.878.423 47.116-7.98 47.116-33.733V248.446c36.484-10.917 58.362-52.797 58.362-117.378h-16.488V81.452c0-4.332-3.508-7.83-7.856-7.83h-15.69c-4.36 0-7.868 3.498-7.868 7.83v49.616h-52.335V81.452c0-4.332-3.519-7.83-7.856-7.83h-15.702c-4.337 0-7.856 3.498-7.856 7.83v49.616H183.21c0 67.56 23.345 110.318 62.817 118.677v176.96c-3.934 2.61-9.844 3.962-15.086 3.962-3.869 0-13.086-2.61-16.955-6.573l.468-110.91c0-9.183-13.555-25.479-25.387-25.479Z" fill="#FFF" fill-rule="nonzero"/>
    </g>
</svg>
