<?xml version="1.0" encoding="UTF-8"?>
<svg width="512px" height="512px" viewBox="0 0 512 512" version="1.1" xmlns="http://www.w3.org/2000/svg" xmlns:xlink="http://www.w3.org/1999/xlink">
    <title>Favicon</title>
    <g id="Favicon" stroke="none" stroke-width="1" fill="none" fill-rule="evenodd">
        <g id="Sigle-Business-Blue-RVB" transform="translate(0.000000, 5.000000)" fill-rule="nonzero">
            <path d="M0,105.705391 C0,68.7923972 0,50.3359004 7.04702605,36.2418483 C13.2551204,23.8256595 23.2384073,13.5906931 35.5707029,7.21481239 C49.5808619,0 67.8695723,0 104.3631,0 L407.553007,0 C444.130428,0 462.335245,0 476.261511,7.21481239 C488.593806,13.5906931 498.577093,23.8256595 504.785188,36.2418483 C512,50.3359004 512,68.7923972 512,105.705391 L512,396.227429 C512,433.140423 512,451.513026 504.869081,465.690972 C498.660986,478.191054 488.677699,488.342127 476.345404,494.718008 C462.419138,501.848927 444.130428,501.848927 407.6369,501.848927 L104.3631,501.848927 C67.7856792,501.848927 49.4969687,501.848927 35.5707029,494.718008 C23.2384073,488.258234 13.2551204,478.10716 7.04702605,465.690972 C0,451.513026 0,433.05653 0,396.143536 L0,105.705391 Z" id="Path" fill="#3B82F6"></path>
            <path d="M307.048992,126.427003 L307.048992,63.8427003 L272.988366,63.8427003 L272.988366,126.427003 L238.843847,126.427003 L238.843847,63.8427003 L204.783221,63.8427003 L204.783221,126.427003 L170.554809,126.427003 L170.554809,158.222514 C170.554809,202.35032 189.598558,251.511716 238.92774,260.739964 L238.92774,376.093069 C238.92774,387.083074 238.92774,395.304604 235.572014,398.660331 C233.139112,401.177126 225.840406,405.371784 204.531542,405.371784 C187.920695,405.371784 177.266262,402.60331 173.574963,397.653613 C169.883664,392.620023 170.470916,385.237424 170.470916,376.176962 L170.470916,313.760446 C170.470916,283.726692 165.185646,251.595609 102.349664,251.595609 L0.0838931673,251.595609 L0.0838931673,285.991807 L102.014091,285.991807 C136.829756,285.991807 136.829756,292.535474 136.829756,313.844339 L136.829756,376.093069 C136.829756,388.84483 136.829756,405.120105 146.645256,418.459118 C157.299689,432.888743 175.672292,439.68409 204.783221,439.68409 C230.95789,439.68409 248.323775,434.482713 259.481566,423.157136 C272.82058,409.650336 273.323939,390.187121 273.240046,376.093069 L273.240046,260.656071 C322.485335,251.511716 341.612977,202.601999 341.612977,158.13862 L341.612977,126.34311 L307.048992,126.34311 L307.048992,126.427003 Z" id="Path" fill="#FFFFFF"></path>
        </g>
    </g>
</svg>