<svg width="60" height="49" viewBox="0 0 60 49" xmlns="http://www.w3.org/2000/svg">
    <path d="M53.848 12.313c.078.312.117.82.117 1.523 0 5.625-1.367 11.055-4.102 16.289-2.812 5.547-6.758 9.961-11.836 13.242-5.547 3.672-11.914 5.508-19.101 5.508-6.875 0-13.164-1.836-18.867-5.508.859.078 1.836.117 2.93.117 5.702 0 10.82-1.757 15.35-5.273-2.734 0-5.136-.8-7.206-2.402-2.07-1.602-3.496-3.614-4.278-6.036.782.079 1.524.118 2.227.118a15.62 15.62 0 0 0 3.281-.352c-2.812-.625-5.156-2.07-7.031-4.336C3.457 22.938 2.52 20.36 2.52 17.47v-.235c1.718 1.016 3.554 1.563 5.507 1.641a13.651 13.651 0 0 1-3.984-4.453c-1.016-1.797-1.523-3.77-1.523-5.918s.585-4.2 1.757-6.152c3.047 3.828 6.778 6.875 11.192 9.14 4.414 2.266 9.12 3.516 14.12 3.75a17.08 17.08 0 0 1-.234-2.812 12.2 12.2 0 0 1 1.641-6.153c1.094-1.914 2.578-3.418 4.453-4.511a11.885 11.885 0 0 1 6.094-1.64c1.797 0 3.457.35 4.98 1.054a13.917 13.917 0 0 1 4.043 2.812 25.035 25.035 0 0 0 7.852-2.93c-.938 2.891-2.735 5.157-5.39 6.797 2.343-.312 4.687-.976 7.03-1.992a27.048 27.048 0 0 1-6.21 6.446Z" fill="#222" fill-rule="evenodd"/>
</svg>
