<svg width="15" height="15" viewBox="0 0 15 15" xmlns="http://www.w3.org/2000/svg">
    <path d="M7.2 0C5.245 0 5 .008 4.231.043 3.465.078 2.941.2 2.484.378a3.53 3.53 0 0 0-1.276.83c-.4.4-.646.802-.83 1.276-.178.458-.3.981-.335 1.747C.008 5 0 5.245 0 7.2c0 1.955.008 2.2.043 2.969.035.766.157 1.29.335 1.747.184.474.43.875.83 1.276.4.4.802.646 1.276.83.458.178.981.3 1.747.335.768.035 1.014.043 2.969.043 1.955 0 2.2-.008 2.969-.043.766-.035 1.29-.157 1.747-.335a3.53 3.53 0 0 0 1.276-.83c.4-.4.646-.802.83-1.276.178-.458.3-.981.335-1.747.035-.768.043-1.014.043-2.969 0-1.955-.008-2.2-.043-2.969-.035-.766-.157-1.29-.335-1.747a3.53 3.53 0 0 0-.83-1.276 3.53 3.53 0 0 0-1.276-.83c-.458-.178-.981-.3-1.747-.335C9.4.008 9.155 0 7.2 0Zm0 1.297c1.922 0 2.15.008 2.91.042.701.032 1.083.15 1.336.248.336.13.576.287.828.539.252.252.408.492.539.828.098.253.216.635.248 1.337.034.759.042.987.042 2.909 0 1.922-.008 2.15-.042 2.91-.032.701-.15 1.083-.248 1.336a2.23 2.23 0 0 1-.539.828 2.23 2.23 0 0 1-.828.539c-.253.098-.635.216-1.337.248-.759.034-.986.042-2.909.042-1.923 0-2.15-.008-2.91-.042-.701-.032-1.083-.15-1.336-.248a2.23 2.23 0 0 1-.828-.539 2.23 2.23 0 0 1-.539-.828c-.098-.253-.216-.635-.248-1.337-.034-.759-.042-.987-.042-2.909 0-1.922.008-2.15.042-2.91.032-.701.15-1.083.248-1.336a2.23 2.23 0 0 1 .539-.828 2.23 2.23 0 0 1 .828-.539c.253-.098.635-.216 1.337-.248.759-.034.987-.042 2.909-.042Zm0 2.206a3.697 3.697 0 1 0 0 7.394 3.697 3.697 0 0 0 0-7.394Zm0 6.097a2.4 2.4 0 1 1 0-4.8 2.4 2.4 0 0 1 0 4.8Zm4.707-6.243a.864.864 0 1 1-1.728 0 .864.864 0 0 1 1.728 0Z" fill="#54565A" fill-rule="nonzero"/>
</svg>
