<svg width="13" height="16" viewBox="0 0 13 16" xmlns="http://www.w3.org/2000/svg">
    <path d="M11.3 1.64C10.188.582 8.646 0 6.96 0 4.386 0 2.803 1.043 1.93 1.918.85 2.997.232 4.43.232 5.848c0 1.78.754 3.148 2.015 3.656.085.034.17.052.254.052.266 0 .477-.172.55-.449.043-.158.141-.55.184-.719.092-.335.018-.496-.183-.73-.364-.427-.534-.931-.534-1.588 0-1.952 1.47-4.026 4.193-4.026 2.161 0 3.504 1.214 3.504 3.17 0 1.233-.269 2.376-.757 3.217-.34.585-.936 1.281-1.852 1.281-.396 0-.751-.16-.976-.441a1.1 1.1 0 0 1-.196-.964c.096-.404.227-.824.354-1.23.232-.744.451-1.445.451-2.005 0-.957-.595-1.6-1.48-1.6-1.126 0-2.008 1.13-2.008 2.573 0 .708.19 1.237.277 1.44l-1.145 4.793c-.092.388-.649 3.46.273 3.704 1.035.275 1.96-2.716 2.055-3.053.076-.275.343-1.315.507-1.953.5.476 1.305.797 2.088.797 1.476 0 2.804-.656 3.738-1.85.907-1.156 1.406-2.768 1.406-4.54 0-1.384-.601-2.748-1.65-3.743Z" fill="#54565A" fill-rule="nonzero"/>
</svg>
