<svg width="21" height="15" viewBox="0 0 21 15" xmlns="http://www.w3.org/2000/svg">
    <path d="M8.332 10.266V4.274l5.673 3.006-5.673 2.986Zm12.458-7.03s-.205-1.47-.835-2.117c-.798-.85-1.694-.854-2.104-.903C14.913 0 10.505 0 10.505 0h-.01S6.087 0 3.15.216c-.411.05-1.306.053-2.105.903C.414 1.766.21 3.236.21 3.236S0 4.962 0 6.687v1.618c0 1.727.21 3.452.21 3.452s.205 1.47.834 2.117c.8.85 1.849.823 2.316.911 1.68.164 7.14.215 7.14.215s4.413-.007 7.351-.223c.41-.05 1.306-.054 2.104-.903.63-.647.835-2.117.835-2.117s.21-1.725.21-3.452V6.687c0-1.725-.21-3.451-.21-3.451Z" fill="#54565A" fill-rule="nonzero"/>
</svg>
