<?xml version="1.0" encoding="UTF-8"?>
<svg width="21px" height="15px" viewBox="0 0 21 15" version="1.1" xmlns="http://www.w3.org/2000/svg" xmlns:xlink="http://www.w3.org/1999/xlink">
    <!-- Generator: Sketch 51.3 (57544) - http://www.bohemiancoding.com/sketch -->
    <title>Youtube</title>
    <desc>Created with Sketch.</desc>
    <defs></defs>
    <g id="Symbols" stroke="none" stroke-width="1" fill="none" fill-rule="evenodd">
        <g id="FOOTER" transform="translate(-401.000000, -412.000000)" fill="#54565A" fill-rule="nonzero">
            <g id="Social">
                <g transform="translate(0.000000, 179.000000)">
                    <g transform="translate(300.000000, 196.000000)">
                        <g id="youtube-black" transform="translate(101.000000, 37.000000)">
                            <path d="M8.33175,10.2661394 L8.33109375,4.27400382 L14.0050313,7.28040176 L8.33175,10.2661394 Z M20.79,3.23566015 C20.79,3.23566015 20.5845937,1.76611721 19.95525,1.118985 C19.1565937,0.269249559 18.2614687,0.265250735 17.8513125,0.215932941 C14.912625,0 10.5045938,0 10.5045938,0 L10.4954062,0 C10.4954062,0 6.087375,0 3.1486875,0.215932941 C2.737875,0.265250735 1.84340625,0.269249559 1.04409375,1.118985 C0.41475,1.76611721 0.21,3.23566015 0.21,3.23566015 C0.21,3.23566015 0,4.96178956 0,6.68725279 L0,8.30541618 C0,10.0315456 0.21,11.7570088 0.21,11.7570088 C0.21,11.7570088 0.41475,13.2265518 1.04409375,13.8736835 C1.84340625,14.7234194 2.89275,14.6967609 3.36,14.7854003 C5.04,14.949349 10.5,15 10.5,15 C10.5,15 14.912625,14.9933356 17.8513125,14.7774026 C18.2614687,14.7274182 19.1565937,14.7234194 19.95525,13.8736835 C20.5845937,13.2265518 20.79,11.7570088 20.79,11.7570088 C20.79,11.7570088 21,10.0315456 21,8.30541618 L21,6.68725279 C21,4.96178956 20.79,3.23566015 20.79,3.23566015 Z" id="Youtube"></path>
                        </g>
                    </g>
                </g>
            </g>
        </g>
    </g>
</svg>