<?xml version="1.0" encoding="UTF-8"?>
<svg width="13px" height="16px" viewBox="0 0 13 16" version="1.1" xmlns="http://www.w3.org/2000/svg" xmlns:xlink="http://www.w3.org/1999/xlink">
    <!-- Generator: Sketch 51.3 (57544) - http://www.bohemiancoding.com/sketch -->
    <title>Path</title>
    <desc>Created with Sketch.</desc>
    <defs></defs>
    <g id="Symbols" stroke="none" stroke-width="1" fill="none" fill-rule="evenodd">
        <g id="FOOTER" transform="translate(-370.000000, -413.000000)" fill="#54565A" fill-rule="nonzero">
            <g id="Social">
                <g transform="translate(0.000000, 179.000000)">
                    <g transform="translate(300.000000, 196.000000)">
                        <g id="pictos" transform="translate(4.000000, 38.000000)">
                            <g id="pinterest" transform="translate(66.232323, 0.000000)">
                                <path d="M11.0681852,1.63959375 C9.95439504,0.5823125 8.4130141,-2.00728323e-13 6.7280284,-2.00728323e-13 C4.15414061,-2.00728323e-13 2.57107511,1.04328125 1.69629963,1.9184375 C0.618189419,2.99696875 -6.1284311e-14,4.4290625 -6.1284311e-14,5.8475625 C-6.1284311e-14,7.62859375 0.753387739,8.99559375 2.0150175,9.50415625 C2.09971397,9.53846875 2.18494769,9.55575 2.26850645,9.55575 C2.53466827,9.55575 2.74555616,9.38353125 2.81862266,9.1073125 C2.86122372,8.94884375 2.95988879,8.557875 3.00280588,8.38815625 C3.09464466,8.053 3.02044044,7.89178125 2.82013961,7.658375 C2.45524952,7.2314375 2.28531933,6.72659375 2.28531933,6.0695625 C2.28531933,4.11796875 3.75492949,2.04384375 6.47871107,2.04384375 C8.63992479,2.04384375 9.98242704,3.25846875 9.98242704,5.21365625 C9.98242704,6.44746875 9.71367377,7.59009375 9.22549975,8.4311875 C8.88627143,9.015625 8.28976178,9.71228125 7.3740286,9.71228125 C6.978041,9.71228125 6.62231583,9.5514375 6.39787019,9.271 C6.18584458,9.00590625 6.11593839,8.66346875 6.20123532,8.3065625 C6.29756176,7.9033125 6.42893609,7.4826875 6.55607561,7.0760625 C6.78794799,6.333375 7.00714751,5.63190625 7.00714751,5.07225 C7.00714751,4.115 6.4119968,3.47178125 5.52631823,3.47178125 C4.40074007,3.47178125 3.51891709,4.60221875 3.51891709,6.04534375 C3.51891709,6.75309375 3.70913651,7.28246875 3.79525513,7.48571875 C3.65345175,8.07978125 2.81072187,11.6116562 2.65087309,12.2776562 C2.55843384,12.6664375 2.00164936,15.7371875 2.92322912,15.9820312 C3.95867507,16.257125 4.88423682,13.2664375 4.97844584,12.9285 C5.05479908,12.6536562 5.32194059,11.614375 5.48564496,10.9755312 C5.98551215,11.451625 6.79034983,11.7735 7.57347615,11.7735 C9.04981778,11.7735 10.3775298,11.1165625 11.3120668,9.92384375 C12.2184138,8.76696875 12.7175858,7.15453125 12.7175858,5.38378125 C12.7175226,3.99946875 12.116304,2.63471875 11.0681852,1.63959375 Z" id="Path"></path>
                            </g>
                        </g>
                    </g>
                </g>
            </g>
        </g>
    </g>
</svg>