<?xml version="1.0" encoding="UTF-8"?>
<svg width="60px" height="49px" viewBox="0 0 60 49" version="1.1" xmlns="http://www.w3.org/2000/svg" xmlns:xlink="http://www.w3.org/1999/xlink">
    <!-- Generator: Sketch 51.3 (57544) - http://www.bohemiancoding.com/sketch -->
    <title>twitter</title>
    <desc>Created with Sketch.</desc>
    <defs></defs>
    <g id="exports" stroke="none" stroke-width="1" fill="none" fill-rule="evenodd">
        <g id="Artboard" transform="translate(-195.000000, -308.000000)" fill="#222222">
            <path d="M248.847528,320.312583 C248.925653,320.625083 248.964715,321.132893 248.964715,321.836017 C248.964715,327.461003 247.59753,332.890677 244.863163,338.12504 C242.050669,343.671901 238.105366,348.085954 233.027253,351.367196 C227.480392,355.039062 221.113219,356.874996 213.925736,356.874996 C207.050752,356.874996 200.761706,355.039062 195.058594,351.367196 C195.917966,351.445322 196.894527,351.484383 197.988274,351.484383 C203.691386,351.484383 208.80856,349.726575 213.3398,346.210958 C210.605432,346.210958 208.203094,345.41018 206.132786,343.80862 C204.062478,342.207061 202.636701,340.195348 201.855453,337.773479 C202.636701,337.851604 203.378886,337.890666 204.08201,337.890666 C205.175757,337.890666 206.269505,337.773479 207.363252,337.539104 C204.550759,336.914106 202.207014,335.468796 200.332019,333.203177 C198.457023,330.937558 197.519525,328.359439 197.519525,325.46882 L197.519525,325.234446 C199.238272,326.250069 201.074204,326.796942 203.027325,326.875067 C201.386704,325.703195 200.058582,324.218823 199.042959,322.421953 C198.027336,320.625083 197.519525,318.65243 197.519525,316.503998 C197.519525,314.355566 198.105461,312.30479 199.277334,310.351669 C202.324201,314.179785 206.054661,317.226653 210.468713,319.492272 C214.882766,321.757891 219.589785,323.007889 224.589773,323.242263 C224.433524,322.304765 224.355399,321.367268 224.355399,320.42977 C224.355399,318.242275 224.902273,316.191498 225.99602,314.277441 C227.089767,312.363383 228.574139,310.85948 230.449134,309.765733 C232.32413,308.671986 234.355374,308.125112 236.54287,308.125112 C238.33974,308.125112 239.999893,308.476673 241.523327,309.179797 C243.046761,309.88292 244.394414,310.820418 245.566286,311.99229 C248.378779,311.445416 250.99596,310.468856 253.41783,309.06261 C252.480332,311.953228 250.683462,314.218847 248.027217,315.859468 C250.370962,315.546968 252.714706,314.882909 255.058451,313.867286 C253.339704,316.367279 251.269398,318.515713 248.847528,320.312583 Z" id="twitter"></path>
        </g>
    </g>
</svg>