<?xml version="1.0" encoding="UTF-8"?>
<svg width="40px" height="40px" viewBox="0 0 40 40" version="1.1" xmlns="http://www.w3.org/2000/svg" xmlns:xlink="http://www.w3.org/1999/xlink">
    <!-- Generator: Sketch 51.3 (57544) - http://www.bohemiancoding.com/sketch -->
    <title>icon-linkedin</title>
    <desc>Created with Sketch.</desc>
    <defs></defs>
    <g id="Export" stroke="none" stroke-width="1" fill="none" fill-rule="evenodd">
        <g id="Icons" transform="translate(-225.000000, -94.000000)" fill="#222222">
            <path d="M233.888889,98.4444444 C233.888889,95.9898519 231.899012,94 229.444444,94 C226.989852,94 225,95.9898519 225,98.4444444 C225,100.899062 226.989852,102.88884 229.444444,102.88884 C231.899012,102.88884 233.888889,100.899062 233.888889,98.4444444 Z M233.888889,107.333284 L233.888889,133.999951 L225,133.999951 L225,107.333284 L233.888889,107.333284 Z M265,133.999951 L256.111111,133.999951 L256.111111,118.999951 C256.111111,116.644395 253.466667,114.68884 251.111111,114.68884 C248.755556,114.68884 247.222222,116.644395 247.222222,118.999951 L247.222222,133.999951 L238.333333,133.999951 L238.333333,107.333284 L247.222222,107.333284 L247.222222,111.777728 C248.688889,109.399951 252.466667,107.866617 255,107.866617 C260.555556,107.866617 265,112.399951 265,117.88884 L265,133.999951 Z" id="icon-linkedin"></path>
        </g>
    </g>
</svg>