<?xml version="1.0" encoding="UTF-8"?>
<svg width="7px" height="15px" viewBox="0 0 7 15" version="1.1" xmlns="http://www.w3.org/2000/svg" xmlns:xlink="http://www.w3.org/1999/xlink">
    <!-- Generator: Sketch 51.3 (57544) - http://www.bohemiancoding.com/sketch -->
    <title>Facebook</title>
    <desc>Created with Sketch.</desc>
    <defs></defs>
    <g id="Symbols" stroke="none" stroke-width="1" fill="none" fill-rule="evenodd">
        <g id="FOOTER" transform="translate(-304.000000, -413.000000)" fill="#54565A" fill-rule="nonzero">
            <g id="Social">
                <g transform="translate(0.000000, 179.000000)">
                    <g transform="translate(300.000000, 196.000000)">
                        <g id="pictos" transform="translate(4.000000, 38.000000)">
                            <g id="facebook-letter-logo" transform="translate(0.000000, 0.800000)">
                                <path d="M1.39309891,2.62849188 C1.39309891,2.97051137 1.39309891,4.4970877 1.39309891,4.4970877 L0.0219957996,4.4970877 L0.0219957996,6.78201392 L1.39309891,6.78201392 L1.39309891,13.5720111 L4.20963576,13.5720111 L4.20963576,6.78220325 L6.09966277,6.78220325 C6.09966277,6.78220325 6.27667207,5.68659861 6.36247465,4.48866265 C6.11647565,4.48866265 4.22028603,4.48866265 4.22028603,4.48866265 C4.22028603,4.48866265 4.22028603,3.1593652 4.22028603,2.92636659 C4.22028603,2.69286311 4.52737394,2.37876937 4.83089069,2.37876937 C5.13383858,2.37876937 5.77323372,2.37876937 6.36544534,2.37876937 C6.36544534,2.06767332 6.36544534,0.992768445 6.36544534,3.15545244e-05 C5.57486069,3.15545244e-05 4.67543474,3.15545244e-05 4.2789731,3.15545244e-05 C1.32347715,-0.000126218097 1.39309891,2.28707193 1.39309891,2.62849188 Z" id="Facebook"></path>
                            </g>
                        </g>
                    </g>
                </g>
            </g>
        </g>
    </g>
</svg>