<?xml version="1.0" encoding="UTF-8"?>
<svg width="15px" height="15px" viewBox="0 0 15 15" version="1.1" xmlns="http://www.w3.org/2000/svg" xmlns:xlink="http://www.w3.org/1999/xlink">
    <!-- Generator: Sketch 51.3 (57544) - http://www.bohemiancoding.com/sketch -->
    <title>Instagram</title>
    <desc>Created with Sketch.</desc>
    <defs></defs>
    <g id="Symbols" stroke="none" stroke-width="1" fill="none" fill-rule="evenodd">
        <g id="FOOTER" transform="translate(-332.000000, -412.000000)" fill="#54565A" fill-rule="nonzero">
            <g id="Social">
                <g transform="translate(0.000000, 179.000000)">
                    <g transform="translate(300.000000, 196.000000)">
                        <g id="instagram-black" transform="translate(32.000000, 37.000000)">
                            <path d="M7.2000144,0 C5.2445973,0 4.9994058,0.0082884 4.2314493,0.0433281 C3.4650933,0.0782817 2.9416995,0.2000061 2.4837264,0.3780051 C2.0102628,0.5619774 1.6087362,0.8081691 1.2084384,1.2084384 C0.8081691,1.6087362 0.5619774,2.0102628 0.3780051,2.4837264 C0.2000061,2.9416995 0.0782817,3.4650933 0.0433281,4.2314493 C0.0082884,4.9994058 0,5.2445973 0,7.2000144 C0,9.1554027 0.0082884,9.4005942 0.0433281,10.1685507 C0.0782817,10.9349067 0.2000061,11.4583005 0.3780051,11.9162736 C0.5619774,12.3897372 0.8081691,12.7912638 1.2084384,13.1915616 C1.6087362,13.5918309 2.0102628,13.8380226 2.4837264,14.0220237 C2.9416995,14.1999939 3.4650933,14.3217183 4.2314493,14.3566719 C4.9994058,14.3917116 5.2445973,14.4 7.2000144,14.4 C9.1554027,14.4 9.4005942,14.3917116 10.1685507,14.3566719 C10.9349067,14.3217183 11.4583005,14.1999939 11.9162736,14.0220237 C12.3897372,13.8380226 12.7912638,13.5918309 13.1915616,13.1915616 C13.5918309,12.7912638 13.8380226,12.3897372 14.0220237,11.9162736 C14.1999939,11.4583005 14.3217183,10.9349067 14.3566719,10.1685507 C14.3917116,9.4005942 14.4,9.1554027 14.4,7.2000144 C14.4,5.2445973 14.3917116,4.9994058 14.3566719,4.2314493 C14.3217183,3.4650933 14.1999939,2.9416995 14.0220237,2.4837264 C13.8380226,2.0102628 13.5918309,1.6087362 13.1915616,1.2084384 C12.7912638,0.8081691 12.3897372,0.5619774 11.9162736,0.3780051 C11.4583005,0.2000061 10.9349067,0.0782817 10.1685507,0.0433281 C9.4005942,0.0082884 9.1554027,0 7.2000144,0 Z M7.2000144,1.2972951 C9.122478,1.2972951 9.3502068,1.3046403 10.109418,1.3392798 C10.8114108,1.3712898 11.1926454,1.4885838 11.4463539,1.5871863 C11.7824313,1.7177991 12.0222786,1.8738198 12.274215,2.125785 C12.5261802,2.3777214 12.6822009,2.6175687 12.8128137,2.9536461 C12.9114162,3.2073546 13.0287102,3.5885892 13.0607202,4.290582 C13.0953597,5.0497932 13.1027049,5.277522 13.1027049,7.2000144 C13.1027049,9.122478 13.0953597,9.3502068 13.0607202,10.109418 C13.0287102,10.8114108 12.9114162,11.1926454 12.8128137,11.4463539 C12.6822009,11.7824313 12.5261802,12.0222786 12.274215,12.274215 C12.0222786,12.5261802 11.7824313,12.6822009 11.4463539,12.8128137 C11.1926454,12.9114162 10.8114108,13.0287102 10.109418,13.0607202 C9.3503211,13.0953597 9.1226208,13.1027049 7.2000144,13.1027049 C5.2773792,13.1027049 5.0497074,13.0953597 4.290582,13.0607202 C3.5885892,13.0287102 3.2073546,12.9114162 2.9536461,12.8128137 C2.6175687,12.6822009 2.3777214,12.5261802 2.125785,12.274215 C1.8738483,12.0222786 1.7177991,11.7824313 1.5871863,11.4463539 C1.4885838,11.1926454 1.3712898,10.8114108 1.3392798,10.109418 C1.3046403,9.3502068 1.2972951,9.122478 1.2972951,7.2000144 C1.2972951,5.277522 1.3046403,5.0497932 1.3392798,4.290582 C1.3712898,3.5885892 1.4885838,3.2073546 1.5871863,2.9536461 C1.7177991,2.6175687 1.8738198,2.3777214 2.125785,2.125785 C2.3777214,1.8738198 2.6175687,1.7177991 2.9536461,1.5871863 C3.2073546,1.4885838 3.5885892,1.3712898 4.290582,1.3392798 C5.0497932,1.3046403 5.277522,1.2972951 7.2000144,1.2972951 Z M7.2000144,3.5027049 C5.1580272,3.5027049 3.5027049,5.1580272 3.5027049,7.2000144 C3.5027049,9.2419728 5.1580272,10.8972951 7.2000144,10.8972951 C9.2419728,10.8972951 10.8972951,9.2419728 10.8972951,7.2000144 C10.8972951,5.1580272 9.2419728,3.5027049 7.2000144,3.5027049 Z M7.2000144,9.6 C5.8745103,9.6 4.8,8.5254897 4.8,7.2000144 C4.8,5.8745103 5.8745103,4.8 7.2000144,4.8 C8.5254897,4.8 9.6,5.8745103 9.6,7.2000144 C9.6,8.5254897 8.5254897,9.6 7.2000144,9.6 Z M11.9073852,3.3566304 C11.9073852,3.8338095 11.5205487,4.2206172 11.0433696,4.2206172 C10.566219,4.2206172 10.1793828,3.8338095 10.1793828,3.3566304 C10.1793828,2.8794513 10.566219,2.4926148 11.0433696,2.4926148 C11.5205487,2.4926148 11.9073852,2.8794513 11.9073852,3.3566304 Z" id="Instagram"></path>
                        </g>
                    </g>
                </g>
            </g>
        </g>
    </g>
</svg>