<svg width="76" height="82" viewBox="0 0 76 82" fill="none" xmlns="http://www.w3.org/2000/svg">
<path d="M48.3634 3.99341H4.3584C4.49068 3.99341 5.35432 4.49992 5.35432 4.49992C5.35432 4.49992 6.42383 5.26203 7.03416 5.85093C7.64448 6.43984 8.12861 7.13898 8.45892 7.90842C8.78922 8.67787 8.98159 9.50041 8.98159 10.3333V58.9999C8.98159 60.7512 10.4306 62.3397 12.2455 62.3397H22.4543V78.9999H67.3634V61.6666V43.9999C67.3634 40.4973 64.4297 37.6666 60.7998 37.6666H54.9271V10.3333C54.9271 6.83067 51.9934 3.99341 48.3634 3.99341Z" fill="#91C3FD"/>
<path d="M2.41797 3.66659C2.41797 2.37792 3.44942 1.33325 4.72178 1.33325H48.8232C50.0956 1.33325 51.1271 2.37792 51.1271 3.66659C51.1271 4.95525 50.0956 5.99992 48.8232 5.99992H4.72178C3.44942 5.99992 2.41797 4.95525 2.41797 3.66659Z" fill="#3B82F6"/>
<path d="M7.59961 3H53.4874C57.1174 3 60.1087 5.83075 60.1087 9.33333V44.3333C60.1087 45.1662 60.2966 45.8972 60.6269 46.6667C60.9572 47.4361 61.3984 48.0778 62.0087 48.6667C62.619 49.2556 63.4853 49.7896 64.2827 50.1083C65.0802 50.427 65.982 50.6667 66.8451 50.6667H17.4451C15.6301 50.6667 14.1633 49.418 14.1633 47.6667L14.1633 9.33333C14.1633 8.50049 14.0471 7.71059 13.7168 6.94114C13.3865 6.17169 12.9024 5.47256 12.292 4.88365C11.6817 4.29474 10.9571 3.82759 10.1597 3.50888C9.36229 3.19016 8.46274 3 7.59961 3Z" fill="white"/>
<path fill-rule="evenodd" clip-rule="evenodd" d="M25.7421 37.9009C26.3584 38.4956 26.5992 39.159 26.5992 40L26.7046 76.2925H72.7129V43.3142C72.7129 39.8116 69.7702 36.9722 66.1403 36.9722H49.7087L23.3174 37C24.189 37 25.1258 37.3063 25.7421 37.9009Z" fill="white"/>
<path d="M26.5998 40C26.5998 39.2044 26.254 38.4413 25.6385 37.8787C25.0231 37.3161 24.1883 37 23.318 37C22.4476 37 21.6128 37.3161 20.9974 37.8787C20.3819 38.4413 20.0361 39.2043 20.0361 40L23.318 40H26.5998Z" fill="#91C3FD"/>
<path d="M20.0358 47.6667H26.5994V51.0001H17.2722C18.0968 51.0001 18.8876 50.6489 19.4706 50.0238C20.0537 49.3986 20.0358 48.5508 20.0358 47.6667Z" fill="#91C3FD"/>
<path d="M15.0933 50.0446C15.6745 50.6567 16.4568 51.0001 17.2722 51.0001C16.4236 51.0001 15.6544 50.6356 15.0933 50.0446Z" fill="#91C3FD"/>
<path d="M14.1631 47.6667C14.1631 48.5409 14.4833 49.3796 15.0542 50.0026C14.503 49.4012 14.1631 48.5765 14.1631 47.6667Z" fill="#91C3FD"/>
<path d="M20.0361 40H26.5998V47.6667H20.0361V40Z" fill="#91C3FD"/>
<path fill-rule="evenodd" clip-rule="evenodd" d="M31.4355 42.6667C31.4355 42.2985 31.7286 42 32.0901 42H55.6537C56.0152 42 56.3083 42.2985 56.3083 42.6667C56.3083 43.0349 56.0152 43.3333 55.6537 43.3333H32.0901C31.7286 43.3333 31.4355 43.0349 31.4355 42.6667Z" fill="#3B82F6"/>
<path fill-rule="evenodd" clip-rule="evenodd" d="M61.4902 42.6667C61.4902 42.2985 61.7841 42 62.1466 42H67.3975C67.76 42 68.0539 42.2985 68.0539 42.6667C68.0539 43.0349 67.76 43.3333 67.3975 43.3333H62.1466C61.7841 43.3333 61.4902 43.0349 61.4902 42.6667Z" fill="#1D4FD7"/>
<path fill-rule="evenodd" clip-rule="evenodd" d="M31.4355 46.6667C31.4355 46.2985 31.7286 46 32.0901 46H55.6537C56.0152 46 56.3083 46.2985 56.3083 46.6667C56.3083 47.0349 56.0152 47.3333 55.6537 47.3333H32.0901C31.7286 47.3333 31.4355 47.0349 31.4355 46.6667Z" fill="#3B82F6"/>
<path fill-rule="evenodd" clip-rule="evenodd" d="M61.4902 46.6667C61.4902 46.2985 61.7841 46 62.1466 46H67.3975C67.76 46 68.0539 46.2985 68.0539 46.6667C68.0539 47.0349 67.76 47.3333 67.3975 47.3333H62.1466C61.7841 47.3333 61.4902 47.0349 61.4902 46.6667Z" fill="#1D4FD7"/>
<path fill-rule="evenodd" clip-rule="evenodd" d="M31.4355 50.3334C31.4355 49.9652 31.7286 49.6667 32.0901 49.6667H55.6537C56.0152 49.6667 56.3083 49.9652 56.3083 50.3334C56.3083 50.7016 56.0152 51.0001 55.6537 51.0001H32.0901C31.7286 51.0001 31.4355 50.7016 31.4355 50.3334Z" fill="#3B82F6"/>
<path fill-rule="evenodd" clip-rule="evenodd" d="M61.4902 50.3334C61.4902 49.9652 61.7841 49.6667 62.1466 49.6667H67.3975C67.76 49.6667 68.0539 49.9652 68.0539 50.3334C68.0539 50.7016 67.76 51.0001 67.3975 51.0001H62.1466C61.7841 51.0001 61.4902 50.7016 61.4902 50.3334Z" fill="#1D4FD7"/>
<path fill-rule="evenodd" clip-rule="evenodd" d="M18.6543 10.3334C18.6543 9.96522 18.9514 9.66675 19.3179 9.66675H43.2088C43.5754 9.66675 43.8725 9.96522 43.8725 10.3334C43.8725 10.7016 43.5754 11.0001 43.2088 11.0001H19.3179C18.9514 11.0001 18.6543 10.7016 18.6543 10.3334Z" fill="#3B82F6"/>
<path fill-rule="evenodd" clip-rule="evenodd" d="M49.0547 10.3334C49.0547 9.96522 49.3486 9.66675 49.7111 9.66675H54.962C55.3245 9.66675 55.6183 9.96522 55.6183 10.3334C55.6183 10.7016 55.3245 11.0001 54.962 11.0001H49.7111C49.3486 11.0001 49.0547 10.7016 49.0547 10.3334Z" fill="#1D4FD7"/>
<path fill-rule="evenodd" clip-rule="evenodd" d="M31.3057 54.0959C31.3057 53.7456 31.5999 53.4617 31.9629 53.4617H55.6243C55.9873 53.4617 56.2816 53.7456 56.2816 54.0959C56.2816 54.4461 55.9873 54.7301 55.6243 54.7301H31.9629C31.5999 54.7301 31.3057 54.4461 31.3057 54.0959Z" fill="#3B82F6"/>
<path fill-rule="evenodd" clip-rule="evenodd" d="M61.54 54.0956C61.54 53.7454 61.8343 53.4614 62.1973 53.4614H67.4554C67.8184 53.4614 68.1126 53.7454 68.1126 54.0956C68.1126 54.4459 67.8184 54.7298 67.4554 54.7298H62.1973C61.8343 54.7298 61.54 54.4459 61.54 54.0956Z" fill="#1D4FD7"/>
<path fill-rule="evenodd" clip-rule="evenodd" d="M18.6543 13.9999C18.6543 13.6317 18.9517 13.3333 19.3186 13.3333H35.2627C35.6296 13.3333 35.927 13.6317 35.927 13.9999C35.927 14.3681 35.6296 14.6666 35.2627 14.6666H19.3186C18.9517 14.6666 18.6543 14.3681 18.6543 13.9999Z" fill="#3B82F6"/>
<path fill-rule="evenodd" clip-rule="evenodd" d="M49.0547 13.9999C49.0547 13.6317 49.3486 13.3333 49.7111 13.3333H54.962C55.3245 13.3333 55.6183 13.6317 55.6183 13.9999C55.6183 14.3681 55.3245 14.6666 54.962 14.6666H49.7111C49.3486 14.6666 49.0547 14.3681 49.0547 13.9999Z" fill="#1D4FD7"/>
<path fill-rule="evenodd" clip-rule="evenodd" d="M31.3057 57.9013C31.3057 57.551 31.5999 57.2671 31.9629 57.2671H55.6243C55.9873 57.2671 56.2816 57.551 56.2816 57.9013C56.2816 58.2516 55.9873 58.5355 55.6243 58.5355H31.9629C31.5999 58.5355 31.3057 58.2516 31.3057 57.9013Z" fill="#3B82F6"/>
<path fill-rule="evenodd" clip-rule="evenodd" d="M61.54 57.9006C61.54 57.5503 61.8343 57.2664 62.1973 57.2664H67.4554C67.8184 57.2664 68.1126 57.5503 68.1126 57.9006C68.1126 58.2508 67.8184 58.5348 67.4554 58.5348H62.1973C61.8343 58.5348 61.54 58.2508 61.54 57.9006Z" fill="#1D4FD7"/>
<path fill-rule="evenodd" clip-rule="evenodd" d="M18.6543 17.9999C18.6543 17.6317 18.9514 17.3333 19.3179 17.3333H43.2088C43.5754 17.3333 43.8725 17.6317 43.8725 17.9999C43.8725 18.3681 43.5754 18.6666 43.2088 18.6666H19.3179C18.9514 18.6666 18.6543 18.3681 18.6543 17.9999Z" fill="#3B82F6"/>
<path fill-rule="evenodd" clip-rule="evenodd" d="M49.0547 17.9999C49.0547 17.6317 49.3486 17.3333 49.7111 17.3333H54.962C55.3245 17.3333 55.6183 17.6317 55.6183 17.9999C55.6183 18.3681 55.3245 18.6666 54.962 18.6666H49.7111C49.3486 18.6666 49.0547 18.3681 49.0547 17.9999Z" fill="#1D4FD7"/>
<path fill-rule="evenodd" clip-rule="evenodd" d="M31.3057 61.7055C31.3057 61.3552 31.5999 61.0713 31.9629 61.0713H55.6243C55.9873 61.0713 56.2816 61.3552 56.2816 61.7055C56.2816 62.0557 55.9873 62.3397 55.6243 62.3397H31.9629C31.5999 62.3397 31.3057 62.0557 31.3057 61.7055Z" fill="#3B82F6"/>
<path fill-rule="evenodd" clip-rule="evenodd" d="M61.54 61.7052C61.54 61.355 61.8343 61.071 62.1973 61.071H67.4554C67.8184 61.071 68.1126 61.355 68.1126 61.7052C68.1126 62.0555 67.8184 62.3394 67.4554 62.3394H62.1973C61.8343 62.3394 61.54 62.0555 61.54 61.7052Z" fill="#1D4FD7"/>
<path fill-rule="evenodd" clip-rule="evenodd" d="M18.6543 21.6667C18.6543 21.2985 18.9514 21 19.3179 21H43.2088C43.5754 21 43.8725 21.2985 43.8725 21.6667C43.8725 22.0349 43.5754 22.3333 43.2088 22.3333H19.3179C18.9514 22.3333 18.6543 22.0349 18.6543 21.6667Z" fill="#3B82F6"/>
<path fill-rule="evenodd" clip-rule="evenodd" d="M49.0547 21.6667C49.0547 21.2985 49.3486 21 49.7111 21H54.962C55.3245 21 55.6183 21.2985 55.6183 21.6667C55.6183 22.0349 55.3245 22.3333 54.962 22.3333H49.7111C49.3486 22.3333 49.0547 22.0349 49.0547 21.6667Z" fill="#1D4FD7"/>
<path fill-rule="evenodd" clip-rule="evenodd" d="M31.4355 65.6667C31.4355 65.2985 31.7286 65 32.0901 65H55.6537C56.0152 65 56.3083 65.2985 56.3083 65.6667C56.3083 66.0349 56.0152 66.3333 55.6537 66.3333H32.0901C31.7286 66.3333 31.4355 66.0349 31.4355 65.6667Z" fill="#3B82F6"/>
<path fill-rule="evenodd" clip-rule="evenodd" d="M61.4902 65.6667C61.4902 65.2985 61.7841 65 62.1466 65H67.3975C67.76 65 68.0539 65.2985 68.0539 65.6667C68.0539 66.0349 67.76 66.3333 67.3975 66.3333H62.1466C61.7841 66.3333 61.4902 66.0349 61.4902 65.6667Z" fill="#1D4FD7"/>
<path fill-rule="evenodd" clip-rule="evenodd" d="M55.6172 70.5001C55.6172 69.4876 56.4963 68.6667 57.5808 68.6667L66.0899 68.6667C67.1744 68.6667 68.0536 69.4876 68.0536 70.5001C68.0536 71.5126 67.1744 72.3334 66.0899 72.3334L57.5808 72.3334C56.4963 72.3334 55.6172 71.5126 55.6172 70.5001Z" fill="#3B82F6"/>
<path fill-rule="evenodd" clip-rule="evenodd" d="M18.6543 25.6667C18.6543 25.2985 18.9514 25 19.3179 25H43.2088C43.5754 25 43.8725 25.2985 43.8725 25.6667C43.8725 26.0349 43.5754 26.3333 43.2088 26.3333H19.3179C18.9514 26.3333 18.6543 26.0349 18.6543 25.6667Z" fill="#3B82F6"/>
<path fill-rule="evenodd" clip-rule="evenodd" d="M49.0547 25.6667C49.0547 25.2985 49.3486 25 49.7111 25H54.962C55.3245 25 55.6183 25.2985 55.6183 25.6667C55.6183 26.0349 55.3245 26.3333 54.962 26.3333H49.7111C49.3486 26.3333 49.0547 26.0349 49.0547 25.6667Z" fill="#1D4FD7"/>
<path fill-rule="evenodd" clip-rule="evenodd" d="M18.6543 29.3334C18.6543 28.9652 18.9514 28.6667 19.3179 28.6667H43.2088C43.5754 28.6667 43.8725 28.9652 43.8725 29.3334C43.8725 29.7016 43.5754 30.0001 43.2088 30.0001H19.3179C18.9514 30.0001 18.6543 29.7016 18.6543 29.3334Z" fill="#3B82F6"/>
<path fill-rule="evenodd" clip-rule="evenodd" d="M49.0547 29.3334C49.0547 28.9652 49.3486 28.6667 49.7111 28.6667H54.962C55.3245 28.6667 55.6183 28.9652 55.6183 29.3334C55.6183 29.7016 55.3245 30.0001 54.962 30.0001H49.7111C49.3486 30.0001 49.0547 29.7016 49.0547 29.3334Z" fill="#1D4FD7"/>
<path fill-rule="evenodd" clip-rule="evenodd" d="M18.6543 33.3334C18.6543 32.9652 18.9514 32.6667 19.3179 32.6667H43.2088C43.5754 32.6667 43.8725 32.9652 43.8725 33.3334C43.8725 33.7016 43.5754 34.0001 43.2088 34.0001H19.3179C18.9514 34.0001 18.6543 33.7016 18.6543 33.3334Z" fill="#3B82F6"/>
<path fill-rule="evenodd" clip-rule="evenodd" d="M49.0547 33.3334C49.0547 32.9652 49.3486 32.6667 49.7111 32.6667H54.962C55.3245 32.6667 55.6183 32.9652 55.6183 33.3334C55.6183 33.7016 55.3245 34.0001 54.962 34.0001H49.7111C49.3486 34.0001 49.0547 33.7016 49.0547 33.3334Z" fill="#1D4FD7"/>
</svg>
