<svg width="88" height="62" viewBox="0 0 88 62" fill="none" xmlns="http://www.w3.org/2000/svg">
<path d="M0 5.73109C0 2.5659 2.63251 0 5.87987 0H82.1201C85.3675 0 88 2.5659 88 5.73109V56.2689C88 59.4341 85.3675 62 82.1201 62H5.87986C2.6325 62 0 59.4341 0 56.2689V5.73109Z" fill="#2463EB"/>
<ellipse cx="45.0615" cy="31.7167" rx="20.6748" ry="20.0746" fill="white"/>
<path d="M33.8428 25.5818C33.8428 24.0081 33.8428 23.2224 34.153 22.6202C34.4245 22.089 34.8615 21.6553 35.4014 21.381C36.0117 21.0737 36.8126 21.0737 38.4119 21.0737H51.682C53.2813 21.0737 54.0797 21.0737 54.69 21.381C55.231 21.6539 55.6684 22.088 55.9384 22.6202C56.2511 23.2224 56.2512 24.0081 56.2512 25.5818V37.9734C56.2512 39.5471 56.2511 40.3327 55.9384 40.9349C55.6684 41.4671 55.231 41.9013 54.69 42.1741C54.0797 42.4789 53.2813 42.4789 51.682 42.4789H38.4119C36.8126 42.4789 36.0117 42.4789 35.4014 42.1741C34.8615 41.8999 34.4245 41.4661 34.153 40.9349C33.8428 40.3327 33.8428 39.5471 33.8428 37.9734V25.5818Z" fill="#2463EB"/>
<path d="M47.2806 26.4668V23.7976H45.7906V26.4668H44.298V23.7976H42.8081V26.4668H41.3104V27.8224C41.3104 29.7059 42.1444 31.8026 44.3031 32.1941V37.1161C44.3031 37.5845 44.3031 37.9339 44.1557 38.0777C44.0489 38.1842 43.7285 38.3627 42.7979 38.3627C42.0707 38.3627 41.6054 38.2462 41.4452 38.033C41.285 37.8199 41.3104 37.5027 41.3104 37.1161V34.4593C41.3104 33.178 41.0791 31.8075 38.3279 31.8075H33.8452V33.2747H38.305C39.8306 33.2747 39.8306 33.5523 39.8306 34.4618V37.1161C39.8306 37.6588 39.8306 38.3552 40.2603 38.9228C40.7282 39.5399 41.5316 39.8273 42.803 39.8273C43.9472 39.8273 44.7074 39.6043 45.1956 39.1235C45.7804 38.5461 45.8008 37.7158 45.7982 37.1161V32.1941C47.9544 31.8026 48.7909 29.7158 48.7909 27.8224V26.4668H47.2806Z" fill="white"/>
</svg>
