<svg width="83" height="86" viewBox="0 0 83 86" fill="none" xmlns="http://www.w3.org/2000/svg">
<path d="M39.0158 41.2421L36.6835 42.6247C27.5601 48.0331 24.7437 59.7401 30.4307 68.6164C36.1177 77.4927 48.2555 80.3348 57.3789 74.9264L59.7112 73.5438C68.8345 68.1354 71.6509 56.4284 65.9639 47.5521C60.3113 38.6555 48.1735 35.8134 39.0158 41.2421Z" fill="#3B82F6"/>
<path d="M57.3732 74.9294C66.5385 69.4962 69.3895 57.9447 63.7411 49.1286C58.0927 40.3125 46.0838 37.5701 36.9185 43.0033C27.7532 48.4366 24.9022 59.988 30.5506 68.8041C36.199 77.6203 48.2079 80.3626 57.3732 74.9294Z" fill="#3B82F6"/>
<path d="M56.1854 73.5605C55.6277 73.8912 55.0837 74.1681 54.4838 74.4328C51.4702 75.8098 48.1873 76.3911 44.9002 76.0649L44.9403 75.6771C48.1155 75.9787 51.3635 75.4181 54.3074 74.0824C63.0269 70.0508 66.8042 60.0318 62.7112 51.7667C60.1424 46.5561 54.9741 43.0685 48.9174 42.4733L48.9575 42.0856C55.1262 42.7054 60.4276 46.2506 63.0461 51.6137C67.0186 59.5407 63.8888 68.9939 56.1854 73.5605Z" fill="#DCEBFE"/>
<path d="M45.074 76.0014C45.0394 76.0219 45.0048 76.0424 44.9491 76.03C38.7426 75.4356 33.4591 71.8846 30.8176 66.4946C26.651 58.0534 30.4319 47.856 39.3212 43.7684C42.3491 42.3826 45.6683 41.8244 48.9387 42.1588C49.0501 42.1837 49.148 42.262 49.1211 42.3689C49.0941 42.4759 49.0113 42.5704 48.8999 42.5455C45.6852 42.2235 42.4352 42.7407 39.4977 44.1184C30.8372 48.1158 27.1102 58.0994 31.2059 66.3554C33.7976 71.593 38.9831 75.0658 45.0436 75.6557C45.155 75.6806 45.253 75.7589 45.226 75.8658C45.1567 75.9069 45.1432 75.9603 45.074 76.0014Z" fill="#3B82F6"/>
<path d="M39.2773 66.5962L41.3841 65.3473C42.4279 66.3396 43.568 67.0684 44.8046 67.5337C46.0411 67.9991 47.3024 68.1846 48.5883 68.0903C49.8652 67.9817 51.1024 67.5724 52.3 66.8625C53.808 65.9685 54.8941 64.8139 55.5581 63.3986C56.2131 61.9691 56.3472 60.4751 55.9607 58.9164L52.5897 59.5297C52.8049 60.5023 52.7451 61.412 52.4104 62.2588C52.0666 63.0913 51.4733 63.7573 50.6306 64.2569C49.6695 64.8266 48.6444 65.0414 47.555 64.9013C46.4805 64.7525 45.4584 64.2876 44.4889 63.5068L49.1461 60.7459L47.9967 58.9519L42.9847 61.9231C42.8331 61.7183 42.6888 61.5091 42.552 61.2955C42.4152 61.0819 42.2857 60.864 42.1637 60.6416L47.1757 57.6705L46.0263 55.8764L41.3913 58.6241C41.111 57.4543 41.1506 56.3699 41.5102 55.3709C41.8698 54.3719 42.5153 53.5963 43.4467 53.0442C44.2894 52.5446 45.1792 52.3413 46.116 52.4343C47.0436 52.5131 47.9107 52.8635 48.7173 53.4855L50.802 50.8647C49.5192 49.8177 48.0714 49.2614 46.4586 49.1959C44.8458 49.1304 43.2927 49.5402 41.7995 50.4254C40.5871 51.1441 39.6407 52.0391 38.9603 53.1104C38.2856 54.1588 37.8864 55.3188 37.7627 56.5905C37.63 57.848 37.7972 59.1437 38.2643 60.4778L36.1574 61.7267L37.3069 63.5208L39.1476 62.4296C39.2696 62.6519 39.3991 62.8699 39.5359 63.0834C39.6727 63.297 39.817 63.5062 39.9686 63.711L38.1279 64.8022L39.2773 66.5962Z" fill="#3B82F6"/>
<path d="M40.1318 66.6734L42.2386 65.4244C43.2823 66.4167 44.4225 67.1455 45.6591 67.6109C46.8956 68.0763 48.1569 68.2618 49.4428 68.1674C50.7197 68.0588 51.9569 67.6496 53.1544 66.9396C54.6625 66.0457 55.7485 64.891 56.4126 63.4758C57.0676 62.0463 57.2017 60.5522 56.8151 58.9936L53.4442 59.6068C53.6594 60.5795 53.5996 61.4892 53.2649 62.3359C52.9211 63.1684 52.3278 63.8344 51.4851 64.334C50.524 64.9037 49.4989 65.1185 48.4095 64.9784C47.3349 64.8296 46.3129 64.3648 45.3434 63.5839L50.0006 60.8231L48.8512 59.0291L43.8392 62.0002C43.6876 61.7954 43.5433 61.5862 43.4065 61.3726C43.2697 61.1591 43.1402 60.9411 43.0182 60.7188L48.0302 57.7476L46.8808 55.9536L42.2458 58.7012C41.9655 57.5315 42.0051 56.4471 42.3647 55.4481C42.7243 54.4491 43.3697 53.6735 44.3012 53.1213C45.1439 52.6218 46.0337 52.4185 46.9705 52.5115C47.8981 52.5902 48.7652 52.9406 49.5718 53.5627L51.6565 50.9418C50.3736 49.8948 48.9259 49.3386 47.3131 49.273C45.7003 49.2075 44.1472 49.6174 42.654 50.5026C41.4416 51.2213 40.4952 52.1163 39.8148 53.1876C39.1401 54.2359 38.7409 55.3959 38.6172 56.6676C38.4845 57.9251 38.6516 59.2209 39.1188 60.5549L37.0119 61.8039L38.1614 63.5979L40.0021 62.5067C40.1241 62.7291 40.2536 62.947 40.3904 63.1606C40.5272 63.3742 40.6715 63.5834 40.8231 63.7882L38.9824 64.8794L40.1318 66.6734Z" fill="#DCEBFE"/>
<path d="M60.1169 2.80442L57.3967 2.94884C46.7559 3.5138 38.522 12.4613 39.1161 22.814C39.7101 33.1666 48.9177 41.1881 59.5585 40.6232L62.2788 40.4787C72.9196 39.9138 81.1535 30.9663 80.5594 20.6136C80.0054 10.2588 70.7978 2.23734 60.1169 2.80442Z" fill="#3B82F6"/>
<path d="M59.5527 40.6236C70.2424 40.0561 78.4299 31.2604 77.8398 20.9779C77.2498 10.6954 68.1058 2.81985 57.416 3.3874C46.7263 3.95495 38.5389 12.7507 39.1289 23.0332C39.7189 33.3157 48.863 41.1912 59.5527 40.6236Z" fill="#3B82F6"/>
<path d="M59.1895 38.8852C58.5391 38.9197 57.927 38.9136 57.2721 38.8712C53.9592 38.7 50.8033 37.7103 48.091 35.9256L48.3173 35.605C50.9438 37.3171 54.0591 38.3089 57.2907 38.4845C66.8998 38.9387 75.1413 31.905 75.6391 22.8137C75.9629 17.0875 73.1652 11.6814 68.1649 8.39807L68.3912 8.07747C73.4772 11.4334 76.3629 16.9506 76.0072 22.8327C75.5708 31.5736 68.1743 38.4081 59.1895 38.8852Z" fill="#DCEBFE"/>
<path d="M48.2744 35.9495C48.2341 35.9516 48.1937 35.9538 48.1511 35.9175C43.0195 32.5666 40.1524 27.0524 40.5012 21.1363C41.0214 11.8575 49.3541 4.66948 59.1391 5.15218C62.4688 5.32231 65.6452 6.34861 68.3387 8.13293C68.4239 8.2055 68.4709 8.31864 68.3945 8.39979C68.3182 8.48093 68.1993 8.52579 68.1142 8.45322C65.4632 6.70519 62.3676 5.67461 59.1208 5.53861C49.5802 5.08149 41.4001 12.1072 40.9092 21.1917C40.592 26.952 43.4121 32.353 48.4183 35.6335C48.5034 35.706 48.5504 35.8192 48.4741 35.9003C48.3933 35.9046 48.3552 35.9452 48.2744 35.9495Z" fill="#3B82F6"/>
<path d="M47.8446 25.0848L50.3019 24.9543C50.7249 26.2977 51.3621 27.4549 52.2134 28.4258C53.0648 29.3967 54.0757 30.1342 55.2462 30.6384C56.4157 31.126 57.6989 31.3327 59.0956 31.2586C60.8545 31.1652 62.3731 30.6515 63.6513 29.7174C64.9286 28.7668 65.7825 27.5221 66.2131 25.9835L62.9644 24.9816C62.6729 25.9299 62.1722 26.6977 61.4621 27.2851C60.7511 27.8559 59.9042 28.1674 58.9213 28.2196C57.8004 28.2791 56.7985 27.9991 55.9154 27.3797C55.0496 26.7594 54.3855 25.8868 53.9231 24.7621L59.3549 24.4737L59.2349 22.3812L53.3892 22.6916C53.3577 22.4434 53.3347 22.1948 53.3204 21.9457C53.3061 21.6966 53.3005 21.447 53.3034 21.197L59.1491 20.8866L59.029 18.7942L53.6231 19.0812C53.9549 17.9309 54.5242 17.0012 55.3311 16.2921C56.1379 15.583 57.0845 15.1996 58.1708 15.1419C59.1538 15.0897 60.0317 15.3179 60.8046 15.8266C61.5766 16.3186 62.1617 17.0205 62.5599 17.9321L65.6743 16.5925C65.0693 15.0921 64.0781 13.9454 62.7008 13.1524C61.3234 12.3594 59.764 12.0091 58.0223 12.1015C56.6083 12.1766 55.3399 12.5271 54.2169 13.1531C53.1103 13.7615 52.1894 14.5933 51.4543 15.6484C50.7183 16.6869 50.2255 17.8957 49.976 19.2749L47.5187 19.4053L47.6388 21.4978L49.7857 21.3838C49.7827 21.6338 49.7884 21.8833 49.8027 22.1324C49.817 22.3815 49.8399 22.6302 49.8714 22.8784L47.7246 22.9924L47.8446 25.0848Z" fill="#3B82F6"/>
<path d="M48.5536 25.5418L51.0109 25.4113C51.4339 26.7548 52.0711 27.9119 52.9224 28.8828C53.7738 29.8537 54.7847 30.5912 55.9552 31.0954C57.1247 31.583 58.4079 31.7897 59.8046 31.7156C61.5635 31.6222 63.0821 31.1085 64.3603 30.1745C65.6376 29.2238 66.4915 27.9792 66.9221 26.4405L63.6734 25.4387C63.3819 26.3869 62.8811 27.1548 62.1711 27.7421C61.4601 28.3129 60.6132 28.6244 59.6303 28.6766C58.5094 28.7361 57.5074 28.4562 56.6244 27.8368C55.7585 27.2164 55.0945 26.3439 54.6321 25.2191L60.0639 24.9307L59.9439 22.8383L54.0982 23.1486C54.0666 22.9004 54.0437 22.6518 54.0294 22.4027C54.0151 22.1536 54.0095 21.9041 54.0124 21.654L59.8581 21.3437L59.738 19.2513L54.3321 19.5383C54.6639 18.388 55.2332 17.4583 56.04 16.7491C56.8469 16.04 57.7935 15.6566 58.8798 15.5989C59.8627 15.5467 60.7407 15.775 61.5136 16.2836C62.2856 16.7757 62.8707 17.4775 63.2689 18.3892L66.3832 17.0495C65.7783 15.5492 64.7871 14.4025 63.4098 13.6094C62.0324 12.8164 60.473 12.4661 58.7313 12.5586C57.3173 12.6336 56.0488 12.9842 54.9259 13.6101C53.8193 14.2186 52.8984 15.0503 52.1633 16.1054C51.4272 17.144 50.9345 18.3528 50.685 19.7319L48.2277 19.8624L48.3478 21.9548L50.4947 21.8408C50.4917 22.0908 50.4974 22.3404 50.5117 22.5895C50.526 22.8386 50.5489 23.0872 50.5804 23.3354L48.4336 23.4494L48.5536 25.5418Z" fill="#DCEBFE"/>
<path d="M28.6636 15.0765L25.9613 14.6428C15.3907 12.946 5.26534 19.9839 3.48118 30.2683C1.69702 40.5526 8.89797 50.3717 19.4686 52.0685L22.1709 52.5022C32.7415 54.199 42.8669 47.1611 44.651 36.8767C46.4749 26.5988 39.274 16.7797 28.6636 15.0765Z" fill="#3B82F6"/>
<path d="M19.4619 52.0676C30.0811 53.7722 40.1262 46.8734 41.8982 36.6587C43.6703 26.4441 36.4983 16.7817 25.8791 15.0771C15.2599 13.3725 5.21482 20.2713 3.44276 30.486C1.67069 40.7006 8.8427 50.3631 19.4619 52.0676Z" fill="#3B82F6"/>
<path d="M19.504 50.285C18.8578 50.1813 18.2586 50.0458 17.6257 49.8657C14.414 48.9968 11.5435 47.358 9.29011 45.0329L9.58545 44.7662C11.7713 47.0019 14.6015 48.6342 17.7323 49.4901C27.0575 51.9687 36.7528 46.8103 39.3199 37.9946C40.947 32.4443 39.4378 26.5476 35.2819 22.268L35.5772 22.0012C39.8006 26.3703 41.3707 32.3945 39.6767 38.0912C37.25 46.576 28.4294 51.7177 19.504 50.285Z" fill="#DCEBFE"/>
<path d="M9.46409 45.095C9.424 45.0886 9.3839 45.0821 9.35042 45.0375C5.08108 40.6638 3.5285 34.6464 5.22345 28.915C7.85547 19.9201 17.6755 14.6296 27.1668 17.1733C30.3952 18.0447 33.2774 19.7237 35.5125 22.0444C35.5795 22.1337 35.5997 22.2546 35.5062 22.3181C35.4128 22.3816 35.2859 22.4005 35.2189 22.3112C33.0173 20.0351 30.2153 18.3689 27.0605 17.5486C17.8032 15.0817 8.16999 20.2453 5.61118 29.0557C3.98282 34.6409 5.51517 40.5373 9.67747 44.8154C9.74442 44.9046 9.76465 45.0255 9.6712 45.089C9.59101 45.0762 9.54429 45.1079 9.46409 45.095Z" fill="#3B82F6"/>
<path d="M11.5272 34.343L13.9682 34.7348C14.0761 36.1426 14.4368 37.4128 15.0502 38.5456C15.6636 39.6784 16.487 40.616 17.5202 41.3584C18.5564 42.0843 19.7682 42.5586 21.1558 42.7813C22.903 43.0618 24.5106 42.8789 25.9784 42.2328C27.4491 41.5702 28.5716 40.5295 29.346 39.1108L26.3872 37.4405C25.8844 38.3093 25.2174 38.9568 24.3864 39.383C23.5582 39.7926 22.6559 39.9191 21.6795 39.7624C20.566 39.5836 19.6469 39.097 18.922 38.3023C18.2142 37.5105 17.762 36.5138 17.5655 35.3123L22.9615 36.1784L23.3221 34.0998L17.515 33.1676C17.5408 32.9174 17.5752 32.6686 17.6181 32.4212C17.661 32.1737 17.7125 31.9276 17.7726 31.6829L23.5797 32.6151L23.9403 30.5364L18.57 29.6744C19.1586 28.6159 19.9298 27.824 20.8837 27.2989C21.8375 26.7737 22.8541 26.5978 23.9333 26.771C24.9097 26.9277 25.719 27.3374 26.3611 28.0001C27.0061 28.6462 27.4198 29.4587 27.6021 30.4375L30.9644 29.7818C30.7138 28.1816 30.0034 26.8467 28.8332 25.7771C27.663 24.7076 26.2128 24.0339 24.4827 23.7562C23.078 23.5307 21.7532 23.6063 20.5082 23.983C19.2831 24.3459 18.1893 24.9673 17.2268 25.8471C16.2671 26.7104 15.5071 27.7924 14.947 29.0929L12.506 28.701L12.1453 30.7797L14.278 31.122C14.218 31.3667 14.1665 31.6128 14.1236 31.8602C14.0806 32.1077 14.0463 32.3565 14.0205 32.6067L11.8878 32.2644L11.5272 34.343Z" fill="#3B82F6"/>
<path d="M12.118 34.9414L14.559 35.3332C14.667 36.741 15.0276 38.0112 15.641 39.144C16.2544 40.2768 17.0778 41.2144 18.1111 41.9568C19.1472 42.6827 20.359 43.157 21.7466 43.3797C23.4938 43.6602 25.1014 43.4773 26.5692 42.8312C28.0399 42.1686 29.1625 41.1279 29.9368 39.7092L26.9781 38.0388C26.4752 38.9077 25.8082 39.5552 24.9772 39.9813C24.149 40.391 23.2467 40.5175 22.2703 40.3608C21.1568 40.182 20.2377 39.6954 19.5128 38.9007C18.805 38.1089 18.3529 37.1122 18.1563 35.9106L23.5523 36.7768L23.9129 34.6982L18.1058 33.766C18.1316 33.5158 18.166 33.267 18.2089 33.0196C18.2519 32.7721 18.3033 32.526 18.3634 32.2813L24.1705 33.2135L24.5311 31.1348L19.1608 30.2728C19.7494 29.2143 20.5207 28.4224 21.4745 27.8973C22.4284 27.3721 23.4449 27.1962 24.5241 27.3694C25.5005 27.5261 26.3098 27.9358 26.9519 28.5984C27.5969 29.2446 28.0106 30.0571 28.1929 31.0359L31.5552 30.3802C31.3046 28.78 30.5942 27.4451 29.424 26.3755C28.2538 25.3059 26.8037 24.6323 25.0735 24.3546C23.6688 24.1291 22.344 24.2047 21.099 24.5814C19.8739 24.9443 18.7802 25.5657 17.8176 26.4455C16.8579 27.3088 16.098 28.3908 15.5378 29.6913L13.0968 29.2994L12.7362 31.378L14.8689 31.7204C14.8088 31.9651 14.7573 32.2112 14.7144 32.4586C14.6715 32.7061 14.6371 32.9549 14.6113 33.2051L12.4786 32.8628L12.118 34.9414Z" fill="#DCEBFE"/>
</svg>
