<svg width="42" height="70" viewBox="0 0 42 70" fill="none" xmlns="http://www.w3.org/2000/svg">
<path d="M42 3.73518C42 1.6723 40.2789 0 38.1559 0H3.84407C1.72105 0 0 1.6723 0 3.73518V66.2648C0 68.3277 1.72105 70 3.84407 70H38.1559C40.2789 70 42 68.3277 42 66.2648V3.73518Z" fill="#0F172A"/>
<mask id="mask0_2478_24358" style="mask-type:alpha" maskUnits="userSpaceOnUse" x="2" y="2" width="37" height="66">
<path d="M38.2308 4.56521C38.2308 3.41917 37.2746 2.49011 36.0952 2.49011H4.28305C3.1036 2.49011 2.14746 3.41917 2.14746 4.56521V65.8498C2.14746 66.9958 3.1036 67.9249 4.28305 67.9249H36.0952C37.2746 67.9249 38.2308 66.9958 38.2308 65.8498V4.56521Z" fill="#EDEDED"/>
</mask>
<g mask="url(#mask0_2478_24358)">
</g>
<g clip-path="url(#clip0_2478_24358)">
<rect x="2.17969" y="2.49011" width="36.6228" height="65.4348" fill="#F1F5F9"/>
<path d="M7.82031 20.8135C8.75736 19.5835 9.7622 18.3912 10.5316 17.0541C11.475 15.4148 12.1097 13.6441 12.8715 11.9277C13.377 10.7888 14.1725 8.69825 15.5828 8.25077C16.6137 7.92365 17.7897 7.97971 18.8574 7.97971C21.0158 7.97971 23.198 7.88231 25.3509 7.74401C26.9249 7.6429 27.62 6.62047 28.7616 5.80539C29.0643 5.5893 29.848 5.393 29.9935 5.11597" stroke="white" stroke-width="1.07119" stroke-linecap="round" stroke-linejoin="round"/>
<path d="M13.3907 45.3145C12.0525 43.1118 10.1761 41.3505 8.41379 39.4632C7.90411 38.9174 7.56017 38.3357 7.12623 37.7367C5.65421 35.705 4.12944 33.1999 3.83307 30.7011C3.76266 30.1075 3.89572 29.1907 4.36542 28.7684C4.72644 28.4438 5.22674 28.4643 5.54155 28.079C5.703 27.8814 5.98469 27.9137 6.14819 27.7667C6.5044 27.4464 6.70678 26.8352 6.93434 26.4291C7.31478 25.7501 7.59669 25.1458 7.59669 24.3726C7.59669 23.8777 7.49507 23.4198 7.31194 22.9584C7.18887 22.6483 7.0866 22.4549 7.38003 22.2454C7.87185 21.8943 8.1538 21.8428 8.1538 21.2378" stroke="white" stroke-width="1.07119" stroke-linecap="round" stroke-linejoin="round"/>
<path d="M32.1104 22.1924C33.9145 22.4671 35.706 22.1628 37.5082 22.1924C38.8904 22.215 40.2247 22.8517 41.3585 23.5712" stroke="white" stroke-width="1.07119" stroke-linecap="round" stroke-linejoin="round"/>
<path d="M13.7256 46.163C14.4616 46.9609 14.9078 48.0203 15.2855 49.009C16.0766 51.0798 16.5468 53.2749 17.1116 55.4083C17.5715 57.1453 17.7192 60.617 19.8786 61.3302C21.4375 61.845 22.8197 61.249 24.3665 61.1181C25.1994 61.0476 25.9635 60.8383 26.7621 60.6113C28.1976 60.2033 29.7295 60.0173 31.219 59.8925C33.0389 59.7399 35.0352 59.7533 36.4497 61.0356C37.0858 61.6123 37.5511 62.3715 38.1272 63.0037C38.7124 63.6458 39.2359 64.3234 39.7119 65.0425C40.0931 65.6184 40.4047 66.2084 40.7457 66.7926C40.9506 67.1437 41.0657 67.222 41.4699 67.3759" stroke="white" stroke-width="1.07119" stroke-linecap="round" stroke-linejoin="round"/>
<path d="M30.8841 1.19159C30.9575 7.16549 31.091 13.1467 31.5774 19.1047C31.8386 22.3033 32.7254 25.9346 31.9674 29.1396C31.4421 31.3609 30.4455 33.899 28.5566 35.4033C26.8628 36.7523 24.9548 37.7487 23.0226 38.7444C19.7578 40.4268 16.8046 42.3612 14.2326 44.9138C11.8565 47.2718 9.78665 49.8547 7.86909 52.5622C7.15911 53.5647 6.10287 54.5884 5.75824 55.7913C5.23914 57.6032 5.88408 59.6106 5.75205 61.4599C5.58033 63.8651 5.25684 66.2302 5.25684 68.6487C5.25684 69.8129 5.2531 70.9573 5.54778 72.0958C5.67475 72.5864 5.8699 73.0528 6.23488 73.4334C6.81856 74.0421 7.39342 74.0753 8.15384 74.2702" stroke="white" stroke-width="2.41017" stroke-linecap="round" stroke-linejoin="round"/>
<path d="M1.80273 16.677C10.0578 22.1203 18.5371 27.7952 23.6107 36.2636C25.5418 39.4868 27.1179 42.93 27.7643 46.6108C28.377 50.1002 27.8757 53.6094 27.8757 57.123C27.8757 60.303 27.6179 63.5015 28.7052 66.5628C29.7264 69.4379 32.3305 71.9359 35.2296 73.1034" stroke="white" stroke-width="2.41017" stroke-linecap="round" stroke-linejoin="round"/>
<path fill-rule="evenodd" clip-rule="evenodd" d="M25.591 22.6354C25.0485 22.1631 24.7061 21.471 24.7061 20.7009C24.7061 19.277 25.8773 18.1226 27.322 18.1226C28.7666 18.1226 29.9379 19.277 29.9379 20.7009C29.9379 21.4526 29.6113 22.1291 29.0918 22.5999L27.322 24.4862L25.591 22.6354Z" fill="#91C3FD"/>
<path fill-rule="evenodd" clip-rule="evenodd" d="M27.1915 22.4042C27.1843 22.4042 27.1771 22.4028 27.1713 22.4014C27.1339 22.3929 27.108 22.3588 27.108 22.3205V21.2526H26.544C26.5137 21.2526 26.4864 21.237 26.472 21.2115C26.4562 21.1859 26.4562 21.1547 26.4706 21.1292L27.38 19.467C27.3987 19.433 27.4375 19.416 27.4749 19.4259C27.5123 19.4344 27.5382 19.4685 27.5382 19.5067V20.5733H28.1023C28.1325 20.5733 28.1598 20.5889 28.1742 20.6144C28.1901 20.6399 28.1901 20.6711 28.1757 20.6966L27.2663 22.3588C27.2519 22.3872 27.2231 22.4042 27.1915 22.4042Z" fill="white"/>
<path fill-rule="evenodd" clip-rule="evenodd" d="M17.7423 32.3192C17.1999 31.8469 16.8574 31.1548 16.8574 30.3847C16.8574 28.9608 18.0287 27.8063 19.4733 27.8063C20.918 27.8063 22.0893 28.9608 22.0893 30.3847C22.0893 31.1364 21.7626 31.8129 21.2432 32.2837L19.4733 34.17L17.7423 32.3192Z" fill="#91C3FD"/>
<path fill-rule="evenodd" clip-rule="evenodd" d="M19.3428 32.088C19.3356 32.088 19.3284 32.0866 19.3227 32.0851C19.2853 32.0766 19.2594 32.0426 19.2594 32.0043V30.9364H18.6953C18.6651 30.9364 18.6378 30.9208 18.6234 30.8952C18.6076 30.8697 18.6076 30.8385 18.6219 30.813L19.5313 29.1508C19.55 29.1168 19.5889 29.0998 19.6263 29.1097C19.6637 29.1182 19.6896 29.1522 19.6896 29.1905V30.257H20.2537C20.2839 30.257 20.3112 30.2726 20.3256 30.2982C20.3414 30.3237 20.3414 30.3549 20.327 30.3804L19.4177 32.0426C19.4033 32.071 19.3745 32.088 19.3428 32.088Z" fill="white"/>
<path fill-rule="evenodd" clip-rule="evenodd" d="M8.44156 55.1452C7.8991 54.6729 7.55664 53.9808 7.55664 53.2107C7.55664 51.7868 8.7279 50.6324 10.1726 50.6324C11.6172 50.6324 12.7885 51.7868 12.7885 53.2107C12.7885 53.9624 12.4618 54.6389 11.9424 55.1098L10.1726 56.996L8.44156 55.1452Z" fill="#91C3FD"/>
<path fill-rule="evenodd" clip-rule="evenodd" d="M10.0421 54.914C10.0349 54.914 10.0277 54.9126 10.0219 54.9112C9.9845 54.9027 9.9586 54.8686 9.9586 54.8304V53.7624H9.39455C9.36433 53.7624 9.33699 53.7468 9.3226 53.7213C9.30678 53.6958 9.30678 53.6646 9.32117 53.639L10.2305 51.9769C10.2493 51.9428 10.2881 51.9258 10.3255 51.9357C10.3629 51.9442 10.3888 51.9783 10.3888 52.0166V53.0831H10.9529C10.9831 53.0831 11.0104 53.0987 11.0248 53.1242C11.0406 53.1497 11.0406 53.1809 11.0263 53.2065L10.1169 54.8686C10.1025 54.897 10.0737 54.914 10.0421 54.914Z" fill="white"/>
<path fill-rule="evenodd" clip-rule="evenodd" d="M18.7599 48.7816C18.2175 48.3094 17.875 47.6173 17.875 46.8472C17.875 45.4232 19.0463 44.2688 20.4909 44.2688C21.9356 44.2688 23.1068 45.4232 23.1068 46.8472C23.1068 47.5988 22.7802 48.2753 22.2608 48.7462L20.4909 50.6324L18.7599 48.7816Z" fill="#0080C5"/>
<path fill-rule="evenodd" clip-rule="evenodd" d="M20.3604 48.5504C20.3532 48.5504 20.346 48.549 20.3403 48.5476C20.3029 48.5391 20.277 48.5051 20.277 48.4668V47.3988H19.7129C19.6827 47.3988 19.6554 47.3832 19.641 47.3577C19.6251 47.3322 19.6251 47.301 19.6395 47.2754L20.5489 45.6133C20.5676 45.5792 20.6065 45.5622 20.6439 45.5721C20.6813 45.5807 20.7072 45.6147 20.7072 45.653V46.7195H21.2712C21.3014 46.7195 21.3288 46.7351 21.3432 46.7606C21.359 46.7862 21.359 46.8174 21.3446 46.8429L20.4352 48.5051C20.4208 48.5334 20.3921 48.5504 20.3604 48.5504Z" fill="white"/>
<path fill-rule="evenodd" clip-rule="evenodd" d="M29.6593 38.6828C29.1169 38.2105 28.7744 37.5184 28.7744 36.7483C28.7744 35.3244 29.9457 34.1699 31.3903 34.1699C32.835 34.1699 34.0062 35.3244 34.0062 36.7483C34.0062 37.4999 33.6796 38.1764 33.1602 38.6473L31.3903 40.5336L29.6593 38.6828Z" fill="#1D4FD7"/>
<path fill-rule="evenodd" clip-rule="evenodd" d="M31.2598 38.4516C31.2526 38.4516 31.2454 38.4502 31.2397 38.4488C31.2023 38.4403 31.1764 38.4062 31.1764 38.368V37.3H30.6123C30.5821 37.3 30.5548 37.2844 30.5404 37.2589C30.5245 37.2334 30.5245 37.2022 30.5389 37.1766L31.4483 35.5145C31.467 35.4804 31.5059 35.4634 31.5433 35.4733C31.5807 35.4818 31.6066 35.5159 31.6066 35.5542V36.6207H32.1706C32.2009 36.6207 32.2282 36.6363 32.2426 36.6618C32.2584 36.6873 32.2584 36.7185 32.244 36.7441L31.3346 38.4062C31.3203 38.4346 31.2915 38.4516 31.2598 38.4516Z" fill="white"/>
<path fill-rule="evenodd" clip-rule="evenodd" d="M5.68082 27.3389C5.13836 26.8667 4.7959 26.1746 4.7959 25.4045C4.7959 23.9806 5.96716 22.8261 7.41182 22.8261C8.85647 22.8261 10.0277 23.9806 10.0277 25.4045C10.0277 26.1561 9.7011 26.8326 9.18166 27.3035L7.41182 29.1897L5.68082 27.3389Z" fill="#3B82F6"/>
<path fill-rule="evenodd" clip-rule="evenodd" d="M7.28131 27.1078C7.27412 27.1078 7.26692 27.1063 7.26116 27.1049C7.22375 27.0964 7.19785 27.0624 7.19785 27.0241V25.9561H6.63381C6.60359 25.9561 6.57625 25.9405 6.56186 25.915C6.54603 25.8895 6.54603 25.8583 6.56042 25.8328L7.46981 24.1706C7.48851 24.1365 7.52736 24.1195 7.56477 24.1295C7.60218 24.138 7.62808 24.172 7.62808 24.2103V25.2768H8.19213C8.22235 25.2768 8.24969 25.2924 8.26408 25.3179C8.2799 25.3435 8.2799 25.3747 8.26552 25.4002L7.35613 27.0624C7.34174 27.0907 7.31297 27.1078 7.28131 27.1078Z" fill="white"/>
<path fill-rule="evenodd" clip-rule="evenodd" d="M20.3586 34.8193C19.8161 34.347 19.4736 33.6549 19.4736 32.8848C19.4736 31.4609 20.6449 30.3065 22.0896 30.3065C23.5342 30.3065 24.7055 31.4609 24.7055 32.8848C24.7055 33.6365 24.3788 34.313 23.8594 34.7838L22.0896 36.6701L20.3586 34.8193Z" fill="#3B82F6"/>
<path fill-rule="evenodd" clip-rule="evenodd" d="M21.959 34.5881C21.9519 34.5881 21.9447 34.5867 21.9389 34.5853C21.9015 34.5768 21.8756 34.5427 21.8756 34.5044V33.4365H21.3115C21.2813 33.4365 21.254 33.4209 21.2396 33.3954C21.2238 33.3698 21.2238 33.3386 21.2382 33.3131L22.1475 31.6509C22.1662 31.6169 22.2051 31.5999 22.2425 31.6098C22.2799 31.6183 22.3058 31.6524 22.3058 31.6906V32.7572H22.8699C22.9001 32.7572 22.9274 32.7728 22.9418 32.7983C22.9576 32.8238 22.9576 32.855 22.9433 32.8805L22.0339 34.5427C22.0195 34.5711 21.9907 34.5881 21.959 34.5881Z" fill="white"/>
<path fill-rule="evenodd" clip-rule="evenodd" d="M11.7843 19.8685C11.2419 19.3963 10.8994 18.7042 10.8994 17.9341C10.8994 16.5102 12.0707 15.3557 13.5153 15.3557C14.96 15.3557 16.1312 16.5102 16.1312 17.9341C16.1312 18.6857 15.8046 19.3622 15.2852 19.8331L13.5153 21.7193L11.7843 19.8685Z" fill="#1D4FD7"/>
<path fill-rule="evenodd" clip-rule="evenodd" d="M13.3848 19.6374C13.3776 19.6374 13.3704 19.6359 13.3647 19.6345C13.3273 19.626 13.3014 19.592 13.3014 19.5537V18.4857H12.7373C12.7071 18.4857 12.6798 18.4701 12.6654 18.4446C12.6495 18.4191 12.6495 18.3879 12.6639 18.3624L13.5733 16.7002C13.592 16.6661 13.6309 16.6491 13.6683 16.6591C13.7057 16.6676 13.7316 16.7016 13.7316 16.7399V17.8064H14.2956C14.3259 17.8064 14.3532 17.822 14.3676 17.8475C14.3834 17.8731 14.3834 17.9043 14.369 17.9298L13.4596 19.592C13.4453 19.6203 13.4165 19.6374 13.3848 19.6374Z" fill="white"/>
<path fill-rule="evenodd" clip-rule="evenodd" d="M32.2755 50.0267C31.7331 49.5544 31.3906 48.8623 31.3906 48.0922C31.3906 46.6683 32.5619 45.5139 34.0065 45.5139C35.4512 45.5139 36.6225 46.6683 36.6225 48.0922C36.6225 48.8439 36.2958 49.5204 35.7764 49.9912L34.0065 51.8775L32.2755 50.0267Z" fill="#91C3FD"/>
<path fill-rule="evenodd" clip-rule="evenodd" d="M33.876 49.7955C33.8688 49.7955 33.8616 49.7941 33.8559 49.7927C33.8185 49.7842 33.7926 49.7501 33.7926 49.7118V48.6439H33.2285C33.1983 48.6439 33.171 48.6283 33.1566 48.6028C33.1408 48.5772 33.1408 48.546 33.1551 48.5205L34.0645 46.8583C34.0832 46.8243 34.1221 46.8073 34.1595 46.8172C34.1969 46.8257 34.2228 46.8597 34.2228 46.898V47.9646H34.7869C34.8171 47.9646 34.8444 47.9802 34.8588 48.0057C34.8746 48.0312 34.8746 48.0624 34.8602 48.0879L33.9509 49.7501C33.9365 49.7785 33.9077 49.7955 33.876 49.7955Z" fill="white"/>
<path fill-rule="evenodd" clip-rule="evenodd" d="M5.82633 14.2141C5.28386 13.7418 4.94141 13.0497 4.94141 12.2796C4.94141 10.8557 6.11267 9.70123 7.55732 9.70123C9.00198 9.70123 10.1732 10.8557 10.1732 12.2796C10.1732 13.0313 9.84661 13.7078 9.32717 14.1786L7.55732 16.0649L5.82633 14.2141Z" fill="#91C3FD"/>
<path fill-rule="evenodd" clip-rule="evenodd" d="M7.42682 13.9829C7.41962 13.9829 7.41243 13.9815 7.40667 13.98C7.36926 13.9715 7.34336 13.9375 7.34336 13.8992V12.8313H6.77931C6.7491 12.8313 6.72176 12.8157 6.70737 12.7901C6.69154 12.7646 6.69154 12.7334 6.70593 12.7079L7.61531 11.0457C7.63402 11.0117 7.67287 10.9947 7.71028 11.0046C7.74769 11.0131 7.77359 11.0471 7.77359 11.0854V12.1519H8.33764C8.36786 12.1519 8.3952 12.1675 8.40958 12.1931C8.42541 12.2186 8.42541 12.2498 8.41102 12.2753L7.50164 13.9375C7.48725 13.9659 7.45847 13.9829 7.42682 13.9829Z" fill="white"/>
<path fill-rule="evenodd" clip-rule="evenodd" d="M29.6593 13.1142C29.1169 12.6419 28.7744 11.9498 28.7744 11.1797C28.7744 9.75583 29.9457 8.60138 31.3903 8.60138C32.835 8.60138 34.0062 9.75583 34.0062 11.1797C34.0062 11.9314 33.6796 12.6079 33.1602 13.0788L31.3903 14.965L29.6593 13.1142Z" fill="#0080C5"/>
<path fill-rule="evenodd" clip-rule="evenodd" d="M31.2598 12.883C31.2526 12.883 31.2454 12.8816 31.2397 12.8802C31.2023 12.8717 31.1764 12.8376 31.1764 12.7994V11.7314H30.6123C30.5821 11.7314 30.5548 11.7158 30.5404 11.6903C30.5245 11.6648 30.5245 11.6336 30.5389 11.608L31.4483 9.94585C31.467 9.91182 31.5059 9.8948 31.5433 9.90473C31.5807 9.91323 31.6066 9.94727 31.6066 9.98556V11.0521H32.1706C32.2009 11.0521 32.2282 11.0677 32.2426 11.0932C32.2584 11.1187 32.2584 11.1499 32.244 11.1755L31.3346 12.8376C31.3203 12.866 31.2915 12.883 31.2598 12.883Z" fill="white"/>
<path fill-rule="evenodd" clip-rule="evenodd" d="M20.3586 61.0939C19.8161 60.6216 19.4736 59.9295 19.4736 59.1594C19.4736 57.7355 20.6449 56.5811 22.0896 56.5811C23.5342 56.5811 24.7055 57.7355 24.7055 59.1594C24.7055 59.9111 24.3788 60.5876 23.8594 61.0584L22.0896 62.9447L20.3586 61.0939Z" fill="#1D4FD7"/>
<path fill-rule="evenodd" clip-rule="evenodd" d="M21.959 60.8627C21.9519 60.8627 21.9447 60.8613 21.9389 60.8599C21.9015 60.8514 21.8756 60.8173 21.8756 60.779V59.7111H21.3115C21.2813 59.7111 21.254 59.6955 21.2396 59.67C21.2238 59.6444 21.2238 59.6132 21.2382 59.5877L22.1475 57.9255C22.1662 57.8915 22.2051 57.8745 22.2425 57.8844C22.2799 57.8929 22.3058 57.9269 22.3058 57.9652V59.0318H22.8699C22.9001 59.0318 22.9274 59.0474 22.9418 59.0729C22.9576 59.0984 22.9576 59.1296 22.9433 59.1551L22.0339 60.8173C22.0195 60.8457 21.9907 60.8627 21.959 60.8627Z" fill="white"/>
<path fill-rule="evenodd" clip-rule="evenodd" d="M11.7843 62.8923C11.2419 62.42 10.8994 61.7279 10.8994 60.9578C10.8994 59.5339 12.0707 58.3795 13.5153 58.3795C14.96 58.3795 16.1312 59.5339 16.1312 60.9578C16.1312 61.7095 15.8046 62.386 15.2852 62.8568L13.5153 64.7431L11.7843 62.8923Z" fill="#1D4FD7"/>
<path fill-rule="evenodd" clip-rule="evenodd" d="M13.3848 62.6611C13.3776 62.6611 13.3704 62.6597 13.3647 62.6583C13.3273 62.6498 13.3014 62.6157 13.3014 62.5774V61.5095H12.7373C12.7071 61.5095 12.6798 61.4939 12.6654 61.4684C12.6495 61.4428 12.6495 61.4116 12.6639 61.3861L13.5733 59.7239C13.592 59.6899 13.6309 59.6729 13.6683 59.6828C13.7057 59.6913 13.7316 59.7253 13.7316 59.7636V60.8302H14.2956C14.3259 60.8302 14.3532 60.8458 14.3676 60.8713C14.3834 60.8968 14.3834 60.928 14.369 60.9535L13.4596 62.6157C13.4453 62.6441 13.4165 62.6611 13.3848 62.6611Z" fill="white"/>
</g>
<path fill-rule="evenodd" clip-rule="evenodd" d="M36.5349 0.691711C38.6579 0.691711 40.379 2.36401 40.379 4.42689V65.9882C40.379 68.051 38.6579 69.7233 36.5349 69.7233H3.84407C1.72105 69.7233 0 68.051 0 65.9882V4.42689C0 2.36401 1.72104 0.691711 3.84406 0.691711H36.5349ZM36.0955 2.49013C37.275 2.49013 38.2311 3.41918 38.2311 4.56523V65.8498C38.2311 66.9959 37.275 67.9249 36.0955 67.9249H4.28342C3.10396 67.9249 2.14782 66.9959 2.14782 65.8498V4.56523C2.14782 3.41918 3.10396 2.49013 4.28341 2.49013H36.0955Z" fill="#334155"/>
<path d="M30.3561 2.49011H10.0234V5.39525C10.0234 6.31209 10.7883 7.05533 11.7319 7.05533H28.6476C29.5912 7.05533 30.3561 6.31209 30.3561 5.39525V2.49011Z" fill="#334155"/>
<mask id="mask1_2478_24358" style="mask-type:alpha" maskUnits="userSpaceOnUse" x="0" y="0" width="41" height="70">
<path d="M40.379 4.42689C40.379 2.36401 38.6579 0.691711 36.5349 0.691711H3.84406C1.72104 0.691711 0 2.36401 0 4.42689V65.9882C0 68.051 1.72105 69.7233 3.84407 69.7233H36.5349C38.6579 69.7233 40.379 68.051 40.379 65.9882V4.42689Z" fill="#3F3F46"/>
</mask>
<g mask="url(#mask1_2478_24358)">
<path opacity="0.4" d="M40.4021 61.5613V3.59225C40.4021 2.1389 38.9662 0.691711 37.0742 0.691711H3.22146C2.1544 0.691711 1.25322 1.29871 0.964844 2.13068C8.39851 23.4843 28.793 50.4331 40.4021 61.5613Z" fill="white"/>
</g>
<path fill-rule="evenodd" clip-rule="evenodd" d="M26.6077 4.35771C26.6077 4.1285 26.4153 3.94269 26.1781 3.94269H14.0497C13.8124 3.94269 13.6201 4.1285 13.6201 4.35771C13.6201 4.58692 13.8124 4.77273 14.0497 4.77273H26.1781C26.4153 4.77273 26.6077 4.58692 26.6077 4.35771Z" fill="#0F172A"/>
<defs>
<clipPath id="clip0_2478_24358">
<rect width="36.6228" height="65.4348" fill="white" transform="translate(2.17969 2.49011)"/>
</clipPath>
</defs>
</svg>
