<svg width="146" height="70" viewBox="0 0 146 70" fill="none" xmlns="http://www.w3.org/2000/svg">
<g clip-path="url(#clip0_2478_19806)">
<path d="M5.18958 34.7196H47.958V65.0123H42.0492V62.7116H8.19087V65.0123H5.18958V34.7196Z" fill="#BEDBFE"/>
<path d="M2.18823 36.5895H47.8665V39.2074H4.80612C3.3603 39.2074 2.18823 38.0353 2.18823 36.5895Z" fill="#1E3FAE"/>
<path d="M8.1908 64.2643H42.1429V59.9635L8.1908 58.748V64.2643Z" fill="#3B82F6"/>
<path d="M8.1908 41.0773H42.1429V60.6179L8.1908 59.0285V41.0773Z" fill="#312E7F"/>
<rect width="33.9521" height="2.99188" transform="matrix(1 0 -0.64199 0.768394 8.1908 41.0773)" fill="#2463EB"/>
<rect width="33.9521" height="1.30894" transform="matrix(1 0 -0.641992 0.768394 8.1908 41.0773)" fill="#1D4FD7"/>
<rect width="0.624885" height="2.99188" transform="matrix(1 0 -0.64199 0.768394 37.3522 41.0773)" fill="#1E3FAE"/>
<rect width="0.624885" height="2.99188" transform="matrix(1 0 -0.64199 0.768394 39.8517 41.0773)" fill="#1E3FAE"/>
<rect width="0.624886" height="2.99188" transform="matrix(1 0 -0.641991 0.768394 34.8527 41.0773)" fill="#1E3FAE"/>
<rect width="0.624886" height="2.99188" transform="matrix(1 0 -0.64199 0.768394 32.3531 41.0773)" fill="#1E3FAE"/>
<rect width="0.624886" height="2.99188" transform="matrix(1 0 -0.64199 0.768394 29.8535 41.0773)" fill="#1E3FAE"/>
<rect width="0.624886" height="2.99188" transform="matrix(1 0 -0.64199 0.768394 27.3541 41.0773)" fill="#1E3FAE"/>
<rect width="0.624886" height="2.99188" transform="matrix(1 0 -0.64199 0.768394 24.8545 41.0773)" fill="#1E3FAE"/>
<rect width="0.624886" height="2.99188" transform="matrix(1 0 -0.64199 0.768394 22.355 41.0773)" fill="#1E3FAE"/>
<rect width="0.624886" height="2.99188" transform="matrix(1 0 -0.64199 0.768394 19.8555 41.0773)" fill="#1E3FAE"/>
<rect width="0.624886" height="2.99188" transform="matrix(1 0 -0.64199 0.768394 17.3558 41.0773)" fill="#1E3FAE"/>
<rect width="0.624886" height="2.99188" transform="matrix(1 0 -0.64199 0.768394 14.8563 41.0773)" fill="#1E3FAE"/>
<rect width="0.624886" height="2.99188" transform="matrix(1 0 -0.64199 0.768394 12.3568 41.0773)" fill="#1E3FAE"/>
<rect width="0.624886" height="2.99188" transform="matrix(1 0 -0.64199 0.768394 9.85718 41.0773)" fill="#1E3FAE"/>
<path d="M25.0592 4.23987H68.7794L45.8008 36.5895H0.5L25.0592 4.23987Z" fill="#1D4FD7"/>
<mask id="mask0_2478_19806" style="mask-type:alpha" maskUnits="userSpaceOnUse" x="0" y="4" width="69" height="33">
<path d="M25.0592 4.23987H68.7794L45.8008 36.5895H0.5L25.0592 4.23987Z" fill="#312E7F"/>
</mask>
<g mask="url(#mask0_2478_19806)">
<rect x="-1.00061" y="9.13611" width="0.524588" height="71.2807" transform="rotate(-90 -1.00061 9.13611)" fill="#1E3FAE"/>
<rect x="-1.00061" y="6.86279" width="0.524588" height="71.2807" transform="rotate(-90 -1.00061 6.86279)" fill="#1E3FAE"/>
<rect x="-1.00061" y="11.4093" width="0.524588" height="71.2807" transform="rotate(-90 -1.00061 11.4093)" fill="#1E3FAE"/>
<rect x="-1.00061" y="13.6825" width="0.524588" height="71.2807" transform="rotate(-90 -1.00061 13.6825)" fill="#1E3FAE"/>
<rect x="-1.00061" y="15.9557" width="0.524587" height="71.2807" transform="rotate(-90 -1.00061 15.9557)" fill="#1E3FAE"/>
<rect x="-1.00061" y="18.2289" width="0.524587" height="71.2807" transform="rotate(-90 -1.00061 18.2289)" fill="#1E3FAE"/>
<rect x="-1.00061" y="20.5021" width="0.524588" height="71.2807" transform="rotate(-90 -1.00061 20.5021)" fill="#1E3FAE"/>
<rect x="-1.00061" y="22.7754" width="0.524587" height="71.2807" transform="rotate(-90 -1.00061 22.7754)" fill="#1E3FAE"/>
<rect x="-1.00061" y="25.0486" width="0.524589" height="71.2807" transform="rotate(-90 -1.00061 25.0486)" fill="#1E3FAE"/>
<rect x="-1.00061" y="27.3218" width="0.524587" height="71.2807" transform="rotate(-90 -1.00061 27.3218)" fill="#1E3FAE"/>
<rect x="-1.00061" y="29.595" width="0.524587" height="71.2807" transform="rotate(-90 -1.00061 29.595)" fill="#1E3FAE"/>
<rect x="-1.00061" y="31.8682" width="0.524587" height="71.2807" transform="rotate(-90 -1.00061 31.8682)" fill="#1E3FAE"/>
<rect x="-1.00061" y="34.1415" width="0.524587" height="71.2807" transform="rotate(-90 -1.00061 34.1415)" fill="#1E3FAE"/>
</g>
<path d="M31.0757 10.9716H46.8325L38.2038 22.5651H22.447L31.0757 10.9716Z" fill="#3B82F6"/>
<path d="M31.7336 12.0935H44.5814L37.5457 21.6301H24.6979L31.7336 12.0935Z" fill="#BEDBFE"/>
<path d="M31.826 12.0935H44.5815L39.2739 19.1992L31.826 12.0935Z" fill="#61A6FA"/>
<rect width="0.545427" height="1.85563" rx="0.272714" transform="matrix(-1 0 0 1 8.92383 48.5819)" fill="#334155"/>
<path fill-rule="evenodd" clip-rule="evenodd" d="M11.1965 50.4375C11.8328 50.7794 12.5146 51.2189 12.5146 52.049V61.4736C12.5146 62.4985 13.2879 63.3293 14.2418 63.3293H14.5599C15.5138 63.3293 16.2871 62.4985 16.2871 61.4736V57.6469C16.2871 57.0895 16.6255 56.5973 17.1213 56.4334L17.2764 56.3821L17.116 55.822L16.9609 55.8733C16.2362 56.1129 15.7417 56.8322 15.7417 57.6469V61.4736C15.7417 62.1748 15.2126 62.7433 14.5599 62.7433H14.2418C13.5891 62.7433 13.06 62.1748 13.06 61.4736V52.049C13.06 50.877 12.0601 50.2422 11.4692 49.9492L11.1965 50.4375Z" fill="#F0F6FF"/>
<mask id="mask1_2478_19806" style="mask-type:alpha" maskUnits="userSpaceOnUse" x="8" y="48" width="4" height="3">
<path fill-rule="evenodd" clip-rule="evenodd" d="M8.56549 49.133C8.56669 49.0311 8.64066 48.9485 8.73086 48.9489C9.04175 48.95 9.70808 48.9524 9.93374 48.9531C9.98367 48.9535 10.0329 48.9678 10.076 48.9954C10.3697 49.1813 11.5437 49.924 11.5437 49.924L11.2488 50.5008C11.2488 50.5008 10.4244 49.9791 10.1154 49.784C10.0458 49.74 9.95833 49.7429 9.89228 49.7923C9.79888 49.8616 9.66936 49.9578 9.6032 50.0077C9.57524 50.0282 9.54174 50.0396 9.50754 50.0394C9.36168 50.0389 8.94821 50.0373 8.71679 50.0364C8.62711 50.036 8.55583 49.9538 8.55702 49.8525L8.56549 49.133Z" fill="white"/>
</mask>
<g mask="url(#mask1_2478_19806)">
<path fill-rule="evenodd" clip-rule="evenodd" d="M8.56765 48.9483C8.56765 48.9483 9.6355 48.9522 9.93372 48.9531C9.98365 48.9535 10.0328 48.9678 10.0759 48.9954C10.3697 49.1813 11.5437 49.924 11.5437 49.924L11.2487 50.5008C11.2487 50.5008 10.4244 49.9791 10.1154 49.784C10.0458 49.74 9.95831 49.7429 9.89225 49.7923C9.79885 49.8616 9.66934 49.9577 9.60318 50.0077C9.57521 50.0282 9.54172 50.0396 9.50752 50.0394C9.30056 50.0387 8.55484 50.0358 8.55484 50.0358L8.56765 48.9483Z" fill="white"/>
<path fill-rule="evenodd" clip-rule="evenodd" d="M8.51267 49.5448C8.51267 49.5448 9.36419 49.5647 9.78651 49.5747C9.95561 49.5786 10.0877 49.6563 10.2001 49.7211C10.5622 49.934 11.3605 50.3636 11.3605 50.3636L11.2605 50.5378C11.2605 50.5378 10.478 50.0551 10.064 49.8133C9.88613 49.7499 9.79471 49.9063 9.7483 49.9452C9.66186 50.1753 8.52177 50.0092 8.52177 50.0092L8.51267 49.5448Z" fill="#CBD5E1"/>
</g>
<mask id="mask2_2478_19806" style="mask-type:alpha" maskUnits="userSpaceOnUse" x="17" y="55" width="4" height="2">
<path fill-rule="evenodd" clip-rule="evenodd" d="M20.1874 55.8354C20.2108 55.7367 20.1593 55.6363 20.0721 55.6116C19.7715 55.5262 19.1273 55.3433 18.9091 55.2812C18.8608 55.2677 18.8099 55.2678 18.7616 55.2825C18.4331 55.3804 17.1202 55.7713 17.1202 55.7713L17.2661 56.4105C17.2661 56.4105 18.188 56.1358 18.5335 56.0333C18.6113 56.0101 18.6951 56.0373 18.747 56.1033C18.8205 56.1963 18.9225 56.3251 18.9744 56.3917C18.9964 56.4193 19.026 56.4397 19.0591 56.449C19.2001 56.4891 19.5999 56.6025 19.8237 56.666C19.9104 56.6906 19.999 56.631 20.0223 56.5327L20.1874 55.8354Z" fill="white"/>
</mask>
<g mask="url(#mask2_2478_19806)">
<path fill-rule="evenodd" clip-rule="evenodd" d="M20.2298 55.6564C20.2298 55.6564 19.1974 55.3632 18.9091 55.2812C18.8608 55.2677 18.8099 55.2678 18.7616 55.2825C18.4331 55.3804 17.1201 55.7713 17.1201 55.7713L17.2661 56.4104C17.2661 56.4104 18.188 56.1358 18.5335 56.0333C18.6113 56.0101 18.6951 56.0373 18.747 56.1033C18.8205 56.1962 18.9225 56.3251 18.9744 56.3917C18.9964 56.4193 19.026 56.4397 19.0591 56.449C19.2592 56.5059 19.9802 56.7104 19.9802 56.7104L20.2298 55.6564Z" fill="white"/>
<path fill-rule="evenodd" clip-rule="evenodd" d="M20.1384 56.2487C20.1384 56.2487 19.3115 56.0298 18.9014 55.9212C18.7372 55.8777 18.591 55.9161 18.4668 55.9475C18.0661 56.0527 17.192 56.246 17.192 56.246L17.2467 56.443C17.2467 56.443 18.1182 56.1938 18.5761 56.075C18.7631 56.0633 18.8137 56.2406 18.8492 56.2913C18.8773 56.5387 20.0179 56.6967 20.0179 56.6967L20.1384 56.2487Z" fill="#CBD5E1"/>
</g>
<path d="M8.75354 48.9537C8.75354 48.5853 9.05215 48.2867 9.42049 48.2867V54.2705C9.05215 54.2705 8.75354 53.9719 8.75354 53.6035V48.9537Z" fill="#1E3FAE"/>
<path d="M11.9216 49.4978C11.9216 48.4618 11.0818 47.6219 10.0458 47.6219C9.7005 47.6219 9.42055 47.9019 9.42055 48.2472V54.3101C9.42055 54.6555 9.7005 54.9354 10.0458 54.9354C11.0818 54.9354 11.9216 54.0956 11.9216 53.0596V49.4978Z" fill="#BEDBFE"/>
<rect x="15.0388" y="64.8545" width="23.2021" height="1.38908" rx="0.694541" fill="black" fill-opacity="0.05"/>
<path d="M16.2983 60.1581C16.2983 59.8658 16.5358 59.6289 16.8287 59.6289H18.8174C19.1103 59.6289 19.3478 59.8658 19.3478 60.1581V65.2514C19.3478 65.5436 19.1103 65.7806 18.8174 65.7806H16.8287C16.5358 65.7806 16.2983 65.5436 16.2983 65.2514V60.1581Z" fill="#1E3B8A"/>
<path d="M34.0646 60.1581C34.0646 59.8658 34.302 59.6289 34.5949 59.6289H36.5837C36.8766 59.6289 37.114 59.8658 37.114 60.1581V65.2514C37.114 65.5436 36.8766 65.7806 36.5837 65.7806H34.5949C34.302 65.7806 34.0646 65.5436 34.0646 65.2514V60.1581Z" fill="#1E3B8A"/>
<path d="M16.7955 54.271C18.2861 50.8183 21.6868 48.5824 25.4475 48.5824H28.057C31.7953 48.5824 35.169 50.8245 36.6167 54.271H16.7955Z" fill="#E0E8FF"/>
<path d="M18.8372 49.5418C19.0886 48.9596 19.663 48.5824 20.2984 48.5824H33.1689C33.81 48.5824 34.3884 48.9663 34.6362 49.5562L36.6167 54.271H16.7955L18.8372 49.5418Z" fill="#DCEBFE"/>
<path d="M17.6012 53.808C17.3045 53.808 17.0239 53.9456 16.8386 54.1821L16.2062 55.1387C15.9204 55.5711 15.7681 56.0776 15.7681 56.5955V61.6795C15.7681 62.5562 16.4804 63.267 17.3591 63.267H36.0533C36.932 63.267 37.6443 62.5562 37.6443 61.6795V56.5955C37.6443 56.0776 37.492 55.5711 37.2062 55.1387L36.5738 54.1821C36.3885 53.9456 36.1079 53.808 35.8112 53.808H17.6012Z" fill="#91C3FD"/>
<path d="M15.7681 59.8936C15.7681 59.309 16.2429 58.8352 16.8287 58.8352H36.5837C37.1694 58.8352 37.6443 59.309 37.6443 59.8936V61.8118C37.6443 62.6155 36.9914 63.267 36.1859 63.267H17.2265C16.421 63.267 15.7681 62.6155 15.7681 61.8118V59.8936Z" fill="#3B82F6"/>
<path d="M16.5635 56.8176C16.5635 56.2879 16.9941 55.8585 17.5253 55.8585H19.9106C20.4418 55.8585 20.8724 56.2879 20.8724 56.8176C20.8724 57.3474 20.4418 57.7768 19.9106 57.7768H17.5253C16.9941 57.7768 16.5635 57.3474 16.5635 56.8176Z" fill="white"/>
<path d="M17.1602 61.1834C17.1602 60.471 17.7389 59.8936 18.4528 59.8936H34.9595C35.6734 59.8936 36.2522 60.471 36.2522 61.1834C36.2522 61.8958 35.6734 62.4733 34.9595 62.4733H18.4528C17.7389 62.4733 17.1602 61.8958 17.1602 61.1834Z" fill="#2463EB"/>
<path d="M17.5579 61.1834C17.5579 60.6902 17.9585 60.2904 18.4528 60.2904C18.9471 60.2904 19.3477 60.6902 19.3477 61.1834C19.3477 61.6766 18.9471 62.0764 18.4528 62.0764C17.9585 62.0764 17.5579 61.6766 17.5579 61.1834Z" fill="white"/>
<path d="M34.0646 61.1834C34.0646 60.6902 34.4653 60.2904 34.9595 60.2904C35.4538 60.2904 35.8545 60.6902 35.8545 61.1834C35.8545 61.6766 35.4538 62.0764 34.9595 62.0764C34.4653 62.0764 34.0646 61.6766 34.0646 61.1834Z" fill="white"/>
<path d="M34.4613 49.2439H19.0061C19.3009 48.8342 19.7793 48.5824 20.2985 48.5824H33.1689C33.6884 48.5824 34.1667 48.8344 34.4613 49.2439Z" fill="#91C3FD"/>
<path d="M19.0061 49.2439C18.94 49.3357 18.8832 49.4353 18.8372 49.5419L18.502 50.3184L36.3669 53.6762L34.6362 49.5563C34.5892 49.4443 34.5303 49.3398 34.4613 49.2439H19.0061Z" fill="#91C3FD"/>
<path d="M32.5398 56.8176C32.5398 56.2879 32.9704 55.8585 33.5016 55.8585H35.8869C36.4181 55.8585 36.8488 56.2879 36.8488 56.8176C36.8488 57.3474 36.4181 57.7768 35.8869 57.7768H33.5016C32.9704 57.7768 32.5398 57.3474 32.5398 56.8176Z" fill="white"/>
<rect x="44.5815" y="35.0935" width="93.7904" height="30.2927" fill="#DCEBFE"/>
<path d="M44.5815 35.0935H138.372V57.439L44.5815 39.3008V35.0935Z" fill="#BEDBFE"/>
<rect x="111.36" y="44.0691" width="27.0116" height="14.5854" fill="#3B82F6"/>
<rect x="111.923" y="44.817" width="26.4489" height="13.8374" fill="#BEDBFE"/>
<path d="M111.923 44.817H138.372V55.2886L111.923 44.817Z" fill="#61A6FA"/>
<path d="M61.8251 0.5H118.246L145.5 35.0935H37.2659L61.8251 0.5Z" fill="#2463EB"/>
<mask id="mask3_2478_19806" style="mask-type:alpha" maskUnits="userSpaceOnUse" x="37" y="0" width="109" height="36">
<path d="M61.8251 0.5H118.246L145.5 35.0935H37.2659L61.8251 0.5Z" fill="#372FA2"/>
</mask>
<g mask="url(#mask3_2478_19806)">
<rect x="38.579" y="5.73572" width="0.560975" height="105.608" transform="rotate(-90 38.579 5.73572)" fill="#1E3FAE"/>
<rect x="38.579" y="3.30493" width="0.560975" height="105.608" transform="rotate(-90 38.579 3.30493)" fill="#1E3FAE"/>
<rect x="38.579" y="8.16663" width="0.560975" height="105.608" transform="rotate(-90 38.579 8.16663)" fill="#1E3FAE"/>
<rect x="38.579" y="10.5975" width="0.560975" height="105.608" transform="rotate(-90 38.579 10.5975)" fill="#1E3FAE"/>
<rect x="38.579" y="13.0284" width="0.560975" height="105.608" transform="rotate(-90 38.579 13.0284)" fill="#1E3FAE"/>
<rect x="38.579" y="15.4594" width="0.560974" height="105.608" transform="rotate(-90 38.579 15.4594)" fill="#1E3FAE"/>
<rect x="38.579" y="17.8903" width="0.560975" height="105.608" transform="rotate(-90 38.579 17.8903)" fill="#1E3FAE"/>
<rect x="38.579" y="20.3212" width="0.560975" height="105.608" transform="rotate(-90 38.579 20.3212)" fill="#1E3FAE"/>
<rect x="38.579" y="22.7521" width="0.560975" height="105.608" transform="rotate(-90 38.579 22.7521)" fill="#1E3FAE"/>
<rect x="38.579" y="25.183" width="0.560975" height="105.608" transform="rotate(-90 38.579 25.183)" fill="#1E3FAE"/>
<rect x="38.579" y="27.6138" width="0.560973" height="105.608" transform="rotate(-90 38.579 27.6138)" fill="#1E3FAE"/>
<rect x="38.579" y="30.0447" width="0.560975" height="105.608" transform="rotate(-90 38.579 30.0447)" fill="#1E3FAE"/>
<rect x="38.579" y="32.4756" width="0.560975" height="105.608" transform="rotate(-90 38.579 32.4756)" fill="#1E3FAE"/>
</g>
<path d="M78.2212 15.6624L91.3519 6.67505L104.483 15.6624V27.9921H78.2212V15.6624Z" fill="#DCEBFE"/>
<path d="M78.2212 15.6624L91.3519 6.67505L104.483 15.6624V23.1303L78.2212 16.7726V15.6624Z" fill="#BEDBFE"/>
<rect x="83.4735" y="15.6506" width="15.7568" height="12.3415" fill="#3B82F6"/>
<rect x="84.0363" y="16.2117" width="15.194" height="11.7805" fill="#BEDBFE"/>
<path d="M84.0363 16.2117H99.2303V25.6548L84.0363 17.6141V16.2117Z" fill="#61A6FA"/>
<path fill-rule="evenodd" clip-rule="evenodd" d="M91.3519 2.7439L109.798 15.0024L107.196 18.892L91.3519 8.3623L75.5075 18.892L72.9062 15.0024L91.3519 2.7439Z" fill="#3B82F6"/>
<path fill-rule="evenodd" clip-rule="evenodd" d="M91.3519 7.04907L107.859 17.8946L107.193 18.848L91.3519 8.41577L75.4075 18.848L74.9386 17.8946L91.3519 7.04907Z" fill="#1D4FD7"/>
<rect x="77.9709" y="34.9065" width="27.0116" height="30.4797" fill="#DCEBFE"/>
<path d="M77.9709 38.4594H86.4121C86.8265 38.4594 87.1624 38.7942 87.1624 39.2073V44.4431C87.1624 44.8562 86.8265 45.1911 86.4121 45.1911H77.9709V38.4594Z" fill="#61A6FA"/>
<path d="M87.9127 39.5813C87.9127 38.9617 88.4166 38.4594 89.0382 38.4594H92.4147C93.0362 38.4594 93.5401 38.9617 93.5401 39.5813V41.9721C93.5401 42.4289 93.2624 42.84 92.8379 43.0117L89.4614 44.3776C88.7214 44.6769 87.9127 44.1341 87.9127 43.338L87.9127 39.5813Z" fill="#61A6FA"/>
<path d="M93.5401 48.5691C93.5401 48.9154 93.3797 49.2422 93.1056 49.4548L92.1567 50.1905C91.9591 50.3436 91.716 50.4268 91.4657 50.4268H87.1624C86.5408 50.4268 86.0369 49.9245 86.0369 49.3049V47.3764C86.0369 46.9284 86.3042 46.5234 86.7169 46.3461L91.9692 44.0895C92.7121 43.7704 93.5401 44.3134 93.5401 45.1199V48.5691Z" fill="#61A6FA"/>
<path d="M94.2905 39.2073C94.2905 38.7942 94.6265 38.4594 95.0409 38.4594H97.667C98.0814 38.4594 98.4173 38.7942 98.4173 39.2073V42.0122C98.4173 42.4253 98.0814 42.7602 97.667 42.7602H95.0409C94.6265 42.7602 94.2905 42.4253 94.2905 42.0122V39.2073Z" fill="#61A6FA"/>
<path d="M100.293 61.8333C100.293 61.4202 100.629 61.0853 101.043 61.0853H104.983V64.9187H101.043C100.629 64.9187 100.293 64.5838 100.293 64.1707V61.8333Z" fill="#61A6FA"/>
<path d="M78.3461 47.0609C78.3461 46.4413 78.85 45.939 79.4716 45.939H84.1611C84.7827 45.939 85.2866 46.4413 85.2866 47.0609V50.9877C85.2866 51.6074 84.7827 52.1097 84.1611 52.1097H79.4716C78.85 52.1097 78.3461 51.6074 78.3461 50.9877V47.0609Z" fill="#61A6FA"/>
<path d="M102.919 43.8821C102.919 43.5723 103.171 43.3212 103.482 43.3212H104.983V48.3699H103.482C103.171 48.3699 102.919 48.1188 102.919 47.809V43.8821Z" fill="#61A6FA"/>
<path d="M99.1676 39.2073C99.1676 38.7942 99.5035 38.4594 99.9179 38.4594H104.983V42.7602H99.9179C99.5035 42.7602 99.1676 42.4253 99.1676 42.0122V39.2073Z" fill="#61A6FA"/>
<path d="M77.9709 62.3943H84.5363C84.8471 62.3943 85.099 62.6454 85.099 62.9553V64.2642C85.099 64.574 84.8471 64.8252 84.5363 64.8252H77.9709V62.3943Z" fill="#61A6FA"/>
<path d="M85.4741 63.3292C85.4741 62.8129 85.894 62.3943 86.412 62.3943H90.1636C90.6816 62.3943 91.1015 62.8129 91.1015 63.3292V63.8902C91.1015 64.4066 90.6816 64.8252 90.1636 64.8252H86.412C85.894 64.8252 85.4741 64.4066 85.4741 63.8902V63.3292Z" fill="#61A6FA"/>
<path d="M94.2905 44.2561C94.2905 43.7398 94.7104 43.3212 95.2284 43.3212H101.231C101.749 43.3212 102.169 43.7398 102.169 44.2561V47.809C102.169 48.3253 101.749 48.7439 101.231 48.7439H95.2284C94.7104 48.7439 94.2905 48.3253 94.2905 47.809V44.2561Z" fill="#61A6FA"/>
<path d="M104.983 55.1016H98.98C98.462 55.1016 98.0421 55.5202 98.0421 56.0365V58.7001C98.0421 59.0209 98.2071 59.3193 98.4792 59.4906L99.2734 59.9906C99.6332 60.2171 100.05 60.3373 100.475 60.3373H104.983V55.1016Z" fill="#61A6FA"/>
<path d="M97.4794 53.6056C97.4794 53.1925 97.1434 52.8577 96.729 52.8577H92.6023C92.1879 52.8577 91.8519 53.1925 91.8519 53.6056V56.6223C91.8519 56.9268 92.0371 57.2009 92.3201 57.3154L96.4469 58.9847C96.9403 59.1843 97.4794 58.8224 97.4794 58.2917V53.6056Z" fill="#61A6FA"/>
<path d="M91.8519 63.7032C91.8519 64.3229 92.3558 64.8252 92.9774 64.8252H98.7924C99.2068 64.8252 99.5427 64.4903 99.5427 64.0772V61.814C99.5427 61.5129 99.3617 61.2412 99.0832 61.1245L92.6328 58.4208C92.2619 58.2653 91.8519 58.5368 91.8519 58.9379L91.8519 63.7032Z" fill="#61A6FA"/>
<path d="M91.1016 52.2968C91.1016 51.6771 90.5977 51.1748 89.9761 51.1748H87.1624C86.5408 51.1748 86.0369 51.6771 86.0369 52.2968V56.0366C86.0369 56.6562 86.5408 57.1585 87.1624 57.1585H89.9761C90.5977 57.1585 91.1016 56.6562 91.1016 56.0366V52.2968Z" fill="#61A6FA"/>
<path d="M82.4728 58.8414C82.4728 58.2218 81.969 57.7195 81.3474 57.7195H79.4716C78.85 57.7195 78.3461 58.2218 78.3461 58.8414V60.7114C78.3461 61.331 78.85 61.8333 79.4716 61.8333H81.3474C81.969 61.8333 82.4728 61.331 82.4728 60.7114V58.8414Z" fill="#61A6FA"/>
<path d="M85.2866 53.6992C85.2866 53.3377 84.9927 53.0447 84.6301 53.0447H81.0661C80.7035 53.0447 80.4095 53.3377 80.4095 53.6992C80.4095 54.0606 80.7035 54.3536 81.0661 54.3536H84.6301C84.9927 54.3536 85.2866 54.0606 85.2866 53.6992Z" fill="#61A6FA"/>
<path d="M98.0421 53.7926C98.0421 53.3796 98.378 53.0447 98.7924 53.0447H101.794C102.208 53.0447 102.544 53.3796 102.544 53.7926C102.544 54.2057 102.208 54.5406 101.794 54.5406H98.7924C98.378 54.5406 98.0421 54.2057 98.0421 53.7926Z" fill="#61A6FA"/>
<path d="M82.848 56.0365C82.848 55.5202 82.4281 55.1016 81.9101 55.1016H77.9709V56.9715H81.9101C82.4281 56.9715 82.848 56.5529 82.848 56.0365Z" fill="#61A6FA"/>
<path d="M80.0343 53.6992C80.0343 53.3377 79.7404 53.0447 79.3778 53.0447H77.9709V54.3536H79.3778C79.7404 54.3536 80.0343 54.0606 80.0343 53.6992Z" fill="#61A6FA"/>
<path d="M85.4741 55.8497C85.4741 55.4366 85.1382 55.1017 84.7238 55.1017H83.9735C83.5591 55.1017 83.2231 55.4366 83.2231 55.8497V56.4106C83.2231 56.8237 83.5591 57.1586 83.9735 57.1586H84.7238C85.1382 57.1586 85.4741 56.8237 85.4741 56.4106V55.8497Z" fill="#61A6FA"/>
<path d="M102.919 53.8861C102.919 53.4214 103.297 53.0447 103.763 53.0447H104.983V54.7276H103.763C103.297 54.7276 102.919 54.3509 102.919 53.8861Z" fill="#61A6FA"/>
<path d="M97.8545 50.0529C97.8545 49.6398 97.5186 49.3049 97.1042 49.3049H94.8245C94.5988 49.3049 94.3783 49.3726 94.1916 49.4991L92.3796 50.7274C92.2255 50.8318 92.1333 51.0055 92.1333 51.1913V51.7358C92.1333 52.0456 92.3852 52.2968 92.696 52.2968H97.1042C97.5186 52.2968 97.8545 51.9619 97.8545 51.5488V50.0529Z" fill="#61A6FA"/>
<path d="M91.1015 58.8414C91.1015 58.2218 90.5976 57.7195 89.9761 57.7195H84.3486C83.727 57.7195 83.2231 58.2218 83.2231 58.8414V60.7114C83.2231 61.331 83.727 61.8333 84.3486 61.8333H89.9761C90.5976 61.8333 91.1015 61.331 91.1015 60.7114V58.8414Z" fill="#61A6FA"/>
<path d="M98.4172 50.0529C98.4172 49.6398 98.7532 49.3049 99.1676 49.3049H104.983V52.2968H99.1676C98.7532 52.2968 98.4172 51.9619 98.4172 51.5488V50.0529Z" fill="#61A6FA"/>
<path d="M77.9709 37.3374H104.983V50.0528L77.9709 44.8202V37.3374Z" fill="#BEDBFE"/>
<mask id="mask4_2478_19806" style="mask-type:alpha" maskUnits="userSpaceOnUse" x="77" y="38" width="28" height="27">
<path d="M77.9709 38.4594H86.4121C86.8265 38.4594 87.1624 38.7942 87.1624 39.2073V44.4431C87.1624 44.8562 86.8265 45.1911 86.4121 45.1911H77.9709V38.4594Z" fill="#BF83FC"/>
<path d="M87.9127 39.5813C87.9127 38.9617 88.4166 38.4594 89.0382 38.4594H92.4147C93.0362 38.4594 93.5401 38.9617 93.5401 39.5813V41.9721C93.5401 42.4289 93.2624 42.84 92.8379 43.0117L89.4614 44.3776C88.7214 44.6769 87.9127 44.1341 87.9127 43.338L87.9127 39.5813Z" fill="#BF83FC"/>
<path d="M93.5401 48.5691C93.5401 48.9154 93.3797 49.2422 93.1056 49.4548L92.1567 50.1905C91.9591 50.3436 91.716 50.4268 91.4657 50.4268H87.1623C86.5408 50.4268 86.0369 49.9245 86.0369 49.3049V47.3764C86.0369 46.9284 86.3042 46.5234 86.7169 46.3461L91.9692 44.0895C92.7121 43.7704 93.5401 44.3134 93.5401 45.1199V48.5691Z" fill="#BF83FC"/>
<path d="M94.2905 39.2073C94.2905 38.7942 94.6265 38.4594 95.0409 38.4594H97.667C98.0814 38.4594 98.4173 38.7942 98.4173 39.2073V42.0122C98.4173 42.4253 98.0814 42.7602 97.667 42.7602H95.0409C94.6265 42.7602 94.2905 42.4253 94.2905 42.0122V39.2073Z" fill="#BF83FC"/>
<path d="M100.293 61.8333C100.293 61.4202 100.629 61.0853 101.043 61.0853H104.983V64.9187H101.043C100.629 64.9187 100.293 64.5838 100.293 64.1707V61.8333Z" fill="#BF83FC"/>
<path d="M78.3461 47.0609C78.3461 46.4413 78.85 45.939 79.4716 45.939H84.1611C84.7827 45.939 85.2866 46.4413 85.2866 47.0609V50.9877C85.2866 51.6074 84.7827 52.1097 84.1611 52.1097H79.4716C78.85 52.1097 78.3461 51.6074 78.3461 50.9877V47.0609Z" fill="#BF83FC"/>
<path d="M102.919 43.8821C102.919 43.5723 103.171 43.3212 103.482 43.3212H104.983V48.3699H103.482C103.171 48.3699 102.919 48.1188 102.919 47.809V43.8821Z" fill="#BF83FC"/>
<path d="M99.1676 39.2073C99.1676 38.7942 99.5035 38.4594 99.9179 38.4594H104.983V42.7602H99.9179C99.5035 42.7602 99.1676 42.4253 99.1676 42.0122V39.2073Z" fill="#BF83FC"/>
<path d="M77.9709 62.3943H84.5363C84.8471 62.3943 85.099 62.6454 85.099 62.9553V64.2642C85.099 64.574 84.8471 64.8252 84.5363 64.8252H77.9709V62.3943Z" fill="#BF83FC"/>
<path d="M85.4741 63.3292C85.4741 62.8129 85.894 62.3943 86.412 62.3943H90.1636C90.6816 62.3943 91.1015 62.8129 91.1015 63.3292V63.8902C91.1015 64.4066 90.6816 64.8252 90.1636 64.8252H86.412C85.894 64.8252 85.4741 64.4066 85.4741 63.8902V63.3292Z" fill="#BF83FC"/>
<path d="M94.2905 44.2561C94.2905 43.7398 94.7104 43.3212 95.2284 43.3212H101.231C101.749 43.3212 102.169 43.7398 102.169 44.2561V47.809C102.169 48.3253 101.749 48.7439 101.231 48.7439H95.2284C94.7104 48.7439 94.2905 48.3253 94.2905 47.809V44.2561Z" fill="#BF83FC"/>
<path d="M104.981 55.0973H98.9801C98.4622 55.0973 98.0422 55.5159 98.0422 56.0322V58.6958C98.0422 59.0166 98.2072 59.315 98.4793 59.4863L99.2736 59.9864C99.6333 60.2128 100.05 60.3331 100.476 60.3331H104.981V55.0973Z" fill="#BF83FC"/>
<path d="M97.4794 53.6056C97.4794 53.1925 97.1434 52.8577 96.729 52.8577H92.6023C92.1879 52.8577 91.8519 53.1925 91.8519 53.6056V56.6223C91.8519 56.9268 92.0371 57.2009 92.3201 57.3154L96.4469 58.9847C96.9403 59.1843 97.4794 58.8224 97.4794 58.2917V53.6056Z" fill="#BF83FC"/>
<path d="M91.8519 63.7032C91.8519 64.3229 92.3558 64.8252 92.9774 64.8252H98.7924C99.2068 64.8252 99.5427 64.4903 99.5427 64.0772V61.814C99.5427 61.5129 99.3617 61.2412 99.0832 61.1245L92.6328 58.4208C92.2619 58.2653 91.8519 58.5368 91.8519 58.9379L91.8519 63.7032Z" fill="#BF83FC"/>
<path d="M91.1016 52.2968C91.1016 51.6771 90.5977 51.1748 89.9761 51.1748H87.1624C86.5408 51.1748 86.0369 51.6771 86.0369 52.2968V56.0366C86.0369 56.6562 86.5408 57.1585 87.1624 57.1585H89.9761C90.5977 57.1585 91.1016 56.6562 91.1016 56.0366V52.2968Z" fill="#BF83FC"/>
<path d="M82.4728 58.8414C82.4728 58.2218 81.969 57.7195 81.3474 57.7195H79.4716C78.85 57.7195 78.3461 58.2218 78.3461 58.8414V60.7114C78.3461 61.331 78.85 61.8333 79.4716 61.8333H81.3474C81.969 61.8333 82.4728 61.331 82.4728 60.7114V58.8414Z" fill="#BF83FC"/>
<path d="M85.2866 53.6992C85.2866 53.3377 84.9927 53.0447 84.6301 53.0447H81.0661C80.7035 53.0447 80.4095 53.3377 80.4095 53.6992C80.4095 54.0606 80.7035 54.3536 81.0661 54.3536H84.6301C84.9927 54.3536 85.2866 54.0606 85.2866 53.6992Z" fill="#BF83FC"/>
<path d="M98.0421 53.7926C98.0421 53.3796 98.378 53.0447 98.7924 53.0447H101.794C102.208 53.0447 102.544 53.3796 102.544 53.7926C102.544 54.2057 102.208 54.5406 101.794 54.5406H98.7924C98.378 54.5406 98.0421 54.2057 98.0421 53.7926Z" fill="#BF83FC"/>
<path d="M82.848 56.0365C82.848 55.5202 82.4281 55.1016 81.9101 55.1016H77.9709V56.9715H81.9101C82.4281 56.9715 82.848 56.5529 82.848 56.0365Z" fill="#BF83FC"/>
<path d="M80.0343 53.6992C80.0343 53.3377 79.7404 53.0447 79.3778 53.0447H77.9709V54.3536H79.3778C79.7404 54.3536 80.0343 54.0606 80.0343 53.6992Z" fill="#BF83FC"/>
<path d="M85.4741 55.8497C85.4741 55.4366 85.1382 55.1017 84.7238 55.1017H83.9735C83.5591 55.1017 83.2231 55.4366 83.2231 55.8497V56.4106C83.2231 56.8237 83.5591 57.1586 83.9735 57.1586H84.7238C85.1382 57.1586 85.4741 56.8237 85.4741 56.4106V55.8497Z" fill="#BF83FC"/>
<path d="M102.919 53.8861C102.919 53.4214 103.297 53.0447 103.763 53.0447H104.983V54.7276H103.763C103.297 54.7276 102.919 54.3509 102.919 53.8861Z" fill="#BF83FC"/>
<path d="M97.8545 50.0529C97.8545 49.6398 97.5186 49.3049 97.1042 49.3049H94.8245C94.5988 49.3049 94.3783 49.3726 94.1916 49.4991L92.3796 50.7274C92.2255 50.8318 92.1333 51.0055 92.1333 51.1913V51.7358C92.1333 52.0456 92.3852 52.2968 92.696 52.2968H97.1042C97.5186 52.2968 97.8545 51.9619 97.8545 51.5488V50.0529Z" fill="#BF83FC"/>
<path d="M91.1015 58.8414C91.1015 58.2218 90.5976 57.7195 89.9761 57.7195H84.3486C83.727 57.7195 83.2231 58.2218 83.2231 58.8414V60.7114C83.2231 61.331 83.727 61.8333 84.3486 61.8333H89.9761C90.5976 61.8333 91.1015 61.331 91.1015 60.7114V58.8414Z" fill="#BF83FC"/>
<path d="M98.4172 50.0529C98.4172 49.6398 98.7532 49.3049 99.1676 49.3049H104.983V52.2968H99.1676C98.7532 52.2968 98.4172 51.9619 98.4172 51.5488V50.0529Z" fill="#BF83FC"/>
</mask>
<g mask="url(#mask4_2478_19806)">
<path d="M77.9709 37.3374H104.983V50.0528L77.9709 44.8202V37.3374Z" fill="#3B82F6"/>
</g>
<path d="M41.5802 35.0935H141.373C141.373 36.6426 140.117 37.8984 138.568 37.8984H44.3851C42.836 37.8984 41.5802 36.6426 41.5802 35.0935Z" fill="#1D4FD7"/>
<path d="M41.5802 35.0935H141.373V36.5894H41.5802V35.0935Z" fill="#1E3FAE"/>
<rect x="51.522" y="42.9471" width="23.0724" height="22.439" fill="#1D4FD7"/>
<rect x="56.7743" y="45.939" width="12.7555" height="19.4472" fill="#91C3FD"/>
<rect x="59.0253" y="47.4349" width="3.00129" height="17.9512" fill="#BEDBFE"/>
<path d="M59.0253 47.4349H62.0266V52.8577L59.0253 49.3984V47.4349Z" fill="#61A6FA"/>
<path d="M53.3978 48.5569C53.3978 48.1438 53.7338 47.809 54.1482 47.809C54.5625 47.809 54.8985 48.1438 54.8985 48.5569V53.7927C54.8985 54.2058 54.5625 54.5407 54.1482 54.5407C53.7338 54.5407 53.3978 54.2058 53.3978 53.7927V48.5569Z" fill="#DCEBFE"/>
<path d="M71.4055 48.5569C71.4055 48.1438 71.7414 47.809 72.1558 47.809C72.5702 47.809 72.9062 48.1438 72.9062 48.5569V53.7927C72.9062 54.2058 72.5702 54.5407 72.1558 54.5407C71.7414 54.5407 71.4055 54.2058 71.4055 53.7927V48.5569Z" fill="#DCEBFE"/>
</g>
<defs>
<clipPath id="clip0_2478_19806">
<rect width="145" height="69" fill="white" transform="translate(0.5 0.5)"/>
</clipPath>
</defs>
</svg>
