<?xml version="1.0" encoding="UTF-8"?>
<svg width="512px" height="512px" viewBox="0 0 512 512" version="1.1" xmlns="http://www.w3.org/2000/svg" xmlns:xlink="http://www.w3.org/1999/xlink">
    <title>Favicon</title>
    <g id="Favicon" stroke="none" stroke-width="1" fill="none" fill-rule="evenodd">
        <g id="Chargemap-Business">
            <path d="M449.312964,0 L62.6869655,0 C21.2635003,0 0,21.2641315 0,62.6927868 L0,287.346323 L188.70777,287.346323 C200.517436,287.346323 214.046159,303.651068 214.046159,312.840416 L213.579047,423.81326 C217.44149,427.778805 226.640658,430.390707 230.503101,430.390707 C235.733918,430.390707 241.63314,429.037063 245.559408,426.425162 L245.559408,249.365041 C206.16206,241.001205 182.861852,198.219047 182.861852,130.619616 L203.753556,130.619616 L203.753556,80.9752548 C203.753556,76.6400877 207.266016,73.1395507 211.594871,73.1395507 L227.266981,73.1395507 C231.595836,73.1395507 235.107595,76.6400877 235.107595,80.9752548 L235.107595,130.619616 L287.343518,130.619616 L287.343518,80.9752548 C287.343518,76.6400877 290.844756,73.1395507 295.195353,73.1395507 L310.856241,73.1395507 C315.196318,73.1395507 318.697556,76.6400877 318.697556,80.9752548 L318.697556,130.619616 L335.154499,130.619616 C335.154499,195.236822 313.318049,237.141567 276.902926,248.064 L276.902926,427.778805 C276.902926,453.547134 252.710575,461.953753 229.876778,461.530827 C202.607518,461.065118 182.861852,453.906937 182.861852,428.412844 L182.861852,317.809622 L0,318.317414 L0,449.307353 C0,490.746389 21.2635003,512 62.6869655,512 L449.312964,512 C490.73657,512 512,490.746389 512,449.307353 L512,62.6927868 C512,21.2641315 490.73657,0 449.312964,0 Z" id="Path" fill="#3B82F6"></path>
            <path d="M189.066871,287.705425 L0,287.705425 L0,318.658279 L183.209732,318.151189 L183.209732,428.691288 C183.209732,454.169951 202.993271,461.324625 230.314433,461.789633 C253.191715,462.212559 277.429655,453.810849 277.429655,428.057249 L277.429655,248.445545 C313.914214,237.528723 335.792044,195.648526 335.792044,131.068493 L319.304241,131.068493 L319.304241,81.4521863 C319.304241,77.1198247 315.795989,73.6213918 311.448197,73.6213918 L295.757151,73.6213918 C291.398137,73.6213918 287.889885,77.1198247 287.889885,81.4521863 L287.889885,131.068493 L235.555068,131.068493 L235.555068,81.4521863 C235.555068,77.1198247 232.036296,73.6213918 227.699025,73.6213918 L211.997458,73.6213918 C207.660186,73.6213918 204.141414,77.1198247 204.141414,81.4521863 L204.141414,131.068493 L183.209732,131.068493 C183.209732,198.628647 206.554827,241.386258 246.026521,249.745184 L246.026521,426.704307 C242.093238,429.314805 236.182795,430.667047 230.941458,430.667047 C227.072,430.667047 217.855299,428.057249 213.985841,424.093808 L214.453655,313.184088 C214.453655,304.001052 200.898981,287.705425 189.066871,287.705425 Z" id="Path" fill="#FFFFFF" fill-rule="nonzero"></path>
        </g>
    </g>
</svg>