<svg width="20" height="20" viewBox="0 0 20 20" fill="none" xmlns="http://www.w3.org/2000/svg">
<path d="M2.22255 3.36617C2 3.80417 2 4.37476 2 5.51592V10.0353H5.17254C7.13761 10.0353 7.30334 11.0297 7.30334 11.9625V13.9086C7.27601 14.1372 7.30865 14.3689 7.39805 14.581C7.51406 14.7325 7.86446 14.8178 8.38295 14.8178C9.04824 14.8178 9.24238 14.7183 9.35366 14.6118C9.46493 14.5053 9.46493 14.2922 9.46493 13.9513V10.3147C7.93075 10.0329 7.33412 8.51295 7.33412 7.1445V6.1596H8.39716V4.22293H9.44125V6.1596H10.528V4.22293H11.5721V6.1596L12.6517 6.15013V7.13503C12.6517 8.50349 12.0598 10.0235 10.5209 10.3052V13.9489C10.5209 14.3845 10.5209 14.9291 10.1042 15.3457C9.75377 15.6961 9.2116 15.8595 8.39479 15.8595C7.48801 15.8595 6.91033 15.6488 6.57413 15.2013C6.27108 14.7941 6.27109 14.304 6.27109 13.9086V11.9625C6.27109 11.3019 6.27108 11.0794 5.18674 11.0794H2V14.5127C2 15.6538 2 16.2244 2.22255 16.66C2.41854 17.0442 2.73094 17.3566 3.11512 17.5526C3.55075 17.7752 4.12134 17.7752 5.26487 17.7752H14.7351C15.8787 17.7752 16.4492 17.7752 16.8849 17.5526C17.2691 17.3566 17.5815 17.0442 17.7774 16.66C18 16.2244 18 15.6538 18 14.5127V5.51592C18 4.37476 18 3.80417 17.7774 3.36617C17.5807 2.98316 17.2684 2.67173 16.8849 2.47597C16.4493 2.25342 15.8787 2.25342 14.7352 2.25342H5.26487C4.12137 2.25342 3.55075 2.25342 3.11512 2.47597C2.73159 2.67173 2.41934 2.98316 2.22255 3.36617Z" fill="black"/>
</svg>
