<svg width="39" height="39" viewBox="0 0 39 39" fill="none" xmlns="http://www.w3.org/2000/svg">
<path d="M5.62503 17.625C6.6624 18.6624 6.6624 20.3376 5.62503 21.375C4.58765 22.4124 2.91238 22.4124 1.87501 21.375C0.837633 20.3376 0.837633 18.6624 1.87501 17.625C2.91238 16.5876 4.58765 16.5876 5.62503 17.625Z" fill="#F2C488"/>
<path d="M33.375 21.375C32.3376 20.3376 32.3376 18.6624 33.375 17.625C34.4124 16.5876 36.0876 16.5876 37.125 17.625C38.1624 18.6623 38.1624 20.3376 37.125 21.375C36.1005 22.4124 34.4124 22.4124 33.375 21.375Z" fill="#F2C488"/>
<path d="M21.375 5.62501C20.3376 6.66239 18.6624 6.66238 17.625 5.62501C16.5876 4.58763 16.5876 2.91237 17.625 1.87499C18.6624 0.837617 20.3377 0.837615 21.375 1.87499C22.4124 2.91237 22.4124 4.58764 21.375 5.62501Z" fill="#F2C488"/>
<path d="M17.625 33.375C18.6624 32.3376 20.3376 32.3376 21.375 33.375C22.4124 34.4124 22.4124 36.0876 21.375 37.125C20.3377 38.1624 18.6624 38.1624 17.625 37.125C16.5941 36.0941 16.5876 34.4124 17.625 33.375Z" fill="#F2C488"/>
</svg>
