<?xml version="1.0" encoding="UTF-8"?>
<svg width="20px" height="20px" viewBox="0 0 20 20" version="1.1" xmlns="http://www.w3.org/2000/svg" xmlns:xlink="http://www.w3.org/1999/xlink">
    <title>Artboard</title>
    <g id="Artboard" stroke="none" stroke-width="1" fill="none" fill-rule="evenodd">
        <g id="icon-phone" transform="translate(-0.000000, -0.000093)" fill="#8A8684" fill-rule="nonzero">
            <path d="M5.46209222,0 L2.73457911,0 C2.353575,0.000587128168 1.97804577,0.0800503809 1.63069143,0.233486411 C1.28323478,0.386947913 0.971505679,0.61111606 0.715381202,0.891690026 C0.459263479,1.1722579 0.264371295,1.50308557 0.143125206,1.86310245 C0.0218776523,2.22306937 -0.0230852382,2.60439194 0.0111059117,2.98273843 C0.327019398,5.95872151 1.33478371,8.80476682 2.954139,11.3044852 C4.42201105,13.6144939 6.38625495,15.5787378 8.7030447,17.0509848 C11.1843989,18.6601371 14.0166073,19.667659 16.9651111,19.9880735 C17.3612258,20.0239268 17.7435491,19.9786124 18.1043704,19.8566061 C18.4655863,19.7343758 18.7970484,19.5382859 19.0777586,19.2806946 C19.3583498,19.0233494 19.5822322,18.7099139 19.7349334,18.3607262 C19.8875926,18.0116347 19.9656206,17.6345633 19.9641155,17.2535134 L19.9641226,14.52082 C19.9805333,13.8723727 19.7499507,13.2185885 19.3159067,12.7065479 C18.8821941,12.1946001 18.2752208,11.8598149 17.6105646,11.7660953 C16.794961,11.6584276 16.0021416,11.4609305 15.2390411,11.1762292 C14.7515549,10.9928907 14.2192662,10.9530546 13.7075164,11.0622461 L13.5177823,11.1098454 C13.0801465,11.236442 12.6798347,11.4707983 12.3543254,11.7927161 L11.6976654,12.4493192 L11.5884893,12.3806418 C9.98888272,11.3396583 8.62460015,9.97538214 7.58367032,8.37582901 L7.51478101,8.26643482 L8.16805833,7.61354762 C8.53949102,7.23796289 8.79299642,6.76831223 8.90210718,6.25666144 C9.01122509,5.74505495 8.97138796,5.21285812 8.78731774,4.72315801 C8.50333859,3.96212332 8.30583426,3.16928761 8.19934051,2.36182077 C8.1052698,1.69596776 7.77643582,1.09471807 7.27299438,0.661764177 C6.76963202,0.228864618 6.12601298,-0.00626634045 5.46209222,0 Z M2.73578369,1.82423799 L5.47087506,1.82423799 C5.70109884,1.82210735 5.91572732,1.90051677 6.08354437,2.04484208 C6.25136642,2.18916713 6.36097597,2.38958044 6.3919497,2.60872687 C6.51528752,3.54421068 6.74615473,4.47097398 7.0789989,5.3629531 C7.14112524,5.52824135 7.15440421,5.70563936 7.11803173,5.87617412 C7.08165783,6.04674148 6.99716003,6.20328428 6.87455399,6.32726751 L5.71977044,7.48206743 C5.42944444,7.77240258 5.36889787,8.22093681 5.5718522,8.57785869 C6.95139767,11.0039709 8.96027764,13.0128385 11.3864614,14.3924731 C11.7433893,14.5954379 12.1919368,14.5348894 12.4822748,14.2445515 L13.6406401,13.0861862 C13.7610294,12.9671449 13.9175602,12.8826531 14.0879955,12.8463233 C14.2587147,12.8098971 14.436037,12.8231678 14.5991477,12.8845109 C15.4933241,13.2181181 16.4199894,13.4489572 17.3638834,13.5735186 C17.5773457,13.603654 17.7796061,13.7152137 17.9242144,13.8859072 C18.068952,14.0566538 18.1457708,14.2744626 18.1402073,14.4981407 L18.1399253,17.2571159 C18.1404897,17.3878387 18.1144302,17.5135049 18.0635615,17.6298285 C18.0126205,17.7463171 17.9380127,17.850768 17.8445698,17.9364696 C17.7508955,18.022429 17.6403887,18.0878037 17.5198517,18.1285917 C17.3997582,18.1691995 17.2722243,18.1843153 17.1455178,18.1728962 C14.4973149,17.8849607 11.937554,16.9743585 9.68850216,15.5158956 C7.59064937,14.1827303 5.8180251,12.4101061 4.48946379,10.3193914 C3.02157921,8.05342653 2.11076101,5.48116849 1.82650177,2.80433046 C1.81650273,2.69244061 1.83148932,2.5653419 1.87190213,2.44536195 C1.91232428,2.32533619 1.97728298,2.2150694 2.06264961,2.12155329 C2.14803166,2.02802072 2.25193416,1.95330318 2.36774105,1.90215464 C2.48361731,1.85096889 2.60894673,1.82444876 2.73578369,1.82423799 Z" id="Path"></path>
        </g>
    </g>
</svg>