<?xml version="1.0" encoding="UTF-8"?>
<svg width="20px" height="20px" viewBox="0 0 20 20" version="1.1" xmlns="http://www.w3.org/2000/svg" xmlns:xlink="http://www.w3.org/1999/xlink">
    <title>Artboard</title>
    <g id="Artboard" stroke="none" stroke-width="1" fill="none" fill-rule="evenodd">
        <g id="Group" transform="translate(0.000000, 2.000000)" fill="#8A8684" fill-rule="nonzero">
            <path d="M17.2726705,0 L2.72732949,0 C1.22526417,0 7.80543858e-05,1.22518612 7.80543858e-05,2.72725144 L7.80543858e-05,13.6362845 C7.80543858e-05,15.1383498 1.22526417,16.3635359 2.72732949,16.3635359 L17.2726705,16.3635359 C18.7747358,16.3635359 19.9999219,15.1383498 19.9999219,13.6362845 L19.9999219,2.72725144 C19.9999219,1.22518612 18.7747358,0 17.2726705,0 Z M2.72732949,1.81816763 L17.2726705,1.81816763 C17.7705896,1.81816763 18.1817543,2.22933237 18.1817543,2.72725144 L18.1817543,13.6362845 C18.1817543,14.1342035 17.7705896,14.5453683 17.2726705,14.5453683 L2.72732949,14.5453683 C2.22941043,14.5453683 1.81824568,14.1342035 1.81824568,13.6362845 L1.81824568,2.72725144 C1.81824568,2.22933237 2.22941043,1.81816763 2.72732949,1.81816763 Z" id="Path"></path>
            <path d="M18.5695113,1.98250201 C18.980825,1.69458115 19.5476667,1.79461085 19.8355876,2.20592461 C20.1013607,2.58559884 20.0365723,3.09779388 19.7015229,3.40080408 L19.612165,3.47200087 L10.5213268,9.83561483 C10.2430899,10.0303815 9.88299299,10.0520223 9.58656496,9.90053706 L9.47867317,9.83561483 L0.387835033,3.47200087 C-0.0234787185,3.18408001 -0.123508421,2.61723836 0.164412439,2.20592461 C0.430185541,1.82625037 0.933618961,1.71181225 1.33300704,1.92291054 L1.4304887,1.98250201 L10,7.9808468 L18.5695113,1.98250201 Z" id="Path"></path>
        </g>
    </g>
</svg>