<svg width="105" height="74" viewBox="0 0 105 74" fill="none" xmlns="http://www.w3.org/2000/svg">
<mask id="mask0_2478_23853" style="mask-type:alpha" maskUnits="userSpaceOnUse" x="42" y="57" width="20" height="15">
<path d="M42.6309 58.9226C42.6309 57.9545 43.4142 57.1697 44.3804 57.1697H60.2296C61.1959 57.1697 61.9792 57.9545 61.9792 58.9226V69.9559C61.9792 70.924 61.1959 71.7088 60.2296 71.7088H44.3804C43.4142 71.7088 42.6309 70.924 42.6309 69.9559V58.9226Z" fill="#334155"/>
</mask>
<g mask="url(#mask0_2478_23853)">
<path d="M42.6309 57.685C42.6309 57.4003 42.8612 57.1694 43.1454 57.1694H61.4646C61.7488 57.1694 61.9792 57.4003 61.9792 57.685V71.193C61.9792 71.4777 61.7488 71.7086 61.4646 71.7086H43.1454C42.8612 71.7086 42.6309 71.4777 42.6309 71.193V57.685Z" fill="#334155"/>
<path d="M62.3387 69.6463L42.6816 59.2318L63.3164 57.9944L62.3387 69.6463Z" fill="#0F172A"/>
</g>
<path d="M39.4404 5.2C39.4404 3.0929 41.1453 1.38477 43.2483 1.38477H61.4646C63.5677 1.38477 65.2725 3.0929 65.2725 5.2V55.5198C65.2725 57.6269 63.5677 59.3351 61.4646 59.3351H43.2483C41.1453 59.3351 39.4404 57.6269 39.4404 55.5198V5.2Z" fill="#F1F5F9"/>
<path fill-rule="evenodd" clip-rule="evenodd" d="M61.4646 3.65328H43.2483C42.3958 3.65328 41.7046 4.34577 41.7046 5.2V55.5198C41.7046 56.3741 42.3958 57.0665 43.2483 57.0665H61.4646C62.3172 57.0665 63.0084 56.3741 63.0084 55.5198V5.2C63.0084 4.34577 62.3172 3.65328 61.4646 3.65328ZM43.2483 1.38477C41.1453 1.38477 39.4404 3.0929 39.4404 5.2V55.5198C39.4404 57.6269 41.1453 59.3351 43.2483 59.3351H61.4646C63.5677 59.3351 65.2725 57.6269 65.2725 55.5198V5.2C65.2725 3.0929 63.5677 1.38477 61.4646 1.38477H43.2483Z" fill="white"/>
<mask id="mask1_2478_23853" style="mask-type:alpha" maskUnits="userSpaceOnUse" x="40" y="0" width="26" height="61">
<path d="M65.5801 60.0567V0.405029H64.2936L40.2111 60.0567H65.5801Z" fill="black"/>
</mask>
<g mask="url(#mask1_2478_23853)">
<path fill-rule="evenodd" clip-rule="evenodd" d="M43.2483 3.65328H61.4645C62.3171 3.65328 63.0083 4.34577 63.0083 5.2V55.5198C63.0083 56.3741 62.3171 57.0665 61.4645 57.0665H43.2483C42.3957 57.0665 41.7045 56.3741 41.7045 55.5198V5.2C41.7045 4.34577 42.3957 3.65328 43.2483 3.65328ZM61.4645 1.38477C63.5676 1.38477 65.2725 3.0929 65.2725 5.2V55.5198C65.2725 57.6269 63.5676 59.3351 61.4645 59.3351H43.2483C41.1452 59.3351 39.4404 57.6269 39.4404 55.5198V5.2C39.4404 3.0929 41.1452 1.38477 43.2483 1.38477H61.4645Z" fill="#94A3B8"/>
</g>
<path fill-rule="evenodd" clip-rule="evenodd" d="M52.0917 46.0738C52.0604 46.0738 52.0291 46.0676 52.004 46.0613C51.8412 46.024 51.7285 45.8744 51.7285 45.7062V41.015H49.2738C49.1423 41.015 49.0233 40.9464 48.9607 40.8343C48.8918 40.7222 48.8918 40.5851 48.9544 40.4729L52.912 33.1713C52.9934 33.0218 53.1625 32.947 53.3253 32.9906C53.4881 33.028 53.6008 33.1775 53.6008 33.3457V38.0308H56.0555C56.187 38.0308 56.306 38.0993 56.3686 38.2114C56.4375 38.3236 56.4375 38.4606 56.3749 38.5728L52.4173 45.8744C52.3547 45.999 52.2295 46.0738 52.0917 46.0738Z" fill="#3B82F6"/>
<rect x="46.958" y="10.3284" width="10.2816" height="14.6667" rx="5.14081" fill="#334155"/>
<ellipse cx="52.099" cy="15.4298" rx="3.47005" ry="3.44348" fill="#0F172A"/>
<ellipse cx="50.1712" cy="20.914" rx="1.54224" ry="1.53044" fill="#0F172A"/>
<ellipse cx="54.0266" cy="20.914" rx="1.54224" ry="1.53044" fill="#0F172A"/>
<rect x="40.5322" y="68.6152" width="58.5596" height="4.53703" rx="2.26852" fill="black" fill-opacity="0.05"/>
<mask id="mask2_2478_23853" style="mask-type:alpha" maskUnits="userSpaceOnUse" x="81" y="57" width="20" height="15">
<path d="M81.543 58.9226C81.543 57.9545 82.3263 57.1697 83.2926 57.1697H99.1417C100.108 57.1697 100.891 57.9545 100.891 58.9226V69.9559C100.891 70.924 100.108 71.7088 99.1417 71.7088H83.2926C82.3263 71.7088 81.543 70.924 81.543 69.9559V58.9226Z" fill="#334155"/>
</mask>
<g mask="url(#mask2_2478_23853)">
<path d="M81.543 57.685C81.543 57.4003 81.7734 57.1694 82.0576 57.1694H100.377C100.661 57.1694 100.891 57.4003 100.891 57.685V71.193C100.891 71.4777 100.661 71.7086 100.377 71.7086H82.0576C81.7734 71.7086 81.543 71.4777 81.543 71.193V57.685Z" fill="#334155"/>
<path d="M101.251 69.6463L81.5937 59.2318L102.229 57.9944L101.251 69.6463Z" fill="#0F172A"/>
</g>
<path d="M78.3525 5.2C78.3525 3.0929 80.0574 1.38477 82.1605 1.38477H100.377C102.48 1.38477 104.185 3.0929 104.185 5.2V55.5198C104.185 57.6269 102.48 59.3351 100.377 59.3351H82.1605C80.0574 59.3351 78.3525 57.6269 78.3525 55.5198V5.2Z" fill="#F1F5F9"/>
<path fill-rule="evenodd" clip-rule="evenodd" d="M100.377 3.65328H82.1605C81.3079 3.65328 80.6167 4.34577 80.6167 5.2V55.5198C80.6167 56.3741 81.3079 57.0665 82.1605 57.0665H100.377C101.229 57.0665 101.92 56.3741 101.92 55.5198V5.2C101.92 4.34577 101.229 3.65328 100.377 3.65328ZM82.1605 1.38477C80.0574 1.38477 78.3525 3.0929 78.3525 5.2V55.5198C78.3525 57.6269 80.0574 59.3351 82.1605 59.3351H100.377C102.48 59.3351 104.185 57.6269 104.185 55.5198V5.2C104.185 3.0929 102.48 1.38477 100.377 1.38477H82.1605Z" fill="white"/>
<mask id="mask3_2478_23853" style="mask-type:alpha" maskUnits="userSpaceOnUse" x="79" y="0" width="26" height="61">
<path d="M104.492 60.0567V0.405029H103.206L79.1232 60.0567H104.492Z" fill="black"/>
</mask>
<g mask="url(#mask3_2478_23853)">
<path fill-rule="evenodd" clip-rule="evenodd" d="M82.1604 3.65328H100.377C101.229 3.65328 101.92 4.34577 101.92 5.2V55.5198C101.92 56.3741 101.229 57.0665 100.377 57.0665H82.1604C81.3078 57.0665 80.6166 56.3741 80.6166 55.5198V5.2C80.6166 4.34577 81.3078 3.65328 82.1604 3.65328ZM100.377 1.38477C102.48 1.38477 104.185 3.0929 104.185 5.2V55.5198C104.185 57.6269 102.48 59.3351 100.377 59.3351H82.1604C80.0573 59.3351 78.3525 57.6269 78.3525 55.5198V5.2C78.3525 3.0929 80.0573 1.38477 82.1604 1.38477H100.377Z" fill="#94A3B8"/>
</g>
<path fill-rule="evenodd" clip-rule="evenodd" d="M91.0038 46.0738C90.9725 46.0738 90.9412 46.0676 90.9161 46.0613C90.7533 46.024 90.6406 45.8744 90.6406 45.7062V41.015H88.1859C88.0544 41.015 87.9354 40.9464 87.8728 40.8343C87.8039 40.7222 87.8039 40.5851 87.8665 40.4729L91.8241 33.1713C91.9055 33.0218 92.0746 32.947 92.2374 32.9906C92.4002 33.028 92.5129 33.1775 92.5129 33.3457V38.0308H94.9677C95.0992 38.0308 95.2181 38.0993 95.2808 38.2114C95.3496 38.3236 95.3496 38.4606 95.287 38.5728L91.3294 45.8744C91.2668 45.999 91.1416 46.0738 91.0038 46.0738Z" fill="#3B82F6"/>
<rect x="85.8701" y="10.3284" width="10.2816" height="14.6667" rx="5.14081" fill="#334155"/>
<ellipse cx="91.0111" cy="15.4298" rx="3.47005" ry="3.44348" fill="#0F172A"/>
<ellipse cx="89.0833" cy="20.914" rx="1.54224" ry="1.53044" fill="#0F172A"/>
<ellipse cx="92.9387" cy="20.914" rx="1.54224" ry="1.53044" fill="#0F172A"/>
<mask id="mask4_2478_23853" style="mask-type:alpha" maskUnits="userSpaceOnUse" x="3" y="57" width="21" height="15">
<path d="M3.71875 58.9226C3.71875 57.9545 4.50207 57.1697 5.46833 57.1697H21.3175C22.2838 57.1697 23.0671 57.9545 23.0671 58.9226V69.9559C23.0671 70.924 22.2838 71.7088 21.3175 71.7088H5.46833C4.50207 71.7088 3.71875 70.924 3.71875 69.9559V58.9226Z" fill="#334155"/>
</mask>
<g mask="url(#mask4_2478_23853)">
<path d="M3.71875 57.685C3.71875 57.4003 3.94914 57.1694 4.23333 57.1694H22.5525C22.8367 57.1694 23.0671 57.4003 23.0671 57.685V71.193C23.0671 71.4777 22.8367 71.7086 22.5525 71.7086H4.23333C3.94914 71.7086 3.71875 71.4777 3.71875 71.193V57.685Z" fill="#334155"/>
<path d="M23.4266 69.6463L3.7695 59.2318L24.4043 57.9944L23.4266 69.6463Z" fill="#0F172A"/>
</g>
<path d="M0.52832 5.2C0.52832 3.0929 2.23318 1.38477 4.33624 1.38477H22.5525C24.6555 1.38477 26.3604 3.0929 26.3604 5.2V55.5198C26.3604 57.6269 24.6555 59.3351 22.5525 59.3351H4.33624C2.23318 59.3351 0.52832 57.6269 0.52832 55.5198V5.2Z" fill="#F1F5F9"/>
<path fill-rule="evenodd" clip-rule="evenodd" d="M22.5525 3.65328H4.33624C3.48365 3.65328 2.79249 4.34577 2.79249 5.2V55.5198C2.79249 56.3741 3.48365 57.0665 4.33624 57.0665H22.5525C23.4051 57.0665 24.0962 56.3741 24.0962 55.5198V5.2C24.0962 4.34577 23.4051 3.65328 22.5525 3.65328ZM4.33624 1.38477C2.23318 1.38477 0.52832 3.0929 0.52832 5.2V55.5198C0.52832 57.6269 2.23318 59.3351 4.33624 59.3351H22.5525C24.6555 59.3351 26.3604 57.6269 26.3604 55.5198V5.2C26.3604 3.0929 24.6555 1.38477 22.5525 1.38477H4.33624Z" fill="white"/>
<mask id="mask5_2478_23853" style="mask-type:alpha" maskUnits="userSpaceOnUse" x="1" y="0" width="26" height="61">
<path d="M26.668 60.0567V0.405029H25.3815L1.29901 60.0567H26.668Z" fill="black"/>
</mask>
<g mask="url(#mask5_2478_23853)">
<path fill-rule="evenodd" clip-rule="evenodd" d="M4.33618 3.65328H22.5524C23.405 3.65328 24.0962 4.34577 24.0962 5.2V55.5198C24.0962 56.3741 23.405 57.0665 22.5524 57.0665H4.33618C3.48359 57.0665 2.79243 56.3741 2.79243 55.5198V5.2C2.79243 4.34577 3.48359 3.65328 4.33618 3.65328ZM22.5524 1.38477C24.6555 1.38477 26.3604 3.0929 26.3604 5.2V55.5198C26.3604 57.6269 24.6555 59.3351 22.5524 59.3351H4.33618C2.23313 59.3351 0.528265 57.6269 0.528265 55.5198V5.2C0.528265 3.0929 2.23313 1.38477 4.33618 1.38477H22.5524Z" fill="#94A3B8"/>
</g>
<path fill-rule="evenodd" clip-rule="evenodd" d="M13.1796 46.0738C13.1483 46.0738 13.117 46.0676 13.0919 46.0613C12.9291 46.024 12.8164 45.8744 12.8164 45.7062V41.015H10.3617C10.2302 41.015 10.1112 40.9464 10.0486 40.8343C9.97968 40.7222 9.97968 40.5851 10.0423 40.4729L13.9999 33.1713C14.0813 33.0218 14.2504 32.947 14.4132 32.9906C14.576 33.028 14.6887 33.1775 14.6887 33.3457V38.0308H17.1434C17.2749 38.0308 17.3939 38.0993 17.4565 38.2114C17.5254 38.3236 17.5254 38.4606 17.4628 38.5728L13.5052 45.8744C13.4426 45.999 13.3173 46.0738 13.1796 46.0738Z" fill="#3B82F6"/>
<rect x="8.0459" y="10.3284" width="10.2816" height="14.6667" rx="5.14081" fill="#334155"/>
<ellipse cx="13.1868" cy="15.4298" rx="3.47005" ry="3.44348" fill="#0F172A"/>
<ellipse cx="11.259" cy="20.914" rx="1.54224" ry="1.53044" fill="#0F172A"/>
<ellipse cx="15.1145" cy="20.914" rx="1.54224" ry="1.53044" fill="#0F172A"/>
<rect x="1.62012" y="68.6152" width="58.5596" height="4.53703" rx="2.26852" fill="black" fill-opacity="0.05"/>
</svg>
