<?xml version="1.0" encoding="utf-8"?>
<!-- Generator: Adobe Illustrator 25.3.0, SVG Export Plug-In . SVG Version: 6.00 Build 0)  -->
<svg version="1.1" id="Calque_1" xmlns="http://www.w3.org/2000/svg" xmlns:xlink="http://www.w3.org/1999/xlink" x="0px" y="0px"
	 viewBox="0 0 272.48 60.2" style="enable-background:new 0 0 272.48 60.2;" xml:space="preserve">
<style type="text/css">
	.st0{fill:#0F1729;}
	.st1{fill:#3B82F6;}
	.st2{fill:#FFFFFF;}
</style>
<path class="st0" d="M93.65,24.79c0,3.52-3.38,5.28-10.15,5.28s-10.15-1.76-10.15-5.28V5.31c0-3.52,3.38-5.28,10.15-5.28
	c6.77,0,10.15,1.76,10.15,5.28v3.23h-6.09V7.38c0-1.62-1.35-2.43-4.06-2.43c-2.71,0-4.06,0.81-4.06,2.43v15.75
	c0,1.39,1.35,2.03,4.06,2.03s4.06-0.69,4.06-2.03v-1.59h6.09V24.79z"/>
<path class="st0" d="M96.3,0.41h6.09V9.5c1.76-1.57,2.29-1.39,5.59-1.39c4.56,0,7,1.78,7,5.3v16.24h-6.5V15.04
	c0-1.39-0.95-2.03-2.85-2.03c-2.17,0-3.25,0.69-3.25,2.03v14.61H96.3V0.41z"/>
<path class="st0" d="M126.85,8.15c-5.31,0-8.38,1.63-8.6,4.9l6.09,1.74c0.12-1.18,1.11-1.77,2.77-1.77c1.83,0,3.08,0.69,3.08,2.03
	c0,1.18-1.94,1.54-3.7,1.54c-5.68,0-8.88,1.81-8.88,5.44v2.77c0,3.52,2.26,5.07,6.75,5.15c3.82,0.07,4.15,0.1,5.83-1.34
	c0,0.57,0.54,1.07,1.62,1.07h4.45V13.42C136.31,9.9,132.32,8.15,126.85,8.15z M130.23,23.38c0,1.47-1.65,2.17-3.52,2.17
	c-1.88,0-2.97-0.33-2.97-2.11v-0.45c0-1.61,1.34-2.14,2.96-2.35c1.19-0.21,1.71,0,3.54-0.39V23.38z"/>
<path class="st0" d="M241.08,8.15c-5.32,0-8.38,1.63-8.6,4.9l6.08,1.74c0.12-1.18,1.11-1.77,2.77-1.77c1.83,0,3.09,0.69,3.09,2.03
	c0,1.18-1.94,1.54-3.7,1.54c-5.69,0-8.89,1.81-8.89,5.44v2.77c0,3.52,2.27,5.07,6.76,5.15c3.81,0.07,4.15,0.1,5.83-1.34
	c0,0.57,0.54,1.07,1.62,1.07h4.47V13.42C250.51,9.9,246.55,8.15,241.08,8.15z M244.46,23.38c0,1.47-1.66,2.17-3.52,2.17
	c-1.87,0-2.97-0.33-2.97-2.11v-0.45c0-1.61,1.33-2.14,2.96-2.35c1.19-0.21,1.71,0,3.54-0.39V23.38z"/>
<path class="st0" d="M169.92,8.48v1.05c-1.64-1.27-1.38-1.48-6.28-1.38c-4.2,0.11-6.3,1.76-6.3,5.28v11.37
	c0,3.52,2.08,5.19,6.3,5.28c4.36,0.08,4.56,0.12,6.28-1.35v0.85v0.93c0,1.22-0.87,2.01-3.25,2.01c-2.33,0.07-4.67-0.07-6.98-0.43
	v4.69c0,0,1.15,0.46,6.59,0.46c7.29,0,9.7-2.4,9.7-5.28V8.42L169.92,8.48z M169.92,23.2c0,1.38-1.08,2.03-3.25,2.03
	c-2.17,0-3.25-0.69-3.25-2.03v-8.12c0-1.39,1.08-2.03,3.25-2.03c2.17,0,3.25,0.69,3.25,2.03V23.2z"/>
<path class="st0" d="M200.87,8.46h6.09V9.5c1.5-1.21,1.6-1.38,4.76-1.38s4.23,0.12,5.71,1.38c1.89-1.55,1.89-1.38,6.54-1.38
	c3.65,0,5.47,1.76,5.47,5.28v16.24h-6.09v-14.2c0-1.63-0.87-2.44-2.6-2.44c-1.73,0.01-2.6,0.82-2.6,2.44v14.2h-5.93v-14.2
	c0-1.63-0.88-2.44-2.64-2.44c-1.76,0.01-2.64,0.82-2.64,2.44v14.2h-6.09V8.46z"/>
<path class="st0" d="M259.9,8.37v1.12c1.94-1.56,2.15-1.35,6.3-1.32c4.14,0.04,6.29,1.73,6.29,5.25v11.42c0,3.52-2.08,5.2-6.29,5.28
	c-4.41,0.08-4.62,0.1-6.3-1.39v8.55h-6.1V8.37H259.9z M263.15,25.24c2.16,0,3.25-0.81,3.25-2.43v-7.36c0-1.63-1.09-2.44-3.25-2.44
	c-2.16,0-3.25,0.81-3.25,2.44v7.36C259.9,24.43,260.98,25.24,263.15,25.24z"/>
<path class="st0" d="M191.39,23.41c-0.12,1.19-0.92,1.79-2.96,1.79c-2.16,0-3.25-0.69-3.25-2.03v-2.03h12.59v-7.72
	c0-3.52-3.11-5.28-9.34-5.28c-6.23,0-9.34,1.76-9.34,5.28v11.37c0,3.52,3.11,5.28,9.34,5.28c6,0,8.84-1.64,9.05-4.92L191.39,23.41z
	 M185.15,15.05c0-1.38,1.09-2.03,3.25-2.03c2.16,0,3.25,0.69,3.25,2.03v2.03h-6.5V15.05z"/>
<path class="st0" d="M149.86,15.6l6.09-1.75v-0.43c0-3.52-1.73-5.21-5.19-5.3c-3.46-0.08-3.68,0.09-5.2,1.38V8.48h-6.09v21.18h6.09
	V15.05c0-1.38,0.69-2.03,2.15-2.03s2.15,0.69,2.15,2.03V15.6z"/>
<path class="st1" d="M73.83,59.82h9.59c2.55,0,4.53-0.61,5.96-1.83c0.73-0.64,1.3-1.43,1.68-2.32c0.38-0.89,0.55-1.85,0.5-2.82
	c0.01-1.01-0.21-2.01-0.62-2.94c-0.46-0.98-1.2-1.8-2.13-2.35c0.6-0.52,1.07-1.17,1.38-1.9c0.31-0.69,0.46-1.44,0.46-2.2
	c0.05-0.88-0.1-1.75-0.44-2.57c-0.33-0.81-0.84-1.54-1.49-2.13c-1.48-1.21-3.37-1.83-5.29-1.71h-9.6V59.82z M77.99,45.89v-5.31h5.65
	c0.76-0.05,1.5,0.2,2.08,0.69c0.26,0.24,0.46,0.54,0.59,0.87c0.13,0.33,0.19,0.68,0.18,1.03c0.01,0.36-0.05,0.72-0.18,1.05
	c-0.13,0.34-0.33,0.64-0.58,0.9c-0.28,0.25-0.61,0.45-0.96,0.58c-0.36,0.13-0.73,0.18-1.11,0.16L77.99,45.89z M77.99,56.15v-6.63
	h5.87c0.47-0.03,0.93,0.04,1.37,0.2s0.84,0.4,1.19,0.71c0.33,0.31,0.59,0.68,0.76,1.1c0.17,0.42,0.25,0.87,0.23,1.32
	c0.02,0.45-0.06,0.9-0.23,1.31c-0.17,0.42-0.43,0.79-0.76,1.1c-0.7,0.62-1.62,0.94-2.56,0.89H77.99z"/>
<path class="st1" d="M100.09,60.19c0.96,0.02,1.9-0.18,2.77-0.58c0.8-0.39,1.46-1.01,1.92-1.77v1.99h3.76V43.2h-4v9.74
	c0.02,0.48-0.05,0.96-0.21,1.41c-0.16,0.45-0.41,0.87-0.74,1.22c-0.66,0.6-1.53,0.93-2.42,0.93c-0.9,0-1.76-0.33-2.42-0.93
	c-0.31-0.34-0.55-0.74-0.71-1.18c-0.16-0.44-0.23-0.9-0.2-1.36V43.2h-4v10.17c-0.08,1.8,0.5,3.56,1.65,4.95
	c0.59,0.63,1.31,1.12,2.1,1.44C98.37,60.09,99.23,60.24,100.09,60.19z"/>
<path class="st1" d="M118.14,60.19c1.13,0.03,2.26-0.19,3.3-0.64c0.88-0.38,1.64-0.99,2.2-1.77c0.54-0.78,0.83-1.7,0.82-2.65
	c0.02-1.1-0.37-2.17-1.1-2.99c-0.86-0.91-1.96-1.55-3.18-1.83l-2.66-0.79c-0.49-0.14-0.96-0.35-1.39-0.64
	c-0.18-0.12-0.32-0.29-0.42-0.48c-0.1-0.19-0.14-0.41-0.13-0.62c-0.01-0.23,0.05-0.46,0.15-0.67c0.1-0.21,0.25-0.39,0.44-0.52
	c0.46-0.33,1.02-0.49,1.59-0.46c0.81-0.01,1.6,0.24,2.27,0.69c0.67,0.42,1.17,1.05,1.43,1.8l3.05-1.43
	c-0.48-1.31-1.38-2.42-2.56-3.15c-1.24-0.78-2.69-1.18-4.15-1.16c-1.11-0.02-2.2,0.2-3.21,0.64c-0.87,0.4-1.62,1.02-2.17,1.81
	c-0.52,0.79-0.78,1.72-0.76,2.66c-0.02,1.07,0.35,2.11,1.04,2.93c0.87,0.92,1.99,1.57,3.21,1.87l2.71,0.76
	c0.49,0.12,0.94,0.34,1.34,0.64c0.18,0.12,0.33,0.28,0.44,0.47c0.1,0.19,0.15,0.41,0.15,0.62c0.01,0.26-0.05,0.52-0.18,0.75
	c-0.12,0.23-0.3,0.43-0.52,0.57c-0.51,0.33-1.11,0.49-1.71,0.46c-0.91,0.01-1.79-0.27-2.54-0.79c-0.78-0.57-1.4-1.32-1.8-2.2
	l-3,1.43c0.48,1.41,1.43,2.62,2.69,3.42C114.88,59.78,116.5,60.23,118.14,60.19z"/>
<path class="st1" d="M127.05,41.33h4v-4.27h-4V41.33z M127.05,59.82h4V43.2h-4V59.82z"/>
<path class="st1" d="M134.29,59.82h4.02v-9.75c-0.04-0.94,0.28-1.86,0.9-2.57c0.32-0.32,0.7-0.58,1.12-0.75
	c0.42-0.17,0.87-0.25,1.33-0.23c0.45-0.02,0.9,0.06,1.31,0.23c0.42,0.17,0.79,0.42,1.1,0.75c0.33,0.35,0.58,0.75,0.74,1.2
	c0.16,0.45,0.23,0.92,0.21,1.4v9.75h4V49.13c0.03-1.14-0.25-2.27-0.8-3.28c-0.51-0.94-1.29-1.72-2.23-2.23
	c-0.99-0.54-2.11-0.81-3.23-0.79c-0.97-0.02-1.93,0.19-2.81,0.61c-0.8,0.4-1.46,1.02-1.9,1.8v-2.08h-3.76V59.82z"/>
<path class="st1" d="M159.83,60.19c1.55,0.03,3.08-0.36,4.43-1.13c1.19-0.67,2.13-1.7,2.69-2.94l-3.24-1.59
	c-0.37,0.64-0.9,1.17-1.52,1.56c-0.71,0.4-1.51,0.6-2.32,0.57c-1.12,0.04-2.21-0.35-3.04-1.11c-0.83-0.75-1.33-1.8-1.39-2.92h11.97
	c0.09-0.24,0.14-0.5,0.15-0.76c0.04-0.31,0.06-0.61,0.06-0.92c0.02-1.41-0.31-2.81-0.95-4.07c-0.63-1.22-1.59-2.23-2.77-2.93
	c-1.32-0.74-2.8-1.13-4.31-1.13s-2.99,0.39-4.31,1.13c-1.24,0.75-2.26,1.82-2.96,3.09c-0.73,1.36-1.1,2.88-1.07,4.42
	c-0.02,1.53,0.35,3.05,1.07,4.4c0.69,1.3,1.73,2.39,3,3.15C156.68,59.83,158.25,60.23,159.83,60.19z M159.53,46.13
	c0.97-0.03,1.91,0.32,2.62,0.98c0.35,0.31,0.64,0.69,0.85,1.12c0.2,0.43,0.32,0.89,0.35,1.36h-7.82c0.15-0.98,0.64-1.88,1.38-2.53
	c0.73-0.62,1.66-0.96,2.62-0.93V46.13z"/>
<path class="st1" d="M176.52,60.19c1.14,0.03,2.26-0.19,3.3-0.64c0.88-0.38,1.64-0.99,2.2-1.77c0.53-0.78,0.8-1.71,0.79-2.66
	c0.02-1.1-0.37-2.16-1.09-2.99c-0.86-0.91-1.96-1.55-3.18-1.84l-2.66-0.79c-0.49-0.14-0.96-0.35-1.39-0.65
	c-0.18-0.12-0.32-0.29-0.42-0.48c-0.1-0.19-0.14-0.41-0.14-0.62c-0.01-0.23,0.04-0.46,0.14-0.67c0.1-0.21,0.25-0.39,0.44-0.52
	c0.46-0.33,1.03-0.49,1.59-0.46c0.81,0,1.59,0.24,2.26,0.69c0.67,0.42,1.18,1.06,1.44,1.8l3.05-1.43c-0.48-1.31-1.38-2.42-2.57-3.15
	c-1.24-0.78-2.69-1.18-4.15-1.16c-1.1-0.02-2.2,0.2-3.21,0.64c-0.88,0.39-1.62,1.02-2.17,1.81c-0.52,0.79-0.79,1.71-0.77,2.66
	c-0.02,1.08,0.36,2.14,1.07,2.96c0.87,0.92,1.98,1.57,3.21,1.87l2.72,0.76c0.49,0.12,0.94,0.34,1.34,0.64
	c0.18,0.12,0.33,0.28,0.44,0.47s0.15,0.41,0.15,0.62c0,0.26-0.06,0.52-0.18,0.75c-0.12,0.23-0.3,0.43-0.51,0.57
	c-0.51,0.33-1.11,0.49-1.72,0.46c-0.91,0.01-1.79-0.27-2.54-0.79c-0.78-0.57-1.4-1.33-1.8-2.2l-2.99,1.43
	c0.48,1.42,1.42,2.62,2.69,3.42C173.27,59.79,174.89,60.24,176.52,60.19z"/>
<path class="st1" d="M191.77,60.19c1.13,0.03,2.26-0.19,3.3-0.64c0.88-0.38,1.64-0.99,2.2-1.77c0.53-0.78,0.81-1.71,0.8-2.66
	c0.02-1.1-0.37-2.17-1.1-2.99c-0.86-0.91-1.96-1.55-3.18-1.84l-2.66-0.79c-0.49-0.14-0.96-0.35-1.38-0.65
	c-0.18-0.12-0.32-0.29-0.42-0.48c-0.1-0.19-0.14-0.41-0.13-0.62c-0.01-0.23,0.04-0.46,0.15-0.67c0.1-0.21,0.25-0.39,0.44-0.52
	c0.46-0.33,1.02-0.49,1.59-0.46c0.81,0,1.59,0.24,2.26,0.69c0.67,0.42,1.18,1.05,1.44,1.8l3.05-1.43c-0.48-1.31-1.39-2.42-2.57-3.15
	c-1.24-0.78-2.69-1.18-4.15-1.16c-1.1-0.02-2.2,0.2-3.21,0.64c-0.87,0.39-1.62,1.02-2.17,1.81c-0.52,0.79-0.79,1.71-0.76,2.66
	c-0.02,1.08,0.36,2.14,1.07,2.96c0.87,0.92,1.98,1.57,3.21,1.87l2.72,0.76c0.49,0.12,0.94,0.34,1.34,0.64
	c0.18,0.12,0.33,0.28,0.44,0.47c0.1,0.19,0.15,0.41,0.15,0.62c0,0.26-0.06,0.52-0.18,0.75c-0.12,0.23-0.3,0.43-0.52,0.57
	c-0.51,0.33-1.11,0.49-1.71,0.46c-0.91,0.01-1.79-0.26-2.54-0.79c-0.78-0.57-1.4-1.33-1.81-2.2l-2.99,1.43
	c0.48,1.42,1.43,2.62,2.69,3.42C188.51,59.79,190.13,60.23,191.77,60.19z"/>
<path class="st1" d="M0,12.6c0-4.4,0-6.59,0.84-8.28c0.74-1.49,1.93-2.7,3.4-3.46C5.91,0,8.09,0,12.44,0h36.14
	c4.36,0,6.53,0,8.19,0.86c1.47,0.76,2.66,1.98,3.4,3.46c0.85,1.68,0.85,3.88,0.85,8.28v34.63c0,4.4,0,6.59-0.85,8.28
	c-0.74,1.49-1.93,2.7-3.4,3.46c-1.66,0.85-3.84,0.85-8.19,0.85H12.44c-4.36,0-6.54,0-8.2-0.85c-1.47-0.77-2.66-1.98-3.4-3.46
	C0,53.82,0,51.62,0,47.23V12.6z"/>
<path class="st2" d="M36.6,15.07V7.61h-4.06v7.46h-4.07V7.61h-4.06v7.46h-4.08v3.79c0,5.26,2.27,11.12,8.15,12.22v13.75
	c0,1.31,0,2.29-0.4,2.69c-0.29,0.3-1.16,0.8-3.7,0.8c-1.98,0-3.25-0.33-3.69-0.92c-0.44-0.6-0.37-1.48-0.37-2.56V37.4
	c0-3.58-0.63-7.41-8.12-7.41H0.01v4.1h12.15c4.15,0,4.15,0.78,4.15,3.32v7.42c0,1.52,0,3.46,1.17,5.05
	c1.27,1.72,3.46,2.53,6.93,2.53c3.12,0,5.19-0.62,6.52-1.97c1.59-1.61,1.65-3.93,1.64-5.61V31.07c5.87-1.09,8.15-6.92,8.15-12.22
	v-3.79H36.6z"/>
</svg>
