<?xml version="1.0" encoding="utf-8"?>
<svg width="235" height="56" viewBox="0 0 235 56" fill="none" xmlns="http://www.w3.org/2000/svg">
<path d="M67.8945 54.3963H76.6291C78.9472 54.3963 80.7553 53.8399 82.0534 52.7272C83.3701 51.596 84.0284 50.0383 84.0284 48.054C84.0284 47.1082 83.8429 46.2181 83.472 45.3836C83.1012 44.549 82.4521 43.8351 81.5249 43.2416C82.0997 42.7224 82.517 42.1475 82.7766 41.517C83.0548 40.8865 83.1939 40.2189 83.1939 39.5142C83.1939 37.6968 82.6097 36.2689 81.4414 35.2304C80.2731 34.1919 78.669 33.6726 76.6291 33.6726H67.8945V54.3963ZM71.6776 41.7117V36.8994H76.8238C77.6027 36.8994 78.2239 37.1126 78.6875 37.5392C79.1511 37.9657 79.3829 38.5406 79.3829 39.2638C79.3829 39.9871 79.1511 40.5805 78.6875 41.0441C78.2239 41.4892 77.6027 41.7117 76.8238 41.7117H71.6776ZM71.6776 51.0582V45.0219H77.0185C78.0014 45.0219 78.7802 45.3001 79.3551 45.8564C79.9486 46.3942 80.2453 47.1268 80.2453 48.054C80.2453 48.9627 79.9486 49.6952 79.3551 50.2515C78.7802 50.7893 78.0014 51.0582 77.0185 51.0582H71.6776Z" fill="#3B82F6"/>
<path d="M91.8006 54.7301C92.7464 54.7301 93.5809 54.5539 94.3042 54.2015C95.0459 53.8306 95.6301 53.2928 96.0566 52.5882V54.3963H99.5059V39.2638H95.8619V48.1374C95.8619 49.1388 95.5745 49.9363 94.9996 50.5297C94.4247 51.1046 93.6922 51.392 92.802 51.392C91.8934 51.392 91.1516 51.1046 90.5767 50.5297C90.0203 49.9548 89.7422 49.1852 89.7422 48.2209V39.2638H86.0981V48.5269C86.0981 50.3813 86.5989 51.8835 87.6003 53.0332C88.6202 54.1644 90.0203 54.7301 91.8006 54.7301Z" fill="#3B82F6"/>
<path d="M108.234 54.7301C109.384 54.7301 110.385 54.5353 111.238 54.1459C112.091 53.7565 112.759 53.2187 113.241 52.5325C113.723 51.8278 113.964 51.0211 113.964 50.1124C113.964 49.0554 113.631 48.1467 112.963 47.3864C112.295 46.626 111.331 46.0697 110.07 45.7174L107.65 44.9941C107.131 44.8458 106.704 44.651 106.37 44.41C106.037 44.1689 105.87 43.8351 105.87 43.4086C105.87 42.9635 106.046 42.6019 106.398 42.3237C106.751 42.0455 107.233 41.9064 107.845 41.9064C108.605 41.9064 109.291 42.1104 109.903 42.5184C110.534 42.9264 110.97 43.4735 111.211 44.1596L113.992 42.8522C113.529 41.6283 112.75 40.6732 111.656 39.9871C110.562 39.2824 109.3 38.93 107.873 38.93C106.778 38.93 105.805 39.1247 104.952 39.5142C104.117 39.9036 103.459 40.4507 102.977 41.1554C102.513 41.8415 102.281 42.6482 102.281 43.5755C102.281 44.614 102.606 45.5134 103.255 46.2737C103.923 47.034 104.896 47.5996 106.176 47.9705L108.651 48.666C109.134 48.7958 109.542 48.9905 109.875 49.2501C110.228 49.4912 110.404 49.825 110.404 50.2515C110.404 50.7522 110.2 51.1509 109.792 51.4477C109.402 51.7258 108.883 51.8649 108.234 51.8649C107.381 51.8649 106.612 51.6238 105.925 51.1417C105.239 50.6595 104.692 49.9919 104.284 49.1388L101.558 50.4462C102.003 51.7444 102.819 52.7829 104.006 53.5617C105.211 54.3406 106.621 54.7301 108.234 54.7301Z" fill="#3B82F6"/>
<path d="M116.348 37.567H119.992V33.6726H116.348V37.567ZM116.348 54.3963H119.992V39.2638H116.348V54.3963Z" fill="#3B82F6"/>
<path d="M122.939 54.3963H126.583V45.5226C126.583 44.5398 126.861 43.7516 127.417 43.1582C127.992 42.5648 128.734 42.2681 129.643 42.2681C130.552 42.2681 131.284 42.5648 131.84 43.1582C132.415 43.7331 132.703 44.5212 132.703 45.5226V54.3963H136.347V44.6603C136.347 43.5291 136.106 42.537 135.623 41.6839C135.141 40.8123 134.464 40.1354 133.593 39.6533C132.74 39.1711 131.757 38.93 130.644 38.93C129.698 38.93 128.845 39.1155 128.085 39.4864C127.343 39.8572 126.768 40.4043 126.36 41.1276V39.2638H122.939V54.3963Z" fill="#3B82F6"/>
<path d="M146.188 54.7301C147.727 54.7301 149.071 54.387 150.221 53.7008C151.389 52.9961 152.205 52.106 152.669 51.0304L149.72 49.5839C149.387 50.1588 148.923 50.6317 148.33 51.0026C147.755 51.3549 147.05 51.5311 146.215 51.5311C145.121 51.5311 144.203 51.1973 143.462 50.5297C142.72 49.8621 142.293 48.9719 142.182 47.8593H153.086C153.16 47.6553 153.207 47.4235 153.225 47.1638C153.262 46.8857 153.281 46.6075 153.281 46.3293C153.281 44.9756 152.994 43.7424 152.419 42.6297C151.844 41.517 151.009 40.6269 149.915 39.9592C148.821 39.2731 147.486 38.93 145.909 38.93C144.5 38.93 143.22 39.2731 142.071 39.9592C140.939 40.6454 140.04 41.5819 139.372 42.7688C138.723 43.9371 138.399 45.2816 138.399 46.8022C138.399 48.2672 138.723 49.6025 139.372 50.8079C140.022 52.0133 140.93 52.9683 142.099 53.673C143.267 54.3777 144.63 54.7301 146.188 54.7301ZM145.909 41.9343C146.874 41.9343 147.671 42.231 148.302 42.8244C148.951 43.3993 149.312 44.1503 149.387 45.0776H142.265C142.469 44.0762 142.896 43.3066 143.545 42.7688C144.213 42.2124 145.001 41.9343 145.909 41.9343Z" fill="#3B82F6"/>
<path d="M161.384 54.7301C162.534 54.7301 163.535 54.5353 164.388 54.1459C165.241 53.7565 165.909 53.2187 166.391 52.5325C166.873 51.8278 167.114 51.0211 167.114 50.1124C167.114 49.0554 166.781 48.1467 166.113 47.3864C165.445 46.626 164.481 46.0697 163.22 45.7174L160.8 44.9941C160.281 44.8458 159.854 44.651 159.52 44.41C159.187 44.1689 159.02 43.8351 159.02 43.4086C159.02 42.9635 159.196 42.6019 159.548 42.3237C159.901 42.0455 160.383 41.9064 160.995 41.9064C161.755 41.9064 162.441 42.1104 163.053 42.5184C163.684 42.9264 164.12 43.4735 164.361 44.1596L167.142 42.8522C166.679 41.6283 165.9 40.6732 164.806 39.9871C163.712 39.2824 162.451 38.93 161.023 38.93C159.928 38.93 158.955 39.1247 158.102 39.5142C157.267 39.9036 156.609 40.4507 156.127 41.1554C155.663 41.8415 155.431 42.6482 155.431 43.5755C155.431 44.614 155.756 45.5134 156.405 46.2737C157.073 47.034 158.046 47.5996 159.326 47.9705L161.801 48.666C162.284 48.7958 162.692 48.9905 163.025 49.2501C163.378 49.4912 163.554 49.825 163.554 50.2515C163.554 50.7522 163.35 51.1509 162.942 51.4477C162.552 51.7258 162.033 51.8649 161.384 51.8649C160.531 51.8649 159.762 51.6238 159.075 51.1417C158.389 50.6595 157.842 49.9919 157.434 49.1388L154.708 50.4462C155.153 51.7444 155.969 52.7829 157.156 53.5617C158.361 54.3406 159.771 54.7301 161.384 54.7301Z" fill="#3B82F6"/>
<path d="M175.256 54.7301C176.406 54.7301 177.407 54.5353 178.26 54.1459C179.113 53.7565 179.781 53.2187 180.263 52.5325C180.745 51.8278 180.986 51.0211 180.986 50.1124C180.986 49.0554 180.652 48.1467 179.985 47.3864C179.317 46.626 178.353 46.0697 177.092 45.7174L174.672 44.9941C174.152 44.8458 173.726 44.651 173.392 44.41C173.058 44.1689 172.891 43.8351 172.891 43.4086C172.891 42.9635 173.067 42.6019 173.42 42.3237C173.772 42.0455 174.254 41.9064 174.866 41.9064C175.627 41.9064 176.313 42.1104 176.925 42.5184C177.555 42.9264 177.991 43.4735 178.232 44.1596L181.014 42.8522C180.55 41.6283 179.771 40.6732 178.677 39.9871C177.583 39.2824 176.322 38.93 174.894 38.93C173.8 38.93 172.826 39.1247 171.973 39.5142C171.139 39.9036 170.48 40.4507 169.998 41.1554C169.535 41.8415 169.303 42.6482 169.303 43.5755C169.303 44.614 169.627 45.5134 170.276 46.2737C170.944 47.034 171.918 47.5996 173.197 47.9705L175.673 48.666C176.155 48.7958 176.563 48.9905 176.897 49.2501C177.249 49.4912 177.425 49.825 177.425 50.2515C177.425 50.7522 177.221 51.1509 176.813 51.4477C176.424 51.7258 175.905 51.8649 175.256 51.8649C174.403 51.8649 173.633 51.6238 172.947 51.1417C172.261 50.6595 171.714 49.9919 171.306 49.1388L168.58 50.4462C169.025 51.7444 169.841 52.7829 171.028 53.5617C172.233 54.3406 173.642 54.7301 175.256 54.7301Z" fill="#3B82F6"/>
<path fill-rule="evenodd" clip-rule="evenodd" d="M223.943 10.1106V7.65288H218.698V32.5752H223.943V23.449C223.943 25.3225 225.747 26.2577 229.36 26.2577C232.972 26.2577 234.782 24.7382 234.782 21.6946V11.8666C234.782 8.82302 232.972 7.30356 229.36 7.30356C225.747 7.30356 223.943 8.23874 223.943 10.1106ZM229.537 20.6403C229.537 22.0454 228.604 22.7472 226.74 22.7472C224.876 22.7472 223.943 22.0454 223.943 20.6403V12.9193C223.943 11.5142 224.876 10.8124 226.74 10.8124C228.604 10.8124 229.537 11.5142 229.537 12.9193V20.6403Z" fill="#0F172A"/>
<path fill-rule="evenodd" clip-rule="evenodd" d="M212.259 25.9055C211.326 25.9055 210.86 25.279 210.86 24.0101C210.86 25.5124 209.876 26.258 207.922 26.258C203.584 26.258 201.42 24.737 201.42 21.6949V19.3123C201.42 16.1732 203.866 14.6004 208.762 14.6004C210.161 14.6004 210.86 14.1634 210.86 13.2705V12.5688C210.86 11.3986 210.161 10.8128 208.762 10.8128C207.686 10.8128 207.149 11.3986 207.149 12.5688V13.2705H201.904V11.867C201.904 8.82337 204.188 7.30234 208.762 7.30234C213.656 7.30234 216.105 8.82337 216.105 11.867V23.4493C216.105 25.0879 216.57 25.9055 217.503 25.9055H212.259ZM210.86 20.1362V17.0566C210.86 17.7584 210.161 18.1093 208.762 18.1093C207.363 18.1093 206.664 18.7452 206.664 20.0141V20.9931C206.664 22.1632 207.363 22.7475 208.762 22.7475C210.161 22.7475 210.86 21.8766 210.86 20.1362Z" fill="#0F172A"/>
<path fill-rule="evenodd" clip-rule="evenodd" d="M174.858 7.65323H180.105V10.1094C180.105 8.23908 181.465 7.30234 184.188 7.30234C186.916 7.30234 188.538 8.05581 189.054 9.54864C189.712 8.05581 191.614 7.30234 194.761 7.30234C197.899 7.30234 199.471 8.82337 199.471 11.8654V25.9056H194.224V12.9181C194.224 11.5145 193.48 10.8128 191.991 10.8128C190.495 10.8128 189.756 11.5145 189.756 12.9181V25.9056H184.648V12.9181C184.648 11.5145 183.891 10.8128 182.375 10.8128C180.86 10.8128 180.105 11.5145 180.105 12.9181V25.9056H174.858V7.65323Z" fill="#0F172A"/>
<path fill-rule="evenodd" clip-rule="evenodd" d="M172.367 11.8655C172.367 8.82348 169.686 7.30245 164.325 7.30245C158.963 7.30245 156.283 8.82348 156.283 11.8655V21.695C156.283 24.7371 158.963 26.2581 164.325 26.2581C169.686 26.2581 172.367 24.7371 172.367 21.695V20.2899H167.122V20.9933C167.122 22.1634 166.189 22.7477 164.325 22.7477C162.459 22.7477 161.528 22.1634 161.528 20.9933V18.5355H172.367V11.8655ZM167.122 12.5689V15.0251H161.528V12.5689C161.528 11.3988 162.459 10.8129 164.325 10.8129C166.189 10.8129 167.122 11.3988 167.122 12.5689Z" fill="#0F172A"/>
<path fill-rule="evenodd" clip-rule="evenodd" d="M148.901 10.1106V7.65288H154.147V28.7154C154.147 31.2891 151.465 32.5752 146.104 32.5752C140.744 32.5752 138.062 31.2891 138.062 28.7154V27.6628H143.308V28.0121C143.308 28.7154 144.24 29.0663 146.104 29.0663C147.969 29.0663 148.901 28.7154 148.901 28.0121V23.449C148.901 25.3225 147.097 26.2577 143.483 26.2577C139.871 26.2577 138.062 24.7382 138.062 21.6946V11.8666C138.062 8.82302 139.871 7.30356 143.483 7.30356C147.097 7.30356 148.901 8.23874 148.901 10.1106ZM143.308 20.9928C143.308 22.1629 144.24 22.7472 146.104 22.7472C147.969 22.7472 148.901 22.1629 148.901 20.9928V12.5684C148.901 11.3982 147.969 10.8124 146.104 10.8124C144.24 10.8124 143.308 11.3982 143.308 12.5684V20.9928Z" fill="#0F172A"/>
<path fill-rule="evenodd" clip-rule="evenodd" d="M122.661 7.65312H127.906V10.1093C127.906 8.23897 129.391 7.30223 132.376 7.30223C135.363 7.30223 136.855 8.82326 136.855 11.8653V13.9722H131.612V12.5687C131.612 11.3985 130.996 10.8127 129.755 10.8127C128.515 10.8127 127.906 11.3985 127.906 12.5687V25.9054H122.661V7.65312Z" fill="#0F172A"/>
<path fill-rule="evenodd" clip-rule="evenodd" d="M116.307 25.9055C115.374 25.9055 114.907 25.279 114.907 24.0101C114.907 25.5124 113.924 26.258 111.97 26.258C107.631 26.258 105.468 24.737 105.468 21.6949V19.3123C105.468 16.1732 107.915 14.6004 112.809 14.6004C114.209 14.6004 114.907 14.1634 114.907 13.2705V12.5688C114.907 11.3986 114.209 10.8128 112.809 10.8128C111.733 10.8128 111.201 11.3986 111.201 12.5688V13.2705H105.956V11.867C105.956 8.82337 108.236 7.30234 112.809 7.30234C117.705 7.30234 120.152 8.82337 120.152 11.867V23.4493C120.152 25.0879 120.617 25.9055 121.55 25.9055H116.307ZM114.907 20.1362V17.0566C114.907 17.7584 114.209 18.1093 112.809 18.1093C111.411 18.1093 110.711 18.7452 110.711 20.0141V20.9931C110.711 22.1632 111.411 22.7475 112.809 22.7475C114.209 22.7475 114.907 21.8766 114.907 20.1362Z" fill="#0F172A"/>
<path fill-rule="evenodd" clip-rule="evenodd" d="M87.3826 0H92.6291V10.1804C92.6291 8.30847 94.4328 7.37173 98.0464 7.37173C101.658 7.37173 103.467 8.89275 103.467 11.9348V25.9765H97.8726V12.6366C97.8726 11.4664 97.0569 10.8806 95.4254 10.8806C93.5591 10.8806 92.6291 11.4664 92.6291 12.6366V25.9765H87.3826V0Z" fill="#0F172A"/>
<path fill-rule="evenodd" clip-rule="evenodd" d="M85.3627 21.6594C85.3627 24.6999 82.4489 26.2225 76.6215 26.2225C70.7941 26.2225 67.8804 24.6999 67.8804 21.6594V4.8091C67.8804 1.76862 70.7941 0.246023 76.6215 0.246023C82.4489 0.246023 85.3627 1.76862 85.3627 4.8091V8.31952H80.1177V5.51087C80.1177 4.10733 78.9528 3.40556 76.6215 3.40556C74.2918 3.40556 73.1254 4.10733 73.1254 5.51087V20.9577C73.1254 22.1278 74.2918 22.7121 76.6215 22.7121C78.9528 22.7121 80.1177 22.1278 80.1177 20.9577V18.149H85.3627V21.6594Z" fill="#0F172A"/>
<path fill-rule="evenodd" clip-rule="evenodd" d="M49.4648 0H6.9012C2.34089 0 0 2.32577 0 6.85703V31.4285H20.7748C22.075 31.4285 23.5643 33.2119 23.5643 34.2169L23.5129 46.3546C23.9381 46.7883 24.9508 47.074 25.376 47.074C25.9519 47.074 26.6014 46.9259 27.0336 46.6403V27.2743C22.6964 26.3595 20.1312 21.6802 20.1312 14.2865H22.4312V8.85665C22.4312 8.38248 22.8179 7.99967 23.2945 7.99967H25.0198C25.4964 7.99967 25.883 8.38248 25.883 8.85665V14.2865H31.6336V8.85665C31.6336 8.38248 32.0191 7.99967 32.498 7.99967H34.2221C34.6999 7.99967 35.0854 8.38248 35.0854 8.85665V14.2865H36.8971C36.8971 21.354 34.4931 25.9373 30.4842 27.132V46.7883C30.4842 49.6067 27.8209 50.5262 25.3071 50.4799C22.3051 50.429 20.1312 49.6461 20.1312 46.8577V34.7605L0 34.816V49.143C0 53.6754 2.34089 56 6.9012 56H49.4648C54.0251 56 56.366 53.6754 56.366 49.143V6.85703C56.366 2.32577 54.0251 0 49.4648 0Z" fill="#3B82F6"/>
<path d="M20.8144 31.4676H0V34.8532L20.1695 34.7977V46.888C20.1695 49.6747 22.3475 50.4573 25.3553 50.5081C27.8738 50.5544 30.5422 49.6354 30.5422 46.8186V27.1736C34.5588 25.9796 36.9673 21.399 36.9673 14.3355H35.1521V8.90874C35.1521 8.43484 34.7659 8.05225 34.2873 8.05225H32.5598C32.08 8.05225 31.6938 8.43484 31.6938 8.90874V14.3355H25.9322V8.90874C25.9322 8.43484 25.5449 8.05225 25.0674 8.05225H23.3388C22.8613 8.05225 22.4739 8.43484 22.4739 8.90874V14.3355H20.1695C20.1695 21.7249 22.7396 26.4015 27.085 27.3158V46.6707C26.652 46.9562 26.0013 47.1041 25.4243 47.1041C24.9983 47.1041 23.9836 46.8186 23.5576 46.3852L23.6091 34.2544C23.6091 33.25 22.117 31.4676 20.8144 31.4676Z" fill="white"/>
</svg>
