<svg width="96" height="89" viewBox="0 0 96 89" fill="none" xmlns="http://www.w3.org/2000/svg">
<path d="M29.8274 75.9317C29.8274 77.0373 27.3502 77.9335 24.2945 77.9335C21.2387 77.9335 18.7615 77.0373 18.7615 75.9317C18.7615 74.8261 20.0041 76.22 23.0599 76.22C26.1157 76.22 29.8274 74.8261 29.8274 75.9317Z" fill="#3B82F6"/>
<path d="M29.8274 75.9317C29.8274 77.0373 27.3502 77.9335 24.2945 77.9335C21.2387 77.9335 18.7615 77.0373 18.7615 75.9317C18.7615 74.8261 20.0041 76.22 23.0599 76.22C26.1157 76.22 29.8274 74.8261 29.8274 75.9317Z" fill="#3B82F6"/>
<path d="M26.3202 76.9097C23.609 77.6443 20.1511 77.6312 18.5968 76.8803C17.0424 76.1295 18.3342 75.9025 21.0454 75.1678C23.7565 74.4332 23.9441 75.3466 25.4985 76.0975C27.0528 76.8483 29.0314 76.175 26.3202 76.9097Z" fill="#3B82F6"/>
<path d="M36.5253 78.4468C36.5253 79.4106 34.3088 80.192 31.5747 80.192C28.8406 80.192 26.6241 79.4106 26.6241 78.4468C26.6241 77.483 28.8406 76.7016 31.5747 76.7016C34.3088 76.7016 36.5253 77.483 36.5253 78.4468Z" fill="#3B82F6"/>
<path d="M36.5253 78.4468C36.5253 79.4106 34.3088 80.192 31.5747 80.192C28.8406 80.192 26.6241 79.4106 26.6241 78.4468C26.6241 77.483 28.8406 76.7016 31.5747 76.7016C34.3088 76.7016 36.5253 77.483 36.5253 78.4468Z" fill="#3B82F6"/>
<path d="M33.3872 79.2994C30.9614 79.9399 27.8675 79.9284 26.4768 79.2738C25.086 78.6192 25.9251 77.5694 28.3509 76.9289C30.7767 76.2884 33.8706 76.2999 35.2613 76.9545C36.6521 77.6091 35.813 78.6589 33.3872 79.2994Z" fill="#3B82F6"/>
<path d="M26.3329 77.9848C26.3329 79.2038 23.5298 80.192 20.0719 80.192C16.614 80.192 13.8109 79.2038 13.8109 77.9848C13.8109 76.7659 16.614 75.7777 20.0719 75.7777C23.5298 75.7777 26.3329 76.7659 26.3329 77.9848Z" fill="#3B82F6"/>
<path d="M26.3329 77.9848C26.3329 79.2038 23.5298 80.192 20.0719 80.192C16.614 80.192 13.8109 79.2038 13.8109 77.9848C13.8109 76.7659 16.614 75.7777 20.0719 75.7777C23.5298 75.7777 26.3329 76.7659 26.3329 77.9848Z" fill="#3B82F6"/>
<path d="M22.3642 79.0631C19.2963 79.8731 15.3834 79.8587 13.6245 79.0308C11.8656 78.2029 12.9268 76.8751 15.9948 76.0651C19.0627 75.2551 22.9756 75.2696 24.7344 76.0975C26.4933 76.9253 25.4321 78.2531 22.3642 79.0631Z" fill="#3B82F6"/>
<path d="M33.0307 77.6769C33.0307 78.9525 30.0972 79.9867 26.4785 79.9867C22.8598 79.9867 19.9263 78.9525 19.9263 77.6769C19.9263 76.4012 22.8598 75.3671 26.4785 75.3671C30.0972 75.3671 33.0307 76.4012 33.0307 77.6769Z" fill="#3B82F6"/>
<path d="M33.0307 77.6769C33.0307 78.9525 30.0972 79.9867 26.4785 79.9867C22.8598 79.9867 19.9263 78.9525 19.9263 77.6769C19.9263 76.4012 22.8598 75.3671 26.4785 75.3671C30.0972 75.3671 33.0307 76.4012 33.0307 77.6769Z" fill="#3B82F6"/>
<path d="M28.8774 78.8053C25.6668 79.653 21.5719 79.6378 19.7313 78.7715C17.8906 77.9051 19.0011 76.5156 22.2117 75.6679C25.4223 74.8202 29.5172 74.8353 31.3579 75.7017C33.1986 76.5681 32.088 77.9576 28.8774 78.8053Z" fill="#3B82F6"/>
<path d="M29.54 79.0631C29.54 80.027 27.3235 80.8083 24.5894 80.8083C22.8173 80.8083 21.2627 80.4801 20.3881 79.9867C19.9133 79.7188 19.6388 79.4023 19.6388 79.0631C19.6388 78.0993 21.8553 77.3179 24.5894 77.3179C27.3235 77.3179 29.54 78.0993 29.54 79.0631Z" fill="#3B82F6"/>
<path d="M29.54 79.0631C29.54 80.027 27.3235 80.8083 24.5894 80.8083C22.8173 80.8083 21.2627 80.4801 20.3881 79.9867C19.9133 79.7188 19.6388 79.4023 19.6388 79.0631C19.6388 78.0993 21.8553 77.3179 24.5894 77.3179C27.3235 77.3179 29.54 78.0993 29.54 79.0631Z" fill="#3B82F6"/>
<path d="M29.8927 80.1207C27.4669 80.7611 24.373 80.7497 22.9823 80.0951C21.5915 79.4405 22.4306 78.3906 24.8564 77.7502C27.2822 77.1097 30.3761 77.1211 31.7668 77.7757C33.1576 78.4303 32.3185 79.4802 29.8927 80.1207Z" fill="#3B82F6"/>
<path d="M19.3439 79.422C19.3439 79.9607 18.1053 80.3973 16.5774 80.3973C15.0495 80.3973 13.8109 79.9607 13.8109 79.422C13.8109 78.8834 15.0495 78.4468 16.5774 78.4468C18.1053 78.4468 19.3439 78.8834 19.3439 79.422Z" fill="#3B82F6"/>
<path d="M19.3439 79.422C19.3439 79.9607 18.1053 80.3973 16.5774 80.3973C15.0495 80.3973 13.8109 79.9607 13.8109 79.422C13.8109 78.8834 15.0495 78.4468 16.5774 78.4468C18.1053 78.4468 19.3439 78.8834 19.3439 79.422Z" fill="#3B82F6"/>
<path d="M17.5903 79.8985C16.2347 80.2564 14.5057 80.25 13.7286 79.8842C12.9514 79.5184 13.4203 78.9317 14.7759 78.5738C16.1315 78.2159 17.8604 78.2223 18.6376 78.5881C19.4148 78.9539 18.9459 79.5406 17.5903 79.8985Z" fill="#3B82F6"/>
<path d="M24.5168 10.6813C24.5168 8.30703 26.4284 6.38232 28.7865 6.38232H67.2135C69.5715 6.38232 71.4831 8.30704 71.4831 10.6813V78.6588H24.5168V10.6813Z" fill="#91C3FD"/>
<rect x="27.7191" y="14.1743" width="40.2949" height="3.7616" rx="1.8808" fill="#CBD5E1"/>
<rect x="27.7191" y="14.1743" width="40.2949" height="3.7616" rx="1.8808" fill="#1D4FD7"/>
<mask id="mask0_2478_19701" style="mask-type:alpha" maskUnits="userSpaceOnUse" x="63" y="77" width="11" height="5">
<path d="M72.4063 77.5065C72.1909 77.2173 71.8516 77.047 71.4911 77.047H68.7701C68.0906 77.047 67.4264 77.2492 66.8621 77.628L65.9659 78.2295C65.6982 78.4092 65.3943 78.528 65.0757 78.5773L64.6263 78.6469C63.8116 78.7731 63.2106 79.4744 63.2106 80.2988C63.2106 80.9142 63.7095 81.4131 64.325 81.4131H72.5957C73.2002 81.4131 73.6902 80.9231 73.6902 80.3186C73.6902 79.6118 73.4621 78.9239 73.0399 78.3571L72.4063 77.5065Z" fill="#61A6FA"/>
</mask>
<g mask="url(#mask0_2478_19701)">
<path d="M72.2447 77.047H68.7701C68.0906 77.047 67.4264 77.2492 66.8621 77.628L65.9659 78.2295C65.6982 78.4092 65.3943 78.528 65.0757 78.5773L64.6263 78.6469C63.8116 78.7731 63.2106 79.4744 63.2106 80.2988C63.2106 80.9142 63.7095 81.4131 64.325 81.4131H72.1863C73.0169 81.4131 73.6902 80.7398 73.6902 79.9092C73.6902 79.4663 73.5598 79.0331 73.3152 78.6638L72.2447 77.047Z" fill="#2463EB"/>
<rect width="7.95002" height="1.45538" transform="matrix(-1 0 0 1 73.3289 77.047)" fill="#1E3FAE"/>
</g>
<ellipse rx="1.08409" ry="1.09154" transform="matrix(-1 0 0 1 65.3788 81.0493)" fill="#1D4FD7"/>
<ellipse rx="0.722729" ry="0.72769" transform="matrix(-1 0 0 1 65.3788 81.0493)" fill="#2463EB"/>
<ellipse rx="1.08409" ry="1.09154" transform="matrix(-1 0 0 1 71.8833 81.0493)" fill="#2463EB"/>
<ellipse rx="0.722729" ry="0.72769" transform="matrix(-1 0 0 1 71.8833 81.0493)" fill="#2463EB"/>
<mask id="mask1_2478_19701" style="mask-type:alpha" maskUnits="userSpaceOnUse" x="66" y="77" width="12" height="6">
<path d="M76.0201 78.2341C75.8047 77.945 75.4654 77.7747 75.1049 77.7747H72.3839C71.7043 77.7747 71.0401 77.9769 70.4759 78.3556L69.5797 78.9572C69.312 79.1369 69.0081 79.2556 68.6895 79.305L68.24 79.3746C67.4254 79.5008 66.8244 80.2021 66.8244 81.0264C66.8244 81.6419 67.3233 82.1408 67.9387 82.1408H76.2094C76.8139 82.1408 77.304 81.6508 77.304 81.0463C77.304 80.3395 77.0759 79.6516 76.6537 79.0848L76.0201 78.2341Z" fill="#61A6FA"/>
</mask>
<g mask="url(#mask1_2478_19701)">
<path d="M75.8585 77.7747H72.3839C71.7043 77.7747 71.0401 77.9769 70.4759 78.3556L69.5797 78.9572C69.312 79.1369 69.0081 79.2556 68.6895 79.305L68.24 79.3746C67.4254 79.5008 66.8244 80.2021 66.8244 81.0264C66.8244 81.6419 67.3233 82.1408 67.9387 82.1408H75.8C76.6306 82.1408 77.304 81.4675 77.304 80.6369C77.304 80.1939 77.1736 79.7608 76.929 79.3915L75.8585 77.7747Z" fill="#3B82F6"/>
<rect width="7.95002" height="1.45538" transform="matrix(-1 0 0 1 76.9426 77.7747)" fill="#1D4FD7"/>
</g>
<ellipse rx="1.08409" ry="1.09154" transform="matrix(-1 0 0 1 68.9926 81.777)" fill="#1D4FD7"/>
<ellipse rx="0.722729" ry="0.72769" transform="matrix(-1 0 0 1 68.9926 81.777)" fill="#3B82F6"/>
<ellipse rx="1.08409" ry="1.09154" transform="matrix(-1 0 0 1 75.4971 81.777)" fill="#1D4FD7"/>
<ellipse rx="0.722729" ry="0.72769" transform="matrix(-1 0 0 1 75.4971 81.777)" fill="#3B82F6"/>
<mask id="mask2_2478_19701" style="mask-type:alpha" maskUnits="userSpaceOnUse" x="70" y="78" width="11" height="5">
<path d="M79.2723 78.9614C79.0569 78.6723 78.7176 78.502 78.3571 78.502H75.6361C74.9565 78.502 74.2923 78.7042 73.7281 79.0829L72.8319 79.6845C72.5642 79.8642 72.2603 79.9829 71.9417 80.0323L71.4922 80.1019C70.6776 80.2281 70.0766 80.9294 70.0766 81.7537C70.0766 82.3692 70.5755 82.8681 71.1909 82.8681H79.4616C80.0661 82.8681 80.5562 82.3781 80.5562 81.7736C80.5562 81.0668 80.3281 80.3789 79.9059 79.8121L79.2723 78.9614Z" fill="#61A6FA"/>
</mask>
<g mask="url(#mask2_2478_19701)">
<path d="M79.1107 78.502H75.6361C74.9565 78.502 74.2923 78.7042 73.7281 79.0829L72.8319 79.6845C72.5642 79.8642 72.2603 79.9829 71.9417 80.0323L71.4922 80.1019C70.6776 80.2281 70.0766 80.9294 70.0766 81.7537C70.0766 82.3692 70.5755 82.8681 71.1909 82.8681H79.0522C79.8828 82.8681 80.5562 82.1948 80.5562 81.3642C80.5562 80.9212 80.4258 80.4881 80.1812 80.1188L79.1107 78.502Z" fill="#61A6FA"/>
<rect width="7.95002" height="1.45538" transform="matrix(-1 0 0 1 80.1948 78.502)" fill="#2563EB"/>
</g>
<ellipse rx="1.08409" ry="1.09154" transform="matrix(-1 0 0 1 72.2448 82.5043)" fill="#2463EB"/>
<ellipse rx="0.722729" ry="0.72769" transform="matrix(-1 0 0 1 72.2448 82.5043)" fill="#61A6FA"/>
<ellipse rx="1.08409" ry="1.09154" transform="matrix(-1 0 0 1 78.7493 82.5043)" fill="#2463EB"/>
<ellipse rx="0.722729" ry="0.72769" transform="matrix(-1 0 0 1 78.7493 82.5043)" fill="#61A6FA"/>
<rect x="27.7191" y="22.2347" width="40.2949" height="3.7616" rx="1.8808" fill="#1D4FD7"/>
<rect x="27.7191" y="30.2954" width="40.2949" height="3.7616" rx="1.8808" fill="#1D4FD7"/>
<rect x="27.7191" y="38.3561" width="40.2949" height="3.7616" rx="1.8808" fill="#1D4FD7"/>
<rect x="27.7191" y="46.4167" width="40.2949" height="3.7616" rx="1.8808" fill="#1D4FD7"/>
<rect x="27.7191" y="54.4772" width="40.2949" height="3.7616" rx="1.8808" fill="#1D4FD7"/>
<rect x="27.7191" y="62.5378" width="40.2949" height="3.7616" rx="1.8808" fill="#1D4FD7"/>
<path d="M41.0618 76.0542C41.0618 71.8539 44.4668 68.4489 48.6671 68.4489C52.8674 68.4489 56.2724 71.8539 56.2724 76.0542V78.6589H41.0618V76.0542Z" fill="#1D4FD7"/>
<mask id="mask3_2478_19701" style="mask-type:alpha" maskUnits="userSpaceOnUse" x="24" y="6" width="35" height="73">
<path d="M24.5168 10.6813C24.5168 8.30703 26.4284 6.38232 28.7865 6.38232H54.4045C56.7626 6.38232 58.6741 8.30704 58.6741 10.6813V78.6588H24.5168V10.6813Z" fill="white"/>
</mask>
<g mask="url(#mask3_2478_19701)">
<path d="M24.5168 10.6813C24.5168 8.30703 26.4284 6.38232 28.7865 6.38232H56.8062C57.9852 6.38232 58.941 7.34468 58.941 8.53181V78.6588H24.5168V10.6813Z" fill="#F0F6FF"/>
<path d="M29.7355 73.6196C29.7355 76.5132 27.4655 78.8589 24.6653 78.8589C21.865 78.8589 19.595 76.5132 19.595 73.6196C19.595 70.7259 21.865 68.3802 24.6653 68.3802C27.4655 68.3802 29.7355 70.7259 29.7355 73.6196Z" fill="#91C3FD"/>
<path d="M29.7355 73.6196C29.7355 76.5132 27.4655 78.8589 24.6653 78.8589C21.865 78.8589 19.595 76.5132 19.595 73.6196C19.595 70.7259 21.865 68.3802 24.6653 68.3802C27.4655 68.3802 29.7355 70.7259 29.7355 73.6196Z" fill="#91C3FD"/>
<path d="M23.8555 74.2676C21.3711 76.1904 18.2024 76.156 16.778 74.1908C15.3537 72.2256 16.213 69.0737 18.6975 67.1509C21.1819 65.2281 24.3506 65.2624 25.7749 67.2276C27.1993 69.1929 26.3399 72.3447 23.8555 74.2676Z" fill="#91C3FD"/>
<path d="M35.8731 80.2024C35.8731 82.725 33.8421 84.77 31.3366 84.77C28.8312 84.77 26.8001 82.725 26.8001 80.2024C26.8001 77.6797 28.8312 75.6347 31.3366 75.6347C33.8421 75.6347 35.8731 77.6797 35.8731 80.2024Z" fill="#91C3FD"/>
<path d="M35.8731 80.2024C35.8731 82.725 33.8421 84.77 31.3366 84.77C28.8312 84.77 26.8001 82.725 26.8001 80.2024C26.8001 77.6797 28.8312 75.6347 31.3366 75.6347C33.8421 75.6347 35.8731 77.6797 35.8731 80.2024Z" fill="#91C3FD"/>
<path d="M32.9975 82.4339C30.7746 84.1102 27.9395 84.0802 26.665 82.3669C25.3906 80.6537 26.1595 77.9059 28.3824 76.2296C30.6053 74.5533 33.4405 74.5832 34.7149 76.2965C35.9893 78.0098 35.2204 80.7576 32.9975 82.4339Z" fill="#91C3FD"/>
<path d="M26.5332 78.9933C26.5332 82.1837 23.9645 84.77 20.7959 84.77C17.6272 84.77 15.0585 82.1837 15.0585 78.9933C15.0585 75.8029 17.6272 73.2165 20.7959 73.2165C23.9645 73.2165 26.5332 75.8029 26.5332 78.9933Z" fill="#91C3FD"/>
<path d="M26.5332 78.9933C26.5332 82.1837 23.9645 84.77 20.7959 84.77C17.6272 84.77 15.0585 82.1837 15.0585 78.9933C15.0585 75.8029 17.6272 73.2165 20.7959 73.2165C23.9645 73.2165 26.5332 75.8029 26.5332 78.9933Z" fill="#91C3FD"/>
<path d="M22.8964 81.8155C20.0851 83.9355 16.4995 83.8976 14.8877 81.7308C13.276 79.5641 14.2484 76.0889 17.0597 73.9689C19.871 71.8488 23.4567 71.8867 25.0684 74.0535C26.6802 76.2203 25.7078 79.6954 22.8964 81.8155Z" fill="#91C3FD"/>
<path d="M32.6709 78.1872C32.6709 81.526 29.9827 84.2327 26.6667 84.2327C23.3506 84.2327 20.6624 81.526 20.6624 78.1872C20.6624 74.8484 23.3506 72.1418 26.6667 72.1418C29.9827 72.1418 32.6709 74.8484 32.6709 78.1872Z" fill="#91C3FD"/>
<path d="M32.6709 78.1872C32.6709 81.526 29.9827 84.2327 26.6667 84.2327C23.3506 84.2327 20.6624 81.526 20.6624 78.1872C20.6624 74.8484 23.3506 72.1418 26.6667 72.1418C29.9827 72.1418 32.6709 74.8484 32.6709 78.1872Z" fill="#91C3FD"/>
<path d="M28.8649 81.1407C25.9228 83.3593 22.1704 83.3197 20.4837 81.0521C18.797 78.7845 19.8146 75.1478 22.7567 72.9291C25.6988 70.7105 29.4512 70.7501 31.1379 73.0177C32.8247 75.2852 31.807 78.922 28.8649 81.1407Z" fill="#91C3FD"/>
<path d="M32.6709 82.3519C32.6709 84.8745 30.6398 86.9195 28.1344 86.9195C25.6289 86.9195 23.5978 84.8745 23.5978 82.3519C23.5978 79.8292 25.6289 77.7842 28.1344 77.7842C30.6398 77.7842 32.6709 79.8292 32.6709 82.3519Z" fill="#91C3FD"/>
<path d="M32.6709 82.3519C32.6709 84.8745 30.6398 86.9195 28.1344 86.9195C25.6289 86.9195 23.5978 84.8745 23.5978 82.3519C23.5978 79.8292 25.6289 77.7842 28.1344 77.7842C30.6398 77.7842 32.6709 79.8292 32.6709 82.3519Z" fill="#91C3FD"/>
<path d="M29.7953 84.5834C27.5724 86.2597 24.7372 86.2297 23.4628 84.5164C22.1884 82.8032 22.9573 80.0554 25.1802 78.3791C27.4031 76.7028 30.2382 76.7327 31.5127 78.446C32.7871 80.1593 32.0182 82.9071 29.7953 84.5834Z" fill="#91C3FD"/>
<path d="M20.1287 82.7549C20.1287 84.1646 18.9937 85.3074 17.5936 85.3074C16.1935 85.3074 15.0585 84.1646 15.0585 82.7549C15.0585 81.3452 16.1935 80.2024 17.5936 80.2024C18.9937 80.2024 20.1287 81.3452 20.1287 82.7549Z" fill="#91C3FD"/>
<path d="M20.1287 82.7549C20.1287 84.1646 18.9937 85.3074 17.5936 85.3074C16.1935 85.3074 15.0585 84.1646 15.0585 82.7549C15.0585 81.3452 16.1935 80.2024 17.5936 80.2024C18.9937 80.2024 20.1287 81.3452 20.1287 82.7549Z" fill="#91C3FD"/>
<path d="M18.5218 84.0019C17.2796 84.9387 15.6952 84.9219 14.9831 83.9645C14.2709 83.0071 14.7006 81.4716 15.9428 80.5348C17.185 79.598 18.7693 79.6148 19.4815 80.5722C20.1937 81.5296 19.764 83.0652 18.5218 84.0019Z" fill="#91C3FD"/>
<rect x="27.7191" y="14.1743" width="40.2949" height="3.7616" rx="1.8808" fill="#3B82F6"/>
<rect x="27.7191" y="22.2349" width="40.2949" height="3.7616" rx="1.8808" fill="#3B82F6"/>
<rect x="27.7191" y="30.2953" width="40.2949" height="3.7616" rx="1.8808" fill="#3B82F6"/>
<rect x="27.7191" y="38.3562" width="40.2949" height="3.7616" rx="1.8808" fill="#3B82F6"/>
<rect x="27.7191" y="46.4166" width="40.2949" height="3.7616" rx="1.8808" fill="#3B82F6"/>
<rect x="27.7191" y="54.4772" width="40.2949" height="3.7616" rx="1.8808" fill="#3B82F6"/>
<rect x="27.7191" y="62.5377" width="40.2949" height="3.7616" rx="1.8808" fill="#3B82F6"/>
<path d="M40.5281 73.7005C40.5281 71.8389 42.0372 70.3297 43.8989 70.3297H52.368C54.2296 70.3297 55.7388 71.8389 55.7388 73.7005V78.659H40.5281V73.7005Z" fill="#61A6FA"/>
<path d="M41.8623 74.5065C41.8623 72.6449 43.3715 71.1357 45.2331 71.1357H55.7387V78.6589H41.8623V74.5065Z" fill="#3B82F6"/>
</g>
<mask id="mask4_2478_19701" style="mask-type:alpha" maskUnits="userSpaceOnUse" x="11" y="59" width="11" height="12">
<ellipse cx="16.2444" cy="65.0905" rx="5.07022" ry="5.23938" fill="#61A6FA"/>
</mask>
<g mask="url(#mask4_2478_19701)">
<ellipse cx="16.2444" cy="65.0903" rx="5.07022" ry="5.23938" fill="#61A6FA"/>
<ellipse rx="4.39467" ry="5.68836" transform="matrix(0.586852 0.809694 -0.790817 0.612053 15.5217 64.0918)" fill="#1E3FAE"/>
</g>
<mask id="mask5_2478_19701" style="mask-type:alpha" maskUnits="userSpaceOnUse" x="18" y="67" width="10" height="10">
<ellipse cx="22.9158" cy="71.6732" rx="4.53652" ry="4.56766" fill="#61A6FA"/>
</mask>
<g mask="url(#mask5_2478_19701)">
<ellipse cx="22.9158" cy="71.6731" rx="4.53652" ry="4.56766" fill="#61A6FA"/>
<ellipse rx="3.86626" ry="5.04109" transform="matrix(0.596841 0.80236 -0.798424 0.602095 22.2692 70.8026)" fill="#1E3FAE"/>
</g>
<mask id="mask6_2478_19701" style="mask-type:alpha" maskUnits="userSpaceOnUse" x="6" y="64" width="13" height="13">
<ellipse cx="12.3751" cy="70.464" rx="5.73736" ry="5.77674" fill="#61A6FA"/>
</mask>
<g mask="url(#mask6_2478_19701)">
<ellipse cx="12.3751" cy="70.4639" rx="5.73736" ry="5.77674" fill="#61A6FA"/>
<ellipse rx="4.88969" ry="6.3755" transform="matrix(0.596841 0.80236 -0.798424 0.602095 11.5573 69.3629)" fill="#1E3FAE"/>
</g>
<path d="M15.9775 74.8973H17.3118L17.5787 80.8084H15.7107L15.9775 74.8973Z" fill="#91C3FD"/>
<path d="M9.90313 68.5197C9.94169 68.4809 10.0044 68.4815 10.0421 68.5211L16.6279 75.4379L16.0406 75.9856L9.89753 68.652C9.86497 68.6132 9.86741 68.5556 9.90313 68.5197Z" fill="#91C3FD"/>
<mask id="mask7_2478_19701" style="mask-type:alpha" maskUnits="userSpaceOnUse" x="12" y="63" width="13" height="13">
<ellipse cx="18.2458" cy="69.6581" rx="6.00421" ry="6.04543" fill="#61A6FA"/>
</mask>
<g mask="url(#mask7_2478_19701)">
<ellipse cx="18.2458" cy="69.658" rx="6.00421" ry="6.04543" fill="#61A6FA"/>
<ellipse rx="5.11712" ry="6.67204" transform="matrix(0.596841 0.80236 -0.798424 0.602095 17.3899 68.5058)" fill="#1E3FAE"/>
</g>
<path d="M22.0149 66.4932C22.0256 66.4751 22.0483 66.4681 22.0674 66.4771C22.0884 66.487 22.0971 66.5124 22.0866 66.5331L19.3465 71.9593L18.913 71.731L22.0149 66.4932Z" fill="#91C3FD"/>
<path d="M15.6928 62.3259C15.6904 62.3089 15.7011 62.2928 15.7178 62.2885C15.7365 62.2838 15.7553 62.2957 15.7589 62.3147L17.2098 69.9404L16.8117 70.0141L15.6928 62.3259Z" fill="#91C3FD"/>
<path d="M12.886 67.2077C12.882 67.1744 12.8383 67.1652 12.8214 67.1939L11.1743 69.9913L11.4305 70.1429L12.8826 67.2277C12.8857 67.2215 12.8869 67.2145 12.886 67.2077Z" fill="#91C3FD"/>
<path d="M13.7599 64.3252C13.7496 64.2937 13.7842 64.2667 13.812 64.2845L16.3882 65.9318L16.2278 66.1837L13.7723 64.3425C13.7665 64.3381 13.7622 64.3321 13.7599 64.3252Z" fill="#91C3FD"/>
<path d="M17.41 63.415C17.4085 63.3915 17.3793 63.3817 17.3642 63.3998L16.1198 64.8842L16.2889 65.0265L17.4053 63.4318C17.4088 63.4269 17.4104 63.421 17.41 63.415Z" fill="#91C3FD"/>
<path d="M19.6535 66.3866C19.6578 66.3562 19.6958 66.3452 19.7154 66.3686L21.1499 68.077L20.9218 68.2689L19.6593 66.4116C19.6543 66.4043 19.6523 66.3954 19.6535 66.3866Z" fill="#91C3FD"/>
<mask id="mask8_2478_19701" style="mask-type:alpha" maskUnits="userSpaceOnUse" x="15" y="69" width="10" height="10">
<ellipse cx="19.7135" cy="73.8227" rx="4.53652" ry="4.56766" fill="#61A6FA"/>
</mask>
<g mask="url(#mask8_2478_19701)">
<ellipse cx="19.7135" cy="73.8225" rx="4.53652" ry="4.56766" fill="#61A6FA"/>
<ellipse rx="3.86627" ry="5.04109" transform="matrix(0.59684 0.80236 -0.798424 0.602095 19.0669 72.9521)" fill="#1E3FAE"/>
</g>
<path d="M21.3475 75.5519C21.3621 75.5616 21.3672 75.5808 21.3592 75.5964C21.3505 75.6136 21.3293 75.6201 21.3123 75.6108L17.5787 73.5454L17.7817 73.1927L21.3475 75.5519Z" fill="#91C3FD"/>
<path d="M21.5212 73.2292C21.5511 73.2349 21.5603 73.2735 21.5362 73.2923L19.7789 74.6612L19.5984 74.4235L21.496 73.234C21.5035 73.2293 21.5125 73.2276 21.5212 73.2292Z" fill="#91C3FD"/>
<rect x="32.5225" y="14.1743" width="4.80337" height="3.7616" fill="white"/>
<rect x="32.5225" y="22.2347" width="4.80337" height="3.7616" fill="white"/>
<rect x="32.5225" y="30.2954" width="4.80337" height="3.7616" fill="white"/>
<rect x="32.5225" y="38.3561" width="4.80337" height="3.7616" fill="white"/>
<rect x="32.5225" y="46.4167" width="4.80337" height="3.7616" fill="white"/>
<rect x="32.5225" y="54.4772" width="4.80337" height="3.7616" fill="white"/>
<rect x="32.5225" y="62.5378" width="4.80337" height="3.7616" fill="white"/>
</svg>
