<svg width="30" height="30" viewBox="0 0 30 30" fill="none" xmlns="http://www.w3.org/2000/svg">
<path d="M26.2348 15.3087C25.0384 15.1712 23.8932 14.7744 22.652 14.3777C21.4171 13.9842 20.0352 13.6227 18.6116 13.7155C18.4389 13.7251 18.263 13.7443 18.0934 13.7667C18.0294 13.6099 17.9527 13.4563 17.8663 13.3124C18.7076 12.4293 19.5361 11.5335 20.3455 10.6185C21.881 8.9005 23.3749 7.13768 24.7441 5.25008C22.8599 6.61939 21.0972 8.11347 19.3794 9.64914C18.4645 10.4586 17.5688 11.2872 16.6859 12.1286C16.1836 11.8311 15.6046 11.6583 14.9808 11.6583L14.9488 11.6615C14.9552 11.5783 14.9552 11.4983 14.9648 11.4152C15.1024 10.2186 15.499 9.07326 15.8957 7.83193C16.2892 6.59699 16.6507 5.21489 16.5579 3.79119C16.4715 2.37389 15.9245 1.03338 15.0736 0C15.3231 1.32772 15.4671 2.56585 15.3071 3.7624C15.1695 4.95894 14.7729 6.1075 14.373 7.34563C13.9763 8.57737 13.6148 9.96267 13.7076 11.3864C13.7172 11.5559 13.7364 11.7255 13.7588 11.8919C13.5893 11.959 13.4261 12.039 13.2726 12.1318C12.3896 11.2904 11.4939 10.4618 10.579 9.65234C8.86117 8.11667 7.09853 6.62259 5.21433 5.25328C6.58349 7.13768 8.07742 8.9005 9.61292 10.6217C10.4223 11.5367 11.2508 12.4325 12.0921 13.3156C11.7946 13.8147 11.6219 14.3969 11.6219 15.0208V15.0496C11.5515 15.0432 11.4811 15.0432 11.4139 15.0336C10.2175 14.896 9.0723 14.4993 7.83109 14.1026C6.59629 13.7091 5.21113 13.3476 3.79079 13.4403C2.37364 13.5267 1.03327 14.0738 0 14.9248C1.32758 14.6753 2.56558 14.5313 3.762 14.6913C4.95841 14.8288 6.10685 15.2256 7.34485 15.6255C8.57646 16.0222 9.96161 16.3837 11.3852 16.2909C11.5419 16.2813 11.6987 16.2653 11.8554 16.2429C11.9226 16.4093 11.9994 16.5693 12.0921 16.7228C11.2508 17.6058 10.4223 18.5017 9.61292 19.4167C8.07742 21.1347 6.58349 22.8975 5.21433 24.7851C7.10173 23.4158 8.86436 21.9249 10.5822 20.3861C11.4971 19.5766 12.3928 18.748 13.2758 17.9066C13.778 18.2041 14.357 18.3769 14.9808 18.3769L15.0512 18.3737C15.0448 18.4441 15.0448 18.5144 15.0352 18.5848C14.8976 19.7814 14.501 20.9299 14.1011 22.1681C13.7044 23.3998 13.3429 24.7851 13.4357 26.2088C13.5221 27.6261 14.0723 28.9666 14.9232 30C14.6737 28.6723 14.5329 27.4341 14.6929 26.2376C14.8305 25.0411 15.2271 23.8957 15.6238 22.6544C16.0173 21.4194 16.3788 20.0373 16.286 18.6136C16.2764 18.4505 16.2572 18.2905 16.238 18.1305C16.3948 18.0665 16.5419 17.993 16.6859 17.9066C17.5688 18.748 18.4645 19.5766 19.3794 20.3861C21.0972 21.9217 22.8599 23.4158 24.7473 24.7851C23.3781 22.8975 21.8874 21.1347 20.3487 19.4167C19.5393 18.5017 18.7108 17.6058 17.8695 16.7228C18.167 16.2237 18.3397 15.6415 18.3397 15.0176L18.3365 14.9472C18.4197 14.9536 18.5029 14.9536 18.5861 14.9664C19.7825 15.104 20.9309 15.5007 22.1689 15.9006C23.4005 16.2973 24.7857 16.6588 26.2092 16.5661C27.6264 16.4797 28.9667 15.9326 30 15.0784C28.666 15.3247 27.428 15.4655 26.2348 15.3087ZM17.0761 15.9102C16.865 16.4061 16.4747 16.806 15.9949 17.0492C15.9533 17.0716 15.9149 17.0972 15.8701 17.1163C15.627 17.2187 15.3615 17.2731 15.0864 17.2891C15.0512 17.2923 15.016 17.2987 14.9776 17.2987C14.6609 17.2987 14.3602 17.2347 14.0851 17.1163C13.5797 16.8988 13.1734 16.5021 12.9335 16.0062C12.9175 15.9742 12.8951 15.9454 12.8823 15.9102C12.7735 15.6575 12.7159 15.3759 12.7063 15.0848L12.6999 15.0176C12.6999 14.7009 12.7671 14.4001 12.8823 14.125C13.0998 13.6131 13.5029 13.2068 14.0019 12.9668C14.0307 12.954 14.0563 12.9348 14.0851 12.922C14.341 12.8133 14.6193 12.7557 14.9136 12.7461L14.9776 12.7397C15.2943 12.7397 15.595 12.8037 15.8701 12.922C16.3692 13.1364 16.7722 13.5267 17.0122 14.013C17.0313 14.0514 17.0569 14.0866 17.0729 14.125C17.1785 14.3681 17.2329 14.6369 17.2457 14.912C17.2489 14.9472 17.2553 14.9824 17.2553 15.0176C17.2585 15.3343 17.1913 15.6351 17.0761 15.9102Z" fill="#F2C488"/>
</svg>
