<?xml version="1.0" encoding="UTF-8"?>
<svg width="120px" height="120px" viewBox="0 0 120 120" version="1.1" xmlns="http://www.w3.org/2000/svg" xmlns:xlink="http://www.w3.org/1999/xlink">
    <title>Artboard Copy</title>
    <g id="Artboard-Copy" stroke="none" stroke-width="1" fill="none" fill-rule="evenodd">
        <g id="Group-3" transform="translate(2.000000, 2.000000)" fill-rule="nonzero">
            <g id="Group-2">
                <path d="M33.2894737,32.2807018 C33.2894737,33.3969393 32.3880821,34.2982456 31.2718597,34.2982456 C30.1556374,34.2982456 29.254386,33.3969393 29.254386,32.2807018 C29.254386,31.1644642 30.1556374,30.2631579 31.2718597,30.2631579 C32.3880821,30.2631579 33.2894737,31.1644642 33.2894737,32.2807018 Z" id="Path" fill="#008585"></path>
                <path d="M33.2894737,32.2807018 C33.2894737,33.3969393 32.3880821,34.2982456 31.2718597,34.2982456 C30.1556374,34.2982456 29.254386,33.3969393 29.254386,32.2807018 C29.254386,31.1644642 30.1556374,30.2631579 31.2718597,30.2631579 C32.3880821,30.2631579 33.2894737,31.1644642 33.2894737,32.2807018 Z" id="Path" fill="#328585"></path>
                <path d="M81.7105263,83.7280702 C81.7105263,82.6118326 82.6123551,81.7105263 83.7287714,81.7105263 C84.8451878,81.7105263 85.745614,82.6118326 85.745614,83.7280702 C85.745614,84.8443077 84.8451878,85.745614 83.7287714,85.745614 C82.6123551,85.745614 81.7105263,84.8443077 81.7105263,83.7280702 Z" id="Path" fill="#328585"></path>
                <path d="M83.7287714,34.2982456 C82.6123551,34.2982456 81.7105263,33.3969079 81.7105263,32.2806315 C81.7105263,31.1644956 82.6123551,30.2631579 83.7287714,30.2631579 C84.8451878,30.2631579 85.745614,31.1644956 85.745614,32.2806315 C85.745614,33.3969079 84.8451878,34.2982456 83.7287714,34.2982456 Z" id="Path" fill="#328585"></path>
                <path d="M31.2718597,81.7105263 C32.3880821,81.7105263 33.2894737,82.6118326 33.2894737,83.7280702 C33.2894737,84.8443077 32.3880821,85.745614 31.2718597,85.745614 C30.1556374,85.745614 29.254386,84.8443077 29.254386,83.7280702 C29.254386,82.6188565 30.1626488,81.7105263 31.2718597,81.7105263 Z" id="Path" fill="#328585"></path>
                <path d="M80.0391716,58.6376381 C77.5852797,58.3554836 75.2362324,57.5417296 72.6907675,56.7279757 C70.158574,55.9208701 67.3237914,55.1793169 64.4040715,55.3695917 C64.0497237,55.3892707 63.6887401,55.4286288 63.341028,55.4746351 C63.2096406,55.1531225 63.0517103,54.8381253 62.8752,54.5428071 C64.600489,52.7315398 66.2992352,50.8940781 67.9594941,49.0172584 C71.1088101,45.4932518 74.1731889,41.8774985 76.9814286,38.005652 C73.1167811,40.8144327 69.501637,43.8790406 65.978066,47.0288799 C64.1014824,48.6892305 62.2644477,50.3888061 60.453425,52.114709 C59.4231621,51.5043935 58.2356324,51.1500383 56.9559987,51.1500383 L56.8904378,51.1565536 C56.9035765,50.9859578 56.9035765,50.8218774 56.9232183,50.6512816 C57.2053694,48.1969891 58.0190422,45.84774 58.8327151,43.3014349 C59.6397522,40.7684263 60.3812283,37.9334513 60.1909157,35.0132448 C60.0137418,32.106202 58.891773,29.3565913 57.1463114,27.2368421 C57.6581914,29.9602584 57.9534812,32.4999153 57.6254109,34.9542077 C57.3432598,37.4085002 56.5295869,39.7643976 55.7094111,42.3040545 C54.8957382,44.8305476 54.1542621,47.6720381 54.3445747,50.5922445 C54.3642165,50.9400844 54.4036327,51.2877914 54.4495519,51.629116 C54.1017071,51.7668691 53.7671337,51.9309495 53.4522021,52.1212243 C51.6411795,50.3953214 49.8038794,48.6957458 47.9272958,47.0353953 C44.4037247,43.8855559 40.7883152,40.820948 36.923535,38.0123003 C39.7319075,41.8774985 42.7961535,45.4932518 45.945735,49.0239067 C47.6057285,50.9007264 49.3052709,52.7381881 51.0309581,54.5493224 C50.4207366,55.5730302 50.0663888,56.7673337 50.0663888,58.0470017 L50.0663888,58.1061717 C49.9219953,58.093008 49.7776019,58.093008 49.6398442,58.073329 C47.1858197,57.7911745 44.8367723,56.9774205 42.2909092,56.1636666 C39.7580522,55.356561 36.9168993,54.6150078 34.0035497,54.8052826 C31.0968358,54.9823938 28.3475214,56.1046296 26.2280702,57.8502115 C28.9511071,57.3382911 31.4904672,57.0429729 33.9444917,57.3711338 C36.3985163,57.6532884 38.7541994,58.4670423 41.2935595,59.2873116 C43.8197807,60.1010655 46.6609336,60.8426187 49.5807863,60.6523439 C49.9023536,60.6326649 50.2237882,60.5998222 50.5453555,60.5538158 C50.6831132,60.8951404 50.8406454,61.2231683 51.0309581,61.5381656 C49.3052709,63.3494329 47.6057285,65.1868946 45.945735,67.0637143 C42.7961535,70.5877208 39.7319075,74.2034742 36.923535,78.0753207 C40.7948182,75.2666729 44.4102277,72.2085804 47.9337988,69.0520927 C49.8105151,67.3918752 51.6476825,65.6921666 53.4587052,63.9662637 C54.4888354,64.5765791 55.6764979,64.9309344 56.9559987,64.9309344 L57.1003922,64.924419 C57.0872534,65.0686875 57.0872534,65.2130889 57.0676117,65.3574903 C56.7854606,67.8117828 55.9717877,70.1676802 55.1516118,72.7073371 C54.337939,75.2338302 53.5964629,78.0753207 53.7867755,80.9955271 C53.9639494,83.9027029 55.0925539,86.6523136 56.8380155,88.7719298 C56.3261355,86.0485135 56.0374814,83.5088567 56.3655518,81.0545642 C56.6477029,78.6002717 57.461243,76.2510226 58.2749159,73.7047175 C59.081953,71.1717089 59.8234291,68.3367339 59.6332492,65.4165274 C59.6134747,65.0818512 59.5741912,64.7538232 59.534775,64.4256623 C59.8563423,64.2944246 60.1581352,64.1435078 60.453425,63.9662637 C62.2644477,65.6921666 64.1014824,67.3918752 65.978066,69.0520927 C69.501637,72.202065 73.1167811,75.2666729 76.9880643,78.0753207 C74.1798246,74.2034742 71.1220816,70.5877208 67.9661298,67.0637143 C66.3058709,65.1868946 64.6071248,63.3494329 62.8818357,61.5381656 C63.4909955,60.5144578 63.8453433,59.3201543 63.8453433,58.0404863 L63.8387076,57.8960849 C64.0099093,57.9092486 64.1797839,57.9092486 64.3509857,57.9354429 C66.8048776,58.2177304 69.1605607,59.0313514 71.6993898,59.8517536 C74.2262747,60.6653746 77.067693,61.4069278 79.9874129,61.216653 C82.8938614,61.0395418 85.6437067,59.917306 87.7631579,58.1652087 C85.0332198,58.6704808 82.4943906,58.9592836 80.0391716,58.6376381 Z M61.2539592,59.8714326 C60.8207789,60.8884921 60.0203775,61.7088943 59.0360337,62.2075181 C58.950831,62.2535244 58.8719986,62.3060461 58.7801601,62.3454041 C58.2815516,62.555358 57.7368911,62.6669167 57.1725889,62.6997594 C57.1003922,62.7062747 57.0281955,62.7194384 56.9494957,62.7194384 C56.2998581,62.7194384 55.6831336,62.5882006 55.1188314,62.3454041 C54.0820654,61.8991691 53.2487508,61.0854152 52.7566452,60.0682228 C52.7238647,60.0026704 52.6779455,59.9435004 52.651668,59.8714326 C52.4285749,59.3529969 52.3104589,58.7755242 52.2908172,58.1782394 L52.2776785,58.0404863 C52.2776785,57.3908128 52.4154361,56.7739821 52.651668,56.20954 C53.0978543,55.1596379 53.9245332,54.3262049 54.9481605,53.8340966 C55.0072184,53.8077692 55.0597734,53.7684112 55.1188314,53.7422168 C55.6437174,53.5190993 56.2146553,53.4008923 56.8182411,53.3812132 L56.9494957,53.3680496 C57.5991334,53.3680496 58.2158579,53.4994203 58.7801601,53.7422168 C59.8037874,54.1818035 60.630599,54.9823938 61.1227045,55.9799071 C61.161988,56.0586232 61.2145429,56.1308239 61.2473234,56.20954 C61.4639136,56.7082967 61.5753938,57.2595751 61.6016713,57.8238842 C61.6081743,57.8960849 61.621313,57.9682856 61.621313,58.0404863 C61.6279487,58.6901598 61.4966941,59.3069906 61.2539592,59.8714326 Z" id="Shape" fill="#CE9040"></path>
                <path d="M16.8213144,16.8213233 C39.2498661,-5.60710776 75.7498024,-5.60710776 98.1784868,16.8213233 C120.607171,39.2497676 120.607171,75.7501228 98.1784868,98.1785672 C75.7498024,120.607144 39.2498661,120.607144 16.8213144,98.1785672 C-5.6071048,75.7501228 -5.6071048,39.2497676 16.8213144,16.8213233 Z M96.6977349,96.6974322 C118.313795,75.0816002 118.313795,39.9182903 96.6977349,18.302591 C75.0816745,-3.31314804 39.9183918,-3.31314804 18.3025965,18.302591 C-3.31319881,39.9182903 -3.31319881,75.0816002 18.3025965,96.6974322 C39.9183918,118.306624 75.0883027,118.306624 96.6977349,96.6974322 Z" id="Shape" fill="#CE9040"></path>
            </g>
        </g>
    </g>
</svg>