<svg width="80" height="80" viewBox="0 0 80 80" fill="none" xmlns="http://www.w3.org/2000/svg">
<ellipse cx="41.6975" cy="42.3914" rx="36.6331" ry="36.6331" fill="black" fill-opacity="0.1"/>
<ellipse cx="38.4075" cy="37.7703" rx="36.6331" ry="36.6331" fill="#91C3FD"/>
<path d="M75.0405 37.7703C75.0405 32.1445 73.7448 26.5943 71.2539 21.55C68.7629 16.5058 65.1436 12.103 60.6767 8.68309C56.2097 5.26318 51.0151 2.91804 45.4957 1.8295C39.9762 0.740959 34.2802 0.938273 28.8493 2.40614C23.4183 3.87401 18.3985 6.57299 14.1789 10.2938C9.95929 14.0146 6.65335 18.6573 4.51741 23.8618C2.38148 29.0664 1.47293 34.6929 1.86223 40.3052C2.25152 45.9175 3.92819 51.3647 6.76224 56.2245L38.4075 37.7703H75.0405Z" fill="#3B82F6"/>
<path d="M75.0405 37.7703C75.0405 31.0196 73.1752 24.4001 69.6504 18.6427L38.4075 37.7703H75.0405Z" fill="#BEDBFE"/>
<path d="M70.2976 19.7424C66.3371 12.7366 60.1799 7.22998 52.7771 4.07318C45.3744 0.916377 37.1381 0.285125 29.3408 2.27695L38.4075 37.7703L70.2976 19.7424Z" fill="#1E3B8A"/>
</svg>
