<?xml version="1.0" encoding="utf-8"?>
<svg width="73" height="73" viewBox="0 0 73 73" fill="none" xmlns="http://www.w3.org/2000/svg">
<path fill-rule="evenodd" clip-rule="evenodd" d="M64.0622 0H8.93779C3.03171 0 0 3.0318 0 8.93862V40.9693H26.9056C28.5894 40.9693 30.5183 43.294 30.5183 44.6042L30.4517 60.4265C31.0024 60.9919 32.314 61.3643 32.8647 61.3643C33.6105 61.3643 34.4516 61.1713 35.0114 60.7989V35.554C29.3942 34.3615 26.0721 28.2617 26.0721 18.6235H29.0508V11.5453C29.0508 10.9272 29.5516 10.4281 30.1688 10.4281H32.4033C33.0205 10.4281 33.5212 10.9272 33.5212 11.5453V18.6235H40.9689V11.5453C40.9689 10.9272 41.4681 10.4281 42.0884 10.4281H44.3213C44.9401 10.4281 45.4393 10.9272 45.4393 11.5453V18.6235H47.7857C47.7857 27.8365 44.6723 33.8112 39.4803 35.3685V60.9919C39.4803 64.6659 36.031 65.8645 32.7754 65.8042C28.8874 65.7378 26.0721 64.7172 26.0721 61.0823V45.3127L0 45.3851V64.0614C0 69.9697 3.03171 73 8.93779 73H64.0622C69.9683 73 73 69.9697 73 64.0614V8.93862C73 3.0318 69.9683 0 64.0622 0Z" fill="#3B82F6"/>
<path d="M26.9568 41.0205H0V45.4337L26.1217 45.3614V61.122C26.1217 64.7547 28.9424 65.7748 32.8378 65.8411C36.0996 65.9014 39.5554 64.7035 39.5554 61.0316V35.4229C44.7573 33.8664 47.8766 27.8952 47.8766 18.6875H45.5258V11.6133C45.5258 10.9956 45.0256 10.4968 44.4057 10.4968H42.1685C41.547 10.4968 41.0468 10.9956 41.0468 11.6133V18.6875H33.585V11.6133C33.585 10.9956 33.0833 10.4968 32.4649 10.4968H30.2262C29.6078 10.4968 29.1061 10.9956 29.1061 11.6133V18.6875H26.1217C26.1217 28.3201 29.4502 34.4164 35.078 35.6082V60.8387C34.5172 61.2109 33.6745 61.4037 32.9272 61.4037C32.3755 61.4037 31.0614 61.0316 30.5097 60.4665L30.5764 44.6532C30.5764 43.3439 28.6438 41.0205 26.9568 41.0205Z" fill="white"/>
</svg>
