<svg width="11" height="7" viewBox="0 0 11 7" fill="none" xmlns="http://www.w3.org/2000/svg">
<path fill-rule="evenodd" clip-rule="evenodd" d="M0.293031 1.29296C0.480558 1.10549 0.734866 1.00017 1.00003 1.00017C1.26519 1.00017 1.5195 1.10549 1.70703 1.29296L5.00003 4.58596L8.29303 1.29296C8.38528 1.19745 8.49562 1.12127 8.61763 1.06886C8.73963 1.01645 8.87085 0.988862 9.00363 0.987709C9.13641 0.986555 9.26809 1.01186 9.39098 1.06214C9.51388 1.11242 9.62553 1.18667 9.71943 1.28056C9.81332 1.37446 9.88757 1.48611 9.93785 1.60901C9.98813 1.7319 10.0134 1.86358 10.0123 1.99636C10.0111 2.12914 9.98354 2.26036 9.93113 2.38236C9.87872 2.50437 9.80254 2.61471 9.70703 2.70696L5.70703 6.70696C5.5195 6.89443 5.26519 6.99975 5.00003 6.99975C4.73487 6.99975 4.48056 6.89443 4.29303 6.70696L0.293031 2.70696C0.10556 2.51943 0.000244141 2.26512 0.000244141 1.99996C0.000244141 1.73479 0.10556 1.48049 0.293031 1.29296Z" fill="#64748B"/>
</svg>
